<?xml version="1.0" encoding="UTF-8" standalone="no"?>
<!-- Created with Inkscape (http://www.inkscape.org/) -->

<svg
   xmlns:osb="http://www.openswatchbook.org/uri/2009/osb"
   xmlns:dc="http://purl.org/dc/elements/1.1/"
   xmlns:cc="http://creativecommons.org/ns#"
   xmlns:rdf="http://www.w3.org/1999/02/22-rdf-syntax-ns#"
   xmlns:svg="http://www.w3.org/2000/svg"
   xmlns="http://www.w3.org/2000/svg"
   xmlns:sodipodi="http://sodipodi.sourceforge.net/DTD/sodipodi-0.dtd"
   xmlns:inkscape="http://www.inkscape.org/namespaces/inkscape"
   inkscape:export-ydpi="96"
   inkscape:export-xdpi="96"
   inkscape:export-filename="C:\Users\reg53\Goldlab Dropbox\Raymond Goldstein\PartIII_BiologicalPhysics21\LectureNotes\Figure_fluctuatingstring.png"
   sodipodi:docname="Figure_Eulerbuckling.svg"
   inkscape:version="0.91 r13725"
   version="1.1"
   id="svg2"
   viewBox="0 0 1052.3622 744.09448"
   height="210mm"
   width="297mm">
  <sodipodi:namedview
     inkscape:window-maximized="0"
     inkscape:window-y="0"
     inkscape:window-x="-8"
     inkscape:window-height="1440"
     inkscape:window-width="2560"
     showgrid="false"
     inkscape:current-layer="layer1"
     inkscape:document-units="px"
     inkscape:cy="452.23949"
     inkscape:cx="298.57837"
     inkscape:zoom="1.979899"
     inkscape:pageshadow="2"
     inkscape:pageopacity="0.0"
     borderopacity="1.0"
     bordercolor="#666666"
     pagecolor="#ffffff"
     id="base" />
  <defs
     id="defs4">
    <marker
       inkscape:stockid="Arrow2Mend"
       orient="auto"
       refY="0.0"
       refX="0.0"
       id="marker5703"
       style="overflow:visible;"
       inkscape:isstock="true">
      <path
         id="path5705"
         style="fill-rule:evenodd;stroke-width:0.625;stroke-linejoin:round;stroke:#000000;stroke-opacity:1;fill:#000000;fill-opacity:1"
         d="M 8.7185878,4.0337352 L -2.2072895,0.016013256 L 8.7185884,-4.0017078 C 6.9730900,-1.6296469 6.9831476,1.6157441 8.7185878,4.0337352 z "
         transform="scale(0.6) rotate(180) translate(0,0)" />
    </marker>
    <marker
       inkscape:isstock="true"
       style="overflow:visible;"
       id="marker5304"
       refX="0.0"
       refY="0.0"
       orient="auto"
       inkscape:stockid="Arrow2Mend"
       inkscape:collect="always">
      <path
         transform="scale(0.6) rotate(180) translate(0,0)"
         d="M 8.7185878,4.0337352 L -2.2072895,0.016013256 L 8.7185884,-4.0017078 C 6.9730900,-1.6296469 6.9831476,1.6157441 8.7185878,4.0337352 z "
         style="fill-rule:evenodd;stroke-width:0.625;stroke-linejoin:round;stroke:#000000;stroke-opacity:1;fill:#000000;fill-opacity:1"
         id="path5306" />
    </marker>
    <marker
       inkscape:stockid="Arrow1Send"
       orient="auto"
       refY="0.0"
       refX="0.0"
       id="Arrow1Send"
       style="overflow:visible;"
       inkscape:isstock="true">
      <path
         id="path4728"
         d="M 0.0,0.0 L 5.0,-5.0 L -12.5,0.0 L 5.0,5.0 L 0.0,0.0 z "
         style="fill-rule:evenodd;stroke:#000000;stroke-width:1pt;stroke-opacity:1;fill:#000000;fill-opacity:1"
         transform="scale(0.2) rotate(180) translate(6,0)" />
    </marker>
    <marker
       inkscape:isstock="true"
       style="overflow:visible;"
       id="marker5028"
       refX="0.0"
       refY="0.0"
       orient="auto"
       inkscape:stockid="Arrow2Mend">
      <path
         transform="scale(0.6) rotate(180) translate(0,0)"
         d="M 8.7185878,4.0337352 L -2.2072895,0.016013256 L 8.7185884,-4.0017078 C 6.9730900,-1.6296469 6.9831476,1.6157441 8.7185878,4.0337352 z "
         style="fill-rule:evenodd;stroke-width:0.625;stroke-linejoin:round;stroke:#000000;stroke-opacity:1;fill:#000000;fill-opacity:1"
         id="path5030" />
    </marker>
    <marker
       inkscape:stockid="Arrow2Mend"
       orient="auto"
       refY="0.0"
       refX="0.0"
       id="marker4969"
       style="overflow:visible;"
       inkscape:isstock="true">
      <path
         id="path4740"
         style="fill-rule:evenodd;stroke-width:0.625;stroke-linejoin:round;stroke:#000000;stroke-opacity:1;fill:#000000;fill-opacity:1"
         d="M 8.7185878,4.0337352 L -2.2072895,0.016013256 L 8.7185884,-4.0017078 C 6.9730900,-1.6296469 6.9831476,1.6157441 8.7185878,4.0337352 z "
         transform="scale(0.6) rotate(180) translate(0,0)" />
    </marker>
    <marker
       inkscape:stockid="Arrow2Mend"
       orient="auto"
       refY="0.0"
       refX="0.0"
       id="marker4964"
       style="overflow:visible;"
       inkscape:isstock="true"
       inkscape:collect="always">
      <path
         id="path4618"
         style="fill-rule:evenodd;stroke-width:0.625;stroke-linejoin:round;stroke:#000000;stroke-opacity:1;fill:#000000;fill-opacity:1"
         d="M 8.7185878,4.0337352 L -2.2072895,0.016013256 L 8.7185884,-4.0017078 C 6.9730900,-1.6296469 6.9831476,1.6157441 8.7185878,4.0337352 z "
         transform="scale(0.6) rotate(180) translate(0,0)" />
    </marker>
    <marker
       inkscape:stockid="Arrow2Lend"
       orient="auto"
       refY="0.0"
       refX="0.0"
       id="marker4847"
       style="overflow:visible;"
       inkscape:isstock="true">
      <path
         id="path4612"
         style="fill-rule:evenodd;stroke-width:0.625;stroke-linejoin:round;stroke:#000000;stroke-opacity:1;fill:#000000;fill-opacity:1"
         d="M 8.7185878,4.0337352 L -2.2072895,0.016013256 L 8.7185884,-4.0017078 C 6.9730900,-1.6296469 6.9831476,1.6157441 8.7185878,4.0337352 z "
         transform="scale(1.1) rotate(180) translate(1,0)" />
    </marker>
    <marker
       inkscape:isstock="true"
       style="overflow:visible"
       id="marker4411"
       refX="0"
       refY="0"
       orient="auto"
       inkscape:stockid="Arrow1Mend">
      <path
         transform="matrix(-0.4,0,0,-0.4,-4,0)"
         style="fill:#0000fa;fill-opacity:1;fill-rule:evenodd;stroke:#0000fa;stroke-width:1pt;stroke-opacity:1"
         d="M 0,0 5,-5 -12.5,0 5,5 0,0 Z"
         id="path4413"
         inkscape:connector-curvature="0" />
    </marker>
    <marker
       inkscape:stockid="Arrow1Mstart"
       orient="auto"
       refY="0.0"
       refX="0.0"
       id="Arrow1Mstart"
       style="overflow:visible"
       inkscape:isstock="true">
      <path
         id="path1045"
         d="M 0.0,0.0 L 5.0,-5.0 L -12.5,0.0 L 5.0,5.0 L 0.0,0.0 z "
         style="fill-rule:evenodd;stroke:#000000;stroke-width:1pt;stroke-opacity:1;fill:#000000;fill-opacity:1"
         transform="scale(0.4) translate(10,0)" />
    </marker>
    <marker
       inkscape:stockid="Arrow2Lstart"
       orient="auto"
       refY="0.0"
       refX="0.0"
       id="Arrow2Lstart"
       style="overflow:visible"
       inkscape:isstock="true">
      <path
         id="path1057"
         style="fill-rule:evenodd;stroke-width:0.625;stroke-linejoin:round;stroke:#000000;stroke-opacity:1;fill:#000000;fill-opacity:1"
         d="M 8.7185878,4.0337352 L -2.2072895,0.016013256 L 8.7185884,-4.0017078 C 6.9730900,-1.6296469 6.9831476,1.6157441 8.7185878,4.0337352 z "
         transform="scale(1.1) translate(1,0)" />
    </marker>
    <linearGradient
       id="linearGradient981"
       osb:paint="solid">
      <stop
         style="stop-color:#000000;stop-opacity:1;"
         offset="0"
         id="stop979" />
    </linearGradient>
    <marker
       inkscape:stockid="Arrow2Lend"
       orient="auto"
       refY="0.0"
       refX="0.0"
       id="Arrow2Lend"
       style="overflow:visible;"
       inkscape:isstock="true">
      <path
         id="path4324"
         style="fill-rule:evenodd;stroke-width:0.625;stroke-linejoin:round;stroke:#0000ff;stroke-opacity:1;fill:#0000ff;fill-opacity:1"
         d="M 8.7185878,4.0337352 L -2.2072895,0.016013256 L 8.7185884,-4.0017078 C 6.9730900,-1.6296469 6.9831476,1.6157441 8.7185878,4.0337352 z "
         transform="scale(1.1) rotate(180) translate(1,0)" />
    </marker>
    <marker
       inkscape:stockid="Arrow1Lend"
       orient="auto"
       refY="0.0"
       refX="0.0"
       id="marker4559"
       style="overflow:visible;"
       inkscape:isstock="true">
      <path
         id="path4306"
         d="M 0.0,0.0 L 5.0,-5.0 L -12.5,0.0 L 5.0,5.0 L 0.0,0.0 z "
         style="fill-rule:evenodd;stroke:#000000;stroke-width:1pt;stroke-opacity:1;fill:#000000;fill-opacity:1"
         transform="scale(0.8) rotate(180) translate(12.5,0)" />
    </marker>
    <marker
       inkscape:stockid="Arrow1Mend"
       orient="auto"
       refY="0.0"
       refX="0.0"
       id="Arrow1Mend"
       style="overflow:visible;"
       inkscape:isstock="true">
      <path
         id="path4218"
         d="M 0.0,0.0 L 5.0,-5.0 L -12.5,0.0 L 5.0,5.0 L 0.0,0.0 z "
         style="fill-rule:evenodd;stroke:#000000;stroke-width:1pt;stroke-opacity:1;fill:#000000;fill-opacity:1"
         transform="scale(0.4) rotate(180) translate(10,0)" />
    </marker>
    <marker
       inkscape:stockid="Arrow2Mend"
       orient="auto"
       refY="0.0"
       refX="0.0"
       id="Arrow2Mend"
       style="overflow:visible;"
       inkscape:isstock="true">
      <path
         id="path4236"
         style="fill-rule:evenodd;stroke-width:0.625;stroke-linejoin:round;stroke:#ff0000;stroke-opacity:1;fill:#ff0000;fill-opacity:1"
         d="M 8.7185878,4.0337352 L -2.2072895,0.016013256 L 8.7185884,-4.0017078 C 6.9730900,-1.6296469 6.9831476,1.6157441 8.7185878,4.0337352 z "
         transform="scale(0.6) rotate(180) translate(0,0)" />
    </marker>
    <marker
       inkscape:stockid="Arrow1Lend"
       orient="auto"
       refY="0.0"
       refX="0.0"
       id="Arrow1Lend"
       style="overflow:visible;"
       inkscape:isstock="true">
      <path
         id="path4212"
         d="M 0.0,0.0 L 5.0,-5.0 L -12.5,0.0 L 5.0,5.0 L 0.0,0.0 z "
         style="fill-rule:evenodd;stroke:#ff0000;stroke-width:1pt;stroke-opacity:1;fill:#ff0000;fill-opacity:1"
         transform="scale(0.8) rotate(180) translate(12.5,0)" />
    </marker>
    <marker
       inkscape:stockid="Arrow1Mend"
       orient="auto"
       refY="0"
       refX="0"
       id="Arrow1Mend-9"
       style="overflow:visible"
       inkscape:isstock="true">
      <path
         inkscape:connector-curvature="0"
         id="path4218-0"
         d="M 0,0 5,-5 -12.5,0 5,5 0,0 Z"
         style="fill:#004600;fill-opacity:1;fill-rule:evenodd;stroke:#004600;stroke-width:1pt;stroke-opacity:1"
         transform="matrix(-0.4,0,0,-0.4,-4,0)" />
    </marker>
    <marker
       inkscape:stockid="Arrow1Mend"
       orient="auto"
       refY="0"
       refX="0"
       id="Arrow1Mend-7-4"
       style="overflow:visible"
       inkscape:isstock="true">
      <path
         inkscape:connector-curvature="0"
         id="path4218-8-1"
         d="M 0,0 5,-5 -12.5,0 5,5 0,0 Z"
         style="fill:#000000;fill-opacity:1;fill-rule:evenodd;stroke:#000000;stroke-width:1pt;stroke-opacity:1"
         transform="matrix(-0.4,0,0,-0.4,-4,0)" />
    </marker>
    <marker
       inkscape:isstock="true"
       style="overflow:visible"
       id="marker4751-2"
       refX="0"
       refY="0"
       orient="auto"
       inkscape:stockid="Arrow1Mend">
      <path
         transform="matrix(-0.4,0,0,-0.4,-4,0)"
         style="fill:#0000ff;fill-opacity:1;fill-rule:evenodd;stroke:#0000ff;stroke-width:1.00000003pt;stroke-opacity:1"
         d="M 0,0 5,-5 -12.5,0 5,5 Z"
         id="path4749-0"
         inkscape:connector-curvature="0" />
    </marker>
    <marker
       inkscape:isstock="true"
       style="overflow:visible"
       id="marker4411-3"
       refX="0"
       refY="0"
       orient="auto"
       inkscape:stockid="Arrow1Mend">
      <path
         transform="matrix(-0.4,0,0,-0.4,-4,0)"
         style="fill:#0000fa;fill-opacity:1;fill-rule:evenodd;stroke:#0000fa;stroke-width:1pt;stroke-opacity:1"
         d="M 0,0 5,-5 -12.5,0 5,5 0,0 Z"
         id="path4413-2"
         inkscape:connector-curvature="0" />
    </marker>
    <marker
       inkscape:isstock="true"
       style="overflow:visible"
       id="marker4411-3-2"
       refX="0"
       refY="0"
       orient="auto"
       inkscape:stockid="Arrow1Mend">
      <path
         transform="matrix(-0.4,0,0,-0.4,-4,0)"
         style="fill:#0000fa;fill-opacity:1;fill-rule:evenodd;stroke:#0000fa;stroke-width:1pt;stroke-opacity:1"
         d="M 0,0 5,-5 -12.5,0 5,5 0,0 Z"
         id="path4413-2-4"
         inkscape:connector-curvature="0" />
    </marker>
    <marker
       inkscape:isstock="true"
       style="overflow:visible"
       id="marker4411-3-9"
       refX="0"
       refY="0"
       orient="auto"
       inkscape:stockid="Arrow1Mend">
      <path
         transform="matrix(-0.4,0,0,-0.4,-4,0)"
         style="fill:#0000fa;fill-opacity:1;fill-rule:evenodd;stroke:#0000fa;stroke-width:1pt;stroke-opacity:1"
         d="M 0,0 5,-5 -12.5,0 5,5 0,0 Z"
         id="path4413-2-8"
         inkscape:connector-curvature="0" />
    </marker>
    <marker
       inkscape:isstock="true"
       style="overflow:visible"
       id="marker4411-3-2-1"
       refX="0"
       refY="0"
       orient="auto"
       inkscape:stockid="Arrow1Mend">
      <path
         transform="matrix(-0.4,0,0,-0.4,-4,0)"
         style="fill:#0000fa;fill-opacity:1;fill-rule:evenodd;stroke:#0000fa;stroke-width:1pt;stroke-opacity:1"
         d="M 0,0 5,-5 -12.5,0 5,5 0,0 Z"
         id="path4413-2-4-7"
         inkscape:connector-curvature="0" />
    </marker>
    <marker
       inkscape:stockid="Arrow2Mend"
       orient="auto"
       refY="0"
       refX="0"
       id="marker4964-2"
       style="overflow:visible"
       inkscape:isstock="true">
      <path
         inkscape:connector-curvature="0"
         id="path4618-4"
         style="fill:#000000;fill-opacity:1;fill-rule:evenodd;stroke:#000000;stroke-width:0.625;stroke-linejoin:round;stroke-opacity:1"
         d="M 8.7185878,4.0337352 -2.2072895,0.01601326 8.7185884,-4.0017078 c -1.7454984,2.3720609 -1.7354408,5.6174519 -6e-7,8.035443 z"
         transform="scale(-0.6,-0.6)" />
    </marker>
  </defs>
  <metadata
     id="metadata7">
    <rdf:RDF>
      <cc:Work
         rdf:about="">
        <dc:format>image/svg+xml</dc:format>
        <dc:type
           rdf:resource="http://purl.org/dc/dcmitype/StillImage" />
        <dc:title />
      </cc:Work>
    </rdf:RDF>
  </metadata>
  <g
     inkscape:label="Layer 1"
     inkscape:groupmode="layer"
     id="layer1"
     transform="translate(0,-308.26772)">
    <path
       style="fill:none;stroke:#000000;stroke-width:1;stroke-linecap:butt;stroke-linejoin:miter;stroke-miterlimit:4;stroke-dasharray:none;stroke-dashoffset:0;stroke-opacity:1;marker-end:url(#marker4964)"
       d="m 315.67266,613.32465 365.97811,0"
       id="path1054"
       inkscape:connector-curvature="0" />
    <text
       xml:space="preserve"
       style="font-style:normal;font-variant:normal;font-weight:normal;font-stretch:normal;font-size:20px;line-height:1.25;font-family:'Palatino Linotype';-inkscape-font-specification:'Palatino Linotype';letter-spacing:0px;word-spacing:0px;fill:#000000;fill-opacity:1;stroke:none;stroke-width:0.9375"
       x="671.4798"
       y="638.77106"
       id="text1184"><tspan
         sodipodi:role="line"
         id="tspan1182"
         x="671.4798"
         y="638.77106"
         style="font-size:30px;stroke-width:0.9375">x</tspan></text>
    <path
       style="fill:none;stroke:#000000;stroke-width:1;stroke-linecap:butt;stroke-linejoin:miter;stroke-miterlimit:4;stroke-dasharray:none;stroke-dashoffset:0;stroke-opacity:1;marker-end:url(#marker4964-2)"
       d="m 333.85344,630.7473 0,-166.88773"
       id="path1054-3"
       inkscape:connector-curvature="0" />
    <text
       xml:space="preserve"
       style="font-style:normal;font-variant:normal;font-weight:normal;font-stretch:normal;font-size:20px;line-height:1.25;font-family:'Palatino Linotype';-inkscape-font-specification:'Palatino Linotype';letter-spacing:0px;word-spacing:0px;fill:#000000;fill-opacity:1;stroke:none;stroke-width:0.9375"
       x="308.68344"
       y="469.87686"
       id="text1184-4"><tspan
         sodipodi:role="line"
         id="tspan1182-5"
         x="308.68344"
         y="469.87686"
         style="font-size:30px;stroke-width:0.9375">y</tspan></text>
    <path
       id="path4342"
       title="t 1-cos(t)"
       d="m 333.63887,613.28046 c 1.70658,-1.2e-4 3.41317,-0.1152 5.11975,-0.34431 1.70659,-0.22909 3.41317,-0.57267 5.11976,-1.02724 1.70659,-0.45455 3.41317,-1.02077 5.11976,-1.69333 1.70658,-0.67255 3.41317,-1.45209 5.11975,-2.3316 1.70659,-0.87951 3.41318,-1.85957 5.11975,-2.93159 1.70659,-1.07202 3.41318,-2.23652 5.11976,-3.48345 1.70659,-1.24693 3.41317,-2.57675 5.11976,-3.97811 1.70658,-1.40135 3.41317,-2.87465 5.11975,-4.40744 1.70659,-1.53277 3.41318,-3.12536 5.11976,-4.76439 1.70659,-1.63904 3.41317,-3.32478 5.11975,-5.04315 1.70659,-1.71836 3.41317,-3.46957 5.11976,-5.23906 1.70658,-1.7695 3.41317,-3.5574 5.11976,-5.34896 1.70658,-1.79158 3.41316,-3.58682 5.11975,-5.37104 1.70659,-1.78423 3.41317,-3.55734 5.11976,-5.30491 1.70658,-1.74758 3.41316,-3.46946 5.11975,-5.15169 1.70659,-1.68224 3.41317,-3.32459 5.11976,-4.91387 1.70658,-1.58928 3.41317,-3.12514 5.11975,-4.59537 1.70659,-1.47022 3.41317,-2.87437 5.11976,-4.2014 1.70659,-1.32702 3.41317,-2.57641 5.11976,-3.73846 1.70659,-1.16202 3.41317,-2.23615 5.11976,-3.21412 1.70658,-0.97797 3.41317,-1.85918 5.11975,-2.63701 1.70659,-0.77784 3.41317,-1.45167 5.11976,-2.01661 1.70658,-0.56494 3.41317,-1.02033 5.11976,-1.36309 1.70658,-0.34276 3.41316,-0.57222 5.11975,-0.68719 1.70658,-0.11495 3.41317,-0.11472 5.11976,0 1.70658,0.11473 3.41317,0.34466 5.11975,0.68719 1.70658,0.34253 3.41317,0.79836 5.11975,1.36309 1.70659,0.56471 3.41318,1.23898 5.11976,2.01661 1.70658,0.77763 3.41317,1.65924 5.11976,2.63701 1.70658,0.97777 3.41317,2.05227 5.11975,3.21412 1.70659,1.16187 3.41317,2.41159 5.11976,3.73846 1.70658,1.32687 3.41316,2.73132 5.11975,4.2014 1.70659,1.4701 3.41317,3.0062 5.11976,4.59537 1.70658,1.58917 3.41317,3.23171 5.11975,4.91387 1.70659,1.68215 3.41318,3.40416 5.11976,5.15169 1.70658,1.74752 3.41317,3.52071 5.11975,5.30491 1.70659,1.78419 3.41317,3.57946 5.11976,5.37104 1.70658,1.79156 3.41317,3.57943 5.11976,5.34896 1.70658,1.76953 3.41317,3.52063 5.11975,5.23906 1.70659,1.71844 3.41317,3.40402 5.11975,5.04315 1.70659,1.63912 3.41317,3.23149 5.11976,4.76439 1.70658,1.5329 3.41317,3.00594 5.11976,4.40744 1.70658,1.40151 3.41317,2.73101 5.11975,3.97811 1.70659,1.24709 3.41317,2.41125 5.11976,3.48345 1.70659,1.0722 3.41317,2.05188 5.11976,2.93159 1.70657,0.87971 3.41316,1.65884 5.11974,2.3316 1.70659,0.67277 3.41319,1.23855 5.11976,1.69333 1.7066,0.45479 3.41318,0.79792 5.11977,1.02724 1.70657,0.22934 3.41316,0.34419 5.11974,0.34431"
       style="opacity:1;fill:none;fill-opacity:1;fill-rule:evenodd;stroke:#0000f5;stroke-width:1.95149398;stroke-linejoin:miter;stroke-miterlimit:4;stroke-dasharray:none;stroke-dashoffset:0;stroke-opacity:1"
       inkscape:connector-curvature="0" />
    <text
       xml:space="preserve"
       style="font-style:normal;font-variant:normal;font-weight:normal;font-stretch:normal;font-size:22.5px;font-family:sans-serif;-inkscape-font-specification:sans-serif;text-align:center;text-anchor:middle;opacity:1;fill:none;fill-opacity:1;fill-rule:evenodd;stroke:#0000f5;stroke-width:0;stroke-linejoin:miter;stroke-miterlimit:4;stroke-dasharray:none;stroke-dashoffset:0;stroke-opacity:1"
       x="601.04077"
       y="569.50928"
       id="text4591"><tspan
         sodipodi:role="line"
         id="tspan4593"
         x="601.04077"
         y="569.50928" /></text>
    <path
       style="fill:none;fill-rule:evenodd;stroke:#000000;stroke-width:4;stroke-linecap:butt;stroke-linejoin:miter;stroke-miterlimit:4;stroke-dasharray:none;stroke-opacity:1;marker-end:url(#Arrow1Send)"
       d="m 633.36564,613.45092 c -4.54568,0 -39.90102,0 -39.90102,0"
       id="path4707"
       inkscape:connector-curvature="0" />
    <text
       xml:space="preserve"
       style="font-style:normal;font-variant:normal;font-weight:normal;font-stretch:normal;font-size:20px;line-height:1.25;font-family:'Palatino Linotype';-inkscape-font-specification:'Palatino Linotype';letter-spacing:0px;word-spacing:0px;fill:#000000;fill-opacity:1;stroke:none;stroke-width:0.9375"
       x="411.76227"
       y="598.51111"
       id="text1184-4-1"><tspan
         sodipodi:role="line"
         id="tspan1182-5-05"
         x="411.76227"
         y="598.51111"
         style="font-size:27.5px;stroke-width:0.9375">h(x)</tspan></text>
    <path
       style="fill:none;fill-rule:evenodd;stroke:#000000;stroke-width:1.5;stroke-linecap:butt;stroke-linejoin:miter;stroke-miterlimit:4;stroke-dasharray:none;stroke-opacity:1;marker-end:url(#marker5304)"
       d="m 512.50432,543.31869 29.72497,29.56052"
       id="path5376"
       inkscape:connector-curvature="0" />
    <text
       xml:space="preserve"
       style="font-style:normal;font-variant:normal;font-weight:normal;font-stretch:normal;font-size:20px;line-height:1.25;font-family:'Palatino Linotype';-inkscape-font-specification:'Palatino Linotype';letter-spacing:0px;word-spacing:0px;fill:#000000;fill-opacity:1;stroke:none;stroke-width:0.9375"
       x="531.05505"
       y="553.04333"
       id="text1184-4-1-7"><tspan
         sodipodi:role="line"
         id="tspan1182-5-05-0"
         x="531.05505"
         y="553.04333"
         style="font-size:27.5px;stroke-width:0.9375">s</tspan><tspan
         sodipodi:role="line"
         x="531.05505"
         y="587.41833"
         style="font-size:27.5px;stroke-width:0.9375"
         id="tspan5606" /></text>
    <path
       style="fill:none;fill-rule:evenodd;stroke:#000000;stroke-width:1px;stroke-linecap:butt;stroke-linejoin:miter;stroke-opacity:1"
       d="m 406.08132,562.9433 48.9924,0"
       id="path5676"
       inkscape:connector-curvature="0" />
    <text
       xml:space="preserve"
       style="font-style:normal;font-variant:normal;font-weight:normal;font-stretch:normal;font-size:27.5px;font-family:sans-serif;-inkscape-font-specification:sans-serif;text-align:center;text-anchor:middle;opacity:1;fill:#000000;fill-opacity:1;fill-rule:evenodd;stroke:none;stroke-width:1;stroke-linejoin:miter;stroke-miterlimit:4;stroke-dasharray:none;stroke-dashoffset:0;stroke-opacity:1"
       x="432.34528"
       y="558.39764"
       id="text5678"><tspan
         sodipodi:role="line"
         id="tspan5680"
         x="432.34528"
         y="558.39764"
         style="font-style:italic;font-variant:normal;font-weight:normal;font-stretch:normal;font-size:22.5px;font-family:sans-serif;-inkscape-font-specification:'sans-serif Italic'">θ</tspan></text>
    <path
       style="fill:none;fill-rule:evenodd;stroke:#000000;stroke-width:1.5;stroke-linecap:butt;stroke-linejoin:miter;stroke-opacity:1;marker-end:url(#marker5703);stroke-miterlimit:4;stroke-dasharray:none"
       d="m 406.08132,613.70347 0,-48.9924"
       id="path5676-4"
       inkscape:connector-curvature="0" />
    <rect
       style="opacity:1;fill:#ffffff;fill-opacity:1;fill-rule:evenodd;stroke:none;stroke-width:1.5;stroke-linejoin:miter;stroke-miterlimit:4;stroke-dasharray:none;stroke-dashoffset:0;stroke-opacity:1"
       id="rect5795"
       width="28.284269"
       height="30.809652"
       x="632.35547"
       y="598.80371" />
    <text
       xml:space="preserve"
       style="font-style:normal;font-variant:normal;font-weight:normal;font-stretch:normal;font-size:20px;line-height:1.25;font-family:'Palatino Linotype';-inkscape-font-specification:'Palatino Linotype';letter-spacing:0px;word-spacing:0px;fill:#000000;fill-opacity:1;stroke:none;stroke-width:0.9375"
       x="637.83344"
       y="624.24976"
       id="text1184-4-8"><tspan
         sodipodi:role="line"
         id="tspan1182-5-0"
         x="637.83344"
         y="624.24976"
         style="font-size:30px;stroke-width:0.9375">F</tspan></text>
  </g>
</svg>
