<?xml version="1.0" encoding="UTF-8" standalone="no"?>
<!-- Created with Inkscape (http://www.inkscape.org/) -->

<svg
   xmlns:dc="http://purl.org/dc/elements/1.1/"
   xmlns:cc="http://creativecommons.org/ns#"
   xmlns:rdf="http://www.w3.org/1999/02/22-rdf-syntax-ns#"
   xmlns:svg="http://www.w3.org/2000/svg"
   xmlns="http://www.w3.org/2000/svg"
   xmlns:sodipodi="http://sodipodi.sourceforge.net/DTD/sodipodi-0.dtd"
   xmlns:inkscape="http://www.inkscape.org/namespaces/inkscape"
   width="210mm"
   height="297mm"
   viewBox="0 0 210 297"
   version="1.1"
   id="svg5"
   inkscape:version="0.92.5 (2060ec1f9f, 2020-04-08)"
   sodipodi:docname="Figure_growthrate3.svg">
  <sodipodi:namedview
     id="namedview7"
     pagecolor="#ffffff"
     bordercolor="#666666"
     borderopacity="1.0"
     inkscape:pageshadow="2"
     inkscape:pageopacity="0.0"
     inkscape:pagecheckerboard="0"
     inkscape:document-units="mm"
     showgrid="false"
     inkscape:zoom="2.1997092"
     inkscape:cx="489.64589"
     inkscape:cy="635.05893"
     inkscape:window-width="2523"
     inkscape:window-height="1800"
     inkscape:window-x="-4"
     inkscape:window-y="1"
     inkscape:window-maximized="0"
     inkscape:current-layer="layer1"
     showguides="false" />
  <metadata
     id="metadata34">
    <rdf:RDF>
      <cc:Work
         rdf:about="">
        <dc:format>image/svg+xml</dc:format>
        <dc:type
           rdf:resource="http://purl.org/dc/dcmitype/StillImage" />
        <dc:title />
      </cc:Work>
    </rdf:RDF>
  </metadata>
  <defs
     id="defs2">
    <marker
       style="overflow:visible;"
       id="Arrow2Lend"
       refX="0.0"
       refY="0.0"
       orient="auto"
       inkscape:stockid="Arrow2Lend"
       inkscape:isstock="true">
      <path
         transform="scale(1.1) rotate(180) translate(1,0)"
         d="M 8.7185878,4.0337352 L -2.2072895,0.016013256 L 8.7185884,-4.0017078 C 6.9730900,-1.6296469 6.9831476,1.6157441 8.7185878,4.0337352 z "
         style="fill-rule:evenodd;fill:#000000;stroke-width:0.625;stroke-linejoin:round;stroke:#000000;stroke-opacity:1;fill-opacity:1"
         id="path962" />
    </marker>
    <marker
       style="overflow:visible;"
       id="Arrow1Mend"
       refX="0.0"
       refY="0.0"
       orient="auto"
       inkscape:stockid="Arrow1Mend"
       inkscape:isstock="true">
      <path
         transform="scale(0.4) rotate(180) translate(10,0)"
         style="fill-rule:evenodd;fill:context-stroke;stroke:context-stroke;stroke-width:1.0pt;"
         d="M 0.0,0.0 L 5.0,-5.0 L -12.5,0.0 L 5.0,5.0 L 0.0,0.0 z "
         id="path950" />
    </marker>
    <marker
       style="overflow:visible;"
       id="Arrow1Lend"
       refX="0.0"
       refY="0.0"
       orient="auto"
       inkscape:stockid="Arrow1Lend"
       inkscape:isstock="true">
      <path
         transform="scale(0.8) rotate(180) translate(12.5,0)"
         style="fill-rule:evenodd;fill:#007a00;stroke:#007a00;stroke-width:1pt;stroke-opacity:1;fill-opacity:1"
         d="M 0.0,0.0 L 5.0,-5.0 L -12.5,0.0 L 5.0,5.0 L 0.0,0.0 z "
         id="path944" />
    </marker>
    <marker
       style="overflow:visible"
       id="Arrow2Lend-9"
       refX="0"
       refY="0"
       orient="auto"
       inkscape:stockid="Arrow2Lend"
       inkscape:isstock="true">
      <path
         transform="matrix(-1.1,0,0,-1.1,-1.1,0)"
         d="M 8.7185878,4.0337352 -2.2072895,0.01601326 8.7185884,-4.0017078 c -1.7454984,2.3720609 -1.7354408,5.6174519 -6e-7,8.035443 z"
         style="fill:#000000;fill-rule:evenodd;stroke-width:0.625;stroke-linejoin:round;stroke:#000000;stroke-opacity:1;fill-opacity:1"
         id="path962-4" />
    </marker>
  </defs>
  <g
     inkscape:label="Layer 1"
     inkscape:groupmode="layer"
     id="layer1">
    <path
       style="fill:#d93f3f;fill-opacity:1;stroke:none;stroke-width:0.69999999;stroke-miterlimit:4;stroke-dasharray:none;stroke-dashoffset:0;stroke-opacity:1"
       d="m 136.94902,102.92293 c -0.15956,-0.002 -0.31947,-10e-4 -0.47904,0.003 -0.15956,0.004 -0.31897,0.0107 -0.47853,0.0207 -0.15956,0.01 -0.31896,0.0217 -0.47852,0.0367 -0.15956,0.015 -0.31896,0.0324 -0.47852,0.0527 -0.15956,0.0203 -0.31948,0.0432 -0.47904,0.0687 -0.15956,0.0255 -0.31896,0.0536 -0.47853,0.0842 -0.15956,0.0305 -0.31896,0.0637 -0.47852,0.0992 -0.15956,0.0355 -0.31949,0.0734 -0.47904,0.11368 -0.15956,0.0404 -0.31897,0.0832 -0.47852,0.12816 -0.15956,0.045 -0.31896,0.0925 -0.47853,0.14211 -0.15955,0.0496 -0.31948,0.10145 -0.47904,0.15555 -0.15956,0.0541 -0.31896,0.11006 -0.47852,0.16847 -0.15956,0.0584 -0.31897,0.1193 -0.47853,0.1819 -0.15956,0.0627 -0.31896,0.12699 -0.47852,0.19379 -0.15956,0.0668 -0.31948,0.13539 -0.47904,0.20619 -0.15957,0.0708 -0.31898,0.14399 -0.47853,0.21859 -0.15956,0.0746 -0.31896,0.15104 -0.47852,0.22944 -0.15956,0.0784 -0.31948,0.15871 -0.47904,0.24081 -0.15956,0.0821 -0.31896,0.16555 -0.47852,0.25115 -0.15956,0.0856 -0.31897,0.173 -0.47853,0.262 -0.15957,0.0891 -0.31947,0.17993 -0.47904,0.27233 -0.15955,0.0924 -0.31896,0.18656 -0.47852,0.28216 -0.15956,0.0956 -0.31897,0.19275 -0.47853,0.29145 -0.15957,0.0987 -0.31947,0.19854 -0.47903,0.30024 -0.15957,0.10169 -0.31896,0.20495 -0.47853,0.30954 -0.15956,0.10459 -0.31896,0.21043 -0.47852,0.31781 -0.15956,0.10738 -0.31897,0.21653 -0.47853,0.3266 -0.15956,0.11008 -0.31948,0.22118 -0.47904,0.33383 -0.15956,0.11266 -0.31896,0.22644 -0.47852,0.34158 -0.15956,0.11514 -0.31897,0.23181 -0.47853,0.34933 -0.15955,0.11751 -0.31948,0.23625 -0.47904,0.35605 -0.15957,0.1198 -0.31896,0.24078 -0.47852,0.36277 -0.15956,0.12199 -0.31896,0.2449 -0.47852,0.36897 -0.15956,0.12407 -0.31949,0.24911 -0.47904,0.37517 -0.15956,0.12606 -0.31897,0.25291 -0.47853,0.38086 -0.15956,0.12796 -0.31896,0.25678 -0.47852,0.38654 -0.15956,0.12976 -0.31949,0.26077 -0.47904,0.39222 -0.15956,0.13146 -0.31897,0.26329 -0.47853,0.39636 -0.15956,0.13306 -0.31895,0.26695 -0.47852,0.40153 -0.15957,0.13458 -0.31896,0.27016 -0.47852,0.40617 -0.15956,0.13601 -0.31948,0.27245 -0.47904,0.4098 -0.15956,0.13736 -0.31898,0.27532 -0.47853,0.41392 -0.15956,0.13859 -0.31896,0.2778 -0.47852,0.41755 -0.15956,0.13975 -0.31947,0.28033 -0.47904,0.42116 -0.15956,0.14083 -0.31898,0.28192 -0.47852,0.42375 -0.15956,0.14181 -0.31897,0.28414 -0.47853,0.42685 -0.15956,0.14271 -0.31947,0.28591 -0.47904,0.42943 -0.15955,0.14353 -0.31896,0.28775 -0.47852,0.43201 -0.15956,0.14426 -0.31896,0.28865 -0.47853,0.43357 -0.15956,0.1449 -0.31947,0.29015 -0.47904,0.43563 -0.15955,0.14547 -0.31896,0.29122 -0.47852,0.43718 -0.15956,0.14596 -0.31896,0.29186 -0.47853,0.43822 -0.15956,0.14637 -0.31896,0.29307 -0.47852,0.43977 -0.15956,0.14669 -0.31948,0.29385 -0.47904,0.44079 -0.15956,0.14695 -0.31895,0.29369 -0.47852,0.44081 -0.15955,0.14711 -0.31897,0.29461 -0.47853,0.44183 -0.15956,0.14722 -0.31948,0.29406 -0.47904,0.44132 -0.15957,0.14724 -0.31896,0.29464 -0.47852,0.44183 -0.15957,0.14719 -0.31897,0.29425 -0.47853,0.44132 -0.0546,0.0503 -0.10922,0.1006 -0.16381,0.15089 h 47.41519 c -0.11352,-0.24334 -0.22702,-0.48754 -0.34054,-0.72502 -0.15956,-0.33377 -0.31948,-0.66157 -0.47904,-0.98392 -0.15956,-0.32235 -0.31897,-0.63923 -0.47853,-0.95033 -0.15956,-0.31108 -0.31896,-0.61675 -0.47852,-0.91674 -0.15956,-0.29999 -0.31896,-0.59409 -0.47852,-0.88315 -0.15957,-0.28905 -0.31949,-0.57283 -0.47905,-0.85111 -0.15956,-0.27828 -0.31896,-0.5514 -0.47852,-0.81907 -0.15956,-0.26768 -0.31896,-0.52981 -0.47852,-0.78703 -0.15956,-0.25722 -0.31948,-0.50962 -0.47905,-0.75655 -0.15956,-0.24693 -0.31896,-0.48874 -0.47852,-0.72553 -0.15956,-0.2368 -0.31896,-0.46823 -0.47852,-0.69505 -0.15956,-0.22681 -0.31948,-0.44911 -0.47904,-0.66611 -0.15957,-0.217 -0.31897,-0.42881 -0.47853,-0.63614 -0.15956,-0.20734 -0.31896,-0.40988 -0.47852,-0.60771 -0.15956,-0.19783 -0.31948,-0.39082 -0.47904,-0.57929 -0.15956,-0.18847 -0.31896,-0.37264 -0.47852,-0.55191 -0.15956,-0.17927 -0.31897,-0.35378 -0.47853,-0.524 -0.15957,-0.17021 -0.31896,-0.33631 -0.47852,-0.49764 -0.15956,-0.16131 -0.31948,-0.3182 -0.47904,-0.47077 -0.15956,-0.15257 -0.31896,-0.30045 -0.47853,-0.44442 -0.15956,-0.14397 -0.31896,-0.28409 -0.47852,-0.41961 -0.15956,-0.13551 -0.31947,-0.26657 -0.47904,-0.39378 -0.15956,-0.1272 -0.31896,-0.25044 -0.47852,-0.36948 -0.15956,-0.11906 -0.31897,-0.23417 -0.47853,-0.3452 -0.15956,-0.11103 -0.31948,-0.21775 -0.47904,-0.32091 -0.15956,-0.10316 -0.31896,-0.20278 -0.47852,-0.29818 -0.15957,-0.0954 -0.31897,-0.18702 -0.47853,-0.27492 -0.15956,-0.0878 -0.31948,-0.17178 -0.47904,-0.25218 -0.15956,-0.0804 -0.31896,-0.15738 -0.47852,-0.23048 -0.15956,-0.0731 -0.31896,-0.14235 -0.47852,-0.20825 -0.15956,-0.0659 -0.31897,-0.12817 -0.47853,-0.18707 -0.15956,-0.0589 -0.31948,-0.1144 -0.47904,-0.1664 -0.15956,-0.052 -0.31896,-0.10095 -0.47852,-0.14625 -0.15956,-0.0452 -0.31897,-0.087 -0.47853,-0.12557 -0.15955,-0.0387 -0.31948,-0.0743 -0.47904,-0.10645 -0.15956,-0.0321 -0.31896,-0.061 -0.47852,-0.0868 -0.15957,-0.0258 -0.31896,-0.0481 -0.47852,-0.0677 -0.15956,-0.0196 -0.31948,-0.0361 -0.47904,-0.0496 -0.15956,-0.0135 -0.31897,-0.024 -0.47853,-0.032 -0.15956,-0.008 -0.31896,-0.0114 -0.47852,-0.0134 z"
       id="path1046-8"
       inkscape:connector-curvature="0" />
    <path
       style="fill:none;stroke:#000000;stroke-width:0.54;stroke-linecap:butt;stroke-linejoin:miter;stroke-miterlimit:4;stroke-dasharray:none;stroke-opacity:1;marker-end:url(#Arrow2Lend)"
       d="m 73.12895,185.70164 c 0,-86.816698 0,-86.816698 0,-86.816698"
       id="path42"
       inkscape:connector-curvature="0" />
    <path
       style="fill:none;stroke:#000000;stroke-width:0.54;stroke-linecap:butt;stroke-linejoin:miter;stroke-miterlimit:4;stroke-dasharray:none;stroke-opacity:1;marker-end:url(#Arrow2Lend-9)"
       d="m 64.734995,121.10719 c 123.213115,0 123.213115,0 123.213115,0"
       id="path42-2"
       inkscape:connector-curvature="0" />
    <text
       xml:space="preserve"
       style="line-height:0%;font-family:'Palatino Linotype';-inkscape-font-specification:'Palatino Linotype';letter-spacing:0px;word-spacing:0px;stroke-width:0.26458299"
       x="64.217529"
       y="95.30378"
       id="text5468"><tspan
         sodipodi:role="line"
         style="font-size:7.76111126px;line-height:1.25;stroke-width:0.26458299"
         x="64.217529"
         y="95.30378"
         id="tspan1095">σ(k)</tspan></text>
    <text
       xml:space="preserve"
       style="line-height:0%;font-family:'Palatino Linotype';-inkscape-font-specification:'Palatino Linotype';letter-spacing:0px;word-spacing:0px;stroke-width:0.26458299"
       x="191.18379"
       y="125.33327"
       id="text11562"><tspan
         sodipodi:role="line"
         id="tspan11560"
         style="font-size:7.76111126px;line-height:1.25;stroke-width:0.26458299"
         x="191.18379"
         y="125.33327">k</tspan></text>
    <path
       style="fill:none;fill-rule:evenodd;stroke:#007a00;stroke-width:0.40000001;stroke-linecap:butt;stroke-linejoin:miter;stroke-miterlimit:4;stroke-dasharray:none;stroke-opacity:1;marker-end:url(#Arrow1Lend)"
       d="m 144.90831,181.10909 31.98594,-74.03847"
       id="path4264"
       inkscape:connector-curvature="0"
       sodipodi:nodetypes="cc" />
    <path
       id="path1046"
       title="-0.5+1.3*pow(x,2)-pow(x,4)"
       d="m 72.766402,141.49489 c 0.159561,0 0.319121,-0.001 0.478682,-0.004 0.159561,-0.003 0.319121,-0.007 0.478682,-0.0129 0.159561,-0.006 0.319121,-0.0129 0.478682,-0.0214 0.159561,-0.009 0.319121,-0.0186 0.478682,-0.03 0.159561,-0.0114 0.319122,-0.0243 0.478682,-0.0386 0.159561,-0.0143 0.319122,-0.03 0.478682,-0.0471 0.159561,-0.0171 0.319122,-0.0357 0.478682,-0.0557 0.159561,-0.02 0.319122,-0.0414 0.478683,-0.0642 0.15956,-0.0228 0.319121,-0.047 0.478682,-0.0727 0.15956,-0.0256 0.319121,-0.0527 0.478682,-0.0811 0.15956,-0.0284 0.319121,-0.0583 0.478682,-0.0896 0.159561,-0.0313 0.319121,-0.0639 0.478682,-0.098 0.159561,-0.0341 0.319121,-0.0695 0.478682,-0.10636 0.159561,-0.0368 0.319121,-0.0751 0.478682,-0.1147 0.159561,-0.0396 0.319121,-0.0806 0.478682,-0.123 0.159561,-0.0424 0.319122,-0.0861 0.478682,-0.13126 0.159561,-0.0451 0.319122,-0.0916 0.478682,-0.13947 0.159561,-0.0479 0.319122,-0.0971 0.478682,-0.14764 0.159561,-0.0506 0.319122,-0.10249 0.478683,-0.15576 0.15956,-0.0533 0.319121,-0.10787 0.478682,-0.16382 0.15956,-0.0559 0.319121,-0.11322 0.478682,-0.17183 0.15956,-0.0586 0.319121,-0.11853 0.478682,-0.17977 0.159561,-0.0612 0.319121,-0.12381 0.478682,-0.18767 0.159561,-0.0639 0.319121,-0.12903 0.478682,-0.19548 0.159561,-0.0665 0.319121,-0.13421 0.478682,-0.20324 0.159561,-0.069 0.319121,-0.13934 0.478682,-0.21092 0.159561,-0.0716 0.319122,-0.14443 0.478682,-0.21853 0.159561,-0.0741 0.319122,-0.14947 0.478682,-0.22607 0.159561,-0.0766 0.319122,-0.15444 0.478682,-0.23352 0.159561,-0.0791 0.319122,-0.15937 0.478683,-0.24089 0.15956,-0.0815 0.319121,-0.16425 0.478682,-0.24817 0.15956,-0.0839 0.319121,-0.16907 0.478682,-0.25538 0.15956,-0.0863 0.319121,-0.17382 0.478682,-0.26249 0.15956,-0.0887 0.319121,-0.17851 0.478682,-0.2695 0.159561,-0.091 0.319121,-0.18314 0.478682,-0.27642 0.159561,-0.0933 0.319121,-0.1877 0.478682,-0.28323 0.159561,-0.0955 0.319121,-0.1922 0.478682,-0.28996 0.159561,-0.0978 0.319122,-0.19662 0.478682,-0.29656 0.159561,-0.1 0.319122,-0.20098 0.478682,-0.30307 0.159561,-0.10209 0.319122,-0.20526 0.478682,-0.30946 0.159561,-0.10421 0.319122,-0.20946 0.478683,-0.31574 0.15956,-0.10628 0.319121,-0.21359 0.478682,-0.3219 0.15956,-0.10831 0.319121,-0.21764 0.478682,-0.32794 0.15956,-0.11031 0.319121,-0.22161 0.478682,-0.33387 0.15956,-0.11226 0.319121,-0.22549 0.478682,-0.33966 0.159561,-0.11417 0.319121,-0.22928 0.478682,-0.34532 0.159561,-0.11604 0.319121,-0.233 0.478682,-0.35086 0.159561,-0.11786 0.319121,-0.23662 0.478682,-0.35626 0.159561,-0.11964 0.319122,-0.24016 0.478682,-0.36153 0.159561,-0.12137 0.319122,-0.24359 0.478682,-0.36665 0.159561,-0.12305 0.319122,-0.24694 0.478682,-0.37163 0.159561,-0.12469 0.319122,-0.25019 0.478683,-0.37647 0.15956,-0.12628 0.319121,-0.25334 0.478682,-0.38115 0.15956,-0.12782 0.319121,-0.2564 0.478682,-0.3857 0.15956,-0.1293 0.319121,-0.25934 0.478681,-0.39008 0.15956,-0.13073 0.31912,-0.26218 0.478677,-0.3943 0.15956,-0.13212 0.31913,-0.26492 0.478687,-0.39837 0.15956,-0.13344 0.31912,-0.26754 0.47868,-0.40227 0.15956,-0.13472 0.31912,-0.27007 0.47868,-0.40601 0.15956,-0.13594 0.31912,-0.27247 0.47868,-0.40957 0.15956,-0.1371 0.31912,-0.27477 0.47868,-0.41298 0.15957,-0.1382 0.31913,-0.27695 0.47869,-0.4162 0.15956,-0.13925 0.31912,-0.279 0.47868,-0.41924 0.15956,-0.14023 0.31912,-0.28095 0.47868,-0.42211 0.15956,-0.14116 0.31912,-0.28277 0.47868,-0.42479 0.15956,-0.14202 0.31912,-0.28447 0.47868,-0.42729 0.15957,-0.14283 0.31913,-0.28604 0.47869,-0.4296 0.15956,-0.14356 0.31912,-0.28748 0.47868,-0.43171 0.15956,-0.14424 0.31912,-0.2888 0.47868,-0.43364 0.15956,-0.14484 0.31912,-0.28998 0.47868,-0.43536 0.15956,-0.14539 0.31912,-0.29103 0.47869,-0.43689 0.15956,-0.14586 0.31912,-0.29194 0.47868,-0.4382 0.15956,-0.14627 0.31912,-0.29272 0.47868,-0.43933 0.15956,-0.1466 0.31912,-0.29336 0.47868,-0.44023 0.15956,-0.14687 0.31912,-0.29386 0.47868,-0.44092 0.15956,-0.14707 0.31912,-0.29422 0.47869,-0.44141 0.15956,-0.14719 0.31912,-0.29442 0.47868,-0.44166 0.15956,-0.14725 0.31912,-0.29449 0.47868,-0.44171 0.15956,-0.14722 0.31912,-0.29441 0.47868,-0.44153 0.15956,-0.14712 0.31912,-0.29418 0.47868,-0.44112 0.15956,-0.14695 0.31913,-0.29379 0.47869,-0.44049 0.15956,-0.1467 0.31912,-0.29325 0.47868,-0.43962 0.15956,-0.14636 0.31912,-0.29255 0.47868,-0.43851 0.15956,-0.14596 0.31912,-0.2917 0.47868,-0.43717 0.15956,-0.14548 0.31912,-0.29069 0.47868,-0.43559 0.15957,-0.14491 0.31913,-0.28951 0.47869,-0.43377 0.15956,-0.14426 0.31912,-0.28817 0.47868,-0.4317 0.15956,-0.14352 0.31912,-0.28666 0.47868,-0.42937 0.15956,-0.14271 0.31912,-0.28499 0.47868,-0.4268 0.15956,-0.14182 0.31912,-0.28315 0.47868,-0.42398 0.15957,-0.14083 0.31913,-0.28114 0.47869,-0.42089 0.15956,-0.13975 0.31912,-0.27895 0.47868,-0.41754 0.15956,-0.1386 0.31912,-0.27659 0.47868,-0.41394 0.15956,-0.13735 0.31912,-0.27405 0.47868,-0.41006 0.15956,-0.13601 0.31912,-0.27133 0.47869,-0.40591 0.15956,-0.13458 0.31912,-0.26843 0.47868,-0.40149 0.15956,-0.13307 0.31912,-0.26535 0.47868,-0.39681 0.15956,-0.13145 0.31912,-0.26207 0.47868,-0.39183 0.15956,-0.12975 0.31912,-0.25862 0.47868,-0.38658 0.15956,-0.12795 0.31913,-0.25498 0.47869,-0.38104 0.15956,-0.12606 0.31912,-0.25115 0.47868,-0.37522 0.15956,-0.12407 0.31912,-0.24712 0.47868,-0.36911 0.15956,-0.12198 0.31912,-0.2429 0.47868,-0.3627 0.15956,-0.1198 0.31912,-0.23849 0.47868,-0.356 0.15956,-0.11752 0.31913,-0.23387 0.47869,-0.34901 0.15956,-0.11514 0.31912,-0.22905 0.47868,-0.34171 0.15956,-0.11265 0.31912,-0.22403 0.47868,-0.3341 0.15956,-0.11007 0.31912,-0.21882 0.47868,-0.3262 0.15956,-0.10738 0.31912,-0.21338 0.47868,-0.31797 0.15957,-0.10459 0.31913,-0.20775 0.47869,-0.30944 0.15956,-0.1017 0.31912,-0.20191 0.47868,-0.3006 0.15956,-0.0987 0.31912,-0.19585 0.47868,-0.29143 0.15956,-0.0956 0.31912,-0.18957 0.47868,-0.28194 0.15956,-0.0924 0.31912,-0.18309 0.47869,-0.27213 0.15956,-0.089 0.31912,-0.17638 0.47868,-0.26199 0.15956,-0.0856 0.31912,-0.16946 0.47868,-0.25152 0.15956,-0.0821 0.31912,-0.16232 0.47868,-0.24072 0.15956,-0.0784 0.31912,-0.15495 0.47868,-0.22959 0.15956,-0.0746 0.31912,-0.14735 0.47869,-0.21811 0.15956,-0.0708 0.31912,-0.13953 0.47868,-0.20629 0.15956,-0.0668 0.31912,-0.13148 0.47868,-0.19413 0.15956,-0.0626 0.31912,-0.1232 0.47868,-0.18162 0.15956,-0.0584 0.31912,-0.11469 0.47868,-0.16877 0.15956,-0.0541 0.31913,-0.10594 0.47869,-0.15555 0.15956,-0.0496 0.31912,-0.097 0.47868,-0.14199 0.15956,-0.045 0.31912,-0.0877 0.47868,-0.12806 0.15956,-0.0403 0.31912,-0.0783 0.47868,-0.11377 0.15956,-0.0355 0.31912,-0.0686 0.47868,-0.0991 0.15957,-0.0306 0.31913,-0.0586 0.47869,-0.0841 0.15956,-0.0255 0.31912,-0.0484 0.47868,-0.0687 0.15956,-0.0203 0.31912,-0.038 0.47868,-0.053 0.15956,-0.015 0.31912,-0.0273 0.47868,-0.0368 0.15956,-0.01 0.31912,-0.0163 0.47868,-0.0203 0.15957,-0.004 0.31913,-0.005 0.47869,-0.003 0.15956,0.002 0.31912,0.006 0.47868,0.0139 0.15956,0.008 0.31912,0.0181 0.47868,0.0316 0.15956,0.0135 0.31912,0.03 0.47868,0.0496 0.15956,0.0196 0.31912,0.0423 0.47869,0.0681 0.15956,0.0258 0.31912,0.0548 0.47868,0.0869 0.15956,0.0322 0.31912,0.0675 0.47868,0.10618 0.15956,0.0386 0.31912,0.0806 0.47868,0.12583 0.15956,0.0453 0.31912,0.0939 0.47868,0.14589 0.15956,0.052 0.31913,0.10745 0.47869,0.16636 0.15956,0.0589 0.31912,0.12129 0.47868,0.18722 0.15956,0.0659 0.31912,0.13543 0.47868,0.20852 0.15956,0.0731 0.31912,0.14982 0.47868,0.23022 0.15956,0.0804 0.31912,0.16451 0.47868,0.25235 0.15956,0.0879 0.31913,0.17946 0.47869,0.27489 0.15956,0.0954 0.31912,0.19471 0.47868,0.29787 0.15956,0.10316 0.31912,0.21023 0.47868,0.32126 0.15956,0.11103 0.31912,0.22605 0.47868,0.3451 0.15956,0.11904 0.31912,0.24215 0.47868,0.36935 0.15957,0.12721 0.31913,0.25855 0.47869,0.39406 0.15956,0.13552 0.31912,0.27523 0.47868,0.4192 0.15956,0.14397 0.31912,0.29221 0.47868,0.44478 0.15956,0.15257 0.31912,0.30949 0.47868,0.4708 0.15956,0.16132 0.31912,0.32707 0.47869,0.49728 0.15956,0.17022 0.31912,0.34494 0.47868,0.52421 0.15956,0.17927 0.31912,0.36312 0.47868,0.55159 0.15956,0.18847 0.31912,0.38159 0.47868,0.57942 0.15956,0.19783 0.31912,0.40038 0.47868,0.60772 0.15956,0.20733 0.31912,0.41948 0.47869,0.63647 0.15956,0.217 0.31912,0.43889 0.47868,0.6657 0.15956,0.22682 0.31912,0.4586 0.47868,0.6954 0.15956,0.23679 0.31912,0.47862 0.47868,0.72555 0.15956,0.24693 0.31912,0.49897 0.47868,0.75619 0.15956,0.25722 0.31913,0.51964 0.47869,0.78731 0.15956,0.26767 0.31912,0.54062 0.47868,0.8189 0.15956,0.27828 0.31912,0.56192 0.47868,0.85097 0.15956,0.28905 0.31912,0.58355 0.47868,0.88354 0.15956,0.29999 0.31912,0.6055 0.47868,0.91658 0.15956,0.31109 0.31913,0.62778 0.47869,0.95013 0.15956,0.32235 0.31912,0.65039 0.47868,0.98416 0.15956,0.33378 0.31912,0.67333 0.47868,1.0187 0.15956,0.34537 0.31912,0.69659 0.47868,1.05372 0.15956,0.35714 0.31912,0.72021 0.47868,1.08927 0.15957,0.36906 0.31913,0.74414 0.47869,1.1253 0.15956,0.38116 0.31912,0.76842 0.47868,1.16185 0.15956,0.39342 0.31912,0.79305 0.47868,1.19891 0.15956,0.40587 0.31912,0.81801 0.47868,1.23649 0.15956,0.41847 0.31912,0.84332 0.47869,1.27458 0.15956,0.43125 0.31912,0.86897 0.47868,1.31319 0.15956,0.44421 0.31912,0.89497 0.47868,1.35232 0.15956,0.45735 0.31912,0.92133 0.47868,1.39199 0.15956,0.47065 0.31912,0.94803 0.47868,1.43217 0.15956,0.48414 0.31912,0.97509 0.47869,1.4729 0.15956,0.4978 0.31912,1.00251 0.47868,1.51415 0.15956,0.51165 0.31912,1.03028 0.47868,1.55595 0.15956,0.52566 0.31912,1.05841 0.47868,1.59827 0.15956,0.53987 0.31912,1.08691 0.47868,1.64116 0.15956,0.55425 0.31913,1.11576 0.47869,1.68457 0.15956,0.56882 0.31912,1.14499 0.47868,1.72855 0.15956,0.58357 0.31912,1.17457 0.47868,1.77307 0.15956,0.5985 0.31912,1.20453 0.47868,1.81815 0.15956,0.61362 0.31912,1.23486 0.47868,1.86378 0.15957,0.62892 0.31913,1.26557 0.47869,1.90998 0.15956,0.64441 0.31912,1.29664 0.47868,1.95674 0.15956,0.66009 0.31912,1.32809 0.47868,2.00406 0.15956,0.67596 0.31912,1.35993 0.47868,2.05195"
       style="fill:none;fill-opacity:1;stroke:#0000fb;stroke-width:0.69999999;stroke-miterlimit:4;stroke-dasharray:none;stroke-dashoffset:0;stroke-opacity:1"
       inkscape:connector-curvature="0" />
    <path
       id="path1046-9"
       title="-0.5+1.3*pow(x,2)-pow(x,4)"
       d="m 73.370202,159.94609 c 0.159561,0 0.319121,-0.001 0.478682,-0.004 0.159561,-0.003 0.319121,-0.007 0.478682,-0.0129 0.159561,-0.006 0.319121,-0.0129 0.478682,-0.0214 0.159561,-0.009 0.319121,-0.0186 0.478682,-0.03 0.159561,-0.0114 0.319122,-0.0243 0.478682,-0.0386 0.159561,-0.0143 0.319122,-0.03 0.478682,-0.0471 0.159561,-0.0171 0.319121,-0.0357 0.478682,-0.0557 0.159561,-0.02 0.319122,-0.0414 0.478682,-0.0642 0.159561,-0.0228 0.319122,-0.047 0.478683,-0.0727 0.15956,-0.0256 0.319121,-0.0527 0.478682,-0.0811 0.15956,-0.0284 0.319121,-0.0583 0.478682,-0.0896 0.159561,-0.0313 0.319121,-0.0639 0.478682,-0.098 0.159561,-0.0341 0.319121,-0.0695 0.478682,-0.10636 0.159561,-0.0368 0.319121,-0.0751 0.478682,-0.1147 0.159561,-0.0396 0.319121,-0.0806 0.478682,-0.123 0.159561,-0.0424 0.319122,-0.0861 0.478682,-0.13126 0.159561,-0.0451 0.319122,-0.0916 0.478682,-0.13947 0.159561,-0.0479 0.319122,-0.0971 0.478682,-0.14764 0.159561,-0.0506 0.319122,-0.10249 0.478683,-0.15576 0.15956,-0.0533 0.319121,-0.10787 0.478682,-0.16382 0.15956,-0.0559 0.319121,-0.11322 0.478682,-0.17183 0.15956,-0.0586 0.319121,-0.11853 0.478682,-0.17977 0.159561,-0.0612 0.319121,-0.12381 0.478682,-0.18767 0.159561,-0.0639 0.319121,-0.12903 0.478682,-0.19548 0.159561,-0.0665 0.319121,-0.13421 0.478682,-0.20324 0.159561,-0.069 0.319121,-0.13934 0.478682,-0.21092 0.159561,-0.0716 0.319122,-0.14443 0.478682,-0.21853 0.159561,-0.0741 0.319122,-0.14947 0.478682,-0.22607 0.159561,-0.0766 0.319122,-0.15444 0.478682,-0.23352 0.159561,-0.0791 0.319122,-0.15937 0.478683,-0.24089 0.15956,-0.0815 0.319121,-0.16425 0.478682,-0.24817 0.15956,-0.0839 0.319121,-0.16907 0.478682,-0.25538 0.15956,-0.0863 0.319121,-0.17382 0.478682,-0.26249 0.15956,-0.0887 0.319121,-0.17851 0.478682,-0.2695 0.159561,-0.091 0.319121,-0.18314 0.478682,-0.27642 0.159561,-0.0933 0.319121,-0.1877 0.478682,-0.28323 0.159561,-0.0955 0.319121,-0.1922 0.478682,-0.28996 0.159561,-0.0978 0.319122,-0.19662 0.478682,-0.29656 0.159561,-0.1 0.319122,-0.20098 0.478682,-0.30307 0.159561,-0.10209 0.319122,-0.20526 0.478682,-0.30946 0.159561,-0.10421 0.319122,-0.20946 0.478683,-0.31574 0.15956,-0.10629 0.319121,-0.21359 0.478682,-0.3219 0.15956,-0.10831 0.319121,-0.21764 0.478682,-0.32795 0.15956,-0.1103 0.319121,-0.2216 0.478682,-0.33386 0.15956,-0.11226 0.319121,-0.22549 0.478682,-0.33966 0.159561,-0.11417 0.319121,-0.22928 0.478682,-0.34532 0.159561,-0.11604 0.319121,-0.233 0.478682,-0.35086 0.159561,-0.11786 0.319121,-0.23662 0.478682,-0.35626 0.159561,-0.11964 0.319122,-0.24016 0.478682,-0.36153 0.159561,-0.12137 0.319122,-0.24359 0.478682,-0.36665 0.159561,-0.12305 0.319122,-0.24694 0.478682,-0.37163 0.159561,-0.12469 0.319122,-0.25019 0.478683,-0.37647 0.15956,-0.12628 0.319121,-0.25334 0.478682,-0.38115 0.15956,-0.12782 0.319121,-0.25641 0.478682,-0.3857 0.15956,-0.1293 0.319121,-0.25934 0.478681,-0.39008 0.159561,-0.13073 0.319124,-0.26218 0.478674,-0.3943 0.15956,-0.13212 0.31913,-0.26492 0.47869,-0.39837 0.15956,-0.13344 0.31912,-0.26754 0.47868,-0.40227 0.15957,-0.13472 0.31912,-0.27007 0.47869,-0.40601 0.15956,-0.13594 0.31912,-0.27247 0.47868,-0.40957 0.15956,-0.1371 0.31912,-0.27477 0.47868,-0.41298 0.15957,-0.1382 0.31913,-0.27695 0.47869,-0.4162 0.15957,-0.13925 0.31913,-0.279 0.47869,-0.41924 0.15956,-0.14023 0.31912,-0.28095 0.47868,-0.42211 0.15956,-0.14116 0.31912,-0.28277 0.47868,-0.42479 0.15956,-0.14202 0.31912,-0.28447 0.47869,-0.42729 0.15956,-0.14283 0.31913,-0.28604 0.47869,-0.4296 0.15956,-0.14356 0.31912,-0.28748 0.47868,-0.43171 0.15956,-0.14424 0.31912,-0.2888 0.47868,-0.43364 0.15956,-0.14484 0.31912,-0.28998 0.47869,-0.43536 0.15956,-0.14539 0.31912,-0.29103 0.47869,-0.43689 0.15956,-0.14586 0.31912,-0.29194 0.47868,-0.4382 0.15956,-0.14627 0.31912,-0.29272 0.47868,-0.43933 0.15956,-0.1466 0.31912,-0.29336 0.47868,-0.44023 0.15956,-0.14687 0.31912,-0.29386 0.47868,-0.44092 0.15956,-0.14707 0.31912,-0.29422 0.47869,-0.44141 0.15956,-0.14719 0.31912,-0.29442 0.47868,-0.44166 0.15956,-0.14725 0.31912,-0.29449 0.47868,-0.44171 0.15956,-0.14722 0.31912,-0.29441 0.47868,-0.44153 0.15956,-0.14712 0.31912,-0.29418 0.47868,-0.44112 0.15956,-0.14695 0.31913,-0.29379 0.47869,-0.44049 0.15956,-0.1467 0.31912,-0.29325 0.47868,-0.43962 0.15956,-0.14636 0.31912,-0.29255 0.47868,-0.43851 0.15956,-0.14596 0.31912,-0.2917 0.47868,-0.43717 0.15956,-0.14548 0.31912,-0.29069 0.47868,-0.43559 0.15957,-0.14491 0.31913,-0.28951 0.47869,-0.43377 0.15956,-0.14426 0.31912,-0.28817 0.47868,-0.4317 0.15956,-0.14352 0.31912,-0.28666 0.47868,-0.42937 0.15956,-0.14271 0.31912,-0.28499 0.47868,-0.4268 0.15956,-0.14182 0.31912,-0.28315 0.47868,-0.42398 0.15957,-0.14083 0.31913,-0.28114 0.47869,-0.42089 0.15956,-0.13975 0.31912,-0.27895 0.47868,-0.41754 0.15956,-0.1386 0.31912,-0.27659 0.47868,-0.41394 0.15956,-0.13735 0.31912,-0.27405 0.47868,-0.41006 0.15956,-0.13601 0.31912,-0.27133 0.47869,-0.40591 0.15956,-0.13458 0.31912,-0.26843 0.47868,-0.40149 0.15956,-0.13307 0.31912,-0.26535 0.47868,-0.39681 0.15956,-0.13145 0.31912,-0.26207 0.47868,-0.39183 0.15956,-0.12975 0.31912,-0.25862 0.47868,-0.38658 0.15956,-0.12795 0.31913,-0.25498 0.47869,-0.38104 0.15956,-0.12606 0.31912,-0.25115 0.47868,-0.37522 0.15956,-0.12407 0.31912,-0.24712 0.47868,-0.36911 0.15956,-0.12198 0.31912,-0.2429 0.47868,-0.3627 0.15956,-0.1198 0.31912,-0.23849 0.47868,-0.356 0.15956,-0.11752 0.31913,-0.23387 0.47869,-0.34901 0.15956,-0.11514 0.31912,-0.22905 0.47868,-0.34171 0.15956,-0.11265 0.31912,-0.22403 0.47868,-0.3341 0.15956,-0.11007 0.31912,-0.21882 0.47868,-0.3262 0.15956,-0.10738 0.31912,-0.21338 0.47868,-0.31797 0.15957,-0.10459 0.31913,-0.20775 0.47869,-0.30944 0.15956,-0.1017 0.31912,-0.20191 0.47868,-0.3006 0.15956,-0.0987 0.31912,-0.19585 0.47868,-0.29143 0.15956,-0.0956 0.31912,-0.18957 0.47868,-0.28194 0.15956,-0.0924 0.31912,-0.18309 0.47869,-0.27213 0.15956,-0.089 0.31912,-0.17638 0.47868,-0.26199 0.15956,-0.0856 0.31912,-0.16946 0.47868,-0.25152 0.15956,-0.0821 0.31912,-0.16232 0.47868,-0.24072 0.15956,-0.0784 0.31912,-0.15495 0.47868,-0.22959 0.15956,-0.0746 0.31912,-0.14735 0.47869,-0.21811 0.15956,-0.0708 0.31912,-0.13953 0.47868,-0.20629 0.15956,-0.0668 0.31912,-0.13148 0.47868,-0.19413 0.15956,-0.0626 0.31912,-0.1232 0.47868,-0.18162 0.15956,-0.0584 0.31912,-0.11469 0.47868,-0.16877 0.15956,-0.0541 0.31913,-0.10594 0.47869,-0.15555 0.15956,-0.0496 0.31912,-0.097 0.47868,-0.14199 0.15956,-0.045 0.31912,-0.0877 0.47868,-0.12806 0.15956,-0.0403 0.31912,-0.0783 0.47868,-0.11377 0.15956,-0.0355 0.31912,-0.0686 0.47868,-0.0991 0.15957,-0.0306 0.31913,-0.0586 0.47869,-0.0841 0.15956,-0.0255 0.31912,-0.0484 0.47868,-0.0687 0.15956,-0.0203 0.31912,-0.038 0.47868,-0.053 0.15956,-0.015 0.31912,-0.0273 0.47868,-0.0368 0.15956,-0.01 0.31912,-0.0163 0.47868,-0.0203 0.15957,-0.004 0.31913,-0.005 0.47869,-0.003 0.15956,0.002 0.31912,0.006 0.47868,0.0139 0.15956,0.008 0.31912,0.0181 0.47868,0.0316 0.15956,0.0135 0.31912,0.03 0.47868,0.0496 0.15956,0.0196 0.31912,0.0423 0.47869,0.0681 0.15956,0.0258 0.31912,0.0548 0.47868,0.0869 0.15956,0.0322 0.31912,0.0675 0.47868,0.10618 0.15956,0.0386 0.31912,0.0806 0.47868,0.12583 0.15956,0.0453 0.31912,0.0939 0.47868,0.14589 0.15956,0.052 0.31913,0.10745 0.47869,0.16636 0.15956,0.0589 0.31912,0.12129 0.47868,0.18722 0.15956,0.0659 0.31912,0.13543 0.47868,0.20852 0.15956,0.0731 0.31912,0.14982 0.47868,0.23022 0.15956,0.0804 0.31912,0.16451 0.47868,0.25235 0.15956,0.0879 0.31913,0.17946 0.47869,0.27489 0.15956,0.0954 0.31912,0.19471 0.47868,0.29787 0.15956,0.10316 0.31912,0.21023 0.47868,0.32126 0.15956,0.11103 0.31912,0.22605 0.47868,0.3451 0.15956,0.11904 0.31912,0.24215 0.47868,0.36935 0.15957,0.12721 0.31913,0.25855 0.47869,0.39406 0.15956,0.13552 0.31912,0.27523 0.47868,0.4192 0.15956,0.14397 0.31912,0.29221 0.47868,0.44478 0.15956,0.15257 0.31912,0.30949 0.47868,0.4708 0.15956,0.16132 0.31912,0.32707 0.47869,0.49728 0.15956,0.17022 0.31912,0.34494 0.47868,0.52421 0.15956,0.17927 0.31912,0.36312 0.47868,0.55159 0.15956,0.18847 0.31912,0.38159 0.47868,0.57942 0.15956,0.19783 0.31912,0.40038 0.47868,0.60772 0.15956,0.20733 0.31912,0.41948 0.47869,0.63647 0.15956,0.217 0.31912,0.43889 0.47868,0.6657 0.15956,0.22682 0.31912,0.4586 0.47868,0.6954 0.15956,0.23679 0.31912,0.47862 0.47868,0.72555 0.15956,0.24693 0.31912,0.49897 0.47868,0.75619 0.15956,0.25722 0.31913,0.51964 0.47869,0.78731 0.15956,0.26767 0.31912,0.54062 0.47868,0.8189 0.15956,0.27828 0.31912,0.56192 0.47868,0.85097 0.15956,0.28905 0.31912,0.58355 0.47868,0.88354 0.15956,0.29999 0.31912,0.6055 0.47868,0.91658 0.15956,0.31109 0.31913,0.62778 0.47869,0.95013 0.15956,0.32235 0.31912,0.65039 0.47868,0.98416 0.15956,0.33378 0.31912,0.67333 0.47868,1.0187 0.15956,0.34537 0.31912,0.69659 0.47868,1.05372 0.15956,0.35714 0.31912,0.72021 0.47868,1.08927 0.15957,0.36906 0.31913,0.74414 0.47869,1.1253 0.15956,0.38116 0.31912,0.76842 0.47868,1.16185 0.15956,0.39342 0.31912,0.79305 0.47868,1.19891 0.15956,0.40587 0.31912,0.81801 0.47868,1.23649 0.15956,0.41847 0.31912,0.84332 0.47869,1.27458 0.15956,0.43125 0.31912,0.86897 0.47868,1.31319 0.15956,0.44421 0.31912,0.89497 0.47868,1.35232 0.15956,0.45735 0.31912,0.92133 0.47868,1.39199 0.15956,0.47065 0.31912,0.94802 0.47868,1.43217 0.15956,0.48414 0.31912,0.97508 0.47869,1.4729 0.15956,0.4978 0.31912,1.00251 0.47868,1.51415 0.15956,0.51165 0.31912,1.03028 0.47868,1.55595 0.15956,0.52566 0.31912,1.05841 0.47868,1.59827 0.15956,0.53987 0.31912,1.08691 0.47868,1.64116 0.15956,0.55425 0.31913,1.11576 0.47869,1.68457 0.15956,0.56882 0.31912,1.14499 0.47868,1.72855 0.15956,0.58357 0.31912,1.17457 0.47868,1.77307 0.15956,0.5985 0.31912,1.20453 0.47868,1.81815 0.15956,0.61362 0.31912,1.23486 0.47868,1.86378 0.15957,0.62892 0.31913,1.26557 0.47869,1.90998 0.15956,0.64441 0.31912,1.29664 0.47868,1.95674 0.15956,0.66009 0.31912,1.32809 0.47868,2.00406 0.15956,0.67596 0.31912,1.35993 0.47868,2.05195"
       style="fill:none;fill-opacity:1;stroke:#0000fb;stroke-width:0.69999999;stroke-miterlimit:4;stroke-dasharray:none;stroke-dashoffset:0;stroke-opacity:1"
       inkscape:connector-curvature="0" />
    <path
       id="path1046-9-4"
       title="-0.5+1.3*pow(x,2)-pow(x,4)"
       d="m 73.200079,180.14956 c 0.159561,0 0.319121,-0.001 0.478682,-0.004 0.159561,-0.003 0.319121,-0.007 0.478682,-0.0129 0.159561,-0.006 0.319121,-0.0129 0.478682,-0.0214 0.159561,-0.009 0.319121,-0.0186 0.478682,-0.03 0.159561,-0.0114 0.319122,-0.0243 0.478682,-0.0386 0.159561,-0.0143 0.319122,-0.03 0.478682,-0.0471 0.159561,-0.0171 0.319121,-0.0357 0.478682,-0.0557 0.159561,-0.02 0.319122,-0.0414 0.478682,-0.0642 0.159561,-0.0228 0.319122,-0.047 0.478683,-0.0727 0.15956,-0.0256 0.319121,-0.0527 0.478682,-0.0811 0.15956,-0.0284 0.319121,-0.0583 0.478682,-0.0896 0.159561,-0.0313 0.319121,-0.0639 0.478682,-0.098 0.159561,-0.0341 0.319121,-0.0695 0.478682,-0.10636 0.159561,-0.0368 0.319121,-0.0751 0.478682,-0.1147 0.159561,-0.0396 0.319121,-0.0806 0.478682,-0.123 0.159561,-0.0424 0.319122,-0.0861 0.478682,-0.13126 0.159561,-0.0451 0.319122,-0.0916 0.478682,-0.13947 0.159561,-0.0479 0.319122,-0.0971 0.478682,-0.14764 0.159561,-0.0506 0.319122,-0.10249 0.478683,-0.15576 0.15956,-0.0533 0.319121,-0.10787 0.478682,-0.16382 0.15956,-0.0559 0.319121,-0.11322 0.478682,-0.17183 0.15956,-0.0586 0.319121,-0.11853 0.478682,-0.17977 0.159561,-0.0612 0.319121,-0.12381 0.478682,-0.18767 0.159561,-0.0639 0.319121,-0.12903 0.478682,-0.19548 0.159561,-0.0665 0.319121,-0.13421 0.478682,-0.20324 0.159561,-0.069 0.319121,-0.13934 0.478682,-0.21092 0.159561,-0.0716 0.319122,-0.14443 0.478682,-0.21853 0.159561,-0.0741 0.319122,-0.14947 0.478682,-0.22607 0.159561,-0.0766 0.319122,-0.15444 0.478682,-0.23352 0.159561,-0.0791 0.319122,-0.15937 0.478683,-0.24089 0.15956,-0.0815 0.319121,-0.16425 0.478682,-0.24817 0.15956,-0.0839 0.319121,-0.16907 0.478682,-0.25538 0.15956,-0.0863 0.319121,-0.17382 0.478682,-0.26249 0.15956,-0.0887 0.319121,-0.17851 0.478682,-0.2695 0.159561,-0.091 0.319121,-0.18314 0.478682,-0.27642 0.159561,-0.0933 0.319121,-0.1877 0.478682,-0.28323 0.159561,-0.0955 0.319121,-0.1922 0.478682,-0.28996 0.159561,-0.0978 0.319122,-0.19662 0.478682,-0.29656 0.159561,-0.1 0.319122,-0.20098 0.478682,-0.30307 0.159561,-0.10209 0.319122,-0.20526 0.478682,-0.30946 0.159561,-0.10421 0.319122,-0.20946 0.478683,-0.31574 0.15956,-0.10629 0.319121,-0.21359 0.478682,-0.3219 0.15956,-0.10831 0.319121,-0.21764 0.478682,-0.32795 0.15956,-0.1103 0.319121,-0.2216 0.478682,-0.33386 0.15956,-0.11226 0.319121,-0.22549 0.478682,-0.33966 0.159561,-0.11417 0.319121,-0.22928 0.478682,-0.34532 0.159561,-0.11604 0.319121,-0.233 0.478682,-0.35086 0.159561,-0.11786 0.319121,-0.23662 0.478682,-0.35626 0.159561,-0.11964 0.319122,-0.24016 0.478682,-0.36153 0.159561,-0.12137 0.319122,-0.24359 0.478682,-0.36665 0.159561,-0.12305 0.319122,-0.24694 0.478682,-0.37163 0.159561,-0.12469 0.319122,-0.25019 0.478683,-0.37647 0.15956,-0.12628 0.319121,-0.25334 0.478682,-0.38115 0.15956,-0.12782 0.319121,-0.25641 0.478682,-0.3857 0.15956,-0.1293 0.319121,-0.25934 0.478681,-0.39008 0.159561,-0.13073 0.319121,-0.26218 0.478677,-0.3943 0.15956,-0.13212 0.31913,-0.26492 0.47869,-0.39837 0.15956,-0.13344 0.31912,-0.26754 0.47868,-0.40227 0.15957,-0.13472 0.31912,-0.27007 0.4787,-0.40601 0.15955,-0.13594 0.31911,-0.27247 0.47868,-0.40957 0.15956,-0.1371 0.31912,-0.27477 0.47868,-0.41298 0.15957,-0.1382 0.31913,-0.27695 0.47869,-0.4162 0.15957,-0.13925 0.31913,-0.279 0.47869,-0.41924 0.15957,-0.14023 0.31913,-0.28095 0.47869,-0.42211 0.15956,-0.14116 0.31912,-0.28277 0.47868,-0.42479 0.15956,-0.14202 0.31912,-0.28447 0.4787,-0.42729 0.15955,-0.14283 0.31913,-0.28604 0.47869,-0.4296 0.15956,-0.14356 0.31912,-0.28748 0.47868,-0.43171 0.15956,-0.14424 0.31912,-0.2888 0.47868,-0.43364 0.15956,-0.14484 0.31912,-0.28998 0.4787,-0.43536 0.15956,-0.14539 0.31912,-0.29103 0.47869,-0.43689 0.15956,-0.14586 0.31912,-0.29194 0.47867,-0.4382 0.15957,-0.14627 0.31913,-0.29272 0.47869,-0.43933 0.15956,-0.1466 0.31912,-0.29336 0.47868,-0.44023 0.15955,-0.14687 0.31912,-0.29386 0.47868,-0.44092 0.15956,-0.14707 0.31912,-0.29422 0.47869,-0.44141 0.15956,-0.14719 0.31912,-0.29442 0.47867,-0.44166 0.15956,-0.14725 0.31913,-0.29449 0.47869,-0.44171 0.15956,-0.14722 0.31912,-0.29441 0.47868,-0.44153 0.15955,-0.14712 0.31911,-0.29418 0.47868,-0.44112 0.15956,-0.14695 0.31913,-0.29379 0.47869,-0.44049 0.15956,-0.1467 0.31912,-0.29325 0.47868,-0.43962 0.15955,-0.14636 0.31912,-0.29255 0.47868,-0.43851 0.15956,-0.14596 0.31912,-0.2917 0.47868,-0.43717 0.15956,-0.14548 0.31911,-0.29069 0.47868,-0.43559 0.15956,-0.14491 0.31913,-0.28951 0.47869,-0.43377 0.15956,-0.14426 0.31912,-0.28817 0.47868,-0.4317 0.15956,-0.14352 0.31911,-0.28666 0.47868,-0.42937 0.15956,-0.14271 0.31912,-0.28499 0.47868,-0.4268 0.15956,-0.14182 0.31912,-0.28315 0.47867,-0.42398 0.15957,-0.14083 0.31914,-0.28114 0.4787,-0.42089 0.15956,-0.13975 0.31912,-0.27895 0.47868,-0.41754 0.15956,-0.1386 0.31911,-0.27659 0.47868,-0.41394 0.15956,-0.13735 0.31912,-0.27405 0.47868,-0.41006 0.15956,-0.13601 0.31912,-0.27133 0.47869,-0.40591 0.15956,-0.13458 0.31911,-0.26843 0.47868,-0.40149 0.15956,-0.13307 0.31912,-0.26535 0.47868,-0.39681 0.15956,-0.13145 0.31912,-0.26207 0.47867,-0.39183 0.15957,-0.12975 0.31913,-0.25862 0.47869,-0.38658 0.15956,-0.12795 0.31913,-0.25498 0.47869,-0.38104 0.15956,-0.12606 0.31912,-0.25115 0.47867,-0.37522 0.15957,-0.12407 0.31913,-0.24712 0.47869,-0.36911 0.15956,-0.12198 0.31912,-0.2429 0.47868,-0.3627 0.15955,-0.1198 0.31912,-0.23849 0.47868,-0.356 0.15956,-0.11752 0.31913,-0.23387 0.47869,-0.34901 0.15956,-0.11514 0.31912,-0.22905 0.47867,-0.34171 0.15957,-0.11265 0.31913,-0.22403 0.47869,-0.3341 0.15956,-0.11007 0.31912,-0.21882 0.47868,-0.3262 0.15955,-0.10738 0.31912,-0.21338 0.47868,-0.31797 0.15957,-0.10459 0.31913,-0.20775 0.47869,-0.30944 0.15956,-0.1017 0.31912,-0.20191 0.47868,-0.3006 0.15955,-0.0987 0.31912,-0.19585 0.47868,-0.29143 0.15956,-0.0956 0.31912,-0.18957 0.47868,-0.28194 0.15956,-0.0924 0.31911,-0.18309 0.47869,-0.27213 0.15956,-0.089 0.31912,-0.17638 0.47868,-0.26199 0.15956,-0.0856 0.31912,-0.16946 0.47868,-0.25152 0.15956,-0.0821 0.31912,-0.16232 0.47868,-0.24072 0.15956,-0.0784 0.31912,-0.15495 0.47868,-0.22959 0.15956,-0.0746 0.31912,-0.14735 0.47869,-0.21811 0.15955,-0.0708 0.31912,-0.13953 0.47868,-0.20629 0.15956,-0.0668 0.31912,-0.13148 0.47868,-0.19413 0.15956,-0.0626 0.31911,-0.1232 0.47868,-0.18162 0.15956,-0.0584 0.31912,-0.11469 0.47868,-0.16877 0.15956,-0.0541 0.31913,-0.10594 0.47869,-0.15555 0.15956,-0.0496 0.31912,-0.097 0.47868,-0.14199 0.15956,-0.045 0.31912,-0.0877 0.47868,-0.12806 0.15956,-0.0403 0.31912,-0.0783 0.47868,-0.11377 0.15956,-0.0355 0.31912,-0.0686 0.47868,-0.0991 0.15957,-0.0306 0.31913,-0.0586 0.47869,-0.0841 0.15956,-0.0255 0.31912,-0.0484 0.47868,-0.0687 0.15956,-0.0203 0.31912,-0.038 0.47868,-0.053 0.15956,-0.015 0.31912,-0.0273 0.47868,-0.0368 0.15956,-0.01 0.31912,-0.0163 0.47868,-0.0203 0.15957,-0.004 0.31913,-0.005 0.47869,-0.003 0.15956,0.002 0.31912,0.006 0.47867,0.0139 0.15957,0.008 0.31913,0.0181 0.47869,0.0316 0.15956,0.0135 0.31912,0.03 0.47868,0.0496 0.15955,0.0196 0.31912,0.0423 0.47869,0.0681 0.15956,0.0258 0.31912,0.0548 0.47868,0.0869 0.15956,0.0322 0.31912,0.0675 0.47868,0.10618 0.15956,0.0386 0.31912,0.0806 0.47868,0.12583 0.15956,0.0453 0.31912,0.0939 0.47868,0.14589 0.15956,0.052 0.31913,0.10745 0.47869,0.16636 0.15956,0.0589 0.31912,0.12129 0.47868,0.18722 0.15956,0.0659 0.31912,0.13543 0.47868,0.20852 0.15956,0.0731 0.31912,0.14982 0.47868,0.23022 0.15956,0.0804 0.31912,0.16451 0.47868,0.25235 0.15956,0.0879 0.31913,0.17946 0.47869,0.27489 0.15956,0.0954 0.31912,0.19471 0.47868,0.29787 0.15956,0.10316 0.31912,0.21023 0.47868,0.32126 0.15956,0.11103 0.31912,0.22605 0.47868,0.3451 0.15956,0.11904 0.31912,0.24215 0.47868,0.36935 0.15957,0.12721 0.31913,0.25855 0.47869,0.39406 0.15956,0.13552 0.31912,0.27523 0.47868,0.4192 0.15956,0.14397 0.31912,0.29221 0.47868,0.44478 0.15956,0.15257 0.31912,0.30949 0.47868,0.4708 0.15956,0.16132 0.31912,0.32707 0.47869,0.49728 0.15956,0.17022 0.31912,0.34494 0.47868,0.52421 0.15956,0.17927 0.31912,0.36312 0.47868,0.55159 0.15956,0.18847 0.31912,0.38159 0.47868,0.57942 0.15956,0.19783 0.31912,0.40038 0.47868,0.60772 0.15956,0.20733 0.31912,0.41948 0.47869,0.63647 0.15956,0.217 0.31912,0.43889 0.47868,0.6657 0.15956,0.22682 0.31912,0.4586 0.47868,0.6954 0.15956,0.23679 0.31912,0.47862 0.47868,0.72555 0.15956,0.24693 0.31912,0.49897 0.47868,0.75619 0.15956,0.25722 0.31913,0.51964 0.47869,0.78731 0.15956,0.26767 0.31912,0.54062 0.47868,0.8189 0.15956,0.27828 0.31912,0.56192 0.47868,0.85097 0.15956,0.28905 0.31912,0.58355 0.47868,0.88354 0.15956,0.29999 0.31912,0.6055 0.47868,0.91658 0.15956,0.31109 0.31913,0.62778 0.47869,0.95013 0.15956,0.32235 0.31912,0.65039 0.47868,0.98416 0.15956,0.33378 0.31912,0.67333 0.47868,1.0187 0.15956,0.34537 0.31912,0.69659 0.47868,1.05372 0.15956,0.35714 0.31912,0.72021 0.47868,1.08927 0.15957,0.36906 0.31913,0.74414 0.47869,1.1253 0.15956,0.38116 0.31912,0.76842 0.47868,1.16185 0.15956,0.39342 0.31912,0.79305 0.47868,1.19891 0.15956,0.40587 0.31912,0.81801 0.47868,1.23649 0.15956,0.41847 0.31912,0.84332 0.47869,1.27458 0.15956,0.43125 0.31912,0.86897 0.47868,1.31319 0.15956,0.44421 0.31912,0.89497 0.47868,1.35232 0.15956,0.45735 0.31912,0.92133 0.47868,1.39199 0.15956,0.47065 0.31912,0.94802 0.47868,1.43217 0.15956,0.48414 0.31912,0.97508 0.47869,1.4729 0.15956,0.4978 0.31912,1.00251 0.47868,1.51415 0.15956,0.51165 0.31912,1.03028 0.47868,1.55595 0.15956,0.52566 0.31912,1.05841 0.47868,1.59827 0.15956,0.53987 0.31912,1.08691 0.47868,1.64116 0.15956,0.55425 0.31913,1.11576 0.47869,1.68457 0.15956,0.56882 0.31912,1.14499 0.47868,1.72855 0.15956,0.58357 0.31912,1.17457 0.47868,1.77307 0.15956,0.5985 0.31912,1.20453 0.47868,1.81815 0.15956,0.61362 0.31912,1.23486 0.47868,1.86378 0.15957,0.62892 0.31913,1.26557 0.47869,1.90998 0.15956,0.64441 0.31912,1.29664 0.47868,1.95674 0.15956,0.66009 0.31912,1.32809 0.47868,2.00406 0.15956,0.67596 0.31912,1.35993 0.47868,2.05195"
       style="fill:none;fill-opacity:1;stroke:#0000fb;stroke-width:0.69999999;stroke-miterlimit:4;stroke-dasharray:none;stroke-dashoffset:0;stroke-opacity:1"
       inkscape:connector-curvature="0" />
    <text
       xml:space="preserve"
       style="font-size:12px;line-height:0%;font-family:'Palatino Linotype';-inkscape-font-specification:'Palatino Linotype';letter-spacing:0px;word-spacing:0px;stroke-width:0.26458299"
       x="135.09795"
       y="129.82773"
       id="text11562-1"><tspan
         sodipodi:role="line"
         id="tspan11560-6"
         style="font-size:7.76111126px;line-height:1.25;stroke-width:0.26458299"
         x="135.09795"
         y="129.82773">k*</tspan></text>
    <path
       style="fill:none;stroke:#000000;stroke-width:0.4;stroke-linecap:butt;stroke-linejoin:miter;stroke-opacity:1;stroke-miterlimit:4;stroke-dasharray:none"
       d="m 137.36096,119.2246 c 0,3.96927 0,4.08955 0,4.08955"
       id="path1969"
       inkscape:connector-curvature="0" />
  </g>
</svg>
