<?xml version="1.0" encoding="UTF-8" standalone="no"?>
<!-- Created with Inkscape (http://www.inkscape.org/) -->

<svg
   xmlns:dc="http://purl.org/dc/elements/1.1/"
   xmlns:cc="http://creativecommons.org/ns#"
   xmlns:rdf="http://www.w3.org/1999/02/22-rdf-syntax-ns#"
   xmlns:svg="http://www.w3.org/2000/svg"
   xmlns="http://www.w3.org/2000/svg"
   xmlns:sodipodi="http://sodipodi.sourceforge.net/DTD/sodipodi-0.dtd"
   xmlns:inkscape="http://www.inkscape.org/namespaces/inkscape"
   width="210mm"
   height="297mm"
   viewBox="0 0 210 297"
   version="1.1"
   id="svg5"
   inkscape:version="0.91 r13725"
   sodipodi:docname="Figure_growthrate2.svg">
  <sodipodi:namedview
     id="namedview7"
     pagecolor="#ffffff"
     bordercolor="#666666"
     borderopacity="1.0"
     inkscape:pageshadow="2"
     inkscape:pageopacity="0.0"
     inkscape:pagecheckerboard="0"
     inkscape:document-units="mm"
     showgrid="false"
     inkscape:zoom="1.0998546"
     inkscape:cx="310.0329"
     inkscape:cy="556.34244"
     inkscape:window-width="1365"
     inkscape:window-height="768"
     inkscape:window-x="13"
     inkscape:window-y="64"
     inkscape:window-maximized="0"
     inkscape:current-layer="layer1"
     showguides="false" />
  <metadata
     id="metadata34">
    <rdf:RDF>
      <cc:Work
         rdf:about="">
        <dc:format>image/svg+xml</dc:format>
        <dc:type
           rdf:resource="http://purl.org/dc/dcmitype/StillImage" />
        <dc:title></dc:title>
      </cc:Work>
    </rdf:RDF>
  </metadata>
  <defs
     id="defs2">
    <marker
       style="overflow:visible;"
       id="Arrow2Lend"
       refX="0.0"
       refY="0.0"
       orient="auto"
       inkscape:stockid="Arrow2Lend"
       inkscape:isstock="true">
      <path
         transform="scale(1.1) rotate(180) translate(1,0)"
         d="M 8.7185878,4.0337352 L -2.2072895,0.016013256 L 8.7185884,-4.0017078 C 6.9730900,-1.6296469 6.9831476,1.6157441 8.7185878,4.0337352 z "
         style="fill-rule:evenodd;fill:context-stroke;stroke-width:0.625;stroke-linejoin:round;stroke:#000000;stroke-opacity:1"
         id="path962" />
    </marker>
    <marker
       style="overflow:visible;"
       id="Arrow1Mend"
       refX="0.0"
       refY="0.0"
       orient="auto"
       inkscape:stockid="Arrow1Mend"
       inkscape:isstock="true">
      <path
         transform="scale(0.4) rotate(180) translate(10,0)"
         style="fill-rule:evenodd;fill:context-stroke;stroke:context-stroke;stroke-width:1.0pt;"
         d="M 0.0,0.0 L 5.0,-5.0 L -12.5,0.0 L 5.0,5.0 L 0.0,0.0 z "
         id="path950" />
    </marker>
    <marker
       style="overflow:visible;"
       id="Arrow1Lend"
       refX="0.0"
       refY="0.0"
       orient="auto"
       inkscape:stockid="Arrow1Lend"
       inkscape:isstock="true">
      <path
         transform="scale(0.8) rotate(180) translate(12.5,0)"
         style="fill-rule:evenodd;fill:#007a00;stroke:#007a00;stroke-width:1pt;stroke-opacity:1;fill-opacity:1"
         d="M 0.0,0.0 L 5.0,-5.0 L -12.5,0.0 L 5.0,5.0 L 0.0,0.0 z "
         id="path944" />
    </marker>
    <marker
       style="overflow:visible"
       id="Arrow2Lend-9"
       refX="0"
       refY="0"
       orient="auto"
       inkscape:stockid="Arrow2Lend"
       inkscape:isstock="true">
      <path
         transform="matrix(-1.1,0,0,-1.1,-1.1,0)"
         d="M 8.7185878,4.0337352 -2.2072895,0.01601326 8.7185884,-4.0017078 c -1.7454984,2.3720609 -1.7354408,5.6174519 -6e-7,8.035443 z"
         style="fill:#000000;fill-rule:evenodd;stroke-width:0.625;stroke-linejoin:round;stroke:#000000;stroke-opacity:1;fill-opacity:1"
         id="path962-4" />
    </marker>
  </defs>
  <g
     inkscape:label="Layer 1"
     inkscape:groupmode="layer"
     id="layer1">
    <path
       style="fill:none;stroke:#000000;stroke-width:0.5;stroke-linecap:butt;stroke-linejoin:miter;stroke-miterlimit:4;stroke-dasharray:none;stroke-opacity:1;marker-end:url(#Arrow2Lend)"
       d="m 73.12895,177.52051 c 0,-78.635568 0,-78.635568 0,-78.635568"
       id="path42"
       inkscape:connector-curvature="0" />
    <path
       style="fill:none;stroke:#000000;stroke-width:0.50992697;stroke-linecap:butt;stroke-linejoin:miter;stroke-miterlimit:4;stroke-dasharray:none;stroke-opacity:1;marker-end:url(#Arrow2Lend-9)"
       d="m 65.075201,139.81853 c 110.047069,0 110.047069,0 110.047069,0"
       id="path42-2"
       inkscape:connector-curvature="0" />
    <text
       xml:space="preserve"
       style="line-height:0%;font-family:'Palatino Linotype';-inkscape-font-specification:'Palatino Linotype';letter-spacing:0px;word-spacing:0px;stroke-width:0.26458299"
       x="64.217529"
       y="95.30378"
       id="text5468"><tspan
         sodipodi:role="line"
         style="font-size:7.76111126px;line-height:1.25;stroke-width:0.26458299"
         x="64.217529"
         y="95.30378"
         id="tspan1095">σ(k)</tspan></text>
    <text
       xml:space="preserve"
       style="line-height:0%;font-family:'Palatino Linotype';-inkscape-font-specification:'Palatino Linotype';letter-spacing:0px;word-spacing:0px;stroke-width:0.26458299"
       x="177.58763"
       y="144.75775"
       id="text11562"><tspan
         sodipodi:role="line"
         id="tspan11560"
         style="font-size:7.76111126px;line-height:1.25;stroke-width:0.26458299"
         x="177.58763"
         y="144.75775">k</tspan></text>
    <path
       id="path1192-2"
       title="-0.5-pow(x,2)"
       d="m 73.125466,122.44187 c 0.319589,0 0.639176,0.06 0.958763,0.0625 0.319588,0.003 0.639175,0.008 0.958763,0.0142 0.319588,0.007 0.639175,0.0141 0.958764,0.024 0.319587,0.0101 0.639174,0.0207 0.958763,0.0332 0.319588,0.0125 0.639174,0.0266 0.958762,0.0426 0.319588,0.0158 0.639176,0.0332 0.958763,0.0522 0.319587,0.019 0.639176,0.0398 0.958764,0.0615 0.319586,0.0223 0.639175,0.0457 0.958762,0.0713 0.319588,0.0252 0.639175,0.0522 0.958762,0.0805 0.319589,0.0283 0.639177,0.0588 0.958763,0.0903 0.319589,0.0316 0.639175,0.0648 0.958763,0.0997 0.319588,0.0348 0.639175,0.0713 0.958763,0.1092 0.319588,0.0381 0.639175,0.0777 0.958763,0.11868 0.319588,0.0413 0.639175,0.0838 0.958763,0.12816 0.319587,0.0443 0.639175,0.0904 0.958763,0.13767 0.319587,0.0473 0.639175,0.0964 0.958763,0.14717 0.319587,0.0506 0.639175,0.10286 0.958762,0.15666 0.319588,0.0539 0.639176,0.10919 0.958763,0.16617 0.319588,0.0571 0.639176,0.11552 0.958763,0.17566 0.319588,0.06 0.639175,0.12181 0.958763,0.18512 0.319588,0.0631 0.639175,0.12818 0.958763,0.19464 0.319588,0.0664 0.639175,0.13451 0.958763,0.20412 0.319588,0.0697 0.639175,0.14086 0.958763,0.21363 0.319587,0.073 0.639175,0.14718 0.958763,0.22315 0.319587,0.0762 0.639175,0.15348 0.958763,0.2326 0.319587,0.0787 0.639175,0.15982 0.958762,0.24211 0.319588,0.0821 0.639176,0.16617 0.958763,0.2516 0.319588,0.0854 0.639175,0.17249 0.958763,0.26112 0.319583,0.0887 0.639173,0.1788 0.958763,0.27059 0.31959,0.092 0.63918,0.18516 0.95876,0.28009 0.31959,0.095 0.63918,0.19146 0.95877,0.28959 0.31958,0.098 0.63917,0.1978 0.95876,0.29908 0.31959,0.10127 0.63917,0.20414 0.95876,0.30857 0.31959,0.10442 0.63918,0.21046 0.95876,0.31807 0.31959,0.10761 0.63918,0.21679 0.95877,0.32757 0.31959,0.11077 0.63917,0.22311 0.95876,0.33705 0.31959,0.11394 0.63918,0.22947 0.95876,0.34658 0.31959,0.11708 0.63918,0.23576 0.95877,0.35602 0.31958,0.1203 0.63917,0.24211 0.95876,0.36554 0.31959,0.12344 0.63917,0.24844 0.95876,0.37504 0.31959,0.1266 0.63918,0.25477 0.95876,0.38454 0.31959,0.12974 0.63918,0.2611 0.95877,0.39403 0.31959,0.13292 0.63917,0.26743 0.95876,0.40351 0.31959,0.13608 0.63918,0.27376 0.95876,0.41303 0.31959,0.13925 0.63918,0.28007 0.95877,0.42249 0.31958,0.14244 0.63917,0.28644 0.95876,0.43201 0.31959,0.14559 0.63917,0.29277 0.95876,0.44151 0.31959,0.14873 0.63918,0.29906 0.95877,0.45099 0.31958,0.1519 0.63917,0.30541 0.95876,0.46049 0.31959,0.15506 0.63917,0.31174 0.95876,0.46998 0.31959,0.15822 0.63918,0.31809 0.95876,0.47947 0.31959,0.16142 0.63918,0.32441 0.95877,0.48898 0.31958,0.16456 0.63917,0.33071 0.95876,0.49847 0.31959,0.16775 0.63917,0.33705 0.95876,0.50794 0.31959,0.17092 0.63918,0.3434 0.95877,0.51748 0.31958,0.17405 0.63917,0.34971 0.95876,0.52694 0.31959,0.17723 0.63917,0.35605 0.95876,0.53642 0.31959,0.18044 0.63918,0.36239 0.95876,0.54597 0.31959,0.18355 1.56018,1.07675 1.56018,1.07675 -1.9138,0.29044 -49.739235,-0.002 -57.087307,0.0579 z"
       style="fill:#f20000;fill-opacity:0.43283584;stroke:none;stroke-width:0.2600694;stroke-miterlimit:4;stroke-dasharray:none;stroke-dashoffset:0;stroke-opacity:1"
       inkscape:connector-curvature="0"
       sodipodi:nodetypes="csccscsscscccccccccccscccccccsccsccsccccscsccccscssccscccccccc" />
    <path
       id="path1192"
       title="-0.5-pow(x,2)"
       d="m 73.125466,122.14157 c 0.319588,0 0.639176,0.002 0.958763,0.005 0.319588,0.003 0.639175,0.008 0.958763,0.0148 0.319588,0.007 0.639175,0.0148 0.958763,0.0247 0.319588,0.01 0.639175,0.0214 0.958763,0.0345 0.319588,0.0131 0.639175,0.0279 0.958763,0.0444 0.319587,0.0164 0.639175,0.0345 0.958763,0.0542 0.319587,0.0197 0.639175,0.0411 0.958763,0.0641 0.319587,0.023 0.639175,0.0477 0.958762,0.0739 0.319588,0.0263 0.639176,0.0542 0.958763,0.0838 0.319588,0.0296 0.639176,0.0608 0.958763,0.0936 0.319588,0.0329 0.639175,0.0674 0.958763,0.10351 0.319588,0.0361 0.639175,0.0739 0.958763,0.11336 0.319588,0.0394 0.639175,0.0805 0.958763,0.12323 0.319588,0.0427 0.639175,0.0871 0.958763,0.13308 0.319587,0.046 0.639175,0.0937 0.958763,0.14294 0.319587,0.0493 0.639175,0.10023 0.958763,0.1528 0.319587,0.0526 0.639175,0.1068 0.958762,0.16266 0.319588,0.0559 0.639176,0.11337 0.958763,0.17252 0.319588,0.0591 0.639176,0.11994 0.958763,0.18237 0.319588,0.0624 0.639175,0.12651 0.958763,0.19223 0.319588,0.0657 0.639175,0.13309 0.958763,0.20209 0.319588,0.069 0.639175,0.13966 0.958763,0.21195 0.319588,0.0723 0.639175,0.14623 0.958763,0.2218 0.319587,0.0756 0.639175,0.15281 0.958763,0.23167 0.319587,0.0789 0.639175,0.15937 0.958763,0.24152 0.319587,0.0821 0.639175,0.16594 0.958762,0.25138 0.319588,0.0854 0.639176,0.17252 0.958763,0.26124 0.319588,0.0887 0.639176,0.17909 0.958763,0.27109 0.319583,0.092 0.639173,0.18566 0.958763,0.28096 0.31959,0.0953 0.63918,0.19223 0.95876,0.29081 0.31959,0.0986 0.63918,0.1988 0.95877,0.30067 0.31958,0.10186 0.63917,0.20538 0.95876,0.31053 0.31959,0.10515 0.63917,0.21195 0.95876,0.32038 0.31959,0.10844 0.63918,0.21852 0.95876,0.33025 0.31959,0.11172 0.63918,0.22509 0.95877,0.3401 0.31959,0.11501 0.63917,0.23166 0.95876,0.34996 0.31959,0.11829 0.63918,0.23824 0.95876,0.35982 0.31959,0.12158 0.63918,0.24481 0.95877,0.36967 0.31958,0.12487 0.63917,0.25138 0.95876,0.37954 0.31959,0.12815 0.63917,0.25795 0.95876,0.38939 0.31959,0.13144 0.63918,0.26452 0.95876,0.39925 0.31959,0.13472 0.63918,0.2711 0.95877,0.40911 0.31959,0.13801 0.63917,0.27767 0.95876,0.41896 0.31959,0.1413 0.63918,0.28425 0.95876,0.42883 0.31959,0.14458 0.63918,0.29081 0.95877,0.43868 0.31958,0.14787 0.63917,0.29739 0.95876,0.44854 0.31959,0.15116 0.63917,0.30396 0.95876,0.4584 0.31959,0.15444 0.63918,0.31053 0.95877,0.46826 0.31958,0.15772 0.63917,0.3171 0.95876,0.47811 0.31959,0.16101 0.63917,0.32367 0.95876,0.48797 0.31959,0.1643 0.63918,0.33025 0.95876,0.49783 0.31959,0.16759 0.63918,0.33682 0.95877,0.50769 0.31958,0.17087 0.63917,0.34339 0.95876,0.51755 0.31959,0.17416 0.63917,0.34996 0.95876,0.5274 0.31959,0.17745 0.63918,0.35654 0.95877,0.53727 0.31958,0.18072 0.63917,0.3631 0.95876,0.54712 0.31959,0.18401 0.63917,0.36967 0.95876,0.55697 0.31959,0.18731 0.63918,0.37625 0.95876,0.56684 0.31959,0.19059 0.63918,0.38282 0.95877,0.5767 0.31958,0.19387 0.63917,0.38939 0.95876,0.58655 0.31959,0.19716 0.63917,0.39596 0.95876,0.59641 0.31959,0.20044 0.63918,0.40254 0.95877,0.60627 0.31958,0.20373 0.63917,0.40911 0.95876,0.61613 0.31959,0.20701 0.63917,0.41568 0.95876,0.62598 0.31959,0.2103 0.63918,0.42225 0.95876,0.63584 0.31959,0.21359 0.63918,0.42883 0.95877,0.6457 0.31958,0.21688 0.63917,0.4354 0.95876,0.65556 0.31959,0.22016 0.63918,0.44197 0.95876,0.66542 0.31959,0.22345 0.63918,0.44854 0.95877,0.67528 0.31958,0.22673 0.63917,0.45511 0.95876,0.68513 0.31959,0.23002 0.63917,0.46168 0.95876,0.69499 0.31959,0.2333 0.63918,0.46826 0.95876,0.70485 0.31959,0.23659 0.63918,0.47483 0.95877,0.71471 0.31958,0.23987 0.63917,0.4814 0.95876,0.72456 0.31959,0.24316 0.63918,0.48798 0.95876,0.73442 0.31959,0.24645 0.63918,0.49455 0.95877,0.74429 0.31958,0.24973 0.63917,0.50111 0.95876,0.75413 0.31959,0.25303 0.63917,0.5077 0.95876,0.764 0.31959,0.25631 0.63918,0.51426 0.95876,0.77386 0.31959,0.25959 0.63918,0.52083 0.95877,0.78371 0.31959,0.26288 0.63917,0.52741 0.95876,0.79357 0.31959,0.26617 0.63918,0.53398 0.95876,0.80343 0.31959,0.26945 0.63918,0.54055 0.95877,0.81329 0.31958,0.27274 0.63917,0.54712 0.95876,0.82314 0.31959,0.27603 0.63917,0.5537 0.95876,0.83301 0.31959,0.27931 0.63918,0.56026 0.95876,0.84286 0.31959,0.28259 0.63918,0.56684 0.95877,0.85272 0.31959,0.28588 0.63917,0.57341 0.95876,0.86258 0.31959,0.28916 0.63918,0.57998 0.95876,0.87243 0.31959,0.29246 0.63918,0.58656 0.95877,0.8823 0.31958,0.29574 0.63917,0.59312 0.95876,0.89215 0.31959,0.29902 0.63917,0.5997 0.95876,0.90201 0.31959,0.30231 0.63918,0.60627 0.95877,0.91187 0.31958,0.30559 0.63917,0.61284 0.95876,0.92172 0.31959,0.30888 0.63917,0.61942 0.95876,0.93159 0.31959,0.31216 0.63918,0.62598 0.95876,0.94144 0.31959,0.31545 0.63918,0.63256 0.95877,0.9513 0.31958,0.31874 0.63917,0.63913 0.95876,0.96115 0.31959,0.32203 0.63917,0.64571 0.95876,0.97102"
       style="fill:none;fill-opacity:0.99187;stroke:#0000ff;stroke-width:0.76499999;stroke-miterlimit:4;stroke-dasharray:none;stroke-dashoffset:0;stroke-opacity:1"
       inkscape:connector-curvature="0" />
    <path
       id="path1192-5"
       title="-0.5-pow(x,2)"
       d="m 73.186155,106.8834 c 0.319588,0 0.639176,0.002 0.958763,0.005 0.319588,0.003 0.639175,0.008 0.958763,0.0148 0.319588,0.007 0.639175,0.0148 0.958763,0.0247 0.319588,0.01 0.639175,0.0214 0.958763,0.0345 0.319588,0.0131 0.639175,0.0279 0.958763,0.0444 0.319587,0.0164 0.639175,0.0345 0.958763,0.0542 0.319587,0.0197 0.639175,0.0411 0.958763,0.0641 0.319587,0.023 0.639175,0.0477 0.958762,0.0739 0.319588,0.0263 0.639176,0.0542 0.958763,0.0838 0.319588,0.0296 0.639176,0.0608 0.958763,0.0936 0.319588,0.0329 0.639175,0.0674 0.958763,0.10351 0.319588,0.0361 0.639175,0.0739 0.958763,0.11336 0.319588,0.0394 0.639175,0.0805 0.958763,0.12323 0.319588,0.0427 0.639175,0.0871 0.958763,0.13308 0.319587,0.046 0.639175,0.0937 0.958763,0.14294 0.319587,0.0493 0.639175,0.10023 0.958763,0.1528 0.319587,0.0526 0.639175,0.1068 0.958762,0.16266 0.319588,0.0559 0.639176,0.11337 0.958763,0.17252 0.319588,0.0591 0.639176,0.11994 0.958763,0.18237 0.319588,0.0624 0.639175,0.12651 0.958763,0.19223 0.319588,0.0657 0.639175,0.13309 0.958763,0.20209 0.319588,0.069 0.639175,0.13966 0.958763,0.21195 0.319588,0.0723 0.639175,0.14623 0.958763,0.2218 0.319587,0.0756 0.639175,0.15281 0.958763,0.23167 0.319587,0.0789 0.639175,0.15937 0.958763,0.24152 0.319587,0.0821 0.639175,0.16594 0.958762,0.25138 0.319588,0.0854 0.639176,0.17252 0.958763,0.26124 0.319588,0.0887 0.639176,0.17909 0.958767,0.27109 0.31958,0.092 0.63916,0.18566 0.95875,0.28096 0.31959,0.0953 0.63918,0.19223 0.95876,0.29081 0.3196,0.0986 0.63918,0.1988 0.95878,0.30067 0.31958,0.10186 0.63916,0.20538 0.95876,0.31053 0.31958,0.10515 0.63916,0.21195 0.95875,0.32038 0.3196,0.10844 0.63918,0.21852 0.95876,0.33025 0.3196,0.11172 0.63918,0.22509 0.95878,0.3401 0.31958,0.11501 0.63916,0.23166 0.95876,0.34996 0.31958,0.11829 0.63917,0.23824 0.95875,0.35982 0.3196,0.12158 0.63918,0.24481 0.95878,0.36967 0.31958,0.12487 0.63916,0.25138 0.95876,0.37954 0.31958,0.12815 0.63916,0.25795 0.95876,0.38939 0.31958,0.13144 0.63917,0.26452 0.95875,0.39925 0.3196,0.13472 0.63918,0.2711 0.95878,0.40911 0.31958,0.13801 0.63916,0.27767 0.95876,0.41896 0.31958,0.1413 0.63918,0.28425 0.95876,0.42883 0.31958,0.14458 0.63918,0.29081 0.95876,0.43868 0.31959,0.14787 0.63917,0.29739 0.95877,0.44854 0.31958,0.15116 0.63916,0.30396 0.95876,0.4584 0.31958,0.15444 0.63918,0.31053 0.95876,0.46826 0.31958,0.15772 0.63918,0.3171 0.95876,0.47811 0.31959,0.16101 0.63917,0.32367 0.95877,0.48797 0.31958,0.1643 0.63918,0.33025 0.95876,0.49783 0.31958,0.16759 0.63918,0.33682 0.95876,0.50769 0.31958,0.17087 0.63918,0.34339 0.95876,0.51755 0.31959,0.17416 0.63917,0.34996 0.95877,0.5274 0.31958,0.17745 0.63918,0.35654 0.95876,0.53727 0.31958,0.18072 0.63918,0.3631 0.95876,0.54712 0.3196,0.18401 0.63918,0.36967 0.95876,0.55697 0.31959,0.18731 0.63919,0.37625 0.95877,0.56684 0.31958,0.19059 0.63918,0.38282 0.95876,0.5767 0.31958,0.19387 0.63918,0.38939 0.95876,0.58655 0.3196,0.19716 0.63918,0.39596 0.95876,0.59641 0.3196,0.20044 0.63919,0.40254 0.95877,0.60627 0.31958,0.20373 0.63918,0.40911 0.95876,0.61613 0.3196,0.20701 0.63918,0.41568 0.95876,0.62598 0.3196,0.2103 0.63918,0.42225 0.95876,0.63584 0.3196,0.21359 0.63919,0.42883 0.95877,0.6457 0.31958,0.21688 0.63918,0.4354 0.95876,0.65556 0.3196,0.22016 0.63918,0.44197 0.95876,0.66542 0.3196,0.22345 0.63918,0.44854 0.95878,0.67528 0.31958,0.22673 0.63917,0.45511 0.95875,0.68513 0.3196,0.23002 0.63918,0.46168 0.95876,0.69499 0.3196,0.2333 0.63918,0.46826 0.95876,0.70485 0.3196,0.23659 0.63918,0.47483 0.95878,0.71471 0.31958,0.23987 0.63917,0.4814 0.95875,0.72456 0.3196,0.24316 0.63918,0.48798 0.95876,0.73442 0.3196,0.24645 0.63918,0.49455 0.95878,0.74429 0.31958,0.24973 0.63916,0.50111 0.95876,0.75413 0.31959,0.25303 0.63917,0.5077 0.95876,0.764 0.31959,0.25631 0.63917,0.51426 0.95875,0.77386 0.3196,0.25959 0.63918,0.52083 0.95878,0.78371 0.31958,0.26288 0.63916,0.52741 0.95876,0.79357 0.31958,0.26617 0.63918,0.53398 0.95876,0.80343 0.31959,0.26945 0.63917,0.54055 0.95877,0.81329 0.31958,0.27274 0.63916,0.54712 0.95876,0.82314 0.31958,0.27603 0.63916,0.5537 0.95876,0.83301 0.31958,0.27931 0.63918,0.56027 0.95876,0.84286 0.31959,0.28259 0.63917,0.56684 0.95877,0.85272 0.31958,0.28588 0.63916,0.57341 0.95876,0.86258 0.31958,0.28916 0.63918,0.57998 0.95876,0.87243 0.31958,0.29246 0.63918,0.58656 0.95877,0.8823 0.31958,0.29574 0.63916,0.59312 0.95876,0.89215 0.31958,0.29902 0.63916,0.5997 0.95876,0.90202 0.31958,0.3023 0.63918,0.60626 0.95876,0.91186 0.31958,0.30559 0.63918,0.61284 0.95877,0.92172 0.31959,0.30889 0.63917,0.61942 0.95876,0.93159 0.31958,0.31216 0.63918,0.62598 0.95876,0.94144 0.31958,0.31546 0.63918,0.63256 0.95876,0.9513 0.31958,0.31874 0.63918,0.63913 0.95877,0.96115 0.31959,0.32203 0.63917,0.64572 0.95876,0.97102"
       style="fill:none;fill-opacity:0.99187;stroke:#0000ff;stroke-width:0.76499999;stroke-miterlimit:4;stroke-dasharray:none;stroke-dashoffset:0;stroke-opacity:1"
       inkscape:connector-curvature="0" />
    <path
       id="path1192-8"
       title="-0.5-pow(x,2)"
       d="m 73.00661,140.11226 c 0.319588,0 0.639176,0.002 0.958763,0.005 0.319588,0.003 0.639175,0.008 0.958763,0.0148 0.319588,0.007 0.639175,0.0148 0.958763,0.0247 0.319588,0.01 0.639175,0.0214 0.958763,0.0345 0.319588,0.0131 0.639175,0.0279 0.958763,0.0444 0.319587,0.0164 0.639175,0.0345 0.958763,0.0542 0.319587,0.0197 0.639175,0.0411 0.958763,0.0641 0.319587,0.023 0.639175,0.0477 0.958762,0.0739 0.319588,0.0263 0.639176,0.0542 0.958763,0.0838 0.319588,0.0296 0.639176,0.0608 0.958763,0.0936 0.319588,0.0329 0.639175,0.0674 0.958763,0.10351 0.319588,0.0361 0.639175,0.0739 0.958763,0.11336 0.319588,0.0394 0.639175,0.0805 0.958763,0.12323 0.319588,0.0427 0.639175,0.0871 0.958763,0.13308 0.319587,0.046 0.639175,0.0937 0.958763,0.14294 0.319587,0.0493 0.639175,0.10023 0.958763,0.1528 0.319587,0.0526 0.639175,0.1068 0.958762,0.16266 0.319588,0.0559 0.639176,0.11337 0.958763,0.17252 0.319588,0.0591 0.639176,0.11994 0.958763,0.18237 0.319588,0.0624 0.639175,0.12651 0.958763,0.19223 0.319588,0.0657 0.639175,0.13309 0.958763,0.20209 0.319588,0.069 0.639175,0.13966 0.958763,0.21195 0.319588,0.0723 0.639175,0.14623 0.958763,0.2218 0.319587,0.0756 0.639175,0.15281 0.958763,0.23167 0.319587,0.0789 0.639175,0.15937 0.958763,0.24152 0.319587,0.0821 0.639175,0.16594 0.958762,0.25138 0.319588,0.0854 0.639176,0.17252 0.958763,0.26124 0.319588,0.0887 0.639176,0.17909 0.958763,0.27109 0.319579,0.092 0.639169,0.18566 0.958759,0.28096 0.31959,0.0953 0.63918,0.19223 0.95876,0.29081 0.31959,0.0986 0.63918,0.1988 0.95877,0.30067 0.31958,0.10186 0.63917,0.20538 0.95876,0.31053 0.31959,0.10515 0.63917,0.21195 0.95876,0.32038 0.3196,0.10844 0.63918,0.21852 0.95876,0.33025 0.31959,0.11172 0.63918,0.22509 0.95877,0.3401 0.31959,0.11501 0.63917,0.23166 0.95876,0.34996 0.31959,0.11829 0.63918,0.23824 0.95876,0.35982 0.3196,0.12158 0.63918,0.24481 0.95877,0.36967 0.31958,0.12487 0.63917,0.25138 0.95876,0.37954 0.31959,0.12815 0.63917,0.25795 0.95876,0.38939 0.31959,0.13144 0.63918,0.26452 0.95876,0.39925 0.3196,0.13472 0.63918,0.2711 0.95877,0.40911 0.31959,0.13801 0.63917,0.27767 0.95876,0.41896 0.31959,0.1413 0.63918,0.28425 0.95876,0.42883 0.31959,0.14458 0.63918,0.29081 0.95877,0.43868 0.31959,0.14787 0.63917,0.29739 0.95877,0.44854 0.31958,0.15116 0.63916,0.30396 0.95875,0.4584 0.31959,0.15444 0.63918,0.31053 0.95877,0.46826 0.31958,0.15772 0.63917,0.3171 0.95876,0.47811 0.31959,0.16101 0.63917,0.32367 0.95877,0.48797 0.31958,0.1643 0.63917,0.33025 0.95875,0.49783 0.31959,0.16759 0.63918,0.33682 0.95877,0.50769 0.31958,0.17087 0.63917,0.34339 0.95876,0.51755 0.31959,0.17416 0.63917,0.34996 0.95877,0.5274 0.31958,0.17745 0.63917,0.35654 0.95876,0.53727 0.31958,0.18072 0.63917,0.3631 0.95876,0.54712 0.31959,0.18401 0.63917,0.36967 0.95876,0.55697 0.31959,0.18731 0.63919,0.37625 0.95876,0.56684 0.31959,0.19059 0.63918,0.38282 0.95877,0.5767 0.31958,0.19387 0.63917,0.38939 0.95876,0.58655 0.31959,0.19716 0.63917,0.39596 0.95876,0.59641 0.31959,0.20044 0.63918,0.40254 0.95877,0.60627 0.31958,0.20373 0.63917,0.40911 0.95876,0.61613 0.31959,0.20701 0.63917,0.41568 0.95876,0.62598 0.31959,0.2103 0.63918,0.42225 0.95876,0.63584 0.31959,0.21359 0.63918,0.42883 0.95877,0.6457 0.31958,0.21688 0.63917,0.4354 0.95876,0.65556 0.31959,0.22016 0.63918,0.44197 0.95876,0.66542 0.31959,0.22345 0.63918,0.44854 0.95877,0.67528 0.31958,0.22673 0.63917,0.45511 0.95876,0.68513 0.31959,0.23002 0.63917,0.46168 0.95876,0.69499 0.31959,0.2333 0.63918,0.46826 0.95876,0.70485 0.31959,0.23659 0.63918,0.47483 0.95877,0.71471 0.31958,0.23987 0.63917,0.4814 0.95876,0.72456 0.31959,0.24316 0.63918,0.48798 0.95876,0.73442 0.31959,0.24645 0.63918,0.49455 0.95877,0.74429 0.31958,0.24973 0.63917,0.5011 0.95876,0.75413 0.31959,0.25302 0.63917,0.5077 0.95876,0.764 0.31959,0.2563 0.63918,0.51426 0.95876,0.77386 0.31959,0.25959 0.63918,0.52083 0.95877,0.78371 0.31959,0.26288 0.63917,0.52741 0.95876,0.79357 0.31959,0.26617 0.63918,0.53397 0.95876,0.80343 0.31959,0.26945 0.63918,0.54055 0.95877,0.81328 0.31958,0.27275 0.63917,0.54713 0.95876,0.82315 0.31959,0.27603 0.63917,0.5537 0.95876,0.83301 0.31959,0.2793 0.63918,0.56026 0.95876,0.84285 0.31959,0.2826 0.63918,0.56685 0.95877,0.85273 0.31959,0.28587 0.63917,0.57341 0.95876,0.86258 0.31959,0.28916 0.63918,0.57998 0.95876,0.87243 0.31959,0.29246 0.63918,0.58656 0.95877,0.8823 0.31958,0.29573 0.63917,0.59312 0.95876,0.89215 0.31959,0.29902 0.63917,0.5997 0.95876,0.90201 0.31959,0.30231 0.63918,0.60627 0.95877,0.91187 0.31958,0.30559 0.63917,0.61284 0.95876,0.92172 0.31959,0.30888 0.63917,0.61941 0.95876,0.93159 0.31959,0.31216 0.63918,0.62598 0.95876,0.94144 0.31959,0.31545 0.63918,0.63256 0.95877,0.9513 0.31958,0.31874 0.63917,0.63913 0.95876,0.96115 0.31959,0.32203 0.63917,0.64571 0.95876,0.97102"
       style="fill:none;fill-opacity:0.99187;stroke:#0000ff;stroke-width:0.76499999;stroke-miterlimit:4;stroke-dasharray:none;stroke-dashoffset:0;stroke-opacity:1"
       inkscape:connector-curvature="0" />
    <path
       id="path1192-8-4"
       title="-0.5-pow(x,2)"
       d="m 73.182403,156.99105 c 0.319588,0 0.639176,0.002 0.958763,0.005 0.319588,0.003 0.639175,0.008 0.958763,0.0148 0.319588,0.007 0.639175,0.0148 0.958763,0.0247 0.319589,0.01 0.639176,0.0214 0.958763,0.0345 0.319588,0.0131 0.639175,0.0279 0.958764,0.0444 0.319587,0.0164 0.639174,0.0345 0.958762,0.0542 0.319587,0.0197 0.639176,0.0411 0.958763,0.0641 0.319587,0.023 0.639176,0.0477 0.958762,0.0739 0.319589,0.0263 0.639176,0.0542 0.958763,0.0838 0.319589,0.0296 0.639177,0.0608 0.958764,0.0936 0.319587,0.0329 0.639174,0.0674 0.958762,0.10351 0.319588,0.0361 0.639175,0.0739 0.958763,0.11336 0.319588,0.0394 0.639175,0.0805 0.958763,0.12323 0.319588,0.0427 0.639175,0.0871 0.958763,0.13308 0.319587,0.046 0.639175,0.0937 0.958763,0.14294 0.319587,0.0493 0.639175,0.10023 0.958763,0.1528 0.319587,0.0526 0.639175,0.1068 0.958762,0.16266 0.319588,0.0559 0.639176,0.11337 0.958763,0.17252 0.319588,0.0591 0.639176,0.11994 0.958763,0.18237 0.319588,0.0624 0.639175,0.12651 0.958763,0.19223 0.319588,0.0657 0.639175,0.13309 0.958763,0.20209 0.319588,0.069 0.639175,0.13966 0.958763,0.21195 0.319588,0.0723 0.639175,0.14623 0.958763,0.2218 0.319587,0.0756 0.639175,0.15281 0.958763,0.23167 0.319587,0.0789 0.639175,0.15937 0.958763,0.24152 0.319587,0.0821 0.639175,0.16594 0.958762,0.25138 0.319588,0.0854 0.639176,0.17252 0.958763,0.26124 0.319588,0.0887 0.639176,0.17909 0.958759,0.27109 0.31958,0.092 0.63917,0.18566 0.95876,0.28096 0.31959,0.0953 0.63918,0.19223 0.95875,0.29081 0.31959,0.0986 0.63918,0.1988 0.95876,0.30067 0.31958,0.10186 0.63917,0.20538 0.95876,0.31053 0.31959,0.10515 0.63917,0.21195 0.95875,0.32038 0.3196,0.10844 0.63918,0.21852 0.95875,0.33025 0.31959,0.11172 0.63918,0.22509 0.95877,0.3401 0.31959,0.11501 0.63916,0.23166 0.95875,0.34996 0.31959,0.11829 0.63918,0.23824 0.95876,0.35982 0.31959,0.12158 0.63917,0.24481 0.95876,0.36967 0.31958,0.12487 0.63916,0.25138 0.95875,0.37954 0.31959,0.12815 0.63917,0.25795 0.95875,0.38939 0.31959,0.13144 0.63918,0.26452 0.95876,0.39925 0.3196,0.13472 0.63917,0.2711 0.95876,0.40911 0.31959,0.13801 0.63917,0.27767 0.95875,0.41896 0.31959,0.1413 0.63918,0.28425 0.95875,0.42883 0.3196,0.14458 0.63918,0.29081 0.95877,0.43868 0.31959,0.14787 0.63916,0.29739 0.95876,0.44854 0.31958,0.15116 0.63916,0.30396 0.95875,0.4584 0.31959,0.15444 0.63917,0.31053 0.95876,0.46826 0.31958,0.15772 0.63917,0.3171 0.95875,0.47811 0.31959,0.16101 0.63917,0.32367 0.95877,0.48797 0.31958,0.1643 0.63916,0.33025 0.95874,0.49783 0.31959,0.16759 0.63917,0.33682 0.95876,0.50769 0.31958,0.17087 0.63917,0.34339 0.95876,0.51755 0.31958,0.17416 0.63916,0.34996 0.95876,0.5274 0.31958,0.17745 0.63916,0.35654 0.95875,0.53727 0.31958,0.18072 0.63916,0.3631 0.95876,0.54712 0.31958,0.18401 0.63916,0.36967 0.95875,0.55697 0.31959,0.18731 0.63918,0.37625 0.95875,0.56684 0.31959,0.19059 0.63918,0.38282 0.95877,0.5767 0.31958,0.19387 0.63917,0.38939 0.95876,0.58655 0.31959,0.19716 0.63917,0.39596 0.95876,0.59641 0.31959,0.20044 0.63918,0.40254 0.95877,0.60627 0.31958,0.20373 0.63917,0.40911 0.95876,0.61613 0.31959,0.20701 0.63917,0.41568 0.95876,0.62598 0.31959,0.2103 0.63918,0.42225 0.95876,0.63584 0.31959,0.21359 0.63918,0.42883 0.95877,0.6457 0.31958,0.21688 0.63917,0.4354 0.95876,0.65556 0.31959,0.22016 0.63918,0.44197 0.95876,0.66542 0.31959,0.22345 0.63918,0.44854 0.95877,0.67528 0.31958,0.22673 0.63917,0.45511 0.95876,0.68513 0.31959,0.23002 0.63917,0.46168 0.95876,0.69499 0.31959,0.2333 0.63918,0.46826 0.95876,0.70485 0.31959,0.23659 0.63918,0.47483 0.95877,0.71471 0.31958,0.23987 0.63917,0.4814 0.95876,0.72456 0.31959,0.24316 0.63918,0.48798 0.95876,0.73442 0.31959,0.24645 0.63918,0.49455 0.95877,0.74429 0.31958,0.24973 0.63917,0.5011 0.95876,0.75413 0.31959,0.25302 0.63917,0.5077 0.95876,0.764 0.31959,0.2563 0.63918,0.51426 0.95876,0.77386 0.31959,0.25959 0.63918,0.52083 0.95877,0.78371 0.31959,0.26288 0.63917,0.52741 0.95876,0.79357 0.31959,0.26617 0.63918,0.53397 0.95876,0.80343 0.31959,0.26945 0.63918,0.54055 0.95877,0.81328 0.31958,0.27275 0.63917,0.54713 0.95876,0.82315 0.31959,0.27603 0.63917,0.5537 0.95876,0.83301 0.31959,0.2793 0.63918,0.56026 0.95876,0.84285 0.31959,0.2826 0.63918,0.56685 0.95877,0.85273 0.31959,0.28587 0.63917,0.57341 0.95876,0.86258 0.31959,0.28916 0.63918,0.57998 0.95876,0.87243 0.31959,0.29246 0.63918,0.58656 0.95877,0.8823 0.31958,0.29573 0.63917,0.59312 0.95876,0.89215 0.31959,0.29902 0.63917,0.5997 0.95876,0.90201 0.31959,0.30231 0.63918,0.60627 0.95877,0.91187 0.31958,0.30559 0.63917,0.61284 0.95876,0.92172 0.31959,0.30888 0.63917,0.61941 0.95876,0.93159 0.31959,0.31216 0.63918,0.62598 0.95876,0.94144 0.31959,0.31545 0.63918,0.63256 0.95877,0.9513 0.31958,0.31874 0.63917,0.63913 0.95876,0.96115 0.31959,0.32203 0.63917,0.64571 0.95876,0.97102"
       style="fill:none;fill-opacity:0.99187;stroke:#0000ff;stroke-width:0.76499999;stroke-miterlimit:4;stroke-dasharray:none;stroke-dashoffset:0;stroke-opacity:1"
       inkscape:connector-curvature="0" />
    <path
       id="path1192-2-9"
       title="-0.5-pow(x,2)"
       d="m 72.772621,107.1719 c 0.441519,0 0.883035,0.11449 1.324551,0.11926 0.441518,0.006 0.883034,0.0152 1.324552,0.0272 0.441517,0.0134 0.883034,0.0269 1.324553,0.0458 0.441516,0.0194 0.883032,0.0395 1.324551,0.0633 0.441518,0.0238 0.883032,0.0507 1.32455,0.0813 0.441518,0.0301 0.883035,0.0633 1.324551,0.0996 0.441517,0.0363 0.883036,0.0759 1.324553,0.11736 0.441515,0.0426 0.883034,0.0871 1.32455,0.13604 0.441518,0.0481 0.883034,0.0996 1.32455,0.15362 0.441519,0.0539 0.883037,0.11219 1.324552,0.1723 0.441519,0.0604 0.883034,0.12366 1.324551,0.19025 0.441518,0.0664 0.883034,0.13605 1.324552,0.20837 0.441517,0.0727 0.883033,0.14827 1.324551,0.22646 0.441518,0.0788 0.883034,0.15991 1.324551,0.24457 0.441517,0.0845 0.883034,0.17248 1.324552,0.26269 0.441516,0.0903 0.883034,0.18395 1.324551,0.28082 0.441516,0.0965 0.883034,0.19628 1.32455,0.29894 0.441518,0.10283 0.883035,0.20836 1.324552,0.31708 0.441517,0.109 0.883035,0.22044 1.324551,0.33519 0.441518,0.11449 0.883034,0.23243 1.324551,0.35324 0.441518,0.1204 0.883034,0.2446 1.324554,0.37141 0.44152,0.1267 0.88303,0.25667 1.32455,0.38949 0.44152,0.13301 0.88303,0.26879 1.32455,0.40765 0.44152,0.1393 0.88303,0.28085 1.32455,0.4258 0.44152,0.14541 0.88304,0.29288 1.32455,0.44385 0.44152,0.15017 0.88303,0.30497 1.32455,0.46199 0.44152,0.15666 0.88304,0.31709 1.32455,0.48009 0.44152,0.16297 0.88304,0.32916 1.32456,0.49827 0.44151,0.16926 0.88302,0.34118 1.32454,0.51634 0.44152,0.17555 0.88304,0.35331 1.32455,0.53446 0.44152,0.18127 0.88304,0.36533 1.32456,0.55259 0.44151,0.18699 0.88303,0.37744 1.32455,0.57069 0.44152,0.19325 0.88302,0.38954 1.32454,0.58881 0.44152,0.19926 0.88304,0.4016 1.32455,0.60693 0.44152,0.20534 0.88304,0.41368 1.32456,0.62507 0.44152,0.21137 0.88303,0.42573 1.32455,0.64315 0.44152,0.21742 0.88304,0.43787 1.32455,0.66133 0.44152,0.22341 0.88304,0.44987 1.32456,0.67936 0.4415,0.22955 0.88302,0.46198 1.32455,0.6975 0.44152,0.23556 0.88302,0.47409 1.32454,0.71565 0.44152,0.24158 0.88304,0.48614 1.32455,0.73377 0.44152,0.24757 0.88304,0.49822 1.32456,0.75189 0.44152,0.25362 0.88303,0.51029 1.32455,0.76996 0.44152,0.25967 0.88304,0.52239 1.32455,0.78814 0.44152,0.26571 0.88304,0.53443 1.32456,0.80618 0.4415,0.2718 0.88302,0.54658 1.32454,0.82435 0.44152,0.27782 0.88303,0.55866 1.32455,0.84249 0.44152,0.2838 0.88304,0.57065 1.32456,0.86056 0.44151,0.28986 0.88303,0.58278 1.32455,0.8787 0.44152,0.29589 0.88303,0.59486 1.32455,0.89681 0.44152,0.3019 0.88304,0.60696 1.32454,0.9149 0.44152,0.30803 0.88304,0.61905 1.32456,0.93307 0.44151,0.31401 0.88303,0.63105 1.32455,0.95117 0.44152,0.32009 0.88303,0.64315 1.32455,0.96924 0.44152,0.32615 0.88304,0.65527 1.32456,0.98744 0.44151,0.33212 0.88303,0.66731 1.32455,1.00551 0.44152,0.33818 0.88302,0.67939 1.32454,1.02357 0.44153,0.34432 0.88305,0.69151 1.32455,1.04181 0.44152,0.35024 2.15542,2.05463 2.15542,2.05463 -2.64395,0.55421 -68.715797,-0.003 -78.867314,0.11048 z"
       style="fill:#f20000;fill-opacity:0.43283584;stroke:none;stroke-width:0.2600694;stroke-miterlimit:4;stroke-dasharray:none;stroke-dashoffset:0;stroke-opacity:1"
       inkscape:connector-curvature="0"
       sodipodi:nodetypes="csccscsscscccccccccccscccccccsccsccsccccscsccccscssccscccccccc" />
    <path
       style="fill:none;fill-rule:evenodd;stroke:#007a00;stroke-width:0.40000001;stroke-linecap:butt;stroke-linejoin:miter;stroke-miterlimit:4;stroke-dasharray:none;stroke-opacity:1;marker-end:url(#Arrow1Lend)"
       d="M 93.658837,175.885 133.17518,105.57672"
       id="path4264"
       inkscape:connector-curvature="0"
       sodipodi:nodetypes="cc" />
  </g>
</svg>
