<?xml version="1.0" encoding="UTF-8" standalone="no"?>
<!-- Created with Inkscape (http://www.inkscape.org/) -->

<svg
   xmlns:dc="http://purl.org/dc/elements/1.1/"
   xmlns:cc="http://creativecommons.org/ns#"
   xmlns:rdf="http://www.w3.org/1999/02/22-rdf-syntax-ns#"
   xmlns:svg="http://www.w3.org/2000/svg"
   xmlns="http://www.w3.org/2000/svg"
   xmlns:sodipodi="http://sodipodi.sourceforge.net/DTD/sodipodi-0.dtd"
   xmlns:inkscape="http://www.inkscape.org/namespaces/inkscape"
   width="297mm"
   height="210mm"
   viewBox="0 0 297 210"
   version="1.1"
   id="svg5"
   sodipodi:docname="Figure_washboard.svg"
   inkscape:version="0.92.5 (2060ec1f9f, 2020-04-08)">
  <metadata
     id="metadata45">
    <rdf:RDF>
      <cc:Work
         rdf:about="">
        <dc:format>image/svg+xml</dc:format>
        <dc:type
           rdf:resource="http://purl.org/dc/dcmitype/StillImage" />
      </cc:Work>
    </rdf:RDF>
  </metadata>
  <sodipodi:namedview
     id="namedview7"
     pagecolor="#ffffff"
     bordercolor="#666666"
     borderopacity="1.0"
     inkscape:pageshadow="2"
     inkscape:pageopacity="0.0"
     inkscape:pagecheckerboard="0"
     inkscape:document-units="mm"
     showgrid="false"
     inkscape:zoom="1.5554293"
     inkscape:cx="228.69932"
     inkscape:cy="560.61693"
     inkscape:window-width="3399"
     inkscape:window-height="1650"
     inkscape:window-x="154"
     inkscape:window-y="341"
     inkscape:window-maximized="0"
     inkscape:current-layer="layer1" />
  <defs
     id="defs2">
    <marker
       inkscape:isstock="true"
       style="overflow:visible"
       id="marker1053"
       refX="0"
       refY="0"
       orient="auto"
       inkscape:stockid="Arrow1Mend">
      <path
         transform="matrix(-0.4,0,0,-0.4,-4,0)"
         style="fill:#000000;fill-opacity:1;fill-rule:evenodd;stroke:#000000;stroke-width:1.00000003pt;stroke-opacity:1"
         d="M 0,0 5,-5 -12.5,0 5,5 Z"
         id="path1051"
         inkscape:connector-curvature="0" />
    </marker>
    <marker
       inkscape:stockid="Arrow1Mend"
       orient="auto"
       refY="0"
       refX="0"
       id="marker1040"
       style="overflow:visible"
       inkscape:isstock="true"
       inkscape:collect="always">
      <path
         inkscape:connector-curvature="0"
         id="path1038"
         d="M 0,0 5,-5 -12.5,0 5,5 Z"
         style="fill:#000000;fill-opacity:1;fill-rule:evenodd;stroke:#000000;stroke-width:1.00000003pt;stroke-opacity:1"
         transform="matrix(-0.4,0,0,-0.4,-4,0)" />
    </marker>
    <marker
       inkscape:stockid="Arrow1Mstart"
       orient="auto"
       refY="0"
       refX="0"
       id="marker940"
       style="overflow:visible"
       inkscape:isstock="true">
      <path
         inkscape:connector-curvature="0"
         id="path938"
         d="M 0,0 5,-5 -12.5,0 5,5 Z"
         style="fill:#000000;fill-opacity:1;fill-rule:evenodd;stroke:#000000;stroke-width:1.00000003pt;stroke-opacity:1"
         transform="matrix(0.4,0,0,0.4,4,0)" />
    </marker>
    <marker
       inkscape:stockid="Arrow1Mend"
       orient="auto"
       refY="0.0"
       refX="0.0"
       id="Arrow1Mend"
       style="overflow:visible;"
       inkscape:isstock="true">
      <path
         id="path1191"
         d="M 0.0,0.0 L 5.0,-5.0 L -12.5,0.0 L 5.0,5.0 L 0.0,0.0 z "
         style="fill-rule:evenodd;stroke:#fa0000;stroke-width:1pt;stroke-opacity:1;fill:#fa0000;fill-opacity:1"
         transform="scale(0.4) rotate(180) translate(10,0)" />
    </marker>
    <marker
       inkscape:isstock="true"
       style="overflow:visible"
       refX="0"
       refY="0"
       orient="auto"
       inkscape:stockid="Arrow1Mstart6200"
       id="Arrow1Mstart6200">
      <path
         transform="matrix(0.4,0,0,0.4,4,0)"
         style="fill:#fb0000;fill-opacity:1.0;fill-rule:evenodd;stroke:#000000;stroke-width:1.00000003pt;stroke-opacity:1"
         d="M 0,0 5,-5 -12.5,0 5,5 Z"
         id="path20860"
         inkscape:connector-curvature="0" />
    </marker>
    <marker
       inkscape:isstock="true"
       style="overflow:visible"
       refX="0"
       refY="0"
       orient="auto"
       inkscape:stockid="Arrow1Mstart62001970"
       id="Arrow1Mstart62001970">
      <path
         transform="matrix(0.4,0,0,0.4,4,0)"
         style="fill:#fa0000;fill-opacity:1;fill-rule:evenodd;stroke:#fa0000;stroke-width:1.00000003pt;stroke-opacity:1"
         d="M 0,0 5,-5 -12.5,0 5,5 Z"
         id="path22128"
         inkscape:connector-curvature="0" />
    </marker>
  </defs>
  <g
     inkscape:label="Layer 1"
     inkscape:groupmode="layer"
     id="layer1">
    <path
       style="fill:none;stroke:#000000;stroke-width:0.5;stroke-linecap:butt;stroke-linejoin:miter;stroke-miterlimit:4;stroke-dasharray:none;stroke-dashoffset:0;stroke-opacity:1;marker-end:url(#marker1040)"
       d="M 13.268235,109.46905 H 280.50018"
       id="path913-1"
       inkscape:connector-curvature="0"
       sodipodi:nodetypes="cc" />
    <text
       xml:space="preserve"
       style="font-size:14.1111002px;line-height:1.25;font-family:'Palatino Linotype';-inkscape-font-specification:'Palatino Linotype';letter-spacing:0px;word-spacing:0px;stroke-width:0.26458299"
       x="277.60822"
       y="120.26291"
       id="text14998"><tspan
         sodipodi:role="line"
         id="tspan14996"
         style="font-style:italic;font-variant:normal;font-weight:normal;font-stretch:normal;font-size:9.87777805px;font-family:'Palatino Linotype';-inkscape-font-specification:'Palatino Linotype Italic';stroke-width:0.26458299"
         x="277.60822"
         y="120.26291">ϴ</tspan></text>
    <path
       style="fill:none;stroke:#000000;stroke-width:0.5;stroke-linecap:butt;stroke-linejoin:miter;stroke-miterlimit:4;stroke-dasharray:none;stroke-dashoffset:0;stroke-opacity:1;marker-end:url(#marker1053)"
       d="M 19.221665,140.61046 V 33.445546"
       id="path913"
       inkscape:connector-curvature="0"
       sodipodi:nodetypes="cc" />
    <text
       xml:space="preserve"
       style="font-size:14.11110115px;line-height:1.25;font-family:'Palatino Linotype';-inkscape-font-specification:'Palatino Linotype';letter-spacing:0px;word-spacing:0px;stroke-width:0.26458299"
       x="-56.229549"
       y="13.976952"
       id="text14998-4"
       transform="rotate(-90)"><tspan
         sodipodi:role="line"
         id="tspan14996-8"
         style="font-style:italic;font-variant:normal;font-weight:normal;font-stretch:normal;font-size:9.87777805px;font-family:'Palatino Linotype';-inkscape-font-specification:'Palatino Linotype Italic';stroke-width:0.26458299"
         x="-56.229549"
         y="13.976952">V(ϴ)<tspan
   style="font-size:64.99999762%;baseline-shift:sub"
   id="tspan1121" /></tspan></text>
    <circle
       style="fill:#ff0000;fill-opacity:1;stroke:#000000;stroke-width:0.80000001;stroke-miterlimit:4;stroke-dasharray:none;stroke-dashoffset:0;stroke-opacity:1"
       id="path1139-2"
       cx="120.6031"
       cy="97.391754"
       r="2.4664948" />
    <path
       id="path1163"
       title="sin(x)"
       d="m 29.65877,42.070869 c 0.658016,-0.468326 1.316027,-0.936643 1.971721,-1.399906 0.655693,-0.463263 1.309052,-0.921436 1.957813,-1.369581 0.64876,-0.448146 1.292893,-0.886199 1.93022,-1.309413 0.637327,-0.423214 1.267805,-0.831495 1.88938,-1.220361 0.621575,-0.388866 1.23419,-0.758197 1.835945,-1.103844 0.601754,-0.345648 1.192581,-0.667469 1.770765,-0.961718 0.578183,-0.294249 1.143643,-0.560759 1.694878,-0.796246 0.551235,-0.235488 1.088155,-0.439764 1.609494,-0.610065 0.521339,-0.170299 1.027001,-0.306415 1.515973,-0.406138 0.488973,-0.09972 0.961154,-0.162836 1.415804,-0.18772 0.45465,-0.02488 0.891664,-0.01131 1.310584,0.04172 0.418918,0.05302 0.819635,0.145746 1.201985,0.278516 0.382349,0.13277 0.74622,0.305832 1.091742,0.518904 0.345523,0.213073 0.672585,0.466395 0.981609,0.759051 0.309025,0.292656 0.599903,0.62488 0.873341,0.995134 0.273438,0.370254 0.529331,0.778762 0.768661,1.223391 0.23933,0.444627 0.461996,0.925588 0.669237,1.440185 0.207242,0.514595 0.398967,1.063023 0.576654,1.642064 0.177687,0.579041 0.341252,1.188875 0.492386,1.825813 0.151135,0.636939 0.289766,1.301139 0.417775,1.988504 0.128009,0.687365 0.245333,1.398027 0.354009,2.127545 0.108678,0.729517 0.208659,1.477997 0.302107,2.240722 0.09345,0.762723 0.180327,1.539773 0.262892,2.32623 0.08256,0.786458 0.160789,1.582374 0.236988,2.382712 0.0762,0.800337 0.150359,1.605118 0.224813,2.409262 0.07445,0.804144 0.149201,1.607645 0.226555,2.405462 0.07736,0.797817 0.157332,1.589913 0.24219,2.37137 0.08486,0.781456 0.174625,1.552207 0.271467,2.307529 0.09684,0.755324 0.200804,1.495125 0.313922,2.214959 0.113118,0.719833 0.23545,1.419576 0.368876,2.095129 0.133425,0.675553 0.278013,1.326767 0.435454,1.949954 0.157441,0.623186 0.327815,1.218173 0.512598,1.781741 0.184782,0.563567 0.384062,1.095525 0.599075,1.593173 0.215015,0.497648 0.445858,0.960777 0.693512,1.387254 0.247654,0.426475 0.512219,0.816075 0.794402,1.167261 0.282183,0.351186 0.582088,0.663725 0.900138,0.936702 0.31805,0.272976 0.654352,0.506152 1.009037,0.699246 0.354683,0.193095 0.727859,0.345868 1.119361,0.458679 0.391502,0.112813 0.80144,0.185425 1.229357,0.218832 0.427918,0.0334 0.873922,0.02737 1.337272,-0.01648 0.463349,-0.04385 0.944149,-0.125756 1.441384,-0.243497 0.497235,-0.11774 1.011003,-0.271533 1.540036,-0.45861 0.529033,-0.187077 1.073422,-0.407636 1.631659,-0.658394 0.558238,-0.250759 1.130407,-0.531894 1.71479,-0.839665 0.584384,-0.307769 1.181053,-0.642329 1.788108,-0.999533 0.607053,-0.357204 1.224552,-0.737182 1.85044,-1.135454 0.625888,-0.398271 1.260214,-0.814941 1.9008,-1.245262 0.640586,-0.430321 1.287469,-0.874369 1.938381,-1.327208 0.650914,-0.45284 1.30588,-0.914517 1.962586,-1.379987 0.656705,-0.46547 1.315158,-0.934748 1.973028,-1.402757 0.657871,-0.46801 1.315153,-0.934738 1.969543,-1.395157 0.654389,-0.460419 1.305866,-0.914487 1.952184,-1.357307 0.646318,-0.44282 1.287446,-0.87432 1.92123,-1.289811 0.633786,-0.415491 1.260183,-0.814873 1.877172,-1.193741 0.616991,-0.378869 1.224514,-0.737096 1.820714,-1.070632 0.5962,-0.333536 1.181006,-0.642227 1.752752,-0.922442 0.571746,-0.280213 1.130354,-0.531777 1.674372,-0.75153 0.544025,-0.219755 1.073365,-0.407507 1.586825,-0.560625 0.51346,-0.153119 1.010944,-0.271393 1.491494,-0.352761 0.48055,-0.08137 0.94408,-0.125606 1.38991,-0.131251 0.44582,-0.0057 0.87384,0.02753 1.28368,0.10037 0.40983,0.07285 0.80136,0.185582 1.1745,0.338426 0.37316,0.152842 0.7278,0.346027 1.06413,0.579112 0.33635,0.233086 0.65429,0.506311 0.9543,0.818602 0.30003,0.31229 0.58202,0.66388 0.84678,1.053076 0.26474,0.389197 0.51215,0.816224 0.74324,1.278802 0.23111,0.462578 0.44579,0.960917 0.64539,1.492183 0.1996,0.531267 0.384,1.095654 0.55476,1.689821 0.17075,0.594167 0.32776,1.218289 0.47277,1.868568 0.14503,0.650278 0.27797,1.326867 0.40078,2.025574 0.1228,0.698707 0.23542,1.419661 0.33988,2.158341 0.10448,0.738682 0.20078,1.495191 0.29109,2.264754 0.0903,0.769563 0.17461,1.552254 0.25515,2.343116 0.0805,0.790862 0.15732,1.589941 0.23265,2.39218 0.0753,0.802239 0.1492,1.607652 0.22393,2.411163 0.0747,0.803512 0.15037,1.605105 0.22917,2.399766 0.0788,0.79466 0.1608,1.582341 0.24825,2.358168 0.0875,0.775826 0.18035,1.539721 0.28087,2.287031 0.10051,0.74731 0.20869,1.47792 0.32651,2.18748 0.11784,0.70957 0.24538,1.39794 0.38447,2.06114 0.1391,0.66318 0.28981,1.30103 0.4538,1.90996 0.16398,0.60893 0.34131,1.18876 0.53339,1.73639 0.19209,0.54764 0.39903,1.0629 0.622,1.54319 0.22297,0.48031 0.46206,0.92546 0.71819,1.33345 0.25613,0.408 0.5294,0.77861 0.82045,1.11047 0.29104,0.33186 0.59997,0.62472 0.92713,0.87784 0.32716,0.25311 0.67266,0.46624 1.03655,0.63925 0.3639,0.17301 0.7463,0.30567 1.14696,0.3985 0.40067,0.0928 0.81971,0.14558 1.2566,0.15943 0.43689,0.0138 0.89174,-0.0114 1.36372,-0.0742 0.47199,-0.0627 0.96123,-0.16299 1.46663,-0.29853 0.5054,-0.13555 1.02705,-0.30656 1.56365,-0.51012 0.5366,-0.20358 1.08822,-0.4399 1.65329,-0.70558 0.56508,-0.26566 1.14371,-0.56086 1.7341,-0.88173 0.59039,-0.32088 1.19262,-0.66757 1.80476,-1.03586 0.61213,-0.36828 1.23422,-0.75828 1.86418,-1.16543 0.62997,-0.40715 1.26784,-0.83155 1.91142,-1.26841 0.64359,-0.43686 1.29292,-0.88624 1.94571,-1.34318 0.65279,-0.45693 1.30906,-0.92146 1.9665,-1.38851 0.65743,-0.46706 1.31603,-0.93665 1.97346,-1.40372 0.65744,-0.46705 1.3137,-0.93156 1.9665,-1.38851 0.65279,-0.45695 1.30211,-0.90629 1.9457,-1.34318 0.6436,-0.43689 1.28144,-0.86123 1.91143,-1.26842 0.62997,-0.40719 1.25203,-0.797103 1.86418,-1.165429 0.61216,-0.368325 1.21434,-0.714926 1.80476,-1.03585 0.59041,-0.320922 1.16899,-0.61601 1.73409,-0.881743 0.5651,-0.265733 1.11667,-0.501931 1.65329,-0.705565 0.53663,-0.203635 1.05823,-0.374507 1.56366,-0.510124 0.50543,-0.135616 0.9946,-0.235764 1.46662,-0.298528 0.47203,-0.06276 0.9268,-0.08791 1.36372,-0.07415 0.43693,0.01376 0.8559,0.06669 1.25661,0.15943 0.4007,0.09275 0.78302,0.22557 1.14696,0.398501 0.36393,0.172931 0.70935,0.386213 1.03655,0.639247 0.32719,0.253035 0.63605,0.546057 0.92713,0.877838 0.29108,0.331782 0.56428,0.702552 0.82045,1.110472 0.25616,0.407918 0.49518,0.853214 0.71819,1.333434 0.223,0.48024 0.42988,0.99563 0.62199,1.5432 0.19212,0.54758 0.36939,1.12753 0.53339,1.7364 0.16402,0.60887 0.31469,1.24682 0.4538,1.90996 0.13912,0.66313 0.26662,1.35161 0.38447,2.06113 0.11785,0.70952 0.22599,1.44021 0.32652,2.18749 0.10053,0.74728 0.19341,1.51123 0.28086,2.28703 0.0875,0.7758 0.16944,1.563507 0.24826,2.358157 0.0788,0.79465 0.15441,1.59626 0.22916,2.39977 0.0747,0.80351 0.14861,1.60892 0.22394,2.41116 0.0753,0.80224 0.15211,1.60131 0.23265,2.39219 0.0805,0.79088 0.16485,1.57352 0.25515,2.3431 0.0904,0.7696 0.18662,1.52605 0.29108,2.26477 0.10446,0.73871 0.2171,1.45959 0.33989,2.15834 0.12279,0.69875 0.25578,1.37523 0.40078,2.02556 0.14499,0.65033 0.30204,1.27435 0.47277,1.86857 0.17073,0.59424 0.35519,1.1585 0.55475,1.68983 0.19957,0.53133 0.41433,1.02953 0.6454,1.49218 0.23106,0.46265 0.47853,0.88953 0.74324,1.2788 0.26472,0.38928 0.54679,0.74071 0.84677,1.05308 0.29998,0.31237 0.61799,0.58544 0.9543,0.8186 0.33631,0.23317 0.69102,0.42619 1.06413,0.57911 0.37311,0.15293 0.76471,0.26551 1.17451,0.33843 0.4098,0.0729 0.83789,0.10594 1.28368,0.10034 0.4458,-0.006 0.90939,-0.0499 1.38991,-0.13125 0.48052,-0.0813 0.97806,-0.19972 1.49149,-0.35276 0.51343,-0.15306 1.04283,-0.34093 1.58682,-0.56063 0.544,-0.21969 1.10266,-0.47137 1.67438,-0.75153 0.57172,-0.28016 1.15657,-0.58895 1.75275,-0.92244 0.59618,-0.33348 1.20374,-0.69181 1.82071,-1.07063 0.61697,-0.37883 1.2434,-0.77829 1.87717,-1.19375 0.63377,-0.41546 1.27493,-0.84701 1.92124,-1.2898 0.64631,-0.4428 1.2978,-0.89691 1.95218,-1.35732 0.65439,-0.46039 1.31168,-0.92714 1.96954,-1.39514 0.65787,-0.46802 1.31633,-0.93729 1.97303,-1.40277 0.65671,-0.46547 1.31166,-0.92712 1.96259,-1.37998 0.65092,-0.45286 1.29778,-0.89686 1.93837,-1.32721 0.64061,-0.43035 1.2749,-0.84695 1.90081,-1.24527 0.6259,-0.3983 1.24336,-0.7782 1.85044,-1.13545 0.60707,-0.35724 1.20369,-0.69171 1.7881,-0.99953 0.58441,-0.30783 1.15653,-0.58885 1.71479,-0.83967 0.55828,-0.25082 1.1026,-0.47124 1.63166,-0.65839 0.52907,-0.18714 1.04277,-0.34079 1.54004,-0.45861 0.49727,-0.11781 0.978,-0.19957 1.44139,-0.2435 0.46338,-0.044 0.90931,-0.0498 1.33727,-0.0165 0.42795,0.0333 0.83781,0.1061 1.22936,0.21884 0.39154,0.11273 0.76464,0.26566 1.11935,0.45868 0.35473,0.19301 0.69095,0.42635 1.00904,0.69925 0.31808,0.27289 0.61792,0.58558 0.90014,0.9367 0.28221,0.3511 0.54672,0.74085 0.79441,1.16725 0.24767,0.4264 0.47846,0.88968 0.69351,1.38725 0.21504,0.49759 0.41426,1.02968 0.59907,1.59318 0.18481,0.56351 0.35513,1.15862 0.5126,1.78174 0.15747,0.62313 0.30201,1.27445 0.43545,1.94996 0.13345,0.6755 0.25574,1.37533 0.36888,2.09513 0.11313,0.71979 0.21706,1.45966 0.31392,2.21495 0.0969,0.7553 0.1866,1.52609 0.27147,2.30754 0.0849,0.78143 0.16483,1.57356 0.24219,2.37136 0.0773,0.79781 0.1521,1.60132 0.22656,2.40546 0.0744,0.80415 0.14861,1.60893 0.22481,2.40927 0.0762,0.80034 0.15443,1.59623 0.23699,2.38271 0.0825,0.78648 0.16945,1.56347 0.26288,2.32624 0.0935,0.76275 0.19345,1.51116 0.30211,2.24071 0.10866,0.72955 0.22602,1.44014 0.35401,2.12754 0.12799,0.68742 0.26667,1.35152 0.41778,1.98851 0.1511,0.63699 0.31473,1.24671 0.49239,1.82581 0.17765,0.5791 0.36944,1.1274 0.57665,1.64207 0.2072,0.51466 0.42994,0.99549 0.66923,1.44018 0.2393,0.4447 0.49526,0.85307 0.76867,1.22339 0.2734,0.37033 0.56435,0.70241 0.87334,0.99513 0.30898,0.29274 0.63612,0.54591 0.9816,0.75905 0.34549,0.21316 0.70943,0.38606 1.09174,0.51891 0.38231,0.13285 0.78311,0.22541 1.20199,0.27852 0.41888,0.0531 0.85597,0.0665 1.31058,0.0418 0.45462,-0.0248 0.92687,-0.0881 1.41581,-0.18773 0.48893,-0.0996 0.99467,-0.2359 1.51597,-0.40613 0.5213,-0.17024 1.05829,-0.37464 1.6095,-0.61007 0.5512,-0.23543 1.11672,-0.50205 1.69487,-0.79624 0.57816,-0.29419 1.16904,-0.61612 1.77077,-0.96172 0.60173,-0.3456 1.21439,-0.71502 1.83595,-1.10385 0.62155,-0.38882 1.25206,-0.79717 1.88938,-1.22035 0.63731,-0.42319 1.28146,-0.8613 1.93021,-1.30942 0.64876,-0.44812 1.30213,-0.90633 1.95782,-1.36958 0.65568,-0.46325 1.3137,-0.93158 1.97172,-1.3999"
       style="fill:none;fill-opacity:0.99502486;stroke:#0000fe;stroke-width:1;stroke-miterlimit:4;stroke-dasharray:none;stroke-dashoffset:0;stroke-opacity:1"
       inkscape:connector-curvature="0" />
  </g>
</svg>
