<?xml version="1.0" encoding="UTF-8" standalone="no"?>
<!-- Created with Inkscape (http://www.inkscape.org/) -->

<svg
   xmlns:dc="http://purl.org/dc/elements/1.1/"
   xmlns:cc="http://creativecommons.org/ns#"
   xmlns:rdf="http://www.w3.org/1999/02/22-rdf-syntax-ns#"
   xmlns:svg="http://www.w3.org/2000/svg"
   xmlns="http://www.w3.org/2000/svg"
   xmlns:sodipodi="http://sodipodi.sourceforge.net/DTD/sodipodi-0.dtd"
   xmlns:inkscape="http://www.inkscape.org/namespaces/inkscape"
   width="210mm"
   height="297mm"
   viewBox="0 0 210 297"
   version="1.1"
   id="svg5"
   inkscape:version="0.92.5 (2060ec1f9f, 2020-04-08)"
   sodipodi:docname="Figure_competingminima.svg">
  <sodipodi:namedview
     id="namedview7"
     pagecolor="#ffffff"
     bordercolor="#666666"
     borderopacity="1.0"
     inkscape:pageshadow="2"
     inkscape:pageopacity="0.0"
     inkscape:pagecheckerboard="0"
     inkscape:document-units="mm"
     showgrid="false"
     inkscape:zoom="1.5554293"
     inkscape:cx="329.39033"
     inkscape:cy="615.01131"
     inkscape:window-width="1754"
     inkscape:window-height="1110"
     inkscape:window-x="646"
     inkscape:window-y="944"
     inkscape:window-maximized="0"
     inkscape:current-layer="layer1" />
  <metadata
     id="metadata34">
    <rdf:RDF>
      <cc:Work
         rdf:about="">
        <dc:format>image/svg+xml</dc:format>
        <dc:type
           rdf:resource="http://purl.org/dc/dcmitype/StillImage" />
        <dc:title />
      </cc:Work>
    </rdf:RDF>
  </metadata>
  <defs
     id="defs2">
    <marker
       style="overflow:visible;"
       id="Arrow2Lend"
       refX="0.0"
       refY="0.0"
       orient="auto"
       inkscape:stockid="Arrow2Lend"
       inkscape:isstock="true">
      <path
         transform="scale(1.1) rotate(180) translate(1,0)"
         d="M 8.7185878,4.0337352 L -2.2072895,0.016013256 L 8.7185884,-4.0017078 C 6.9730900,-1.6296469 6.9831476,1.6157441 8.7185878,4.0337352 z "
         style="fill-rule:evenodd;fill:context-stroke;stroke-width:0.625;stroke-linejoin:round;stroke:#000000;stroke-opacity:1"
         id="path962" />
    </marker>
    <marker
       style="overflow:visible;"
       id="Arrow1Mend"
       refX="0.0"
       refY="0.0"
       orient="auto"
       inkscape:stockid="Arrow1Mend"
       inkscape:isstock="true">
      <path
         transform="scale(0.4) rotate(180) translate(10,0)"
         style="fill-rule:evenodd;fill:context-stroke;stroke:context-stroke;stroke-width:1.0pt;"
         d="M 0.0,0.0 L 5.0,-5.0 L -12.5,0.0 L 5.0,5.0 L 0.0,0.0 z "
         id="path950" />
    </marker>
    <marker
       style="overflow:visible;"
       id="Arrow1Lend"
       refX="0.0"
       refY="0.0"
       orient="auto"
       inkscape:stockid="Arrow1Lend"
       inkscape:isstock="true">
      <path
         transform="scale(0.8) rotate(180) translate(12.5,0)"
         style="fill-rule:evenodd;fill:context-stroke;stroke:context-stroke;stroke-width:1.0pt;"
         d="M 0.0,0.0 L 5.0,-5.0 L -12.5,0.0 L 5.0,5.0 L 0.0,0.0 z "
         id="path944" />
    </marker>
    <marker
       style="overflow:visible"
       id="Arrow2Lend-9"
       refX="0"
       refY="0"
       orient="auto"
       inkscape:stockid="Arrow2Lend"
       inkscape:isstock="true">
      <path
         transform="matrix(-1.1,0,0,-1.1,-1.1,0)"
         d="M 8.7185878,4.0337352 -2.2072895,0.01601326 8.7185884,-4.0017078 c -1.7454984,2.3720609 -1.7354408,5.6174519 -6e-7,8.035443 z"
         style="fill:context-stroke;fill-rule:evenodd;stroke-width:0.625;stroke-linejoin:round;stroke:#000000;stroke-opacity:1"
         id="path962-4" />
    </marker>
  </defs>
  <g
     inkscape:label="Layer 1"
     inkscape:groupmode="layer"
     id="layer1">
    <path
       style="fill:none;stroke:#000000;stroke-width:0.5;stroke-linecap:butt;stroke-linejoin:miter;stroke-miterlimit:4;stroke-dasharray:none;stroke-opacity:1;marker-end:url(#Arrow2Lend)"
       d="m 73.12895,177.52051 c 0,-78.635568 0,-78.635568 0,-78.635568"
       id="path42"
       inkscape:connector-curvature="0" />
    <path
       style="fill:none;stroke:#000000;stroke-width:0.5;stroke-linecap:butt;stroke-linejoin:miter;stroke-miterlimit:4;stroke-dasharray:none;stroke-opacity:1;marker-end:url(#Arrow2Lend-9)"
       d="m 51.32555,160.74121 c 105.8041,0 105.8041,0 105.8041,0"
       id="path42-2"
       inkscape:connector-curvature="0" />
    <text
       xml:space="preserve"
       style="line-height:0%;font-family:'Palatino Linotype';-inkscape-font-specification:'Palatino Linotype';letter-spacing:0px;word-spacing:0px;stroke-width:0.26458299"
       x="62.6866"
       y="94.96357"
       id="text5468"><tspan
         sodipodi:role="line"
         style="font-size:7.76111126px;line-height:1.25;stroke-width:0.26458299"
         x="62.6866"
         y="94.96357"
         id="tspan1095">F(u)</tspan></text>
    <text
       xml:space="preserve"
       style="line-height:0%;font-family:'Palatino Linotype';-inkscape-font-specification:'Palatino Linotype';letter-spacing:0px;word-spacing:0px;stroke-width:0.26458299"
       x="160.57732"
       y="165"
       id="text11562"><tspan
         sodipodi:role="line"
         id="tspan11560"
         style="font-size:7.76111126px;line-height:1.25;stroke-width:0.26458299"
         x="160.57732"
         y="165">u</tspan></text>
    <text
       xml:space="preserve"
       style="line-height:0%;font-family:'Palatino Linotype';-inkscape-font-specification:'Palatino Linotype';letter-spacing:0px;word-spacing:0px;stroke-width:0.26458332"
       x="122.33073"
       y="167.265"
       id="text1101"><tspan
         sodipodi:role="line"
         id="tspan1099"
         x="122.33073"
         y="167.265"
         style="font-size:7.05555534px;line-height:1.25;stroke-width:0.26458332">1</tspan></text>
    <path
       id="path235"
       title="0.25*pow(x,2)*pow(1-x,2)+0.15*(0.5*pow(x,2)-0.33*pow(x,3)-1/12)"
       d="m 48.063744,99.613984 c 0.339061,2.142896 0.678121,4.209346 1.017182,6.202486 0.339061,1.99315 0.678122,3.9127 1.017182,5.76219 0.339061,1.8495 0.678122,3.62852 1.017182,5.3405 0.339061,1.71199 0.678122,3.35654 1.017182,4.93704 0.339061,1.58049 0.678122,3.09654 1.017183,4.55145 0.33906,1.4549 0.678121,2.84829 1.017182,4.18338 0.33906,1.33509 0.678121,2.61152 1.017182,3.83244 0.339061,1.22093 0.678121,2.386 1.017182,3.49828 0.339061,1.11229 0.678121,2.17146 1.017182,3.18051 0.339061,1.00905 0.678122,1.96767 1.017182,2.87877 0.339061,0.91109 0.678122,1.77438 1.017182,2.59268 0.339061,0.8183 0.678122,1.59135 1.017182,2.32189 0.339061,0.73055 0.678122,1.41833 1.017183,2.06602 0.33906,0.6477 0.678121,1.25507 1.017182,1.82471 0.33906,0.56964 0.678121,1.10132 1.017182,1.59757 0.339061,0.49625 0.678121,0.95686 1.017182,1.38426 0.339061,0.4274 0.678121,0.82141 1.017182,1.18439 0.339061,0.36297 0.678121,0.69474 1.017182,0.99759 0.339061,0.30285 0.678122,0.57661 1.017182,0.8235 0.339061,0.2469 0.678122,0.46677 1.017182,0.66176 0.339061,0.195 0.678122,0.36497 1.017183,0.51199 0.33906,0.14702 0.678121,0.27096 1.017182,0.37381 0.33906,0.10286 0.678121,0.18451 1.017182,0.24688 0.33906,0.0624 0.678121,0.10535 1.017182,0.1308 0.339061,0.0254 0.678121,0.0333 1.017182,0.0252 0.339061,-0.008 0.678121,-0.032 1.017182,-0.0702 0.339061,-0.0382 0.678122,-0.0907 1.017182,-0.15593 0.339061,-0.0652 0.678122,-0.14314 1.017182,-0.23225 0.339061,-0.0891 0.678122,-0.18945 1.017183,-0.29953 0.33906,-0.11008 0.678121,-0.22994 1.017182,-0.35817 0.33906,-0.12822 0.678121,-0.26486 1.017182,-0.40853 0.33906,-0.14367 0.678121,-0.29443 1.017182,-0.45097 0.339061,-0.15654 0.678121,-0.31891 1.017182,-0.48587 0.339061,-0.16696 0.678121,-0.33855 1.017182,-0.5136 0.339061,-0.17505 0.678122,-0.35358 1.017182,-0.53451 0.339061,-0.18093 0.678122,-0.36427 1.017182,-0.549 0.339061,-0.18473 0.678122,-0.37085 1.017182,-0.55741 0.339061,-0.18656 0.678122,-0.37356 1.017183,-0.56012 0.33906,-0.18656 0.678121,-0.37267 1.017182,-0.55751 0.33906,-0.18484 0.678121,-0.3684 1.017182,-0.54992 0.339061,-0.18153 0.678121,-0.36101 1.017182,-0.53776 0.339061,-0.17674 0.678121,-0.35074 1.017182,-0.52136 0.339061,-0.17061 0.678122,-0.33784 1.017182,-0.5011 0.339061,-0.16327 0.678122,-0.32256 1.017182,-0.47737 0.339061,-0.15482 0.678122,-0.30513 1.017182,-0.45052 0.339061,-0.14539 0.678122,-0.28581 1.017183,-0.42091 0.33906,-0.13511 0.678121,-0.26485 1.017182,-0.38894 0.33906,-0.12408 0.678121,-0.24247 1.017182,-0.35494 0.339061,-0.11246 0.678121,-0.21895 1.017186,-0.3193 0.33906,-0.10035 0.678117,-0.19452 1.017177,-0.2824 0.339057,-0.0879 0.678114,-0.16942 1.017174,-0.24459 0.339057,-0.0752 0.678117,-0.1439 1.017177,-0.20624 0.33906,-0.0623 0.67812,-0.11822 1.01718,-0.16773 0.33907,-0.0495 0.67813,-0.0926 1.01719,-0.12942 0.33906,-0.0368 0.67812,-0.0673 1.01718,-0.0917 0.33906,-0.0244 0.67812,-0.0426 1.01718,-0.0549 0.33906,-0.0123 0.67812,-0.0187 1.01718,-0.0194 0.33906,-7.3e-4 0.67812,0.004 1.01719,0.0144 0.33906,0.0102 0.67812,0.0257 1.01718,0.0462 0.33906,0.0204 0.67812,0.0458 1.01718,0.0755 0.33906,0.0298 0.67812,0.064 1.01718,0.10208 0.33906,0.0381 0.67812,0.0801 1.01718,0.12549 0.33906,0.0453 0.67812,0.094 1.01719,0.14537 0.33906,0.0513 0.67812,0.10537 1.01718,0.16136 0.33906,0.056 0.67812,0.11395 1.01718,0.17309 0.33906,0.0591 0.67812,0.1195 1.01718,0.1802 0.33906,0.0607 0.67812,0.12177 1.01718,0.1823 0.33906,0.0605 0.67813,0.12052 1.01719,0.17903 0.33906,0.0585 0.67812,0.11552 1.01718,0.17004 0.33906,0.0545 0.67812,0.10651 1.01718,0.15493 0.33906,0.0484 0.67812,0.0932 1.01718,0.13335 0.33906,0.0401 0.67812,0.0755 1.01718,0.10492 0.33907,0.0295 0.67813,0.053 1.01719,0.0693 0.33906,0.0163 0.67812,0.0254 1.01718,0.0261 0.33906,6.2e-4 0.67812,-0.007 1.01718,-0.0251 0.33906,-0.0178 0.67812,-0.0455 1.01718,-0.0846 0.33906,-0.0391 0.67812,-0.0895 1.01719,-0.15274 0.33906,-0.0633 0.67812,-0.13942 1.01718,-0.22997 0.33906,-0.0905 0.67812,-0.19557 1.01718,-0.31661 0.33906,-0.12104 0.67812,-0.2582 1.01718,-0.41306 0.33906,-0.15487 0.67812,-0.32754 1.01718,-0.51967 0.33906,-0.19213 0.67813,-0.40384 1.01719,-0.63681 0.33906,-0.23298 0.67812,-0.48734 1.01718,-0.76485 0.33906,-0.27751 0.67812,-0.5783 1.01718,-0.90417 0.33906,-0.32586 0.67812,-0.67695 1.01718,-1.05511 0.33906,-0.37816 0.67812,-0.78355 1.01718,-1.21806 0.33907,-0.43452 0.67813,-0.89834 1.01719,-1.39341 0.33906,-0.49506 0.67812,-1.02156 1.01718,-1.58147 0.33906,-0.55992 0.67812,-1.15347 1.01718,-1.78268 0.33906,-0.6292 0.67812,-1.29429 1.01718,-1.99734 0.33906,-0.70306 0.67812,-1.4443 1.01719,-2.22588 0.33906,-0.78157 0.67812,-1.60372 1.01718,-2.46862 0.33906,-0.8649 0.67812,-1.77281 1.01718,-2.72596 0.33906,-0.95315 0.67812,-1.95181 1.01718,-2.99826 0.33906,-1.04644 0.67812,-2.14096 1.01718,-3.28588 0.33906,-1.14491 0.67812,-2.34052 1.01719,-3.5892 0.33906,-1.24867 0.67812,-2.55073 1.01718,-3.90859 0.33906,-1.35786 0.67812,-2.77185 1.01718,-4.24443 0.33906,-1.47258 0.67812,-3.0041 1.01718,-4.59706"
       style="fill:none;fill-opacity:0.99187;stroke:#000bfe;stroke-width:0.76499999;stroke-miterlimit:4;stroke-dasharray:2.295, 0.765;stroke-dashoffset:0;stroke-opacity:1"
       inkscape:connector-curvature="0" />
    <path
       id="path262"
       title="0.25*pow(x,2)*pow(1-x,2)-0.15*(0.5*pow(x,2)-0.33*pow(x,3)-1/12)"
       d="m 48.422806,118.19423 c 0.340779,1.58549 0.681558,3.1095 1.022337,4.57488 0.340779,1.46538 0.681558,2.87191 1.022337,4.22272 0.340778,1.3508 0.681557,2.64556 1.022336,3.88734 0.340779,1.24178 0.681558,2.43025 1.022337,3.56841 0.340779,1.13816 0.681558,2.2257 1.022337,3.26554 0.340779,1.03984 0.681558,2.03169 1.022337,2.97837 0.340779,0.94669 0.681557,1.84795 1.022336,2.70653 0.340779,0.85858 0.681558,1.67424 1.022337,2.44964 0.340779,0.77541 0.681558,1.51032 1.022337,2.20735 0.340779,0.69702 0.681558,1.35594 1.022337,1.97926 0.340779,0.62333 0.681558,1.21086 1.022336,1.76505 0.340779,0.55419 0.681558,1.07483 1.022337,1.56431 0.340779,0.48947 0.681558,0.9476 1.022337,1.37667 0.340779,0.42908 0.681558,0.82894 1.022337,1.2018 0.340779,0.37287 0.681558,0.71858 1.022337,1.0393 0.340778,0.32071 0.681557,0.61628 1.022336,0.88879 0.340779,0.27251 0.681558,0.52182 1.022337,0.74994 0.340779,0.22812 0.681558,0.43492 1.022337,0.62235 0.340779,0.18742 0.681558,0.35535 1.022337,0.50566 0.340779,0.1503 0.681557,0.28287 1.022336,0.3995 0.340779,0.11663 0.681558,0.21722 1.022337,0.30351 0.340779,0.0863 0.681558,0.15817 1.022337,0.21731 0.340779,0.0591 0.681558,0.10545 1.022337,0.14053 0.340779,0.0351 0.681558,0.0589 1.022336,0.0728 0.340779,0.014 0.681558,0.0181 1.022337,0.0138 0.340779,-0.004 0.681558,-0.0171 1.022337,-0.0369 0.340779,-0.0199 0.681558,-0.0469 1.022337,-0.0797 0.340779,-0.0328 0.681558,-0.0715 1.022336,-0.11487 0.340779,-0.0433 0.681558,-0.0913 1.022337,-0.14284 0.340779,-0.0515 0.681558,-0.10652 1.022337,-0.16397 0.340779,-0.0574 0.681558,-0.11733 1.022337,-0.17862 0.340779,-0.0613 0.681558,-0.124 1.022337,-0.18717 0.340778,-0.0632 0.681557,-0.12679 1.022336,-0.18998 0.340779,-0.0632 0.681558,-0.12594 1.022337,-0.18743 0.340779,-0.0615 0.681558,-0.12169 1.022337,-0.17987 0.340779,-0.0582 0.681558,-0.1143 1.022337,-0.16769 0.340779,-0.0534 0.681557,-0.10401 1.022336,-0.15124 0.340779,-0.0472 0.681558,-0.0911 1.022337,-0.13091 0.340779,-0.0399 0.681558,-0.0757 1.022337,-0.10705 0.340779,-0.0314 0.681558,-0.0582 1.022337,-0.08 0.340779,-0.0219 0.681558,-0.0387 1.022336,-0.0502 0.340779,-0.0115 0.681558,-0.0176 1.022337,-0.018 0.340779,-4.1e-4 0.681558,0.005 1.022337,0.0162 0.340779,0.0113 0.681558,0.0286 1.022337,0.0522 0.340779,0.0235 0.681558,0.0533 1.022337,0.0894 0.340778,0.0361 0.681557,0.0786 1.022336,0.12761 0.340779,0.049 0.681558,0.10443 1.022337,0.16637 0.340779,0.0619 0.681558,0.13042 1.022337,0.20534 0.340779,0.0749 0.681558,0.15635 1.022338,0.24414 0.34078,0.0878 0.681557,0.18198 1.022334,0.28239 0.34077,0.10042 0.681547,0.20709 1.022327,0.31976 0.34078,0.11268 0.68156,0.23139 1.02234,0.35584 0.34078,0.12446 0.68156,0.25467 1.02234,0.39029 0.34077,0.13562 0.68155,0.27667 1.02233,0.42272 0.34078,0.14606 0.68156,0.29715 1.02234,0.45278 0.34078,0.15563 0.68156,0.31584 1.02234,0.48008 0.34077,0.16424 0.68155,0.33253 1.02233,0.50427 0.34078,0.17174 0.68156,0.34696 1.02234,0.52498 0.34078,0.17802 0.68156,0.35887 1.02234,0.54182 0.34078,0.18295 0.68155,0.36803 1.02233,0.55444 0.34078,0.18642 0.68156,0.37419 1.02234,0.56248 0.34078,0.18829 0.68156,0.3771 1.02234,0.56555 0.34078,0.18844 0.68155,0.37652 1.02233,0.56328 0.34078,0.18676 0.68156,0.37221 1.02234,0.55533 0.34078,0.18311 0.68156,0.3639 1.02234,0.54129 0.34078,0.17739 0.68155,0.35137 1.02233,0.52083 0.34078,0.16945 0.68156,0.33436 1.02234,0.49355 0.34078,0.15919 0.68156,0.31264 1.02234,0.45911 0.34078,0.14647 0.68156,0.28593 1.02233,0.41711 0.34078,0.13118 0.68156,0.25403 1.02234,0.36721 0.34078,0.11319 0.68156,0.21666 1.02234,0.30903 0.34078,0.0924 0.68156,0.17357 1.02233,0.24218 0.34078,0.0686 0.68156,0.12455 1.02234,0.16633 0.34078,0.0418 0.68156,0.0693 1.02234,0.0811 0.34078,0.0118 0.68156,0.008 1.02233,-0.0139 0.34078,-0.0216 0.68156,-0.0607 1.02234,-0.11905 0.34078,-0.0583 0.68156,-0.136 1.02234,-0.23467 0.34078,-0.0987 0.68156,-0.21847 1.02233,-0.36116 0.34078,-0.14268 0.68156,-0.30838 1.02234,-0.49888 0.34078,-0.1905 0.68156,-0.40595 1.02234,-0.6482 0.34078,-0.24225 0.68156,-0.51145 1.02234,-0.8095 0.34077,-0.29804 0.68155,-0.62511 1.02233,-0.98312 0.34078,-0.35802 0.68156,-0.74719 1.02234,-1.16948 0.34078,-0.42229 0.68156,-0.8779 1.02234,-1.36889 0.34077,-0.49098 0.68155,-1.01753 1.02233,-1.58175 0.34078,-0.56422 0.68156,-1.16632 1.02234,-1.80844 0.34078,-0.64211 0.68156,-1.32449 1.02234,-2.0493 0.34077,-0.72481 0.68155,-1.4923 1.02233,-2.30472 0.34078,-0.81241 0.68156,-1.67 1.02234,-2.57505 0.34078,-0.90505 0.68156,-1.85784 1.02234,-2.86069 0.34078,-1.00285 0.68155,-2.05605 1.02233,-3.16198 0.34078,-1.10592 0.68156,-2.26489 1.02234,-3.4793 0.34078,-1.2144 0.68156,-2.48459 1.02234,-3.81301 0.34078,-1.32842 0.68155,-2.71541 1.02233,-4.16349 0.34078,-1.44808 0.68156,-2.9576 1.02234,-4.53111 0.34078,-1.57351 0.68156,-3.2114 1.02234,-4.91624 0.34078,-1.70484 0.68155,-3.47704 1.02233,-5.31923 0.34078,-1.84219 0.68156,-3.75479 1.02234,-5.74048 0.34078,-1.98569 0.68156,-4.0449 1.02234,-6.18034"
       style="fill:none;fill-opacity:0.99187;stroke:#0000ff;stroke-width:0.76499999;stroke-miterlimit:4;stroke-dasharray:0.765, 0.765;stroke-dashoffset:0;stroke-opacity:1"
       inkscape:connector-curvature="0" />
    <path
       id="path290"
       title="0.25*pow(x,2)*pow(1-x,2)-0.0*(0.5*pow(x,2)-0.33*pow(x,3)-1/12)"
       d="m 47.402188,107.96588 c 0.341352,1.88568 0.682704,3.70159 1.024055,5.45078 0.341352,1.74919 0.682704,3.43139 1.024055,5.04998 0.341352,1.61859 0.682704,3.17318 1.024055,4.66707 0.341352,1.49389 0.682703,2.92672 1.024055,4.30171 0.341352,1.37499 0.682703,2.69178 1.024055,3.95353 0.341352,1.26174 0.682703,2.46809 1.024055,3.62213 0.341352,1.15403 0.682703,2.25542 1.024055,3.30715 0.341352,1.05173 0.682703,2.0535 1.024055,3.00822 0.341352,0.95472 0.682703,1.8621 1.024055,2.72496 0.341352,0.86287 0.682703,1.68095 1.024055,2.45701 0.341351,0.77605 0.682703,1.50981 1.024055,2.20396 0.341351,0.69415 0.682703,1.34845 1.024055,1.96549 0.341351,0.61703 0.682703,1.19659 1.024055,1.74118 0.341351,0.54459 0.682703,1.054 1.024055,1.53068 0.341351,0.47669 0.682703,0.92044 1.024055,1.33363 0.341351,0.41319 0.682703,0.79563 1.024055,1.14962 0.341351,0.35399 0.682703,0.67935 1.024054,0.9783 0.341352,0.29895 0.682704,0.57134 1.024055,0.8193 0.341352,0.24796 0.682704,0.47135 1.024055,0.67224 0.341352,0.20089 0.682704,0.37914 1.024055,0.53675 0.341352,0.1576 0.682704,0.29445 1.024055,0.41244 0.341352,0.118 0.682704,0.21704 1.024055,0.29897 0.341352,0.0819 0.682704,0.14665 1.024055,0.19593 0.341352,0.0493 0.682703,0.083 1.024055,0.10298 0.341352,0.0199 0.682703,0.026 1.024055,0.0197 0.341352,-0.006 0.682703,-0.0248 1.024055,-0.0542 0.341352,-0.0294 0.682703,-0.0696 1.024055,-0.11917 0.341352,-0.0496 0.682703,-0.10857 1.024055,-0.17555 0.341352,-0.067 0.682703,-0.14202 1.024055,-0.22374 0.341352,-0.0817 0.682703,-0.17017 1.024055,-0.26408 0.341351,-0.0939 0.682703,-0.19329 1.024055,-0.29695 0.341351,-0.10367 0.682703,-0.21163 1.024055,-0.32275 0.341351,-0.11112 0.682703,-0.22542 1.024055,-0.34182 0.341351,-0.1164 0.682703,-0.23492 1.024055,-0.35455 0.341351,-0.11963 0.682703,-0.24038 1.024055,-0.36131 0.341351,-0.12093 0.682703,-0.24204 1.024055,-0.36247 0.341351,-0.12043 0.682703,-0.24017 1.024054,-0.35841 0.341352,-0.11824 0.682704,-0.23499 1.024055,-0.3495 0.341352,-0.1145 0.682704,-0.22676 1.024055,-0.3361 0.341352,-0.10934 0.682704,-0.21575 1.024055,-0.31861 0.341352,-0.10287 0.682704,-0.20218 1.024055,-0.29739 0.341352,-0.0952 0.682704,-0.1863 1.024055,-0.2728 0.341352,-0.0865 0.682704,-0.16838 1.024055,-0.24523 0.341352,-0.0768 0.682703,-0.14865 1.024055,-0.21505 0.341352,-0.0664 0.682703,-0.12736 1.024055,-0.18262 0.341352,-0.0553 0.682703,-0.10478 1.024055,-0.14834 0.341352,-0.0436 0.682703,-0.0811 1.024055,-0.11256 0.341352,-0.0314 0.682703,-0.0567 1.024055,-0.0757 0.341352,-0.019 0.682703,-0.0317 1.024055,-0.038 0.341352,-0.006 0.682703,-0.006 1.024055,0 0.34135,0.006 0.6827,0.019 1.024047,0.038 0.34136,0.019 0.682707,0.0443 1.024057,0.0757 0.34135,0.0314 0.6827,0.069 1.02405,0.11256 0.34136,0.0436 0.68271,0.0931 1.02406,0.14834 0.34135,0.0553 0.6827,0.11624 1.02405,0.18262 0.34136,0.0664 0.68271,0.13821 1.02406,0.21505 0.34135,0.0768 0.6827,0.15874 1.02405,0.24523 0.34136,0.0865 0.68271,0.1776 1.02406,0.2728 0.34135,0.0952 0.6827,0.19453 1.02405,0.29739 0.34136,0.10286 0.68271,0.20927 1.02406,0.31861 0.34135,0.10933 0.6827,0.2216 1.02405,0.3361 0.34136,0.11451 0.68271,0.23126 1.02406,0.3495 0.34135,0.11824 0.6827,0.23798 1.02405,0.35841 0.34136,0.12043 0.68271,0.24154 1.02406,0.36247 0.34135,0.12093 0.6827,0.24168 1.02405,0.36131 0.34136,0.11963 0.68271,0.23814 1.02406,0.35455 0.34135,0.1164 0.6827,0.23069 1.02405,0.34182 0.34136,0.11113 0.68271,0.21907 1.02406,0.32275 0.34135,0.10367 0.6827,0.20304 1.02405,0.29695 0.34136,0.0939 0.68271,0.18235 1.02406,0.26408 0.34135,0.0817 0.6827,0.15673 1.02405,0.22374 0.34136,0.067 0.68271,0.12596 1.02406,0.17555 0.34135,0.0496 0.6827,0.0898 1.02405,0.11917 0.34136,0.0294 0.68271,0.0479 1.02406,0.0542 0.34135,0.006 0.6827,1.8e-4 1.02405,-0.0197 0.34136,-0.0199 0.68271,-0.0537 1.02406,-0.10298 0.34135,-0.0493 0.6827,-0.11404 1.02405,-0.19593 0.34136,-0.0819 0.68271,-0.18101 1.02406,-0.29897 0.34135,-0.11796 0.6827,-0.25488 1.02405,-0.41244 0.34135,-0.15757 0.68271,-0.33591 1.02406,-0.53675 0.34135,-0.20084 0.6827,-0.42433 1.02405,-0.67224 0.34135,-0.24791 0.68271,-0.5204 1.02406,-0.8193 0.34135,-0.2989 0.6827,-0.62437 1.02405,-0.9783 0.34135,-0.35393 0.68271,-0.73649 1.02406,-1.14962 0.34135,-0.41313 0.6827,-0.85701 1.02405,-1.33363 0.34135,-0.47661 0.68271,-0.98616 1.02406,-1.53068 0.34135,-0.54452 0.6827,-1.12422 1.02405,-1.74118 0.34135,-0.61697 0.68271,-1.27142 1.02406,-1.96549 0.34135,-0.69407 0.6827,-1.428 1.02405,-2.20396 0.34135,-0.77597 0.68271,-1.59423 1.02406,-2.45701 0.34135,-0.86277 0.6827,-1.77034 1.02405,-2.72496 0.34135,-0.95462 0.68271,-1.95659 1.02406,-3.00822 0.34135,-1.05163 0.6827,-2.15323 1.02405,-3.30715 0.34135,-1.15393 0.68271,-2.3605 1.02406,-3.62213 0.34135,-1.26164 0.6827,-2.57866 1.02405,-3.95353 0.34135,-1.37487 0.68271,-2.80794 1.02406,-4.30171 0.34135,-1.49377 0.6827,-3.04861 1.02405,-4.66707 0.34135,-1.61846 0.68271,-3.30092 1.02406,-5.04998 0.34135,-1.74905 0.6827,-3.5651 1.02405,-5.45078"
       style="fill:none;fill-opacity:0.99187;stroke:#0100fa;stroke-width:0.76499999;stroke-miterlimit:4;stroke-dasharray:none;stroke-dashoffset:0;stroke-opacity:1"
       inkscape:connector-curvature="0" />
  </g>
</svg>
