<?xml version="1.0" encoding="UTF-8" standalone="no"?>
<!-- Created with Inkscape (http://www.inkscape.org/) -->

<svg
   xmlns:dc="http://purl.org/dc/elements/1.1/"
   xmlns:cc="http://creativecommons.org/ns#"
   xmlns:rdf="http://www.w3.org/1999/02/22-rdf-syntax-ns#"
   xmlns:svg="http://www.w3.org/2000/svg"
   xmlns="http://www.w3.org/2000/svg"
   xmlns:sodipodi="http://sodipodi.sourceforge.net/DTD/sodipodi-0.dtd"
   xmlns:inkscape="http://www.inkscape.org/namespaces/inkscape"
   width="210mm"
   height="297mm"
   viewBox="0 0 210 297"
   version="1.1"
   id="svg5"
   inkscape:version="0.92.5 (2060ec1f9f, 2020-04-08)"
   sodipodi:docname="fractionbinding.svg">
  <sodipodi:namedview
     id="namedview7"
     pagecolor="#ffffff"
     bordercolor="#666666"
     borderopacity="1.0"
     inkscape:pageshadow="2"
     inkscape:pageopacity="0.0"
     inkscape:pagecheckerboard="0"
     inkscape:document-units="mm"
     showgrid="false"
     inkscape:zoom="1.5554293"
     inkscape:cx="435.14891"
     inkscape:cy="615.01131"
     inkscape:window-width="1754"
     inkscape:window-height="1110"
     inkscape:window-x="485"
     inkscape:window-y="653"
     inkscape:window-maximized="0"
     inkscape:current-layer="layer1" />
  <metadata
     id="metadata34">
    <rdf:RDF>
      <cc:Work
         rdf:about="">
        <dc:format>image/svg+xml</dc:format>
        <dc:type
           rdf:resource="http://purl.org/dc/dcmitype/StillImage" />
        <dc:title></dc:title>
      </cc:Work>
    </rdf:RDF>
  </metadata>
  <defs
     id="defs2">
    <marker
       style="overflow:visible;"
       id="Arrow2Lend"
       refX="0.0"
       refY="0.0"
       orient="auto"
       inkscape:stockid="Arrow2Lend"
       inkscape:isstock="true">
      <path
         transform="scale(1.1) rotate(180) translate(1,0)"
         d="M 8.7185878,4.0337352 L -2.2072895,0.016013256 L 8.7185884,-4.0017078 C 6.9730900,-1.6296469 6.9831476,1.6157441 8.7185878,4.0337352 z "
         style="fill-rule:evenodd;fill:context-stroke;stroke-width:0.625;stroke-linejoin:round;stroke:#000000;stroke-opacity:1"
         id="path962" />
    </marker>
    <marker
       style="overflow:visible;"
       id="Arrow1Mend"
       refX="0.0"
       refY="0.0"
       orient="auto"
       inkscape:stockid="Arrow1Mend"
       inkscape:isstock="true">
      <path
         transform="scale(0.4) rotate(180) translate(10,0)"
         style="fill-rule:evenodd;fill:context-stroke;stroke:context-stroke;stroke-width:1.0pt;"
         d="M 0.0,0.0 L 5.0,-5.0 L -12.5,0.0 L 5.0,5.0 L 0.0,0.0 z "
         id="path950" />
    </marker>
    <marker
       style="overflow:visible;"
       id="Arrow1Lend"
       refX="0.0"
       refY="0.0"
       orient="auto"
       inkscape:stockid="Arrow1Lend"
       inkscape:isstock="true">
      <path
         transform="scale(0.8) rotate(180) translate(12.5,0)"
         style="fill-rule:evenodd;fill:context-stroke;stroke:context-stroke;stroke-width:1.0pt;"
         d="M 0.0,0.0 L 5.0,-5.0 L -12.5,0.0 L 5.0,5.0 L 0.0,0.0 z "
         id="path944" />
    </marker>
    <marker
       style="overflow:visible"
       id="Arrow2Lend-9"
       refX="0"
       refY="0"
       orient="auto"
       inkscape:stockid="Arrow2Lend"
       inkscape:isstock="true">
      <path
         transform="matrix(-1.1,0,0,-1.1,-1.1,0)"
         d="M 8.7185878,4.0337352 -2.2072895,0.01601326 8.7185884,-4.0017078 c -1.7454984,2.3720609 -1.7354408,5.6174519 -6e-7,8.035443 z"
         style="fill:context-stroke;fill-rule:evenodd;stroke-width:0.625;stroke-linejoin:round;stroke:#000000;stroke-opacity:1"
         id="path962-4" />
    </marker>
  </defs>
  <g
     inkscape:label="Layer 1"
     inkscape:groupmode="layer"
     id="layer1">
    <path
       style="fill:none;stroke:#000000;stroke-width:0.5;stroke-linecap:butt;stroke-linejoin:miter;stroke-miterlimit:4;stroke-dasharray:none;stroke-opacity:1;marker-end:url(#Arrow2Lend)"
       d="m 55.438229,162.72154 c 0,-78.635567 0,-78.635567 0,-78.635567"
       id="path42"
       inkscape:connector-curvature="0" />
    <path
       style="fill:none;stroke:#000000;stroke-width:0.5;stroke-linecap:butt;stroke-linejoin:miter;stroke-miterlimit:4;stroke-dasharray:none;stroke-opacity:1;marker-end:url(#Arrow2Lend-9)"
       d="m 51.32555,160.74121 c 105.8041,0 105.8041,0 105.8041,0"
       id="path42-2" />
    <text
       xml:space="preserve"
       style="line-height:0%;font-family:'Palatino Linotype';-inkscape-font-specification:'Palatino Linotype';letter-spacing:0px;word-spacing:0px;stroke-width:0.26458299"
       x="-159.66945"
       y="45.485016"
       id="text5468"
       transform="rotate(-90)"><tspan
         sodipodi:role="line"
         style="font-size:7.05555534px;line-height:1.25;stroke-width:0.26458299"
         x="-159.66945"
         y="45.485016"
         id="tspan1095">fractional binding</tspan></text>
    <text
       xml:space="preserve"
       style="line-height:0%;font-family:'Palatino Linotype';-inkscape-font-specification:'Palatino Linotype';letter-spacing:0px;word-spacing:0px;stroke-width:0.26458299"
       x="160.57732"
       y="165"
       id="text11562"><tspan
         sodipodi:role="line"
         id="tspan11560"
         style="font-size:11.28890038px;line-height:1.25;stroke-width:0.26458299"
         x="160.57732"
         y="165">p<tspan
   style="font-size:64.99999762%;baseline-shift:sub"
   id="tspan1107">O<tspan
   id="tspan1109">2</tspan></tspan></tspan></text>
    <path
       style="fill:none;stroke:#000000;stroke-width:0.26458332;stroke-linecap:butt;stroke-linejoin:miter;stroke-miterlimit:4;stroke-dasharray:0.79374995, 0.79374995;stroke-dashoffset:0;stroke-opacity:1"
       d="M 55.08872,101.18245 H 155.16256"
       id="path1093"
       inkscape:connector-curvature="0" />
    <text
       xml:space="preserve"
       style="line-height:0%;font-family:'Palatino Linotype';-inkscape-font-specification:'Palatino Linotype';letter-spacing:0px;word-spacing:0px;stroke-width:0.26458332"
       x="50.036915"
       y="102.62583"
       id="text1101"><tspan
         sodipodi:role="line"
         id="tspan1099"
         x="50.036915"
         y="102.62583"
         style="font-size:7.05555534px;line-height:1.25;stroke-width:0.26458332">1</tspan></text>
    <path
       style="opacity:1;fill:#ffffff;fill-opacity:1;fill-rule:evenodd;stroke:none;stroke-width:1.35300004;stroke-linejoin:miter;stroke-miterlimit:4;stroke-dasharray:none;stroke-dashoffset:0;stroke-opacity:1"
       d=" M 56.973198 159.465972 C 57.126680191 159.465972 57.2801623819 159.465972 57.4336445729 159.465972 C 57.5871267638 159.465972 57.7406089548 159.465972 57.8940911457 159.465971997 C 58.0475733367 159.465971994 58.2010555276 159.465971989 58.3545377186 159.465971966 C 58.5080199095 159.465971943 58.6615021005 159.465971903 58.8149842915 159.465971807 C 58.9684664824 159.46597171 59.1219486734 159.465971557 59.2754308643 159.465971262 C 59.4289130553 159.465970967 59.5823952462 159.465970531 59.7358774372 159.465969797 C 59.8893596281 159.465969063 60.0428418191 159.465968032 60.1963240101 159.465966445 C 60.349806201 159.465964859 60.503288392 159.465962717 60.6567705829 159.465959623 C 60.8102527739 159.46595653 60.9637349648 159.465952483 61.1172171558 159.465946909 C 61.2706993467 159.465941335 61.4241815377 159.465934227 61.5776637286 159.465924787 C 61.7311459196 159.465915347 61.8846281106 159.465903563 62.0381103015 159.465888359 C 62.1915924925 159.465873155 62.3450746834 159.465854514 62.4985568744 159.465831022 C 62.6520390653 159.465807531 62.8055212563 159.465779165 62.9590034472 159.465744112 C 63.1124856382 159.465709059 63.2659678291 159.465667284 63.4194500201 159.465616509 C 63.5729322111 159.465565734 63.726414402 159.465505909 63.879896593 159.465434218 C 64.0333787839 159.465362526 64.1868609749 159.465278901 64.3403431658 159.465179907 C 64.4938253568 159.465080912 64.6473075477 159.464966461 64.8007897387 159.464832415 C 64.9542719296 159.46469837 65.1077541206 159.464544617 65.2612363116 159.464366229 C 65.4147185025 159.464187841 65.5682006935 159.463984675 65.7216828844 159.463750919 C 65.8751650754 159.463517163 66.0286472663 159.463252639 66.1821294573 159.462950552 C 66.3356116482 159.462648465 66.4890938392 159.462308594 66.6425760302 159.461923061 C 66.7960582211 159.461537528 66.9495404121 159.461106063 67.103022603 159.460619592 C 67.256504794 159.460133122 67.4099869849 159.459591321 67.5634691759 159.458983812 C 67.7169513668 159.458376302 67.8704335578 159.457702693 68.0239157487 159.456951185 C 68.1773979397 159.456199677 68.3308801307 159.455369806 68.4843623216 159.454448228 C 68.6378445126 159.453526651 68.7913267035 159.452512821 68.9448088945 159.451391726 C 69.0982910854 159.450270631 69.2517732764 159.449041632 69.4052554673 159.447687922 C 69.5587376583 159.446334211 69.7122198492 159.444855045 69.8657020402 159.443231688 C 70.0191842312 159.441608331 70.1726664221 159.439839923 70.3261486131 159.437905666 C 70.479630804 159.435971409 70.633112995 159.433870312 70.7865951859 159.431579383 C 70.9400773769 159.429288454 71.0935595678 159.426806556 71.2470417588 159.424108361 C 71.4005239497 159.421410166 71.5540061407 159.418494379 71.7074883317 159.415333198 C 71.8609705226 159.412172018 72.0144527136 159.408763973 72.1679349045 159.405078651 C 72.3214170955 159.401393328 72.4748992864 159.397429065 72.6283814774 159.393152698 C 72.7818636683 159.388876332 72.9353458593 159.384285989 73.0888280503 159.379345621 C 73.2423102412 159.374405253 73.3957924322 159.369112759 73.5492746231 159.363429073 C 73.7027568141 159.357745387 73.856239005 159.35166816 74.009721196 159.34515518 C 74.1632033869 159.338642201 74.3166855779 159.331690851 74.4701677688 159.324255653 C 74.6236499598 159.316820455 74.7771321508 159.308898502 74.9306143417 159.300440938 C 75.0840965327 159.291983373 75.2375787236 159.282986977 75.3910609146 159.273399413 C 75.5445431055 159.263811849 75.6980252965 159.253629561 75.8515074874 159.242796643 C 76.0049896784 159.231963725 76.1584718693 159.220476262 76.3119540603 159.208274702 C 76.4654362513 159.196073142 76.6189184422 159.183153188 76.7724006332 159.169451587 C 76.9258828241 159.155749987 77.0793650151 159.141262034 77.232847206 159.125920741 C 77.386329397 159.110579448 77.5398115879 159.094379676 77.6932937789 159.077250692 C 77.8467759698 159.060121707 78.0002581608 159.042057912 78.1537403518 159.022984844 C 78.3072225427 159.003911777 78.4607047337 158.983823355 78.6141869246 158.962641438 C 78.7676691156 158.941459521 78.9211513065 158.919177517 79.0746334975 158.895713694 C 79.2281156884 158.87224987 79.3815978794 158.8475971 79.5350800704 158.821670181 C 79.6885622613 158.795743263 79.8420444523 158.768534512 79.9955266432 158.739955429 C 80.1490088342 158.711376345 80.3024910251 158.681418661 80.4559732161 158.649990799 C 80.609455407 158.618562936 80.762937598 158.585656022 80.9164197889 158.55117567 C 81.0699019799 158.516695317 81.2233841709 158.48063203 81.3768663618 158.442888939 C 81.5303485528 158.405145847 81.6838307437 158.365712812 81.8373129347 158.324490875 C 81.9907951256 158.283268937 82.1442773166 158.240247297 82.2977595075 158.195325359 C 82.4512416985 158.15040342 82.6047238894 158.10356971 82.7582060804 158.054722518 C 82.9116882714 158.005875326 83.0651704623 157.955002493 83.2186526533 157.90200179 C 83.3721348442 157.849001087 83.5256170352 157.793859662 83.6790992261 157.736475428 C 83.8325814171 157.679091194 83.986063608 157.619450604 84.139545799 157.557452453 C 84.29302799 157.495454303 84.4465101809 157.431084349 84.5999923719 157.364243078 C 84.7534745628 157.297401807 84.9069567538 157.228074288 85.0604389447 157.156163576 C 85.2139211357 157.084252865 85.3674033266 157.009743354 85.5208855176 156.932541613 C 85.6743677085 156.855339873 85.8278498995 156.775429637 85.9813320905 156.692721999 C 86.1348142814 156.61001436 86.2882964724 156.524492417 86.4417786633 156.436072844 C 86.5952608543 156.347653271 86.7487430452 156.256318563 86.9022252362 156.161992079 C 87.0557074271 156.067665596 87.2091896181 155.970329265 87.362671809 155.869914271 C 87.516154 155.769499278 87.669636191 155.665987027 87.8231183819 155.559317685 C 87.9766005729 155.452648344 88.1300827638 155.342802846 88.2835649548 155.229731501 C 88.4370471457 155.116660156 88.5905293367 155.000343487 88.7440115276 154.880743094 C 88.8974937186 154.761142701 89.0509759095 154.638238763 89.2044581005 154.512005282 C 89.3579402915 154.385771801 89.5114224824 154.256188687 89.6649046734 154.123243405 C 89.8183868643 153.990298124 89.9718690553 153.853970395 90.1253512462 153.714262135 C 90.2788334372 153.574553875 90.4323156281 153.4314447 90.5857978191 153.284951862 C 90.7392800101 153.138459023 90.892762201 152.98856213 91.046244392 152.835294533 C 91.1997265829 152.682026937 91.3532087739 152.525368334 91.5066909648 152.365368805 C 91.6601731558 152.205369275 91.8136553467 152.042008706 91.9671375377 151.875354364 C 92.1206197286 151.708700022 92.2741019196 151.538732091 92.4275841106 151.365535306 C 92.5810663015 151.192338522 92.7345484925 151.015893471 92.8880306834 150.836302441 C 93.0415128744 150.656711411 93.1949950653 150.473955504 93.3484772563 150.288154429 C 93.5019594472 150.102353355 93.6554416382 149.913488836 93.8089238291 149.721697668 C 93.9624060201 149.529906499 94.1158882111 149.33517113 94.269370402 149.13764487 C 94.422852593 148.94011861 94.5763347839 148.739784741 94.7298169749 148.536812301 C 94.8832991658 148.333839862 95.0367813568 148.128213063 95.1902635477 147.920115671 C 95.3437457387 147.712018279 95.4972279296 147.501435529 95.6507101206 147.288564708 C 95.8041923116 147.075693886 95.9576745025 146.860521337 96.1111566935 146.643256474 C 96.2646388844 146.425991611 96.4181210754 146.206621963 96.5716032663 145.98536751 C 96.7250854573 145.764113057 96.8785676482 145.540962583 97.0320498392 145.316144924 C 97.1855320302 145.091327265 97.3390142211 144.86483252 97.4924964121 144.63689656 C 97.645978603 144.408960601 97.799460794 144.179574889 97.9529429849 143.948980427 C 98.1064251759 143.718385965 98.2599073668 143.486575613 98.4133895578 143.253793545 C 98.5668717487 143.021011478 98.7203539397 142.78725198 98.8738361307 142.552760422 C 99.0273183216 142.318268865 99.1808005126 142.08304097 99.3342827035 141.847321345 C 99.4877648945 141.611601719 99.6412470854 141.375387525 99.7947292764 141.13892069 C 99.9482114673 140.902453854 100.101693658 140.66573297 100.255175849 140.428995448 C 100.40865804 140.192257926 100.562140231 139.95550377 100.715622422 139.718964143 C 100.869104613 139.482424515 101.022586804 139.2461008 101.176068995 139.010216308 C 101.329551186 138.774331816 101.483033377 138.538889272 101.636515568 138.304102684 C 101.789997759 138.069316095 101.94347995 137.835189477 102.096962141 137.601926244 C 102.250444332 137.368663011 102.403926523 137.136268415 102.557408714 136.904934166 C 102.710890905 136.673599917 102.864373095 136.443332439 103.017855286 136.214310813 C 103.171337477 135.985289187 103.324819668 135.757520939 103.478301859 135.531171783 C 103.63178405 135.304822626 103.785266241 135.079901117 103.938748432 134.856559046 C 104.092230623 134.633216976 104.245712814 134.411463852 104.399195005 134.191437175 C 104.552677196 133.971410498 104.706159387 133.75312065 104.859641578 133.536690639 C 105.013123769 133.320260629 105.16660596 133.10570163 105.320088151 132.893122129 C 105.473570342 132.680542628 105.627052533 132.46995451 105.780534724 132.261451854 C 105.934016915 132.052949198 106.087499106 131.846544518 106.240981296 131.642317738 C 106.394463487 131.438090958 106.547945678 131.236055141 106.701427869 131.036276432 C 106.85491006 130.836497722 107.008392251 130.638989653 107.161874442 130.443805065 C 107.315356633 130.248620476 107.468838824 130.055773296 107.622321015 129.865303627 C 107.775803206 129.674833957 107.929285397 129.486756048 108.082767588 129.301097901 C 108.236249779 129.115439754 108.38973197 128.93221587 108.543214161 128.751442846 C 108.696696352 128.570669822 108.850178543 128.392362344 109.003660734 128.21652634 C 109.157142925 128.040690336 109.310625116 127.867340615 109.464107307 127.696473201 C 109.617589497 127.525605786 109.771071688 127.357235553 109.924553879 127.191349399 C 110.07803607 127.025463245 110.231518261 126.862076058 110.385000452 126.701166394 C 110.538482643 126.540256731 110.691964834 126.381839441 110.845447025 126.225885523 C 110.998929216 126.069931604 111.152411407 125.916455824 111.305893598 125.765422384 C 111.459375789 125.614388944 111.61285798 125.465812488 111.766340171 125.319651168 C 111.919822362 125.173489849 112.073304553 125.029758148 112.226786744 124.888408889 C 112.380268935 124.747059629 112.533751126 124.608107098 112.687233317 124.471499472 C 112.840715508 124.334891847 112.994197698 124.200643193 113.147679889 124.068697692 C 113.30116208 123.936752191 113.454644271 123.807123662 113.608126462 123.679752905 C 113.761608653 123.552382149 113.915090844 123.427282713 114.068573035 123.304392592 C 114.222055226 123.181502471 114.375537417 123.060834925 114.529019608 122.942325674 C 114.682501799 122.823816423 114.83598399 122.707478422 114.989466181 122.59324561 C 115.142948372 122.479012798 115.296430563 122.366897814 115.449912754 122.256833265 C 115.603394945 122.146768716 115.756877136 122.038766915 115.910359327 121.932759551 C 116.063841518 121.826752186 116.217323709 121.722751237 116.370805899 121.620687846 C 116.52428809 121.518624456 116.677770281 121.418510262 116.831252472 121.320276199 C 116.984734663 121.222042135 117.138216854 121.125699499 117.291699045 121.031179312 C 117.445181236 120.936659126 117.598663427 120.843972341 117.752145618 120.753050339 C 117.905627809 120.662128337 118.05911 120.572981725 118.212592191 120.485542477 C 118.366074382 120.398103228 118.519556573 120.312381608 118.673038764 120.228310387 C 118.826520955 120.144239166 118.980003146 120.061828268 119.133485337 119.981011443 C 119.286967528 119.900194618 119.440449719 119.820981451 119.59393191 119.743306823 C 119.747414101 119.665632194 119.900896291 119.589505357 120.054378482 119.514862452 C 120.207860673 119.440219546 120.361342864 119.367069498 120.514825055 119.295349816 C 120.668307246 119.223630134 120.821789437 119.153349422 120.975271628 119.084446649 C 121.128753819 119.015543875 121.28223601 118.948027329 121.435718201 118.881837507 C 121.589200392 118.815647685 121.742682583 118.750792569 121.896164774 118.687214242 C 122.049646965 118.623635914 122.203129156 118.561342058 122.356611347 118.500276382 C 122.510093538 118.439210705 122.663575729 118.379380599 122.81705792 118.320731429 C 122.970540111 118.262082258 123.124022302 118.20462113 123.277504492 118.148295082 C 123.430986683 118.091969034 123.584468874 118.036784899 123.737951065 117.982691395 C 123.891433256 117.928597891 124.044915447 117.875601585 124.198397638 117.823652875 C 124.351879829 117.771704165 124.50536202 117.720809359 124.658844211 117.670920529 C 124.812326402 117.621031698 124.965808593 117.5721549 125.119290784 117.524243863 C 125.272772975 117.476332826 125.426255166 117.429393365 125.579737357 117.383380848 C 125.733219548 117.33736833 125.886701739 117.292288337 126.04018393 117.248097845 C 126.193666121 117.203907353 126.347148312 117.16061172 126.500630503 117.118169505 C 126.654112693 117.07572729 126.807594884 117.034143633 126.961077075 116.993378642 C 127.114559266 116.952613651 127.268041457 116.912672258 127.421523648 116.873516085 C 127.575005839 116.834359912 127.72848803 116.795993688 127.881970221 116.758380514 C 128.035452412 116.720767339 128.188934603 116.683911749 128.342416794 116.64777828 C 128.495898985 116.611644811 128.649381176 116.576237812 128.802863367 116.541523217 C 128.956345558 116.506808621 129.109827749 116.4727906 129.26330994 116.439436439 C 129.416792131 116.406082278 129.570274322 116.373395978 129.723756513 116.341346137 C 129.877238704 116.309296296 130.030720894 116.277886749 130.184203085 116.247087365 C 130.337685276 116.216287982 130.491167467 116.186102438 130.644649658 116.15650183 C 130.798131849 116.126901222 130.95161404 116.097889075 131.105096231 116.069437671 C 131.258578422 116.040986267 131.412060613 116.013098984 131.565542804 115.985749248 C 131.719024995 115.958399512 131.872507186 115.931590562 132.025989377 115.905296925 C 132.179471568 115.879003288 132.332953759 115.853228069 132.48643595 115.827946856 C 132.639918141 115.802665643 132.793400332 115.777881413 132.946882523 115.753570774 C 133.100364714 115.729260136 133.253846905 115.705425944 133.407329095 115.682045788 C 133.560811286 115.658665631 133.714293477 115.635742248 133.867775668 115.613254171 C 134.021257859 115.590766094 134.17474005 115.568715947 134.328222241 115.54708317 C 134.481704432 115.525450392 134.635186623 115.504237501 134.788668814 115.483424804 C 134.942151005 115.462612107 135.095633196 115.442202017 135.249115387 115.422175679 C 135.402597578 115.402149341 135.556079769 115.382509067 135.70956196 115.363236802 C 135.863044151 115.343964538 136.016526342 115.3250625 136.170008533 115.306513402 C 136.323490724 115.287964304 136.476972915 115.269770273 136.630455106 115.251914756 C 136.783937296 115.234059238 136.937419487 115.216544276 137.090901678 115.19935402 C 137.244383869 115.182163765 137.39786606 115.165300173 137.551348251 115.148748073 C 137.704830442 115.132195973 137.858312633 115.115957241 138.011794824 115.100017351 C 138.165277015 115.084077462 138.318759206 115.068438215 138.472241397 115.053085704 C 138.625723588 115.037733193 138.779205779 115.022669145 138.93268797 115.007880244 C 139.086170161 114.993091344 139.239652352 114.97857925 139.393134543 114.964331212 C 139.546616734 114.950083174 139.700098925 114.936100784 139.853581116 114.922371835 C 140.007063307 114.908642886 140.160545497 114.895168905 140.314027688 114.881938204 C 140.467509879 114.868707503 140.62099207 114.855721548 140.774474261 114.842969145 C 140.927956452 114.830216743 141.081438643 114.817699302 141.234920834 114.805406102 C 141.388403025 114.793112903 141.541885216 114.781045298 141.695367407 114.769193022 C 141.848849598 114.757340745 142.002331789 114.745705096 142.15581398 114.734276243 C 142.309296171 114.722847389 142.462778362 114.711626578 142.616260553 114.700604393 C 142.769742744 114.689582207 142.923224935 114.678759845 143.076707126 114.668128286 C 143.230189317 114.657496727 143.383671508 114.647057122 143.537153698 114.636800829 C 143.690635889 114.626544536 143.84411808 114.61647266 143.997600271 114.606576924 C 144.151082462 114.596681188 144.304564653 114.586962653 144.458046844 114.577413387 C 144.611529035 114.567864121 144.765011226 114.558485144 144.918493417 114.549268856 C 145.071975608 114.540052569 145.225457799 114.530999951 145.37893999 114.522103718 C 145.532422181 114.513207486 145.685904372 114.504468582 145.839386563 114.495880026 C 145.992868754 114.48729147 146.146350945 114.478854167 146.299833136 114.470561426 C 146.453315327 114.462268686 146.606797518 114.454121379 146.760279709 114.44611309 C 146.913761899 114.438104802 147.06724409 114.43023637 147.220726281 114.422501645 C 147.374208472 114.414766921 147.527690663 114.407166708 147.681172854 114.399695111 C 147.834655045 114.392223514 147.988137236 114.384881308 148.141619427 114.377662837 C 148.295101618 114.370444367 148.448583809 114.363350378 148.602066 114.356375446"
       title="t pow(t,6)/(1+pow(t,6))"
       id="path3380" />
    <path
       id="path3432"
       title="t pow(t,6)/(1+pow(t,6))"
       d="M 56.428864 160.554633 l 93.443298 0 M 56.428864 160.554633 l 0 -59.694843 M 56.428864 160.554633 C 56.5853854372 160.554633 56.7419068744 160.554633 56.8984283116 160.554633 C 57.0549497487 160.554633 57.2114711859 160.554633 57.3679926231 160.554632996 C 57.5245140603 160.554632992 57.6810354975 160.554632985 57.8375569347 160.554632955 C 57.9940783719 160.554632925 58.150599809 160.554632874 58.3071212462 160.554632748 C 58.4636426834 160.554632622 58.6201641206 160.554632423 58.7766855578 160.554632039 C 58.933206995 160.554631654 59.0897284322 160.554631086 59.2462498693 160.55463013 C 59.4027713065 160.554629174 59.5592927437 160.55462783 59.7158141809 160.554625763 C 59.8723356181 160.554623695 60.0288570553 160.554620904 60.1853784925 160.554616874 C 60.3418999296 160.554612843 60.4984213668 160.55460757 60.654942804 160.554600307 C 60.8114642412 160.554593044 60.9679856784 160.554583783 61.1245071156 160.554571483 C 61.2810285528 160.554559182 61.4375499899 160.554543829 61.5940714271 160.554524018 C 61.7505928643 160.554504208 61.9071143015 160.554479919 62.0636357387 160.55444931 C 62.2201571759 160.554418702 62.3766786131 160.554381741 62.5332000503 160.554336068 C 62.6897214874 160.554290396 62.8462429246 160.554235964 63.0027643618 160.554169806 C 63.159285799 160.554103647 63.3158072362 160.554025698 63.4723286734 160.553932286 C 63.6288501106 160.553838874 63.7853715477 160.553729913 63.9418929849 160.553600926 C 64.0984144221 160.553471939 64.2549358593 160.553322813 64.4114572965 160.553148155 C 64.5679787337 160.552973498 64.7245001709 160.552773162 64.881021608 160.552540728 C 65.0375430452 160.552308294 65.1940644824 160.552043575 65.3505859196 160.551738998 C 65.5071073568 160.551434421 65.663628794 160.551089753 65.8201502312 160.550696143 C 65.9766716683 160.550302532 66.1331931055 160.549859692 66.2897145427 160.549357353 C 66.4462359799 160.548855015 66.6027574171 160.548292829 66.7592788543 160.547658972 C 66.9158002915 160.547025116 67.0723217286 160.546319166 67.2288431658 160.545527599 C 67.385364603 160.544736031 67.5418860402 160.54385834 67.6984074774 160.542879147 C 67.8549289146 160.541899954 68.0114503518 160.540818657 68.1679717889 160.539617869 C 68.3244932261 160.538417081 68.4810146633 160.53709609 68.6375361005 160.535635337 C 68.7940575377 160.534174584 68.9505789749 160.532573235 69.1071004121 160.530809391 C 69.2636218492 160.529045546 69.4201432864 160.527118237 69.5766647236 160.525003051 C 69.7331861608 160.522887866 69.889707598 160.520583682 70.0462290352 160.518063402 C 70.2027504724 160.515543123 70.3592719095 160.512805457 70.5157933467 160.509820444 C 70.6723147839 160.506835432 70.8288362211 160.503601592 70.9853576583 160.500085925 C 71.1418790955 160.496570257 71.2984005327 160.492771074 71.4549219698 160.48865215 C 71.611443407 160.484533226 71.7679648442 160.480092645 71.9244862814 160.475290779 C 72.0810077186 160.470488914 72.2375291558 160.465323597 72.394050593 160.459751619 C 72.5505720302 160.45417964 72.7070934673 160.44819856 72.8636149045 160.441761408 C 73.0201363417 160.435324256 73.1766577789 160.428428294 73.3331792161 160.421022621 C 73.4897006533 160.413616947 73.6462220905 160.405698501 73.8027435276 160.397212282 C 73.9592649648 160.388726064 74.115786402 160.379668662 74.2723078392 160.369980821 C 74.4288292764 160.360292979 74.5853507136 160.34997091 74.7418721508 160.338950956 C 74.8983935879 160.327931001 75.0549150251 160.316208965 75.2114364623 160.303716655 C 75.3679578995 160.291224344 75.5244793367 160.277957127 75.6810007739 160.263842157 C 75.8375222111 160.249727187 75.9940436482 160.234759364 76.1505650854 160.218861096 C 76.3070865226 160.202962827 76.4636079598 160.186128511 76.620129397 160.168275733 C 76.7766508342 160.150422956 76.9331722714 160.131545585 77.0896937085 160.111556337 C 77.2462151457 160.09156709 77.4027365829 160.070459269 77.5592580201 160.048140712 C 77.7157794573 160.025822156 77.8723008945 160.002285568 78.0288223317 159.97743393 C 78.1853437688 159.952582291 78.341865206 159.926407675 78.4983866432 159.898808268 C 78.6549080804 159.871208861 78.8114295176 159.842176074 78.9679509548 159.811603411 C 79.124472392 159.781030747 79.2809938291 159.748908922 79.4375152663 159.71512692 C 79.5940367035 159.681344918 79.7505581407 159.645892726 79.9070795779 159.60865503 C 80.0636010151 159.571417335 80.2201224523 159.532383366 80.3766438894 159.491433797 C 80.5331653266 159.450484228 80.6896867638 159.4076075 80.846208201 159.362680627 C 81.0027296382 159.317753755 81.1592510754 159.270764366 81.3157725126 159.221586242 C 81.4722939497 159.172408118 81.6288153869 159.121028048 81.7853368241 159.067317091 C 81.9418582613 159.013606134 82.0983796985 158.957550218 82.2549011357 158.89901827 C 82.4114225729 158.840486322 82.56794401 158.779463392 82.7244654472 158.715816956 C 82.8809868844 158.65217052 83.0375083216 158.585884734 83.1940297588 158.516826397 C 83.350551196 158.447768059 83.5070726332 158.375920424 83.6635940704 158.301150476 C 83.8201155075 158.226380529 83.9766369447 158.148670616 84.1331583819 158.067888873 C 84.2896798191 157.987107129 84.4462012563 157.903234996 84.6027226935 157.816142811 C 84.7592441307 157.729050625 84.9157655678 157.638718933 85.072287005 157.545021418 C 85.2288084422 157.451323902 85.3853298794 157.354240228 85.5418513166 157.25364866 C 85.6983727538 157.153057092 85.854894191 157.048936435 86.0114156281 156.941170845 C 86.1679370653 156.833405255 86.3244585025 156.72197271 86.4809799397 156.60676464 C 86.6375013769 156.49155657 86.7940228141 156.372550165 86.9505442513 156.249645566 C 87.1070656884 156.126740968 87.2635871256 155.999914627 87.4201085628 155.869076882 C 87.57663 155.738239136 87.7331514372 155.603365756 87.8896728744 155.464378781 C 88.0461943116 155.325391805 88.2027157487 155.182266393 88.3592371859 155.034937798 C 88.5157586231 154.887609204 88.6722800603 154.736052049 88.8288014975 154.580216299 C 88.9853229347 154.424380549 89.1418443719 154.264240378 89.298365809 154.099761912 C 89.4548872462 153.935283446 89.6114086834 153.766440507 89.7679301206 153.593216765 C 89.9244515578 153.419993023 90.080972995 153.242362053 90.2374944322 153.060326351 C 90.3940158693 152.878290648 90.5505373065 152.691823656 90.7070587437 152.500947851 C 90.8635801809 152.310072045 91.0201016181 152.114760857 91.1766230553 151.915057744 C 91.3331444925 151.71535463 91.4896659296 151.511233137 91.6461873668 151.302758515 C 91.802708804 151.094283893 91.9592302412 150.881429937 92.1157516784 150.664284293 C 92.2722731156 150.447138649 92.4287945528 150.225675498 92.5853159899 150.000005245 C 92.7418374271 149.774334993 92.8983588643 149.544432348 93.0548803015 149.310430585 C 93.2114017387 149.076428821 93.3679231759 148.838303317 93.5244446131 148.59621005 C 93.6809660503 148.354116784 93.8374874874 148.108031942 93.9940089246 147.858133761 C 94.1505303618 147.60823558 94.307051799 147.354501194 94.4635732362 147.09713036 C 94.6200946734 146.839759527 94.7766161106 146.578730462 94.9331375477 146.314263418 C 95.0896589849 146.049796375 95.2461804221 145.78187078 95.4027018593 145.510726076 C 95.5592232965 145.239581373 95.7157447337 144.965198321 95.8722661709 144.687833981 C 96.028787608 144.41046964 96.1853090452 144.130106217 96.3418304824 143.847016571 C 96.4983519196 143.563926925 96.6548733568 143.278094809 96.811394794 142.989806846 C 96.9679162312 142.701518883 97.1244376683 142.410760462 97.2809591055 142.117829747 C 97.4374805427 141.824899033 97.5940019799 141.529783126 97.7505234171 141.23278936 C 97.9070448543 140.935795594 98.0635662915 140.636912843 98.2200877286 140.336455127 C 98.3766091658 140.03599741 98.533130603 139.733955426 98.6896520402 139.430647325 C 98.8461734774 139.127339224 99.0026949146 138.82275756 99.1592163518 138.517222044 C 99.3157377889 138.211686529 99.4722592261 137.905191588 99.6287806633 137.598055937 C 99.7853021005 137.290920285 99.9418235377 136.983140226 100.098344975 136.675030982 C 100.254866412 136.366921737 100.411387849 136.058481476 100.567909286 135.750019536 C 100.724430724 135.441557595 100.880952161 135.133073982 101.037473598 134.824869892 C 101.193995035 134.516665801 101.350516472 134.208743039 101.50703791 133.901392572 C 101.663559347 133.594042104 101.820080784 133.287267482 101.976602221 132.98134755 C 102.133123658 132.675427617 102.289645095 132.370367607 102.446166533 132.066432562 C 102.60268797 131.762497517 102.759209407 131.459694279 102.915730844 131.158272643 C 103.072252281 130.856851007 103.228773719 130.556819341 103.385295156 130.258410983 C 103.541816593 129.960002625 103.69833803 129.663227382 103.854859467 129.368301172 C 104.011380905 129.073374963 104.167902342 128.780308935 104.324423779 128.489300869 C 104.480945216 128.198292803 104.637466653 127.909355087 104.79398809 127.622666881 C 104.950509528 127.335978674 105.107030965 127.051553502 105.263552402 126.769551645 C 105.420073839 126.487549787 105.576595276 126.207985801 105.733116714 125.931001044 C 105.889638151 125.654016286 106.046159588 125.37962624 106.202681025 125.107953489 C 106.359202462 124.836280738 106.515723899 124.567341586 106.672245337 124.301240175 C 106.828766774 124.035138763 106.985288211 123.771892111 107.141809648 123.511586403 C 107.298331085 123.251280695 107.454852523 122.993933563 107.61137396 122.739613858 C 107.767895397 122.485294152 107.924416834 122.23402002 108.080938271 121.985843714 C 108.237459709 121.737667407 108.393981146 121.492607493 108.550502583 121.250700457 C 108.70702402 121.00879342 108.863545457 120.770058157 109.020066894 120.53451629 C 109.176588332 120.298974424 109.333109769 120.066645091 109.489631206 119.837536015 C 109.646152643 119.608426938 109.80267408 119.382557415 109.959195518 119.159922263 C 110.115716955 118.937287111 110.272238392 118.717905712 110.428759829 118.501760994 C 110.585281266 118.285616276 110.741802704 118.072727637 110.898324141 117.863067138 C 111.054845578 117.653406639 111.211367015 117.446993628 111.367888452 117.243790317 C 111.524409889 117.040587007 111.680931327 116.840612635 111.837452764 116.643820562 C 111.993974201 116.447028488 112.150495638 116.25343779 112.307017075 116.062993944 C 112.463538513 115.872550098 112.62005995 115.685271973 112.776581387 115.501098098 C 112.933102824 115.316924222 113.089624261 115.135873212 113.246145698 114.957877545 C 113.402667136 114.779881878 113.559188573 114.604959879 113.71571001 114.433038822 C 113.872231447 114.261117764 114.028752884 114.092215651 114.185274322 113.926255349 C 114.341795759 113.760295046 114.498317196 113.597294207 114.654838633 113.43717204 C 114.81136007 113.277049873 114.967881508 113.119823654 115.124402945 112.96540963 C 115.280924382 112.810995605 115.437445819 112.659410655 115.593967256 112.510568703 C 115.750488693 112.361726751 115.907010131 112.215644266 116.063531568 112.072233437 C 116.220053005 111.928822608 116.376574442 111.788099477 116.533095879 111.649975039 C 116.689617317 111.511850601 116.846138754 111.376340461 117.002660191 111.243354903 C 117.159181628 111.110369344 117.315703065 110.979923532 117.472224503 110.851927473 C 117.62874594 110.723931414 117.785267377 110.598399828 117.941788814 110.47524284 C 118.098310251 110.352085852 118.254831688 110.231317732 118.411353126 110.112849071 C 118.567874563 109.994380411 118.724396 109.87822503 118.880917437 109.764294294 C 119.037438874 109.650363558 119.193960312 109.538670839 119.350481749 109.429128543 C 119.507003186 109.319586246 119.663524623 109.2122073 119.82004606 109.106905384 C 119.976567497 109.001603468 120.133088935 108.898391071 120.289610372 108.797183343 C 120.446131809 108.695975616 120.602653246 108.596784614 120.759174683 108.499527132 C 120.915696121 108.402269649 121.072217558 108.306957314 121.228738995 108.213508705 C 121.385260432 108.120060095 121.541781869 108.028486422 121.698303307 107.93870816 C 121.854824744 107.848929898 122.011346181 107.760957849 122.167867618 107.674714482 C 122.324389055 107.588471115 122.480910492 107.503966831 122.63743193 107.421126164 C 122.793953367 107.338285497 122.950474804 107.257118458 123.106996241 107.1775517 C 123.263517678 107.097984942 123.420039116 107.020028097 123.576560553 106.943609974 C 123.73308199 106.867191851 123.889603427 106.792321712 124.046124864 106.71893055 C 124.202646302 106.645539387 124.359167739 106.573636102 124.515689176 106.503153878 C 124.672210613 106.432671654 124.82873205 106.363619045 124.985253487 106.295931423 C 125.141774925 106.228243802 125.298296362 106.161929385 125.454817799 106.096925725 C 125.611339236 106.031922064 125.767860673 105.968237051 125.924382111 105.905810397 C 126.080903548 105.843383743 126.237424985 105.782223024 126.393946422 105.722270084 C 126.550467859 105.662317144 126.706989296 105.603579255 126.863510734 105.546000361 C 127.020032171 105.488421466 127.176553608 105.432008546 127.333075045 105.376707604 C 127.489596482 105.321406662 127.64611792 105.267224395 127.802639357 105.214108826 C 127.959160794 105.160993257 128.115682231 105.108950811 128.272203668 105.057931484 C 128.428725106 105.006912156 128.585246543 104.95692211 128.74176798 104.907913263 C 128.898289417 104.858904417 129.054810854 104.810882681 129.211332291 104.763801847 C 129.367853729 104.716721013 129.524375166 104.670586748 129.680896603 104.625354664 C 129.83741804 104.58012258 129.993939477 104.535798111 130.150460915 104.492338633 C 130.306982352 104.448879155 130.463503789 104.406289879 130.620025226 104.364529891 C 130.776546663 104.322769903 130.933068101 104.281844199 131.089589538 104.241713519 C 131.246110975 104.20158284 131.402632412 104.162251975 131.559153849 104.123683265 C 131.715675286 104.085114554 131.872196724 104.047312591 132.028718161 104.010241259 C 132.185239598 103.973169926 132.341761035 103.936833628 132.498282472 103.901197736 C 132.65480391 103.865561845 132.811325347 103.830630581 132.967846784 103.796370755 C 133.124368221 103.762110929 133.280889658 103.728526586 133.437411095 103.695585919 C 133.593932533 103.662645251 133.75045397 103.630352137 133.906975407 103.5986761 C 134.063496844 103.567000062 134.220018281 103.535944819 134.376539719 103.505481172 C 134.533061156 103.475017525 134.689582593 103.445149039 134.84610403 103.415847744 C 135.002625467 103.38654645 135.159146905 103.357815765 135.315668342 103.329628901 C 135.472189779 103.301442036 135.628711216 103.27380227 135.785232653 103.246683946 C 135.94175409 103.219565622 136.098275528 103.192971883 136.254796965 103.166878161 C 136.411318402 103.140784439 136.567839839 103.115193747 136.724361276 103.09008256 C 136.880882714 103.064971373 137.037404151 103.040342581 137.193925588 103.016173659 C 137.350447025 102.992004736 137.506968462 102.968298455 137.663489899 102.945033248 C 137.820011337 102.921768041 137.976532774 102.898946567 138.133054211 102.876548176 C 138.289575648 102.854149785 138.446097085 102.832177027 138.602618523 102.810610133 C 138.75913996 102.78904324 138.915661397 102.767884656 139.072182834 102.747115454 C 139.228704271 102.726346253 139.385225709 102.70596878 139.541747146 102.685964916 C 139.698268583 102.665961051 139.85479002 102.646333045 140.011311457 102.627063548 C 140.167832894 102.607794052 140.324354332 102.588885225 140.480875769 102.570320456 C 140.637397206 102.551755687 140.793918643 102.533537049 140.95044008 102.515648638 C 141.106961518 102.497760226 141.263482955 102.48020403 141.420004392 102.462964821 C 141.576525829 102.445725611 141.733047266 102.428805298 141.889568704 102.412189298 C 142.046090141 102.395573297 142.202611578 102.379263444 142.359133015 102.363245771 C 142.515654452 102.347228099 142.672175889 102.331504369 142.828697327 102.316061206 C 142.985218764 102.300618043 143.141740201 102.285457138 143.298261638 102.270565683 C 143.454783075 102.255674227 143.611304513 102.241053844 143.76782595 102.226692265 C 143.924347387 102.212330686 144.080868824 102.19822947 144.237390261 102.184376865 C 144.393911698 102.170524261 144.550433136 102.156921766 144.706954573 102.143558121 C 144.86347601 102.130194477 145.019997447 102.117071123 145.176518884 102.104177274 C 145.333040322 102.091283425 145.489561759 102.078620462 145.646083196 102.066178053 C 145.802604633 102.053735644 145.95912607 102.041515117 146.115647508 102.029506569 C 146.272168945 102.01749802 146.428690382 102.005702729 146.585211819 101.994111203 C 146.741733256 101.982519677 146.898254693 101.971133146 147.054776131 101.959942513 C 147.211297568 101.948751879 147.367819005 101.937758325 147.524340442 101.926953131 C 147.680861879 101.916147937 147.837383317 101.905532239 147.993904754 101.895097678 C 148.150426191 101.884663117 148.306947628 101.874410784 148.463469065 101.864332668 C 148.619990503 101.854254552 148.77651194 101.844351701 148.933033377 101.834616433 C 149.089554814 101.824881165 149.246076251 101.815314489 149.402597688 101.805909037 C 149.559119126 101.796503585 149.715640563 101.787260328 149.872162 101.7781722"
       style="opacity:1;fill:#ffffff;fill-opacity:1;fill-rule:evenodd;stroke:none;stroke-width:1.35300004;stroke-linejoin:miter;stroke-miterlimit:4;stroke-dasharray:none;stroke-dashoffset:0;stroke-opacity:1" />
    <path
       id="path940"
       title="pow(x,10)/(1+pow(x,10))"
       d=" M 55.088718 160.554621 C 55.4078541616 160.554621 55.7269903232 160.554621 56.0461264848 160.554621 C 56.3652626465 160.554621 56.6843988081 160.554621 57.0035349697 160.554621 C 57.3226711313 160.554621 57.6418072929 160.554621 57.9609434545 160.554621 C 58.2800796162 160.554621 58.5992157778 160.554621 58.9183519394 160.554620999 C 59.237488101 160.554620999 59.5566242626 160.554620998 59.8757604242 160.554620993 C 60.1948965859 160.554620989 60.5140327475 160.554620982 60.8331689091 160.554620959 C 61.1523050707 160.554620937 61.4714412323 160.5546209 61.7905773939 160.55462081 C 62.1097135556 160.55462072 62.4288497172 160.554620579 62.7479858788 160.554620278 C 63.0671220404 160.554619978 63.386258202 160.554619524 63.7053943636 160.554618656 C 64.0245305253 160.554617788 64.3436666869 160.554616517 64.6628028485 160.554614277 C 64.9819390101 160.554612038 65.3010751717 160.554608845 65.6202113333 160.554603564 C 65.9393474949 160.554598282 66.2584836566 160.554590934 66.5776198182 160.554579376 C 66.8967559798 160.554567818 67.2158921414 160.554552079 67.535028303 160.554528325 C 67.8541644646 160.55450457 68.1733006263 160.554472832 68.4924367879 160.554426549 C 68.8115729495 160.554380266 69.1307091111 160.554319467 69.4498452727 160.554233349 C 69.7689814343 160.554147231 70.088117596 160.554035804 70.4072537576 160.553881862 C 70.7263899192 160.55372792 71.0455260808 160.553531432 71.3646622424 160.553265778 C 71.683798404 160.553000125 72.0029345657 160.552665193 72.3220707273 160.552220849 C 72.6412068889 160.551776506 72.9603430505 160.551222493 73.2794792121 160.550499675 C 73.5986153737 160.549776857 73.9177515354 160.548884738 74.236887697 160.547737955 C 74.5560238586 160.546591172 74.8751600202 160.545188859 75.1942961818 160.543410062 C 75.5134323434 160.541631265 75.8325685051 160.539474563 76.1517046667 160.536771451 C 76.4708408283 160.53406834 76.7899769899 160.530816585 77.1091131515 160.526785072 C 77.4282493131 160.522753558 77.7473854747 160.51793889 78.0665216364 160.512028634 C 78.385657798 160.506118378 78.7047939596 160.49910751 79.0239301212 160.490579367 C 79.3430662828 160.482051225 79.6622024444 160.471998546 79.9813386061 160.45987282 C 80.3004747677 160.447747094 80.6196109293 160.433538026 80.9387470909 160.416532538 C 81.2578832525 160.39952705 81.5770194141 160.379710799 81.8961555758 160.356168188 C 82.2152917374 160.332625577 82.534427899 160.305336926 82.8535640606 160.273141265 C 83.1727002222 160.240945604 83.4918363838 160.203816297 83.8109725455 160.160300305 C 84.1301087071 160.116784313 84.4492448687 160.066846047 84.7683810303 160.008692046 C 85.0875171919 159.950538044 85.4066533535 159.884121343 85.7257895152 159.807261894 C 86.0449256768 159.730402445 86.3640618384 159.643039028 86.683198 159.54256711 C 87.0023341616 159.442095192 87.3214703232 159.32843597 87.6406064848 159.198539753 C 87.9597426465 159.068643536 88.2788788081 158.922410248 88.5980149697 158.756353862 C 88.9171511313 158.590297477 89.2362872929 158.404292799 89.5554234545 158.194471389 C 89.8745596162 157.98464998 90.1936957778 157.750857904 90.5128319394 157.488961278 C 90.831968101 157.227064651 91.1511042626 156.936878021 91.4702404242 156.614199831 C 91.7893765859 156.291521642 92.1085127475 155.936133859 92.4276489091 155.544058757 C 92.7467850707 155.151983656 93.0659212323 154.722972362 93.3850573939 154.253657358 C 93.7041935556 153.784342355 94.0233297172 153.274449599 94.3424658788 152.721684185 C 94.6616020404 152.168918771 94.980738202 151.572991889 95.2998743636 150.933173716 C 95.6190105253 150.293355544 95.9381466869 149.609357651 96.2572828485 148.882463061 C 96.5764190101 148.155568471 96.8955551717 147.3855078 97.2146913333 146.575884605 C 97.5338274949 145.76626141 97.8529636566 144.916844941 98.1720998182 144.033631625 C 98.4912359798 143.150418309 98.8103721414 142.233233042 99.129508303 141.290236727 C 99.4486444646 140.347240412 99.7677806263 139.378324658 100.086916788 138.393279117 C 100.406052949 137.408233576 100.725189111 136.407019726 101.044325273 135.400278945 C 101.363461434 134.393538163 101.682597596 133.381297248 102.001733758 132.374158595 C 102.320869919 131.367019942 102.640006081 130.365065593 102.959142242 129.378009027 C 103.278278404 128.390952462 103.597414566 127.418918449 103.916550727 126.470059213 C 104.235686889 125.521199976 104.554823051 124.595670777 104.873959212 123.699651565 C 105.193095374 122.803632353 105.512231535 121.937298483 105.831367697 121.104725223 C 106.150503859 120.272151963 106.46964002 119.473526559 106.788776182 118.710926366 C 107.107912343 117.948326173 107.427048505 117.221943941 107.746184667 116.532132589 C 108.065320828 115.842321236 108.38445699 115.189273904 108.703593152 114.571979367 C 109.022729313 113.954684831 109.341865475 113.373332383 109.661001636 112.825925296 C 109.980137798 112.278518209 110.29927396 111.765238408 110.618410121 111.283452638 C 110.937546283 110.801666869 111.256682444 110.351546888 111.575818606 109.930115546 C 111.894954768 109.508684205 112.214090929 109.116101054 112.533227091 108.749271962 C 112.852363253 108.382442869 113.171499414 108.041513912 113.490635576 107.723437443 C 113.809771737 107.405360974 114.128907899 107.110269034 114.448044061 106.835269136 C 114.767180222 106.560269238 115.086316384 106.305479423 115.405452545 106.068227327 C 115.724588707 105.830975231 116.043724869 105.6113654 116.36286103 105.406977856 C 116.681997192 105.202590312 117.001133354 105.013516932 117.320269515 104.837599357 C 117.639405677 104.661681782 117.958541838 104.499000246 118.277678 104.347651977 C 118.596814162 104.196303708 118.915950323 104.05635842 119.235086485 103.926153566 C 119.554222646 103.795948712 119.873358808 103.675544623 120.19249497 103.56349854 C 120.511631131 103.451452457 120.830767293 103.347816433 121.149903455 103.251344926 C 121.469039616 103.154873419 121.788175778 103.065611241 122.107311939 102.982487289 C 122.426448101 102.899363336 122.745584263 102.822416128 123.064720424 102.750727196 C 123.383856586 102.679038263 123.702992747 102.612640684 124.022128909 102.550748467 C 124.341265071 102.488856251 124.660401232 102.431497787 124.979537394 102.378001362 C 125.298673556 102.324504937 125.617809717 102.274894915 125.936945879 102.228597707 C 126.25608204 102.1823005 126.575218202 102.13933702 126.894354364 102.09921765 C 127.213490525 102.059098279 127.532626687 102.021840976 127.851762848 101.987027801 C 128.17089901 101.952214627 128.490035172 101.919861014 128.809171333 101.889610105 C 129.128307495 101.859359197 129.447443657 101.831224268 129.766579818 101.804900457 C 130.08571598 101.778576647 130.404852141 101.754075383 130.723988303 101.731136041 C 131.043124465 101.708196699 131.362260626 101.686829128 131.681396788 101.666810325 C 132.000532949 101.646791522 132.319669111 101.628129985 132.638805273 101.610634716 C 132.957941434 101.593139447 133.277077596 101.576817786 133.596213758 101.561505967 C 133.915349919 101.546194147 134.234486081 101.53189852 134.553622242 101.5184785 C 134.872758404 101.505058481 135.191894566 101.492519572 135.511030727 101.480740943 C 135.830166889 101.468962313 136.149303051 101.457948737 136.468439212 101.447596227 C 136.787575374 101.437243718 137.106711535 101.427556423 137.425847697 101.418444735 C 137.744983859 101.409333048 138.06412002 101.400800574 138.383256182 101.392769997 C 138.702392343 101.384739421 139.021528505 101.377213882 139.340664667 101.370126575 C 139.659800828 101.363039269 139.97893699 101.356392935 140.298073152 101.350129773 C 140.617209313 101.34386661 140.936345475 101.337989013 141.255481636 101.332446902 C 141.574617798 101.326904791 141.89375396 101.321700259 142.212890121 101.316789859 C 142.532026283 101.311879459 142.851162444 101.307265025 143.170298606 101.30290881 C 143.489434768 101.298552595 143.808570929 101.294456208 144.127707091 101.29058681 C 144.446843253 101.286717413 144.765979414 101.283076419 145.085115576 101.279635221 C 145.404251737 101.276194024 145.723387899 101.272953865 146.042524061 101.269889794 C 146.361660222 101.266825723 146.680796384 101.263938832 146.999932545 101.261207328 C 147.319068707 101.258475824 147.638204869 101.25590067 147.95734103 101.253462805 C 148.276477192 101.251024941 148.595613354 101.248725217 148.914749515 101.246546941 C 149.233885677 101.244368665 149.553021838 101.24231259 149.872158 101.240364079"
       style="fill:none;fill-opacity:0.99187;stroke:#ff0000;stroke-width:0.765;stroke-miterlimit:4;stroke-dasharray:none;stroke-dashoffset:0;stroke-opacity:1" />
  </g>
</svg>
