<?xml version="1.0" encoding="UTF-8" standalone="no"?>
<!-- Created with Inkscape (http://www.inkscape.org/) -->

<svg
   xmlns:dc="http://purl.org/dc/elements/1.1/"
   xmlns:cc="http://creativecommons.org/ns#"
   xmlns:rdf="http://www.w3.org/1999/02/22-rdf-syntax-ns#"
   xmlns:svg="http://www.w3.org/2000/svg"
   xmlns="http://www.w3.org/2000/svg"
   xmlns:sodipodi="http://sodipodi.sourceforge.net/DTD/sodipodi-0.dtd"
   xmlns:inkscape="http://www.inkscape.org/namespaces/inkscape"
   width="297mm"
   height="210mm"
   viewBox="0 0 297 210"
   version="1.1"
   id="svg5"
   sodipodi:docname="Figure_NELmodel.svg"
   inkscape:version="0.92.5 (2060ec1f9f, 2020-04-08)">
  <metadata
     id="metadata45">
    <rdf:RDF>
      <cc:Work
         rdf:about="">
        <dc:format>image/svg+xml</dc:format>
        <dc:type
           rdf:resource="http://purl.org/dc/dcmitype/StillImage" />
        <dc:title />
      </cc:Work>
    </rdf:RDF>
  </metadata>
  <sodipodi:namedview
     id="namedview7"
     pagecolor="#ffffff"
     bordercolor="#666666"
     borderopacity="1.0"
     inkscape:pageshadow="2"
     inkscape:pageopacity="0.0"
     inkscape:pagecheckerboard="0"
     inkscape:document-units="mm"
     showgrid="false"
     inkscape:zoom="1.5554293"
     inkscape:cx="443.60744"
     inkscape:cy="365.85224"
     inkscape:window-width="3399"
     inkscape:window-height="1650"
     inkscape:window-x="154"
     inkscape:window-y="341"
     inkscape:window-maximized="0"
     inkscape:current-layer="layer1" />
  <defs
     id="defs2">
    <marker
       inkscape:stockid="Arrow1Mend"
       orient="auto"
       refY="0"
       refX="0"
       id="marker1040"
       style="overflow:visible"
       inkscape:isstock="true">
      <path
         inkscape:connector-curvature="0"
         id="path1038"
         d="M 0,0 5,-5 -12.5,0 5,5 Z"
         style="fill:#000000;fill-opacity:1;fill-rule:evenodd;stroke:#000000;stroke-width:1.00000003pt;stroke-opacity:1"
         transform="matrix(-0.4,0,0,-0.4,-4,0)" />
    </marker>
    <marker
       inkscape:stockid="Arrow1Mstart"
       orient="auto"
       refY="0"
       refX="0"
       id="marker940"
       style="overflow:visible"
       inkscape:isstock="true">
      <path
         inkscape:connector-curvature="0"
         id="path938"
         d="M 0,0 5,-5 -12.5,0 5,5 Z"
         style="fill:#000000;fill-opacity:1;fill-rule:evenodd;stroke:#000000;stroke-width:1.00000003pt;stroke-opacity:1"
         transform="matrix(0.4,0,0,0.4,4,0)" />
    </marker>
    <marker
       inkscape:stockid="Arrow1Mend"
       orient="auto"
       refY="0.0"
       refX="0.0"
       id="Arrow1Mend"
       style="overflow:visible;"
       inkscape:isstock="true">
      <path
         id="path1191"
         d="M 0.0,0.0 L 5.0,-5.0 L -12.5,0.0 L 5.0,5.0 L 0.0,0.0 z "
         style="fill-rule:evenodd;stroke:#fa0000;stroke-width:1pt;stroke-opacity:1;fill:#fa0000;fill-opacity:1"
         transform="scale(0.4) rotate(180) translate(10,0)" />
    </marker>
    <marker
       inkscape:isstock="true"
       style="overflow:visible"
       id="Arrow1Mstart"
       refX="0"
       refY="0"
       orient="auto"
       inkscape:stockid="Arrow1Mstart"
       inkscape:collect="always">
      <path
         transform="matrix(0.4,0,0,0.4,4,0)"
         style="fill:#000000;fill-opacity:1;fill-rule:evenodd;stroke:#000000;stroke-width:1.00000003pt;stroke-opacity:1"
         d="M 0,0 5,-5 -12.5,0 5,5 Z"
         id="path1045"
         inkscape:connector-curvature="0" />
    </marker>
    <marker
       inkscape:isstock="true"
       style="overflow:visible"
       id="marker1469"
       refX="0"
       refY="0"
       orient="auto"
       inkscape:stockid="Arrow1Mend"
       inkscape:collect="always">
      <path
         transform="matrix(-0.4,0,0,-0.4,-4,0)"
         style="fill:#000000;fill-opacity:1;fill-rule:evenodd;stroke:#000000;stroke-width:1.00000003pt;stroke-opacity:1"
         d="M 0,0 5,-5 -12.5,0 5,5 Z"
         id="path1467"
         inkscape:connector-curvature="0" />
    </marker>
    <marker
       inkscape:isstock="true"
       style="overflow:visible"
       refX="0"
       refY="0"
       orient="auto"
       inkscape:stockid="Arrow1Mstart6200"
       id="Arrow1Mstart6200">
      <path
         transform="matrix(0.4,0,0,0.4,4,0)"
         style="fill:#fb0000;fill-opacity:1.0;fill-rule:evenodd;stroke:#000000;stroke-width:1.00000003pt;stroke-opacity:1"
         d="M 0,0 5,-5 -12.5,0 5,5 Z"
         id="path20860"
         inkscape:connector-curvature="0" />
    </marker>
    <marker
       inkscape:isstock="true"
       style="overflow:visible"
       refX="0"
       refY="0"
       orient="auto"
       inkscape:stockid="Arrow1Mstart62001970"
       id="Arrow1Mstart62001970">
      <path
         transform="matrix(0.4,0,0,0.4,4,0)"
         style="fill:#fa0000;fill-opacity:1;fill-rule:evenodd;stroke:#fa0000;stroke-width:1.00000003pt;stroke-opacity:1"
         d="M 0,0 5,-5 -12.5,0 5,5 Z"
         id="path22128"
         inkscape:connector-curvature="0" />
    </marker>
    <marker
       inkscape:stockid="Arrow1Mstart"
       orient="auto"
       refY="0"
       refX="0"
       id="marker940-0"
       style="overflow:visible"
       inkscape:isstock="true">
      <path
         inkscape:connector-curvature="0"
         id="path938-4"
         d="M 0,0 5,-5 -12.5,0 5,5 Z"
         style="fill:#000000;fill-opacity:1;fill-rule:evenodd;stroke:#000000;stroke-width:1.00000003pt;stroke-opacity:1"
         transform="matrix(0.4,0,0,0.4,4,0)" />
    </marker>
    <marker
       inkscape:stockid="Arrow1Mend"
       orient="auto"
       refY="0"
       refX="0"
       id="marker1040-6"
       style="overflow:visible"
       inkscape:isstock="true">
      <path
         inkscape:connector-curvature="0"
         id="path1038-4"
         d="M 0,0 5,-5 -12.5,0 5,5 Z"
         style="fill:#000000;fill-opacity:1;fill-rule:evenodd;stroke:#000000;stroke-width:1.00000003pt;stroke-opacity:1"
         transform="matrix(-0.4,0,0,-0.4,-4,0)" />
    </marker>
    <marker
       inkscape:stockid="Arrow1Mstart"
       orient="auto"
       refY="0"
       refX="0"
       id="marker940-0-2"
       style="overflow:visible"
       inkscape:isstock="true">
      <path
         inkscape:connector-curvature="0"
         id="path938-4-6"
         d="M 0,0 5,-5 -12.5,0 5,5 Z"
         style="fill:#000000;fill-opacity:1;fill-rule:evenodd;stroke:#000000;stroke-width:1.00000003pt;stroke-opacity:1"
         transform="matrix(0.4,0,0,0.4,4,0)" />
    </marker>
    <marker
       inkscape:stockid="Arrow1Mstart"
       orient="auto"
       refY="0"
       refX="0"
       id="marker940-0-4"
       style="overflow:visible"
       inkscape:isstock="true">
      <path
         inkscape:connector-curvature="0"
         id="path938-4-4"
         d="M 0,0 5,-5 -12.5,0 5,5 Z"
         style="fill:#000000;fill-opacity:1;fill-rule:evenodd;stroke:#000000;stroke-width:1.00000003pt;stroke-opacity:1"
         transform="matrix(0.4,0,0,0.4,4,0)" />
    </marker>
    <marker
       inkscape:stockid="Arrow1Mstart"
       orient="auto"
       refY="0"
       refX="0"
       id="marker940-0-4-8"
       style="overflow:visible"
       inkscape:isstock="true">
      <path
         inkscape:connector-curvature="0"
         id="path938-4-4-9"
         d="M 0,0 5,-5 -12.5,0 5,5 Z"
         style="fill:#000000;fill-opacity:1;fill-rule:evenodd;stroke:#000000;stroke-width:1.00000003pt;stroke-opacity:1"
         transform="matrix(0.4,0,0,0.4,4,0)" />
    </marker>
    <marker
       inkscape:stockid="Arrow1Mstart"
       orient="auto"
       refY="0"
       refX="0"
       id="marker940-0-4-4"
       style="overflow:visible"
       inkscape:isstock="true">
      <path
         inkscape:connector-curvature="0"
         id="path938-4-4-8"
         d="M 0,0 5,-5 -12.5,0 5,5 Z"
         style="fill:#0000ff;fill-opacity:1;fill-rule:evenodd;stroke:#0000ff;stroke-width:1.00000003pt;stroke-opacity:1"
         transform="matrix(0.4,0,0,0.4,4,0)" />
    </marker>
    <marker
       inkscape:stockid="Arrow1Mstart"
       orient="auto"
       refY="0"
       refX="0"
       id="marker940-0-4-4-2"
       style="overflow:visible"
       inkscape:isstock="true">
      <path
         inkscape:connector-curvature="0"
         id="path938-4-4-8-4"
         d="M 0,0 5,-5 -12.5,0 5,5 Z"
         style="fill:#000000;fill-opacity:1;fill-rule:evenodd;stroke:#000000;stroke-width:1.00000003pt;stroke-opacity:1"
         transform="matrix(0.4,0,0,0.4,4,0)" />
    </marker>
    <marker
       inkscape:stockid="Arrow1Mstart"
       orient="auto"
       refY="0"
       refX="0"
       id="marker940-0-4-4-6"
       style="overflow:visible"
       inkscape:isstock="true">
      <path
         inkscape:connector-curvature="0"
         id="path938-4-4-8-6"
         d="M 0,0 5,-5 -12.5,0 5,5 Z"
         style="fill:#0000ff;fill-opacity:1;fill-rule:evenodd;stroke:#0000ff;stroke-width:1.00000003pt;stroke-opacity:1"
         transform="matrix(0.4,0,0,0.4,4,0)" />
    </marker>
    <marker
       inkscape:stockid="Arrow1Mstart"
       orient="auto"
       refY="0"
       refX="0"
       id="marker940-8"
       style="overflow:visible"
       inkscape:isstock="true">
      <path
         inkscape:connector-curvature="0"
         id="path938-1"
         d="M 0,0 5,-5 -12.5,0 5,5 Z"
         style="fill:#000000;fill-opacity:1;fill-rule:evenodd;stroke:#000000;stroke-width:1.00000003pt;stroke-opacity:1"
         transform="matrix(0.4,0,0,0.4,4,0)" />
    </marker>
    <marker
       inkscape:stockid="Arrow1Mend"
       orient="auto"
       refY="0"
       refX="0"
       id="marker1040-5"
       style="overflow:visible"
       inkscape:isstock="true">
      <path
         inkscape:connector-curvature="0"
         id="path1038-8"
         d="M 0,0 5,-5 -12.5,0 5,5 Z"
         style="fill:#000000;fill-opacity:1;fill-rule:evenodd;stroke:#000000;stroke-width:1.00000003pt;stroke-opacity:1"
         transform="matrix(-0.4,0,0,-0.4,-4,0)" />
    </marker>
  </defs>
  <g
     inkscape:label="Layer 1"
     inkscape:groupmode="layer"
     id="layer1">
    <g
       id="g5430"
       transform="translate(-16.5,143.56701)">
      <circle
         style="fill:#000000;fill-opacity:1;stroke:#000003;stroke-width:0.74161702;stroke-miterlimit:4;stroke-dasharray:none;stroke-opacity:1"
         id="path1003"
         cx="32.179298"
         cy="42.111732"
         r="3.045913" />
      <path
         style="fill:none;stroke:#000000;stroke-width:0.74161702;stroke-linecap:butt;stroke-linejoin:miter;stroke-miterlimit:4;stroke-dasharray:none;stroke-opacity:1;marker-start:url(#Arrow1Mstart);marker-end:url(#marker1469)"
         d="m 32.046866,22.644371 v 19.33493 h 18.805198"
         id="path1011"
         inkscape:connector-curvature="0" />
      <text
         xml:space="preserve"
         style="font-style:normal;font-variant:normal;font-weight:normal;font-stretch:normal;font-size:4.74632978px;line-height:0%;font-family:'Palatino Linotype';-inkscape-font-specification:'Palatino Linotype';letter-spacing:0px;word-spacing:0px;fill:#000000;fill-opacity:1;stroke:none;stroke-width:0.37080601"
         x="53.81852"
         y="44.363052"
         id="text1563"><tspan
           sodipodi:role="line"
           id="tspan1561"
           x="53.81852"
           y="44.363052"
           style="font-size:10.87699986px;line-height:1.25;stroke-width:0.37080601;-inkscape-font-specification:'Palatino Linotype Italic';font-family:'Palatino Linotype';font-weight:normal;font-style:italic;font-stretch:normal;font-variant:normal">x</tspan></text>
      <text
         xml:space="preserve"
         style="font-style:normal;font-variant:normal;font-weight:normal;font-stretch:normal;font-size:4.74632978px;line-height:0%;font-family:'Palatino Linotype';-inkscape-font-specification:'Palatino Linotype';letter-spacing:0px;word-spacing:0px;fill:#000000;fill-opacity:1;stroke:none;stroke-width:0.37080601"
         x="26.785912"
         y="19.373621"
         id="text1567"><tspan
           sodipodi:role="line"
           id="tspan1565"
           x="26.785912"
           y="19.373621"
           style="font-size:10.87699986px;line-height:1.25;stroke-width:0.37080601;-inkscape-font-specification:'Palatino Linotype Italic';font-family:'Palatino Linotype';font-weight:normal;font-style:italic;font-stretch:normal;font-variant:normal">y</tspan></text>
    </g>
    <path
       style="fill:none;stroke:#000000;stroke-width:0.57919824;stroke-linecap:butt;stroke-linejoin:miter;stroke-miterlimit:4;stroke-dasharray:none;stroke-dashoffset:0;stroke-opacity:1"
       d="M 3.7424613,109.7104 H 284.75276"
       id="path913-1"
       inkscape:connector-curvature="0"
       sodipodi:nodetypes="cc" />
    <path
       style="fill:none;stroke:#000000;stroke-width:1;stroke-linecap:butt;stroke-linejoin:miter;stroke-miterlimit:4;stroke-dasharray:none;stroke-opacity:1;marker-start:url(#marker940);marker-end:url(#marker1040)"
       d="M 73.275515,177.57561 H 216.72448"
       id="path930"
       inkscape:connector-curvature="0" />
    <text
       xml:space="preserve"
       style="font-size:9.8777771px;line-height:1.25;font-family:'Palatino Linotype';-inkscape-font-specification:'Palatino Linotype Italic';letter-spacing:0px;word-spacing:0px;stroke-width:0.26458332;font-weight:normal;font-style:italic;font-stretch:normal;font-variant:normal;"
       x="132.68042"
       y="191.28865"
       id="text1626"><tspan
         sodipodi:role="line"
         id="tspan1624"
         x="132.68042"
         y="199.6386"
         style="font-style:italic;font-variant:normal;font-weight:normal;font-stretch:normal;font-family:'Palatino Linotype';-inkscape-font-specification:'Palatino Linotype Italic';stroke-width:0.26458332;" /></text>
    <circle
       style="fill:none;stroke:#000000;stroke-width:1.10872185;stroke-miterlimit:4;stroke-dasharray:none;stroke-dashoffset:0;stroke-opacity:1"
       id="path1024"
       cx="70"
       cy="110"
       r="49.445641" />
    <circle
       style="fill:none;stroke:#000000;stroke-width:1.10872185;stroke-miterlimit:4;stroke-dasharray:none;stroke-dashoffset:0;stroke-opacity:1"
       id="path1024-4"
       cx="220"
       cy="109.25741"
       r="49.445641" />
    <text
       xml:space="preserve"
       style="font-size:9.8777771px;line-height:1.25;font-family:'Palatino Linotype';-inkscape-font-specification:'Palatino Linotype';letter-spacing:0px;word-spacing:0px;stroke-width:0.26458332"
       x="150.37114"
       y="197.41237"
       id="text1505"><tspan
         sodipodi:role="line"
         id="tspan1503"
         x="150.37114"
         y="205.76231"
         style="stroke-width:0.26458332" /></text>
    <text
       xml:space="preserve"
       style="font-size:9.8777771px;line-height:1.25;font-family:'Palatino Linotype';-inkscape-font-specification:'Palatino Linotype';letter-spacing:0px;word-spacing:0px;stroke-width:0.26458332"
       x="133.36082"
       y="188.567"
       id="text1509"><tspan
         sodipodi:role="line"
         id="tspan1507"
         x="133.36082"
         y="188.567"
         style="stroke-width:0.26458332;-inkscape-font-specification:'Palatino Linotype Italic';font-family:'Palatino Linotype';font-weight:normal;font-style:italic;font-stretch:normal;font-variant:normal">l</tspan></text>
    <path
       style="fill:none;stroke:#000000;stroke-width:1;stroke-linecap:butt;stroke-linejoin:miter;stroke-miterlimit:4;stroke-dasharray:none;stroke-opacity:1;marker-start:url(#marker940-0)"
       d="M 36.561913,143.21662 70.26284,109.63918"
       id="path930-7"
       inkscape:connector-curvature="0"
       inkscape:transform-center-x="-11.618758"
       inkscape:transform-center-y="4.1518193"
       sodipodi:nodetypes="cc" />
    <path
       style="fill:none;stroke:#000000;stroke-width:1;stroke-linecap:butt;stroke-linejoin:miter;stroke-miterlimit:4;stroke-dasharray:none;stroke-opacity:1;marker-start:url(#marker940-0-2)"
       d="m 187.79481,142.91985 33.70093,-33.57744"
       id="path930-7-7"
       inkscape:connector-curvature="0"
       inkscape:transform-center-x="-11.618758"
       inkscape:transform-center-y="4.1518193"
       sodipodi:nodetypes="cc" />
    <text
       xml:space="preserve"
       style="font-style:normal;font-variant:normal;font-weight:normal;font-stretch:normal;font-size:9.8777771px;line-height:1.25;font-family:'Palatino Linotype';-inkscape-font-specification:'Palatino Linotype';letter-spacing:0px;word-spacing:0px;stroke-width:0.26458332"
       x="56.474228"
       y="133.1134"
       id="text3469"><tspan
         sodipodi:role="line"
         id="tspan3467"
         x="56.474228"
         y="133.1134"
         style="stroke-width:0.26458332;-inkscape-font-specification:'Palatino Linotype Italic';font-family:'Palatino Linotype';font-weight:normal;font-style:italic;font-stretch:normal;font-variant:normal">R<tspan
   style="font-size:64.99999762%;baseline-shift:sub;-inkscape-font-specification:'Palatino Linotype Italic';font-family:'Palatino Linotype';font-weight:normal;font-style:italic;font-stretch:normal;font-variant:normal"
   id="tspan3471">0</tspan></tspan></text>
    <text
       xml:space="preserve"
       style="font-style:normal;font-variant:normal;font-weight:normal;font-stretch:normal;font-size:9.8777771px;line-height:1.25;font-family:'Palatino Linotype';-inkscape-font-specification:'Palatino Linotype';letter-spacing:0px;word-spacing:0px;stroke-width:0.26458332"
       x="206.37859"
       y="136.15329"
       id="text3469-0"><tspan
         sodipodi:role="line"
         id="tspan3467-5"
         x="206.37859"
         y="136.15329"
         style="stroke-width:0.26458332;-inkscape-font-specification:'Palatino Linotype Italic';font-family:'Palatino Linotype';font-weight:normal;font-style:italic;font-stretch:normal;font-variant:normal">R<tspan
   style="font-size:6.42055511px;baseline-shift:sub;stroke-width:0.26458332;-inkscape-font-specification:'Palatino Linotype Italic';font-family:'Palatino Linotype';font-weight:normal;font-style:italic;font-stretch:normal;font-variant:normal"
   id="tspan3471-7">0</tspan></tspan></text>
    <circle
       style="fill:#f90000;fill-opacity:1;stroke:#000000;stroke-width:1;stroke-miterlimit:4;stroke-dasharray:none;stroke-dashoffset:0;stroke-opacity:1"
       id="path3494"
       cx="89.304131"
       cy="48.912373"
       r="4.5927835" />
    <path
       style="fill:none;stroke:#000000;stroke-width:0.545;stroke-linecap:butt;stroke-linejoin:miter;stroke-miterlimit:4;stroke-dasharray:none;stroke-opacity:1;marker-start:url(#marker940-0-4)"
       d="M 88.567048,51.337499 70.33391,109.62114"
       id="path930-7-4"
       inkscape:connector-curvature="0"
       inkscape:transform-center-x="13.231957"
       inkscape:transform-center-y="-4.7834344"
       sodipodi:nodetypes="cc" />
    <text
       xml:space="preserve"
       style="font-style:normal;font-variant:normal;font-weight:normal;font-stretch:normal;font-size:9.8777771px;line-height:1.25;font-family:'Palatino Linotype';-inkscape-font-specification:'Palatino Linotype';letter-spacing:0px;word-spacing:0px;stroke-width:0.26458332"
       x="65.193024"
       y="83.081116"
       id="text3469-6"><tspan
         sodipodi:role="line"
         id="tspan3467-6"
         x="65.193024"
         y="83.081116"
         style="stroke-width:0.26458332;-inkscape-font-specification:'Palatino Linotype Italic';font-family:'Palatino Linotype';font-weight:normal;font-style:italic;font-stretch:normal;font-variant:normal">R<tspan
   style="font-size:64.99999762%;baseline-shift:sub;-inkscape-font-specification:'Palatino Linotype Italic';font-family:'Palatino Linotype';font-weight:normal;font-style:italic;font-stretch:normal;font-variant:normal"
   id="tspan4240">1</tspan></tspan></text>
    <circle
       style="fill:#f90000;fill-opacity:1;stroke:#000000;stroke-width:1;stroke-miterlimit:4;stroke-dasharray:none;stroke-dashoffset:0;stroke-opacity:1"
       id="path3494-8"
       cx="192.89691"
       cy="79.360825"
       r="4.5927835" />
    <path
       style="fill:none;stroke:#000000;stroke-width:0.545;stroke-linecap:butt;stroke-linejoin:miter;stroke-miterlimit:4;stroke-dasharray:none;stroke-opacity:1;marker-start:url(#marker940-0-4-8)"
       d="m 194.43555,81.009451 27.06509,28.344229"
       id="path930-7-4-8"
       inkscape:connector-curvature="0"
       inkscape:transform-center-x="11.280606"
       inkscape:transform-center-y="-4.0840548"
       sodipodi:nodetypes="cc" />
    <text
       xml:space="preserve"
       style="font-style:normal;font-variant:normal;font-weight:normal;font-stretch:normal;font-size:9.8777771px;line-height:1.25;font-family:'Palatino Linotype';-inkscape-font-specification:'Palatino Linotype';letter-spacing:0px;word-spacing:0px;stroke-width:0.26458332"
       x="193.60437"
       y="101.16222"
       id="text3469-6-0"><tspan
         sodipodi:role="line"
         id="tspan3467-6-1"
         x="193.60437"
         y="101.16222"
         style="stroke-width:0.26458332;-inkscape-font-specification:'Palatino Linotype Italic';font-family:'Palatino Linotype';font-weight:normal;font-style:italic;font-stretch:normal;font-variant:normal">R<tspan
   style="font-size:65%;baseline-shift:sub;-inkscape-font-specification:'Palatino Linotype Italic';font-family:'Palatino Linotype';font-weight:normal;font-style:italic;font-stretch:normal;font-variant:normal"
   id="tspan5015">2</tspan></tspan></text>
    <path
       style="fill:none;fill-opacity:1;stroke:#000000;stroke-width:0.5;stroke-miterlimit:4;stroke-dasharray:none;stroke-dashoffset:0;stroke-opacity:1"
       id="path5021"
       sodipodi:type="arc"
       sodipodi:cx="71.777977"
       sodipodi:cy="107.45599"
       sodipodi:rx="17.122692"
       sodipodi:ry="17.10766"
       sodipodi:start="4.9720425"
       sodipodi:end="0.1337937"
       d="M 76.174155,90.921799 A 17.122692,17.10766 0 0 1 88.747643,109.73807"
       sodipodi:open="true" />
    <path
       style="fill:none;fill-opacity:1;stroke:#000000;stroke-width:0.5;stroke-miterlimit:4;stroke-dasharray:none;stroke-dashoffset:0;stroke-opacity:1"
       id="path5021-1"
       sodipodi:type="arc"
       sodipodi:cx="217.25523"
       sodipodi:cy="107.17348"
       sodipodi:rx="17.122694"
       sodipodi:ry="17.10766"
       sodipodi:start="4.0315789"
       sodipodi:end="0.1337937"
       d="m 206.47782,93.879746 a 17.122694,17.10766 0 0 1 19.16455,-1.621074 17.122694,17.10766 0 0 1 8.58253,17.196878"
       sodipodi:open="true" />
    <text
       xml:space="preserve"
       style="font-style:normal;font-variant:normal;font-weight:normal;font-stretch:normal;font-size:9.8777771px;line-height:1.25;font-family:Symbol;-inkscape-font-specification:Symbol;letter-spacing:0px;word-spacing:0px;stroke-width:0.26458332"
       x="92.025772"
       y="89.737106"
       id="text5042"><tspan
         sodipodi:role="line"
         id="tspan5040"
         x="92.025772"
         y="98.504829"
         style="stroke-width:0.26458332" /></text>
    <text
       xml:space="preserve"
       style="font-style:normal;font-variant:normal;font-weight:normal;font-stretch:normal;font-size:9.8777771px;line-height:1.25;font-family:Symbol;-inkscape-font-specification:Symbol;letter-spacing:0px;word-spacing:0px;stroke-width:0.26458332"
       x="88.963913"
       y="94.329903"
       id="text5046"><tspan
         sodipodi:role="line"
         id="tspan5044"
         x="88.963913"
         y="94.329903"
         style="stroke-width:0.26458332">φ<tspan
   style="font-size:65%;baseline-shift:sub"
   id="tspan5048">1</tspan></tspan></text>
    <text
       xml:space="preserve"
       style="font-style:normal;font-variant:normal;font-weight:normal;font-stretch:normal;font-size:9.8777771px;line-height:1.25;font-family:Symbol;-inkscape-font-specification:Symbol;letter-spacing:0px;word-spacing:0px;stroke-width:0.26458332"
       x="226.25621"
       y="89.899101"
       id="text5046-7"><tspan
         sodipodi:role="line"
         id="tspan5044-8"
         x="226.25621"
         y="89.899101"
         style="stroke-width:0.26458332">φ<tspan
   style="font-size:65%;baseline-shift:sub"
   id="tspan5071">2</tspan></tspan></text>
    <path
       style="fill:none;stroke:#0000ff;stroke-width:1.21157503;stroke-linecap:butt;stroke-linejoin:miter;stroke-miterlimit:4;stroke-dasharray:none;stroke-opacity:1;marker-start:url(#marker940-0-4-4)"
       d="m 69.60466,45.464051 14.690621,2.461058"
       id="path930-7-4-6"
       inkscape:connector-curvature="0"
       inkscape:transform-center-x="12.635238"
       inkscape:transform-center-y="-5.604223"
       sodipodi:nodetypes="cc" />
    <path
       style="fill:none;stroke:#0000ff;stroke-width:1.21157503;stroke-linecap:butt;stroke-linejoin:miter;stroke-miterlimit:4;stroke-dasharray:none;stroke-opacity:1;marker-start:url(#marker940-0-4-4-6)"
       d="m 182.93669,95.326843 7.71639,-11.827602"
       id="path930-7-4-6-5"
       inkscape:connector-curvature="0"
       inkscape:transform-center-x="12.635238"
       inkscape:transform-center-y="-5.604223"
       sodipodi:nodetypes="cc" />
    <text
       xml:space="preserve"
       style="font-size:9.8777771px;line-height:1.25;font-family:'Palatino Linotype';-inkscape-font-specification:'Palatino Linotype';letter-spacing:0px;word-spacing:0px;stroke-width:0.26458332"
       x="93.171371"
       y="35.717339"
       id="text1509-3"><tspan
         sodipodi:role="line"
         id="tspan1507-8"
         x="93.171371"
         y="35.717339"
         style="font-style:italic;font-variant:normal;font-weight:normal;font-stretch:normal;font-size:7.76111126px;font-family:'Palatino Linotype';-inkscape-font-specification:'Palatino Linotype Italic';stroke-width:0.26458332">2a</tspan></text>
    <path
       style="fill:none;stroke:#000000;stroke-width:0.47799999;stroke-linecap:butt;stroke-linejoin:miter;stroke-miterlimit:4;stroke-dasharray:none;stroke-opacity:1;marker-start:url(#marker940-8);marker-end:url(#marker1040-5)"
       d="m 88.640577,37.898786 8.641526,4.166345"
       id="path930-2"
       inkscape:connector-curvature="0"
       sodipodi:nodetypes="cc" />
    <text
       xml:space="preserve"
       style="font-style:normal;font-variant:normal;font-weight:normal;font-stretch:normal;font-size:9.8777771px;line-height:1.25;font-family:'Palatino Linotype';-inkscape-font-specification:'Palatino Linotype';letter-spacing:0px;word-spacing:0px;stroke-width:0.26458332"
       x="61.252193"
       y="47.879913"
       id="text3469-2"><tspan
         sodipodi:role="line"
         id="tspan3467-8"
         x="61.252193"
         y="47.879913"
         style="font-style:italic;font-variant:normal;font-weight:normal;font-stretch:normal;font-family:'Palatino Linotype';-inkscape-font-specification:'Palatino Linotype Italic';fill:#0000ff;stroke-width:0.26458332">F</tspan></text>
    <text
       xml:space="preserve"
       style="font-style:normal;font-variant:normal;font-weight:normal;font-stretch:normal;font-size:9.8777771px;line-height:1.25;font-family:'Palatino Linotype';-inkscape-font-specification:'Palatino Linotype';letter-spacing:0px;word-spacing:0px;stroke-width:0.26458332"
       x="177.03049"
       y="105.20268"
       id="text3469-2-6"><tspan
         sodipodi:role="line"
         id="tspan3467-8-4"
         x="177.03049"
         y="105.20268"
         style="font-style:italic;font-variant:normal;font-weight:normal;font-stretch:normal;font-family:'Palatino Linotype';-inkscape-font-specification:'Palatino Linotype Italic';fill:#0000ff;stroke-width:0.26458332">F</tspan></text>
    <path
       id="path10776"
       title="sin(x)"
       d="m 85.59081,62.523432 c -0.05822,-0.04127 -0.116437,-0.08254 -0.174437,-0.123699 -0.05789,-0.04118 -0.115655,-0.08222 -0.172736,-0.12309 -0.05711,-0.04086 -0.113668,-0.08152 -0.169336,-0.121883 -0.05568,-0.04036 -0.110575,-0.08041 -0.164278,-0.120083 -0.05379,-0.03966 -0.106379,-0.07892 -0.157608,-0.117707 -0.05126,-0.03878 -0.101086,-0.07707 -0.149371,-0.114781 -0.04828,-0.03771 -0.0949,-0.07484 -0.139674,-0.111322 -0.04485,-0.03647 -0.08772,-0.07229 -0.128566,-0.107373 -0.04087,-0.03507 -0.07966,-0.06942 -0.116126,-0.102968 -0.03647,-0.03354 -0.07072,-0.06628 -0.102543,-0.09813 -0.03182,-0.03185 -0.06121,-0.06284 -0.08796,-0.09291 -0.02675,-0.03007 -0.05095,-0.0592 -0.07239,-0.08737 -0.02144,-0.02817 -0.04013,-0.05537 -0.05604,-0.08154 -0.01592,-0.02617 -0.02886,-0.05136 -0.03904,-0.07548 -0.01017,-0.02413 -0.01707,-0.04727 -0.02168,-0.06922 -0.0042,-0.02203 -0.005,-0.04311 -0.004,-0.06284 0.0019,-0.01994 0.0066,-0.03873 0.0143,-0.05649 0.0077,-0.01776 0.01862,-0.03446 0.0324,-0.05009 0.01378,-0.01563 0.03055,-0.0302 0.05029,-0.04373 0.01974,-0.01354 0.04236,-0.02602 0.06785,-0.03748 0.02549,-0.01148 0.05375,-0.0219 0.08496,-0.03139 0.03113,-0.0094 0.065,-0.01794 0.10142,-0.02548 0.03652,-0.0076 0.07559,-0.01423 0.117122,-0.01998 0.04151,-0.0057 0.08565,-0.01062 0.131944,-0.01465 0.04637,-0.004 0.09493,-0.0073 0.145712,-0.0098 0.05077,-0.0025 0.103583,-0.0042 0.158314,-0.0053 0.05475,-0.0011 0.111357,-0.0014 0.169642,-0.0012 0.05828,2.02e-4 0.118228,10e-4 0.179592,0.0023 0.06137,0.0013 0.124135,0.0031 0.188063,0.0053 0.06392,0.0022 0.129026,0.0048 0.195009,0.0078 0.06601,0.0029 0.132857,0.0062 0.200341,0.0097 0.06745,0.0035 0.135575,0.0072 0.204007,0.01099 0.06844,0.0038 0.137189,0.0078 0.205997,0.01171 0.06878,0.004 0.137673,0.0079 0.206293,0.0118 0.06856,0.0039 0.136999,0.0077 0.204857,0.01129 0.06789,0.0036 0.135209,0.007 0.201744,0.01019 0.06656,0.0031 0.132295,0.006 0.196963,0.0085 0.06469,0.0025 0.128285,0.0046 0.190557,0.0062 0.06226,0.0016 0.123228,0.0028 0.182585,0.0034 0.05939,5.84e-4 0.117143,6.11e-4 0.173121,0 0.05597,-6.19e-4 0.11011,-0.0019 0.162233,-0.0039 0.05211,-0.0019 0.102194,-0.0047 0.150042,-0.0082 0.0479,-0.0035 0.09349,-0.0078 0.136659,-0.01298 0.04316,-0.0052 0.08399,-0.01119 0.122191,-0.01808 0.0382,-0.0069 0.07383,-0.0148 0.106742,-0.02363 0.03288,-0.0088 0.06313,-0.01856 0.09049,-0.0294 0.02736,-0.01085 0.05197,-0.0226 0.07359,-0.03542 0.02163,-0.01281 0.04038,-0.0267 0.05615,-0.04162 0.01577,-0.01493 0.02856,-0.03091 0.03837,-0.04796 0.0098,-0.01705 0.01663,-0.03518 0.02037,-0.05435 0.0041,-0.01927 0.0046,-0.03948 0.0024,-0.06079 -0.0014,-0.02149 -0.0071,-0.04378 -0.01514,-0.06724 -0.008,-0.02347 -0.01926,-0.04793 -0.03319,-0.07344 -0.01355,-0.02559 -0.03084,-0.05202 -0.05042,-0.07955 -0.01957,-0.02752 -0.042,-0.05601 -0.06698,-0.08546 -0.02498,-0.02945 -0.05271,-0.05982 -0.08288,-0.09109 -0.03017,-0.03127 -0.06287,-0.06343 -0.09779,-0.09643 -0.03493,-0.03301 -0.07227,-0.06682 -0.111711,-0.101404 -0.03945,-0.03458 -0.08109,-0.06992 -0.124578,-0.105949 -0.04353,-0.03603 -0.08894,-0.07275 -0.136119,-0.110061 -0.04717,-0.03731 -0.096,-0.07524 -0.146301,-0.113684 -0.05027,-0.03844 -0.102075,-0.0774 -0.155025,-0.116794 -0.05292,-0.03939 -0.107152,-0.0792 -0.162234,-0.119353 -0.05512,-0.04014 -0.111132,-0.08063 -0.167834,-0.121347 -0.05667,-0.04072 -0.114008,-0.08168 -0.171787,-0.122755 -0.05767,-0.0411 -0.115876,-0.0823 -0.174062,-0.123563 -0.05821,-0.04125 -0.116538,-0.08254 -0.174625,-0.123766 -0.05811,-0.04122 -0.115995,-0.08238 -0.173488,-0.123363 -0.05744,-0.04098 -0.114442,-0.0818 -0.17066,-0.12235 -0.05623,-0.04056 -0.111684,-0.08083 -0.166144,-0.120747 -0.05446,-0.03992 -0.107824,-0.07948 -0.160005,-0.118562 -0.05214,-0.03909 -0.102961,-0.07773 -0.152286,-0.115816 -0.04937,-0.03807 -0.0971,-0.07562 -0.143065,-0.112533 -0.04596,-0.03692 -0.09025,-0.07317 -0.132419,-0.108741 -0.04221,-0.03557 -0.08242,-0.07041 -0.120428,-0.104481 -0.03801,-0.03407 -0.07381,-0.06735 -0.107281,-0.09977 -0.03347,-0.03242 -0.06442,-0.06402 -0.09293,-0.09469 -0.02851,-0.03068 -0.05438,-0.06045 -0.07769,-0.08924 -0.02321,-0.02882 -0.04377,-0.05667 -0.06157,-0.0835 -0.01779,-0.02685 -0.03272,-0.0527 -0.04468,-0.07755 -0.01235,-0.02476 -0.02114,-0.04862 -0.02734,-0.07136 -0.0058,-0.02282 -0.0094,-0.04442 -0.0096,-0.06505 -2.38e-4,-0.02061 0.0026,-0.04017 0.0083,-0.05864 0.0053,-0.01838 0.01464,-0.03587 0.02643,-0.05223 0.0118,-0.01634 0.02657,-0.03161 0.04433,-0.04583 0.01776,-0.01423 0.03849,-0.0274 0.062,-0.03954 0.02362,-0.01211 0.05009,-0.02327 0.07933,-0.0334 0.02925,-0.01012 0.06126,-0.01919 0.09602,-0.02741 0.03466,-0.0082 0.07207,-0.01542 0.111987,-0.02177 0.03985,-0.0063 0.08234,-0.01176 0.127118,-0.01637 0.04481,-0.0046 0.09194,-0.0084 0.141242,-0.01134 0.04934,-0.003 0.100781,-0.0052 0.154249,-0.0067 0.05343,-0.0015 0.108873,-0.0023 0.16602,-0.0025 0.05718,-2.08e-4 0.116039,2.2e-4 0.176423,0.0012 0.06038,9.57e-4 0.12228,0.0024 0.185413,0.0044 0.06314,0.0019 0.127512,0.0043 0.192877,0.007 0.06535,0.0027 0.131688,0.0058 0.19873,0.0091 0.06701,0.0033 0.134801,0.0069 0.20298,0.01062 0.06822,0.0037 0.136779,0.0076 0.205521,0.01153 0.06877,0.0039 0.137639,0.0079 0.206383,0.01184 0.06877,0.0039 0.137351,0.0078 0.20553,0.01153 0.06822,0.0037 0.135927,0.0073 0.202971,0.01063 0.06701,0.0033 0.133376,0.0064 0.198739,0.0091 0.06535,0.0027 0.129734,0.0051 0.192867,0.007 0.06314,0.0019 0.125019,0.0034 0.185413,0.0044 0.06038,9.57e-4 0.119277,0.0014 0.176434,0.0012 0.05718,-2.08e-4 0.112562,-0.001 0.166009,-0.0025 0.05343,-0.0015 0.104941,-0.0037 0.154259,-0.0067 0.04934,-0.003 0.09647,-0.0067 0.141242,-0.01134 0.04481,-0.0046 0.0872,-0.01002 0.127106,-0.01638 0.03995,-0.0063 0.07726,-0.01356 0.111997,-0.02177 0.03476,-0.0082 0.06675,-0.01738 0.09602,-0.02741 0.02924,-0.01012 0.05571,-0.0213 0.07933,-0.0334 0.02362,-0.01211 0.04434,-0.02534 0.062,-0.03954 0.01776,-0.01423 0.03253,-0.0295 0.04433,-0.04583 0.0118,-0.01633 0.02061,-0.03375 0.02644,-0.05223 0.0053,-0.01838 0.0086,-0.03802 0.0083,-0.05864 -2.39e-4,-0.02061 -0.0038,-0.04224 -0.0096,-0.06505 -0.0058,-0.02281 -0.01587,-0.04642 -0.02734,-0.07136 -0.01235,-0.02476 -0.02698,-0.05068 -0.04468,-0.07755 -0.01779,-0.02685 -0.03835,-0.0547 -0.06157,-0.08351 -0.02321,-0.02882 -0.04918,-0.05858 -0.07769,-0.08924 -0.02841,-0.03069 -0.05956,-0.06225 -0.09293,-0.09469 -0.03347,-0.03242 -0.06927,-0.0657 -0.107281,-0.09977 -0.03801,-0.03407 -0.07822,-0.06892 -0.120428,-0.104481 -0.0422,-0.03556 -0.0864,-0.07184 -0.132419,-0.108742 -0.04596,-0.03692 -0.09379,-0.07444 -0.143065,-0.112532 -0.04927,-0.03809 -0.100096,-0.07674 -0.152286,-0.115816 -0.05214,-0.03909 -0.105604,-0.07864 -0.160005,-0.118562 -0.05446,-0.03992 -0.109917,-0.0802 -0.166144,-0.120747 -0.05623,-0.04055 -0.113226,-0.08136 -0.17065,-0.122353 -0.05744,-0.04098 -0.115333,-0.08215 -0.173498,-0.123359 -0.05811,-0.04122 -0.11643,-0.08251 -0.174625,-0.123767 -0.05821,-0.04125 -0.116322,-0.08248 -0.174062,-0.123563 -0.05767,-0.0411 -0.115104,-0.08204 -0.171777,-0.122757 -0.05667,-0.04072 -0.112781,-0.08119 -0.167834,-0.121347 -0.05512,-0.04014 -0.109254,-0.07997 -0.162234,-0.119354 -0.05302,-0.03937 -0.104726,-0.07835 -0.155035,-0.116791 -0.05027,-0.03844 -0.0991,-0.07637 -0.146301,-0.113684 -0.04717,-0.03732 -0.09258,-0.07403 -0.136118,-0.11006 -0.04353,-0.03603 -0.08508,-0.07138 -0.124579,-0.105949 -0.03945,-0.03459 -0.07679,-0.0684 -0.111808,-0.101384 -0.03493,-0.03301 -0.06763,-0.06516 -0.09779,-0.09643 -0.03017,-0.03128 -0.0578,-0.06166 -0.08288,-0.09109 -0.02508,-0.02944 -0.04741,-0.05794 -0.06698,-0.08545 -0.01957,-0.02752 -0.03648,-0.05403 -0.05042,-0.07955 -0.01355,-0.02559 -0.0251,-0.04998 -0.03319,-0.07344 -0.008,-0.02347 -0.01369,-0.04575 -0.01514,-0.06725 -0.0014,-0.02149 -0.0016,-0.04156 0.0024,-0.06079 0.0041,-0.01927 0.01056,-0.0373 0.02037,-0.05435 0.0098,-0.01705 0.0226,-0.03304 0.03837,-0.04796 0.01577,-0.01493 0.03452,-0.02879 0.05615,-0.04162 0.02163,-0.01282 0.04622,-0.02464 0.07359,-0.03542 0.02736,-0.01085 0.0576,-0.02057 0.09049,-0.0294 0.03298,-0.0089 0.06855,-0.01663 0.106752,-0.02363 0.0382,-0.0069 0.07901,-0.01301 0.122181,-0.01808 0.04316,-0.0052 0.08885,-0.0095 0.136659,-0.01298 0.0479,-0.0035 0.09791,-0.0062 0.150052,-0.0082 0.05211,-0.0019 0.106267,-0.0033 0.162235,-0.0039 0.05597,-6.19e-4 0.113755,-5.88e-4 0.173112,3e-6 0.05939,5.84e-4 0.120313,0.0017 0.182585,0.0034 0.06226,0.0016 0.125888,0.0037 0.190557,0.0062 0.06469,0.0025 0.130428,0.0053 0.196962,0.0085 0.06656,0.0031 0.133886,0.0066 0.201744,0.01019 0.06789,0.0036 0.136248,0.0074 0.204868,0.01129 0.06866,0.0039 0.137473,0.0079 0.206282,0.0118 0.06878,0.004 0.137574,0.0079 0.206007,0.0117 0.06844,0.0038 0.136523,0.0075 0.204009,0.011 0.06745,0.0035 0.134349,0.0067 0.200342,0.0097 0.06601,0.0029 0.13107,0.0056 0.194996,0.0078 0.06392,0.0022 0.126708,0.004 0.188074,0.0053 0.06137,0.0013 0.121295,0.0021 0.179582,0.0023 0.05828,2.03e-4 0.114914,-1.77e-4 0.169642,-0.0012 0.05475,-0.0011 0.107579,-0.0028 0.158323,-0.0053 0.05077,-0.0025 0.09935,-0.0057 0.145703,-0.0098 0.04636,-0.004 0.09039,-0.009 0.131943,-0.01465 0.0416,-0.0058 0.08069,-0.01234 0.117123,-0.01998 0.03652,-0.0076 0.0703,-0.01608 0.101429,-0.02548 0.03113,-0.0094 0.05947,-0.01994 0.08496,-0.03139 0.02549,-0.01148 0.04811,-0.02395 0.06785,-0.03749 0.01974,-0.01354 0.03651,-0.02811 0.05029,-0.04373 0.01378,-0.01562 0.02459,-0.03232 0.0323,-0.05007 0.0078,-0.01775 0.01265,-0.03662 0.0143,-0.05649 0.0019,-0.01994 6.13e-4,-0.0409 -0.004,-0.06285 -0.0042,-0.02204 -0.01151,-0.0451 -0.02168,-0.06922 -0.01017,-0.02413 -0.02312,-0.04931 -0.03904,-0.07548 -0.01591,-0.02617 -0.0346,-0.05337 -0.05604,-0.08154 -0.02144,-0.02817 -0.04554,-0.05732 -0.07239,-0.08737 -0.02675,-0.03007 -0.05614,-0.06105 -0.08796,-0.09291 -0.03182,-0.03185 -0.06607,-0.06458 -0.102543,-0.09813 -0.03647,-0.03354 -0.07525,-0.06789 -0.116126,-0.102968 -0.04088,-0.03508 -0.08375,-0.07091 -0.128556,-0.107374 -0.04475,-0.03648 -0.09147,-0.0736 -0.139674,-0.111323 -0.04818,-0.03773 -0.0981,-0.07601 -0.149381,-0.114779 -0.05126,-0.03878 -0.103847,-0.07805 -0.157598,-0.11771 -0.05379,-0.03965 -0.10859,-0.07972 -0.164278,-0.120081 -0.05568,-0.04036 -0.112235,-0.08102 -0.169345,-0.121881 -0.05711,-0.04086 -0.114776,-0.08193 -0.172727,-0.123092 -0.05789,-0.04118 -0.116209,-0.08243 -0.174437,-0.123699"
       style="fill:none;fill-opacity:1;stroke:#00aa00;stroke-width:0.67799997;stroke-miterlimit:4;stroke-dasharray:none;stroke-dashoffset:0;stroke-opacity:1"
       inkscape:connector-curvature="0"
       inkscape:transform-center-x="-1.701039"
       inkscape:transform-center-y="2.0412397" />
    <path
       id="path10776-6"
       title="sin(x)"
       d="m 194.43555,81.009451 c -0.066,0.02721 -0.13192,0.05447 -0.19767,0.08157 -0.0657,0.02701 -0.13124,0.05397 -0.19626,0.08045 -0.065,0.0265 -0.12958,0.05267 -0.19342,0.07823 -0.0639,0.02559 -0.12699,0.05064 -0.1892,0.07491 -0.0622,0.02435 -0.1235,0.04789 -0.18363,0.07053 -0.0602,0.02271 -0.11911,0.04439 -0.17676,0.06512 -0.0577,0.02074 -0.11393,0.04035 -0.16867,0.05876 -0.0547,0.01844 -0.10792,0.03562 -0.1594,0.05148 -0.0515,0.01589 -0.10123,0.03039 -0.14904,0.0433 -0.0478,0.01298 -0.0938,0.02445 -0.1377,0.0344 -0.0439,0.0099 -0.0858,0.01825 -0.12553,0.02488 -0.0397,0.0065 -0.0773,0.01156 -0.11252,0.01464 -0.0352,0.0031 -0.0682,0.0044 -0.0988,0.0039 -0.0306,-5.1e-4 -0.0589,-0.0029 -0.0847,-0.0073 -0.0258,-0.0042 -0.0491,-0.01075 -0.0701,-0.01857 -0.0208,-0.0084 -0.0391,-0.01877 -0.0553,-0.03014 -0.0158,-0.01233 -0.029,-0.02658 -0.0402,-0.04223 -0.0108,-0.01624 -0.0192,-0.03411 -0.0251,-0.05412 -0.006,-0.02001 -0.009,-0.04191 -0.0101,-0.06587 -9.5e-4,-0.02389 6e-4,-0.04974 0.004,-0.07734 0.004,-0.02769 0.0102,-0.05719 0.0188,-0.08864 0.009,-0.03132 0.0195,-0.06455 0.0326,-0.09938 0.013,-0.03493 0.0283,-0.07154 0.0456,-0.109733 0.0173,-0.03814 0.0367,-0.07807 0.058,-0.119418 0.0214,-0.04138 0.0444,-0.08417 0.0694,-0.128478 0.025,-0.0443 0.0517,-0.08986 0.08,-0.136744 0.0282,-0.04686 0.0582,-0.09493 0.0895,-0.144132 0.0313,-0.04921 0.0639,-0.09947 0.0977,-0.150682 0.0339,-0.05124 0.0688,-0.103352 0.10479,-0.156246 0.036,-0.05288 0.0729,-0.106582 0.11062,-0.160792 0.0377,-0.05428 0.0761,-0.109074 0.11506,-0.164286 0.039,-0.05523 0.0784,-0.110842 0.11812,-0.166703 0.0397,-0.05583 0.0798,-0.111883 0.11978,-0.168002 0.0401,-0.05606 0.0801,-0.112236 0.12002,-0.168199 0.0399,-0.05595 0.0796,-0.111776 0.11882,-0.167261 0.0393,-0.05551 0.078,-0.110636 0.11623,-0.16521 0.0381,-0.05468 0.0756,-0.108707 0.11225,-0.162067 0.0366,-0.05339 0.0723,-0.106062 0.10688,-0.157881 0.0346,-0.05184 0.0681,-0.102742 0.10027,-0.152633 0.0322,-0.04993 0.063,-0.09876 0.0923,-0.146435 0.0294,-0.04769 0.0571,-0.09415 0.0832,-0.139305 0.0262,-0.04508 0.0505,-0.08895 0.0731,-0.131288 0.0226,-0.04238 0.0433,-0.08325 0.0619,-0.122519 0.0186,-0.03932 0.0353,-0.07702 0.0499,-0.113 0.0145,-0.03599 0.0268,-0.07032 0.0369,-0.102891 0.0101,-0.03252 0.018,-0.06327 0.0234,-0.09223 0.005,-0.02896 0.009,-0.05604 0.009,-0.08115 6.9e-4,-0.0251 -0.001,-0.04841 -0.005,-0.06974 -0.004,-0.02133 -0.0109,-0.04068 -0.0201,-0.05806 -0.009,-0.01755 -0.0209,-0.03281 -0.0351,-0.04625 -0.0142,-0.01366 -0.0307,-0.02529 -0.0504,-0.03412 -0.0187,-0.01062 -0.0408,-0.01743 -0.0649,-0.02309 -0.0241,-0.0058 -0.0508,-0.0092 -0.0798,-0.01109 -0.0289,-0.0021 -0.0604,-0.0017 -0.0942,1.99e-4 -0.0337,0.0019 -0.0698,0.0057 -0.10802,0.01109 -0.0383,0.0054 -0.0787,0.01267 -0.12127,0.02154 -0.0426,0.0089 -0.0872,0.01937 -0.13373,0.03129 -0.0465,0.01191 -0.0951,0.02551 -0.14536,0.0404 -0.0503,0.01488 -0.1024,0.0313 -0.15607,0.04886 -0.0537,0.01758 -0.10895,0.03639 -0.1657,0.05643 -0.0567,0.02002 -0.11485,0.04107 -0.1742,0.06311 -0.0593,0.02204 -0.11992,0.04506 -0.18148,0.06884 -0.0615,0.02374 -0.12415,0.04839 -0.18749,0.07356 -0.0634,0.0252 -0.12748,0.05099 -0.19217,0.07724 -0.0647,0.02624 -0.1299,0.05287 -0.19546,0.07982 -0.0655,0.02688 -0.13143,0.05412 -0.19737,0.08133 -0.0659,0.02723 -0.13197,0.05454 -0.19783,0.08169 -0.0659,0.02715 -0.13156,0.05417 -0.1969,0.08095 -0.0653,0.02669 -0.13024,0.05317 -0.19453,0.07909 -0.0643,0.0259 -0.12794,0.05135 -0.19075,0.07613 -0.0628,0.02481 -0.12475,0.04882 -0.18564,0.07211 -0.0608,0.02322 -0.12067,0.04563 -0.17919,0.06703 -0.0586,0.02148 -0.11575,0.0418 -0.1715,0.06099 -0.0558,0.01922 -0.11,0.03727 -0.16261,0.05401 -0.0526,0.01672 -0.10351,0.03214 -0.15261,0.04613 -0.0491,0.01397 -0.0963,0.0265 -0.14162,0.03753 -0.0453,0.01104 -0.0885,0.02032 -0.12965,0.02807 -0.0412,0.0077 -0.0802,0.01377 -0.11693,0.01812 -0.0368,0.0043 -0.0713,0.0068 -0.10348,0.0076 -0.0322,7.34e-4 -0.062,-4.51e-4 -0.0894,-0.0036 -0.0275,-0.0028 -0.0524,-0.0081 -0.0749,-0.01497 -0.0225,-0.0071 -0.0424,-0.01608 -0.0603,-0.02624 -0.0176,-0.0108 -0.0324,-0.02396 -0.0453,-0.03805 -0.0129,-0.01403 -0.0225,-0.03148 -0.0301,-0.05019 -0.008,-0.0187 -0.0125,-0.03936 -0.0151,-0.06192 -0.003,-0.02265 -0.003,-0.04718 -3.8e-4,-0.07353 0.002,-0.02642 0.007,-0.05479 0.014,-0.08489 0.007,-0.0301 0.0165,-0.06209 0.028,-0.09582 0.0116,-0.03372 0.0254,-0.06921 0.0413,-0.10634 0.016,-0.03711 0.034,-0.07589 0.054,-0.116258 0.02,-0.04035 0.0419,-0.08222 0.0657,-0.125519 0.0238,-0.0433 0.0494,-0.08802 0.0766,-0.134048 0.0272,-0.04597 0.0561,-0.09332 0.0864,-0.141764 0.0303,-0.04849 0.0621,-0.09804 0.0951,-0.148587 0.033,-0.05058 0.0673,-0.102152 0.10263,-0.154493 0.0353,-0.05236 0.0717,-0.105562 0.10879,-0.159408 0.0371,-0.0538 0.0752,-0.108298 0.1137,-0.163244 0.0385,-0.05491 0.0777,-0.110342 0.11726,-0.166029 0.0395,-0.05571 0.0794,-0.111644 0.11937,-0.167692 0.04,-0.05611 0.0801,-0.112211 0.12011,-0.168262 0.04,-0.05612 0.0799,-0.112019 0.11938,-0.167701 0.0395,-0.05571 0.0787,-0.111076 0.11726,-0.166015 0.0385,-0.05491 0.0765,-0.109399 0.1137,-0.163253 0.0371,-0.05379 0.0735,-0.107013 0.10879,-0.159399 0.0353,-0.05236 0.0696,-0.103937 0.10263,-0.154493 0.033,-0.05058 0.0648,-0.10014 0.0951,-0.148596 0.0303,-0.04849 0.0592,-0.09574 0.0864,-0.141755 0.0272,-0.04597 0.0529,-0.09074 0.0766,-0.134057 0.0238,-0.0433 0.0458,-0.0852 0.0657,-0.125519 0.02,-0.04035 0.038,-0.0791 0.054,-0.116254 0.016,-0.0372 0.0298,-0.07262 0.0413,-0.106341 0.0116,-0.03381 0.0209,-0.06577 0.028,-0.09582 0.007,-0.0301 0.0117,-0.05848 0.014,-0.08489 0.002,-0.02642 0.002,-0.05099 -3.8e-4,-0.07353 -0.003,-0.02265 -0.008,-0.04323 -0.0151,-0.06192 -0.008,-0.01869 -0.0176,-0.03543 -0.0301,-0.05019 -0.0129,-0.01403 -0.0274,-0.02789 -0.0453,-0.03804 -0.0176,-0.0108 -0.0379,-0.01915 -0.0604,-0.02624 -0.0225,-0.0071 -0.0478,-0.01131 -0.0749,-0.01497 -0.0275,-0.0028 -0.0573,-0.0042 -0.0894,-0.0036 -0.0322,7.34e-4 -0.0668,0.0033 -0.1035,0.0076 -0.0368,0.0042 -0.0758,0.01037 -0.11694,0.01812 -0.0411,0.0077 -0.0844,0.01721 -0.12965,0.02807 -0.0453,0.01104 -0.0925,0.02357 -0.14161,0.03753 -0.0491,0.01397 -0.10001,0.02938 -0.15261,0.04613 -0.0526,0.01673 -0.10685,0.03476 -0.16261,0.05401 -0.0558,0.01922 -0.113,0.03964 -0.1715,0.06099 -0.0585,0.02138 -0.1183,0.04373 -0.17919,0.06703 -0.0609,0.02322 -0.12285,0.04739 -0.18564,0.07211 -0.0628,0.02481 -0.12647,0.0502 -0.19075,0.07613 -0.0643,0.02591 -0.12922,0.05238 -0.19452,0.07908 -0.0653,0.02669 -0.13101,0.05374 -0.19689,0.08096 -0.0659,0.02716 -0.1319,0.05447 -0.19784,0.0817 -0.0659,0.02723 -0.13181,0.0544 -0.19736,0.08132 -0.0655,0.02688 -0.13079,0.0536 -0.19546,0.07982 -0.0647,0.02624 -0.12884,0.05209 -0.19217,0.07724 -0.0633,0.0252 -0.12591,0.04975 -0.18749,0.07356 -0.0616,0.02383 -0.12213,0.0468 -0.18149,0.06885 -0.0593,0.02204 -0.11745,0.04309 -0.17419,0.06311 -0.0567,0.02002 -0.11201,0.03884 -0.1657,0.05643 -0.0537,0.01758 -0.10577,0.03391 -0.15607,0.04886 -0.0503,0.01496 -0.0988,0.02848 -0.1454,0.04049 -0.0465,0.01191 -0.0912,0.02242 -0.13373,0.03129 -0.0426,0.0089 -0.083,0.016 -0.12127,0.02153 -0.0383,0.0055 -0.0743,0.0092 -0.10801,0.01109 -0.0337,0.0019 -0.0652,0.0021 -0.0942,2e-4 -0.0288,-0.0022 -0.0557,-0.0054 -0.0798,-0.01109 -0.0241,-0.0058 -0.046,-0.01281 -0.0649,-0.0231 -0.0187,-0.01062 -0.0362,-0.02048 -0.0504,-0.03412 -0.0142,-0.01366 -0.0259,-0.02886 -0.0351,-0.04625 -0.009,-0.01755 -0.0159,-0.03674 -0.0201,-0.05806 -0.004,-0.02133 -0.006,-0.04454 -0.005,-0.06974 6.8e-4,-0.02511 0.004,-0.05222 0.009,-0.08115 0.005,-0.02896 0.0133,-0.05969 0.0234,-0.09223 0.0101,-0.03266 0.0225,-0.06681 0.0369,-0.102901 0.0145,-0.03599 0.0311,-0.07376 0.0499,-0.112991 0.0187,-0.03932 0.0394,-0.08027 0.0619,-0.122519 0.0226,-0.04238 0.047,-0.08612 0.0731,-0.131296 0.0262,-0.04508 0.0539,-0.09165 0.0832,-0.139305 0.0293,-0.0477 0.0602,-0.09654 0.0924,-0.146434 0.0322,-0.04993 0.0656,-0.100859 0.10026,-0.152624 0.0346,-0.05184 0.0703,-0.104513 0.10689,-0.157881 0.0366,-0.05339 0.074,-0.107499 0.11225,-0.162068 0.0381,-0.05468 0.077,-0.109732 0.11622,-0.165209 0.0393,-0.05551 0.0789,-0.111302 0.11883,-0.16727 0.0399,-0.05603 0.08,-0.112075 0.12001,-0.16819 0.0401,-0.05606 0.0801,-0.112161 0.11978,-0.168016 0.0397,-0.05583 0.0792,-0.111477 0.11813,-0.166697 0.039,-0.05523 0.0773,-0.110068 0.11506,-0.164287 0.0377,-0.05428 0.0747,-0.10788 0.11061,-0.160783 0.0359,-0.05288 0.071,-0.105046 0.1048,-0.156254 0.0339,-0.05124 0.0665,-0.101483 0.0977,-0.150674 0.0313,-0.04921 0.0611,-0.0973 0.0895,-0.144141 0.0283,-0.04694 0.055,-0.09249 0.08,-0.136744 0.025,-0.0443 0.0482,-0.08712 0.0694,-0.128469 0.0214,-0.04138 0.0406,-0.08127 0.058,-0.119426 0.0173,-0.03828 0.0326,-0.07484 0.0456,-0.109725 0.013,-0.03493 0.0239,-0.06804 0.0325,-0.09939 0.009,-0.03132 0.0149,-0.06097 0.0188,-0.08864 0.004,-0.02769 0.005,-0.05346 0.004,-0.07735 -9.5e-4,-0.02389 -0.004,-0.04587 -0.0102,-0.06587 -0.006,-0.02 -0.0142,-0.03805 -0.0251,-0.05403 -0.0107,-0.01624 -0.0242,-0.03019 -0.0402,-0.04223 -0.0158,-0.01233 -0.0343,-0.02233 -0.0553,-0.03014 -0.0208,-0.0084 -0.0443,-0.01433 -0.0701,-0.01857 -0.0259,-0.0042 -0.054,-0.0068 -0.0847,-0.0073 -0.0306,-5.1e-4 -0.0636,7.99e-4 -0.0988,0.0039 -0.0352,0.0031 -0.0728,0.0079 -0.11253,0.01464 -0.0397,0.0065 -0.0816,0.01489 -0.12552,0.02488 -0.0439,0.0099 -0.0899,0.02146 -0.13771,0.0344 -0.0478,0.01298 -0.0976,0.02748 -0.14903,0.0433 -0.0515,0.01588 -0.10468,0.03306 -0.1594,0.05147 -0.0547,0.01835 -0.11106,0.03814 -0.16867,0.05876 -0.0576,0.02065 -0.11662,0.04244 -0.17676,0.06513 -0.0602,0.02271 -0.12142,0.04621 -0.18363,0.07052 -0.0622,0.02436 -0.12536,0.04933 -0.1892,0.07491 -0.0639,0.02559 -0.1284,0.05172 -0.19342,0.07823 -0.065,0.0265 -0.13053,0.05339 -0.19626,0.08045 -0.0657,0.02701 -0.13171,0.05433 -0.19767,0.08157"
       style="fill:none;fill-opacity:1;stroke:#00aa00;stroke-width:0.67799997;stroke-miterlimit:4;stroke-dasharray:none;stroke-dashoffset:0;stroke-opacity:1"
       inkscape:connector-curvature="0"
       inkscape:transform-center-x="-2.6331697"
       inkscape:transform-center-y="-0.34984388" />
  </g>
</svg>
