<?xml version="1.0" encoding="UTF-8" standalone="no"?>
<!-- Created with Inkscape (http://www.inkscape.org/) -->

<svg
   xmlns:dc="http://purl.org/dc/elements/1.1/"
   xmlns:cc="http://creativecommons.org/ns#"
   xmlns:rdf="http://www.w3.org/1999/02/22-rdf-syntax-ns#"
   xmlns:svg="http://www.w3.org/2000/svg"
   xmlns="http://www.w3.org/2000/svg"
   xmlns:sodipodi="http://sodipodi.sourceforge.net/DTD/sodipodi-0.dtd"
   xmlns:inkscape="http://www.inkscape.org/namespaces/inkscape"
   width="210mm"
   height="297mm"
   viewBox="0 0 744.09448819 1052.3622047"
   id="svg4457"
   version="1.1"
   inkscape:version="0.91 r13725"
   sodipodi:docname="Figure_negativepotential2.svg">
  <defs
     id="defs4459">
    <marker
       style="overflow:visible"
       id="Arrow2Lend"
       refX="0"
       refY="0"
       orient="auto"
       inkscape:stockid="Arrow2Lend"
       inkscape:isstock="true">
      <path
         inkscape:connector-curvature="0"
         transform="matrix(-1.1,0,0,-1.1,-1.1,0)"
         d="M 8.7185878,4.0337352 -2.2072895,0.01601326 8.7185884,-4.0017078 c -1.7454984,2.3720609 -1.7354408,5.6174519 -6e-7,8.035443 z"
         style="fill:#000000;fill-opacity:1;fill-rule:evenodd;stroke:#000000;stroke-width:0.625;stroke-linejoin:round;stroke-opacity:1"
         id="path962" />
    </marker>
    <marker
       style="overflow:visible"
       id="Arrow2Lend-9"
       refX="0"
       refY="0"
       orient="auto"
       inkscape:stockid="Arrow2Lend"
       inkscape:isstock="true">
      <path
         inkscape:connector-curvature="0"
         transform="matrix(-1.1,0,0,-1.1,-1.1,0)"
         d="M 8.7185878,4.0337352 -2.2072895,0.01601326 8.7185884,-4.0017078 c -1.7454984,2.3720609 -1.7354408,5.6174519 -6e-7,8.035443 z"
         style="fill-rule:evenodd;stroke:#000000;stroke-width:0.625;stroke-linejoin:round;stroke-opacity:1"
         id="path962-4" />
    </marker>
  </defs>
  <sodipodi:namedview
     id="base"
     pagecolor="#ffffff"
     bordercolor="#666666"
     borderopacity="1.0"
     inkscape:pageopacity="0.0"
     inkscape:pageshadow="2"
     inkscape:zoom="0.98994949"
     inkscape:cx="226.0025"
     inkscape:cy="520"
     inkscape:document-units="px"
     inkscape:current-layer="layer1"
     showgrid="false"
     inkscape:window-width="1365"
     inkscape:window-height="705"
     inkscape:window-x="-8"
     inkscape:window-y="-8"
     inkscape:window-maximized="1" />
  <metadata
     id="metadata4462">
    <rdf:RDF>
      <cc:Work
         rdf:about="">
        <dc:format>image/svg+xml</dc:format>
        <dc:type
           rdf:resource="http://purl.org/dc/dcmitype/StillImage" />
        <dc:title />
      </cc:Work>
    </rdf:RDF>
  </metadata>
  <g
     inkscape:label="Layer 1"
     inkscape:groupmode="layer"
     id="layer1">
    <path
       style="fill:none;stroke:#000000;stroke-width:1.77165353;stroke-linecap:butt;stroke-linejoin:miter;stroke-miterlimit:4;stroke-dasharray:none;stroke-opacity:1;marker-end:url(#Arrow2Lend)"
       d="m 239.65822,612.2633 c 0,-278.62994 0,-278.62994 0,-278.62994"
       id="path42"
       inkscape:connector-curvature="0" />
    <path
       style="fill:none;stroke:#000000;stroke-width:1.77165353;stroke-linecap:butt;stroke-linejoin:miter;stroke-miterlimit:4;stroke-dasharray:none;stroke-opacity:1;marker-end:url(#Arrow2Lend-9)"
       d="m 162.40208,502.80948 c 374.89642,0 374.89642,0 374.89642,0"
       id="path42-2"
       inkscape:connector-curvature="0" />
    <text
       xml:space="preserve"
       style="font-size:42.51968384px;line-height:0%;font-family:'Palatino Linotype';-inkscape-font-specification:'Palatino Linotype';letter-spacing:0px;word-spacing:0px;stroke-width:0.26458299"
       x="198.65776"
       y="313.73911"
       id="text5468"
       sodipodi:linespacing="0%"><tspan
         sodipodi:role="line"
         style="font-size:27.5px;line-height:1.25;stroke-width:0.26458299"
         x="198.65776"
         y="313.73911"
         id="tspan1095">-F(u)</tspan></text>
    <text
       sodipodi:linespacing="0%"
       xml:space="preserve"
       style="font-size:42.51968384px;line-height:0%;font-family:'Palatino Linotype';-inkscape-font-specification:'Palatino Linotype';letter-spacing:0px;word-spacing:0px;stroke-width:0.26458299"
       x="549.51465"
       y="517.89966"
       id="text11562"><tspan
         sodipodi:role="line"
         id="tspan11560"
         style="font-size:27.5px;line-height:1.25;stroke-width:0.26458299"
         x="549.51465"
         y="517.89966">u</tspan></text>
    <text
       xml:space="preserve"
       style="font-size:42.51968384px;line-height:0%;font-family:'Palatino Linotype';-inkscape-font-specification:'Palatino Linotype';letter-spacing:0px;word-spacing:0px;stroke-width:0.26458332"
       x="447.33704"
       y="527.13074"
       id="text1101"
       sodipodi:linespacing="0%"><tspan
         sodipodi:role="line"
         id="tspan1099"
         x="447.33704"
         y="527.13074"
         style="font-size:25px;line-height:1.25;stroke-width:0.26458332">1</tspan></text>
    <path
       id="path1082"
       title="3*(0.25*pow(x,2)*pow(1-x,2)+0.15*(0.5*pow(x,2)-0.33*pow(x,3)-1/12))"
       d="m 513.32955,579.28138 c -0.56438,-3.68826 -1.12875,-7.30017 -1.6931,-10.83735 -0.56437,-3.53717 -1.12872,-6.9993 -1.6931,-10.38851 -0.56434,-3.38921 -1.12872,-6.70504 -1.69309,-9.94947 -0.56435,-3.24443 -1.12872,-6.4171 -1.69307,-9.51998 -0.56437,-3.10287 -1.12872,-6.13555 -1.6931,-9.10003 -0.56437,-2.96443 -1.12872,-5.86027 -1.69309,-8.68946 -0.56435,-2.82919 -1.12872,-5.5913 -1.6931,-8.28829 -0.56434,-2.69699 -1.12872,-5.32846 -1.69307,-7.89633 -0.56437,-2.56784 -1.12872,-5.07171 -1.69309,-7.51348 -0.56438,-2.44176 -1.12872,-4.82106 -1.6931,-7.13973 -0.56434,-2.31867 -1.12872,-4.57639 -1.69306,-6.77494 -0.56438,-2.19855 -1.12876,-4.33761 -1.6931,-6.41895 -0.56438,-2.08137 -1.12872,-4.10474 -1.6931,-6.07181 -0.56434,-1.9671 -1.12872,-3.87762 -1.6931,-5.73332 -0.56434,-1.85574 -1.12872,-3.65627 -1.69306,-5.40344 -0.56438,-1.74713 -1.12876,-3.44058 -1.6931,-5.08199 -0.56438,-1.64143 -1.12872,-3.23054 -1.6931,-4.769 -0.56434,-1.53847 -1.12872,-3.02602 -1.6931,-4.46429 -0.56434,-1.43826 -1.12872,-2.82699 -1.69306,-4.16778 -0.56438,-1.34082 -1.12872,-2.63342 -1.6931,-3.87942 -0.56438,-1.24604 -1.12872,-2.4452 -1.6931,-3.59908 -0.56434,-1.15391 -1.12872,-2.26226 -1.69306,-3.32667 -0.56438,-1.06441 -1.12876,-2.0846 -1.6931,-3.06213 -0.56438,-0.97749 -1.12872,-1.91207 -1.6931,-2.80527 -0.56434,-0.89316 -1.12872,-1.74472 -1.6931,-2.5561 -0.56434,-0.81139 -1.12872,-1.58241 -1.69306,-2.31449 -0.56438,-0.73212 -1.12876,-1.42508 -1.6931,-2.08038 -0.56438,-0.6553 -1.12872,-1.27269 -1.6931,-1.85361 -0.56434,-0.58093 -1.12872,-1.12515 -1.69309,-1.63411 -0.56435,-0.50896 -1.12873,-0.98245 -1.69307,-1.42185 -0.56438,-0.43937 -1.12872,-0.84448 -1.6931,-1.21663 -0.56437,-0.37216 -1.12872,-0.71118 -1.69309,-1.01842 -0.56435,-0.30721 -1.12873,-0.58252 -1.69307,-0.82715 -0.56438,-0.24449 -1.12875,-0.45843 -1.6931,-0.64269 -0.56437,-0.18425 -1.12872,-0.33874 -1.69309,-0.46495 -0.56438,-0.12614 -1.12873,-0.22358 -1.6931,-0.29374 -0.56435,-0.0702 -1.12872,-0.11303 -1.69307,-0.12933 -0.56437,-0.0177 -1.12875,-0.007 -1.69309,0.0283 -0.56438,0.0354 -1.12872,0.096 -1.6931,0.1807 -0.56435,0.0847 -1.12872,0.19382 -1.6931,0.32634 -0.56434,0.13217 -1.12872,0.28772 -1.69306,0.46559 -0.56438,0.17788 -1.12872,0.37772 -1.6931,0.59886 -0.56438,0.2211 -1.12872,0.4636 -1.6931,0.7262 -0.56434,0.26256 -1.12872,0.54553 -1.6931,0.84763 -0.56434,0.30224 -1.12872,0.62359 -1.69306,0.96328 -0.56438,0.33981 -1.12872,0.69782 -1.6931,1.07323 -0.56438,0.37542 -1.12872,0.7683 -1.6931,1.17755 -0.56434,0.40929 -1.12872,0.83509 -1.69306,1.27641 -0.56438,0.44132 -1.12876,0.89823 -1.6931,1.3698 -0.56438,0.47155 -1.12872,0.95783 -1.6931,1.4579 -0.56434,0.50003 -1.12872,1.01392 -1.6931,1.54073 -0.56434,0.52679 -1.12872,1.06658 -1.69306,1.61845 -0.56438,0.55187 -1.12872,1.11585 -1.6931,1.69111 -0.56438,0.57526 -1.12872,1.16185 -1.6931,1.75886 -0.56434,0.59701 -1.12872,1.20451 -1.6931,1.82169 -0.56434,0.61717 -1.12872,1.24405 -1.69306,1.87979 -0.56438,0.63574 -1.12872,1.28041 -1.6931,1.9332 -0.56438,0.65278 -1.12872,1.31375 -1.6931,1.98205 -0.56434,0.6683 -1.12872,1.34405 -1.69306,2.02638 -0.56438,0.68237 -1.12875,1.3714 -1.6931,2.06635 -0.56438,0.69499 -1.12872,1.39589 -1.6931,2.10203 -0.56434,0.70615 -1.12872,1.41754 -1.69309,2.13346 -0.56435,0.71593 -1.12872,1.43643 -1.69307,2.16078 -0.56438,0.72436 -1.12875,1.45265 -1.6931,2.18413 -0.56437,0.73148 -1.12872,1.46619 -1.69309,2.20348 -0.56435,0.73729 -1.12872,1.47721 -1.6931,2.21907 -0.56435,0.74182 -1.12872,1.48567 -1.69307,2.23083 -0.56437,0.74519 -1.12872,1.49173 -1.69309,2.23905 -0.56438,0.74728 -1.12872,1.49538 -1.6931,2.24362 -0.56434,0.74828 -1.12872,1.49669 -1.69307,2.24479 -0.56437,0.74807 -1.12875,1.49577 -1.69309,2.24256 -0.56438,0.74675 -1.12872,1.49262 -1.6931,2.23703 -0.56434,0.74442 -1.12872,1.48738 -1.6931,2.22839 -0.56434,0.74101 -1.12872,1.48004 -1.69306,2.21662 -0.56438,0.73655 -1.12876,1.47069 -1.6931,2.20185 -0.56438,0.73116 -1.12872,1.45934 -1.6931,2.18416 -0.56434,0.72479 -1.12872,1.44617 -1.6931,2.16369 -0.56434,0.71752 -1.12872,1.43118 -1.69306,2.14051 -0.56438,0.70933 -1.12872,1.41438 -1.6931,2.11468 -0.56438,0.7003 -1.12872,1.39589 -1.6931,2.08634 -0.56434,0.69044 -1.12872,1.37576 -1.69306,2.05554 -0.56438,0.67982 -1.12876,1.35407 -1.6931,2.02245 -0.56438,0.66837 -1.12872,1.33083 -1.6931,1.98701 -0.56438,0.65622 -1.12872,1.30617 -1.6931,1.94953 -0.56434,0.64336 -1.12872,1.28009 -1.69306,1.90991 -0.56438,0.62983 -1.12876,1.25267 -1.6931,1.86832 -0.56438,0.61565 -1.12872,1.22403 -1.6931,1.82487 -0.56434,0.60088 -1.12872,1.19417 -1.6931,1.77966 -0.56434,0.5855 -1.12872,1.16313 -1.69306,1.73272 -0.56438,0.56958 -1.12872,1.13106 -1.6931,1.6842 -0.56437,0.55315 -1.12872,1.09793 -1.6931,1.63418 -0.56434,0.5362 -1.12872,1.06384 -1.69309,1.58272 -0.56435,0.51885 -1.12872,1.02891 -1.69307,1.52996 -0.56437,0.50106 -1.12872,0.99309 -1.6931,1.47597 -0.56437,0.48288 -1.12872,0.95651 -1.69309,1.42087 -0.56435,0.46431 -1.12872,0.91924 -1.69307,1.36466 -0.56437,0.44547 -1.12875,0.88133 -1.6931,1.30759 -0.56437,0.42626 -1.12872,0.84285 -1.69309,1.24965 -0.56438,0.40681 -1.12872,0.8038 -1.6931,1.19091 -0.56434,0.38711 -1.12872,0.76429 -1.69306,1.13152 -0.56438,0.36723 -1.12876,0.72443 -1.6931,1.07157 -0.56438,0.34724 -1.12872,0.68421 -1.6931,1.01111 -0.56434,0.32705 -1.12872,0.64372 -1.6931,0.95032 -0.56434,0.3065 -1.12872,0.603 -1.69306,0.88919 -0.56438,0.2863 -1.12872,0.56211 -1.6931,0.82786 -0.56438,0.26575 -1.1287,0.52115 -1.69308,0.76642 -0.56434,0.2452 -1.12874,0.48022 -1.69308,0.70497 -0.56438,0.22465 -1.12876,0.43927 -1.6931,0.64361 -0.56438,0.20445 -1.12872,0.39845 -1.6931,0.58245 -0.56437,0.1839 -1.12872,0.35777 -1.69309,0.52147 -0.56435,0.1637 -1.12873,0.31748 -1.69307,0.46095 -0.56438,0.1435 -1.12875,0.27708 -1.6931,0.40078 -0.56437,0.12366 -1.12872,0.2374 -1.69309,0.34122 -0.56435,0.10382 -1.12873,0.19807 -1.6931,0.2824 -0.56435,0.0843 -1.12872,0.1591 -1.69307,0.22394 -0.56437,0.0652 -1.12872,0.12047 -1.69309,0.16654 -0.56438,0.0461 -1.12873,0.0829 -1.6931,0.11019 -0.56435,0.0284 -1.12872,0.0457 -1.6931,0.0549 -0.56434,0.0106 -1.12872,0.0106 -1.69306,4.3e-4 -0.56438,-0.007 -1.12872,-0.0248 -1.6931,-0.0528 -0.56438,-0.0248 -1.12872,-0.0613 -1.6931,-0.10452 -0.56434,-0.0432 -1.12872,-0.095 -1.69306,-0.1552 -0.56438,-0.0599 -1.12876,-0.12791 -1.6931,-0.2041 -0.56438,-0.0762 -1.12872,-0.1598 -1.6931,-0.25157 -0.56434,-0.0914 -1.12872,-0.19063 -1.6931,-0.29728 -0.56434,-0.10666 -1.12872,-0.2204 -1.69306,-0.34122 -0.56438,-0.12083 -1.12872,-0.24874 -1.6931,-0.38346 -0.56438,-0.13465 -1.12872,-0.27602 -1.6931,-0.42371 -0.56434,-0.14776 -1.12872,-0.30189 -1.6931,-0.46191 -0.56434,-0.16015 -1.12872,-0.32633 -1.69306,-0.49797 -0.56438,-0.17185 -1.12872,-0.34902 -1.6931,-0.53182 -0.56438,-0.18248 -1.12872,-0.37059 -1.6931,-0.56335 -0.56434,-0.19275 -1.12872,-0.3904 -1.69306,-0.59244 -0.56438,-0.20197 -1.12876,-0.40858 -1.6931,-0.61908 -0.56438,-0.21048 -1.12872,-0.42506 -1.6931,-0.64311 -0.56434,-0.21827 -1.12872,-0.43973 -1.6931,-0.66445 -0.56434,-0.22464 -1.12872,-0.45258 -1.69306,-0.683 -0.56438,-0.23032 -1.12875,-0.46354 -1.6931,-0.69871 -0.56438,-0.23527 -1.12872,-0.4725 -1.6931,-0.71139 -0.56434,-0.23882 -1.12872,-0.47948 -1.69309,-0.72106 -0.56435,-0.24165 -1.12872,-0.48434 -1.69307,-0.72758 -0.56438,-0.24307 -1.12872,-0.48707 -1.6931,-0.73085 -0.56437,-0.24378 -1.12872,-0.48756 -1.69309,-0.73073 -0.56435,-0.24307 -1.12872,-0.48579 -1.69307,-0.72723 -0.56438,-0.2413 -1.12875,-0.48171 -1.6931,-0.72018 -0.56437,-0.23846 -1.12872,-0.47523 -1.69309,-0.70955 -0.56438,-0.23421 -1.12872,-0.46626 -1.6931,-0.69516 -0.56434,-0.22889 -1.12872,-0.45478 -1.69307,-0.67698 -0.56437,-0.22217 -1.12875,-0.44072 -1.69309,-0.65491 -0.56438,-0.21402 -1.12872,-0.42403 -1.6931,-0.62883 -0.56434,-0.2048 -1.12872,-0.40461 -1.6931,-0.59871 -0.56434,-0.19418 -1.12872,-0.38243 -1.69306,-0.56435 -0.56438,-0.18177 -1.12872,-0.35741 -1.6931,-0.52579 -0.56438,-0.1683 -1.12872,-0.32953 -1.6931,-0.48277 -0.56434,-0.15343 -1.12872,-0.2987 -1.69306,-0.43537 -0.56438,-0.13677 -1.12876,-0.26468 -1.6931,-0.38342 -0.56438,-0.1187 -1.12872,-0.22784 -1.6931,-0.32669 -0.56438,-0.0989 -1.12872,-0.1878 -1.6931,-0.2654 -0.56434,-0.0776 -1.12872,-0.14456 -1.69306,-0.19913 -0.56438,-0.0549 -1.12876,-0.0978 -1.6931,-0.12827 -0.56438,-0.0319 -1.12872,-0.0478 -1.6931,-0.0521 -0.56434,-0.004 -1.12872,0.007 -1.6931,0.0283 -0.56434,0.0248 -1.12872,0.062 -1.69306,0.11551 -0.56438,0.0535 -1.12872,0.12225 -1.6931,0.20729 -0.56438,0.085 -1.12872,0.18602 -1.6931,0.30437 -0.56434,0.11834 -1.12872,0.2537 -1.6931,0.40712 -0.56434,0.15343 -1.12872,0.32492 -1.69306,0.51527 -0.56438,0.19028 -1.12872,0.39986 -1.6931,0.62915 -0.56437,0.22925 -1.12872,0.47863 -1.6931,0.74877 -0.56434,0.27 -1.12872,0.5613 -1.69306,0.87424 -0.56438,0.31288 -1.12875,0.64786 -1.6931,1.00563 -0.56437,0.35777 -1.12872,0.73849 -1.6931,1.1431 -0.56434,0.40461 -1.12872,0.83321 -1.69309,1.28668 -0.56435,0.45351 -1.12872,0.93204 -1.69307,1.43653 -0.56437,0.50446 -1.12872,1.03504 -1.6931,1.59265 -0.56437,0.55757 -1.12872,1.14232 -1.69309,1.75518 -0.56435,0.61285 -1.12872,1.25397 -1.6931,1.92426 -0.56434,0.67029 -1.12872,1.36995 -1.69306,2.09994 -0.56438,0.72996 -1.12873,1.49039 -1.6931,2.28224 -0.56438,0.7919 -1.12872,1.61536 -1.6931,2.47143 -0.56434,0.85606 -1.12872,1.7449 -1.69306,2.66743 -0.56438,0.92257 -1.12876,1.87905 -1.6931,2.87044 -0.56438,0.99138 -1.12872,2.01791 -1.6931,3.08048 -0.56434,1.0626 -1.12872,2.16152 -1.6931,3.29772 -0.56434,1.13623 -1.12872,2.30995 -1.69306,3.52219 -0.56438,1.21223 -1.12876,2.46323 -1.6931,3.75399 -0.56438,1.29075 -1.12872,2.62151 -1.6931,3.99327 -0.56434,1.37175 -1.12872,2.78475 -1.6931,4.24006 -0.56434,1.45527 -1.12872,2.9531 -1.69306,4.49447 -0.56438,1.54134 -1.12872,3.12655 -1.6931,4.75658 -0.56438,1.63006 -1.12872,3.30523 -1.6931,5.02657 -0.56434,1.7213 -1.12872,3.48909 -1.69306,5.30436 -0.56438,1.81527 -1.12876,3.67835 -1.6931,5.59024 -0.56438,1.9119 -1.12872,3.87294 -1.6931,5.8842 -0.56438,2.01125 -1.12872,4.07299 -1.6931,6.18629 -0.56434,2.11334 -1.12872,4.27854 -1.69306,6.49669 -0.56438,2.21818 -1.12876,4.48965 -1.6931,6.81548 -0.56438,2.32586 -1.12872,4.7064 -1.6931,7.1427 -0.56434,2.43635 -1.12872,4.92882 -1.69309,7.47851"
       style="fill:none;fill-opacity:0.43283584;stroke:#0000fc;stroke-width:3.54330707;stroke-miterlimit:4;stroke-dasharray:none;stroke-dashoffset:0;stroke-opacity:1"
       inkscape:connector-curvature="0" />
    <circle
       style="opacity:1;fill:#ff0000;fill-opacity:1;fill-rule:evenodd;stroke:none;stroke-width:1.35300004;stroke-linejoin:miter;stroke-miterlimit:4;stroke-dasharray:none;stroke-dashoffset:0;stroke-opacity:1"
       id="path3356"
       cx="239.34735"
       cy="492.64719"
       r="0" />
    <circle
       style="opacity:1;fill:#ff0000;fill-opacity:1;fill-rule:evenodd;stroke:none;stroke-width:1.35300004;stroke-linejoin:miter;stroke-miterlimit:4;stroke-dasharray:none;stroke-dashoffset:0;stroke-opacity:1"
       id="path3356-3"
       cx="451.14954"
       cy="396.77881"
       r="0" />
    <rect
       style="opacity:1;fill:none;fill-opacity:1;fill-rule:evenodd;stroke:none;stroke-width:1.35300004;stroke-linejoin:miter;stroke-miterlimit:4;stroke-dasharray:none;stroke-dashoffset:0;stroke-opacity:1"
       id="rect4227"
       width="187.72952"
       height="145.94041"
       x="249.9189"
       y="334.34906" />
    <text
       sodipodi:linespacing="0%"
       xml:space="preserve"
       style="font-size:42.51968384px;line-height:0%;font-family:'Palatino Linotype';-inkscape-font-specification:'Palatino Linotype';letter-spacing:0px;word-spacing:0px;stroke-width:0.26458332"
       x="420.11298"
       y="379.60699"
       id="text1101-1"><tspan
         sodipodi:role="line"
         x="420.11298"
         y="379.60699"
         style="font-size:25.00000191px;line-height:1.25;stroke-width:0.26458332"
         id="tspan4346">t = -∞</tspan></text>
    <text
       xml:space="preserve"
       style="font-style:normal;font-variant:normal;font-weight:normal;font-stretch:normal;font-size:22.5px;font-family:'Palatino Linotype';-inkscape-font-specification:'Palatino Linotype';text-align:center;text-anchor:middle;opacity:1;fill:none;fill-opacity:1;fill-rule:evenodd;stroke:#000000;stroke-width:1.35300004;stroke-linejoin:miter;stroke-miterlimit:4;stroke-dasharray:none;stroke-dashoffset:0;stroke-opacity:1"
       x="456.29279"
       y="372.2807"
       id="text4350"><tspan
         sodipodi:role="line"
         id="tspan4352"
         x="456.29279"
         y="372.2807"
         style="stroke-width:1.35300004" /></text>
    <text
       sodipodi:linespacing="0%"
       xml:space="preserve"
       style="font-size:42.51968384px;line-height:0%;font-family:'Palatino Linotype';-inkscape-font-specification:'Palatino Linotype';letter-spacing:0px;word-spacing:0px;stroke-width:0.26458332"
       x="279.44293"
       y="491.09494"
       id="text1101-1-2"><tspan
         sodipodi:role="line"
         x="279.44293"
         y="491.09494"
         style="font-size:25.00000191px;line-height:1.25;stroke-width:0.26458332"
         id="tspan4346-5">t = +∞</tspan></text>
    <circle
       style="opacity:1;fill:#ff0000;fill-opacity:1;fill-rule:evenodd;stroke:none;stroke-width:1.35300004;stroke-linejoin:miter;stroke-miterlimit:4;stroke-dasharray:none;stroke-dashoffset:0;stroke-opacity:1"
       id="path4168"
       cx="313.04578"
       cy="512.0321"
       r="10" />
    <circle
       style="opacity:1;fill:#ff0000;fill-opacity:1;fill-rule:evenodd;stroke:none;stroke-width:1.35300004;stroke-linejoin:miter;stroke-miterlimit:4;stroke-dasharray:none;stroke-dashoffset:0;stroke-opacity:1"
       id="path4168-4"
       cx="451.51791"
       cy="395.76303"
       r="10" />
  </g>
</svg>
