<?xml version="1.0" encoding="UTF-8" standalone="no"?>
<!-- Created with Inkscape (http://www.inkscape.org/) -->

<svg
   xmlns:dc="http://purl.org/dc/elements/1.1/"
   xmlns:cc="http://creativecommons.org/ns#"
   xmlns:rdf="http://www.w3.org/1999/02/22-rdf-syntax-ns#"
   xmlns:svg="http://www.w3.org/2000/svg"
   xmlns="http://www.w3.org/2000/svg"
   xmlns:sodipodi="http://sodipodi.sourceforge.net/DTD/sodipodi-0.dtd"
   xmlns:inkscape="http://www.inkscape.org/namespaces/inkscape"
   width="210mm"
   height="297mm"
   viewBox="0 0 744.09448819 1052.3622047"
   id="svg4457"
   version="1.1"
   inkscape:version="0.91 r13725"
   sodipodi:docname="Figure_negativepotential.svg">
  <defs
     id="defs4459">
    <marker
       style="overflow:visible"
       id="Arrow2Lend"
       refX="0"
       refY="0"
       orient="auto"
       inkscape:stockid="Arrow2Lend"
       inkscape:isstock="true">
      <path
         inkscape:connector-curvature="0"
         transform="matrix(-1.1,0,0,-1.1,-1.1,0)"
         d="M 8.7185878,4.0337352 -2.2072895,0.01601326 8.7185884,-4.0017078 c -1.7454984,2.3720609 -1.7354408,5.6174519 -6e-7,8.035443 z"
         style="fill:#000000;fill-opacity:1;fill-rule:evenodd;stroke:#000000;stroke-width:0.625;stroke-linejoin:round;stroke-opacity:1"
         id="path962" />
    </marker>
    <marker
       style="overflow:visible"
       id="Arrow2Lend-9"
       refX="0"
       refY="0"
       orient="auto"
       inkscape:stockid="Arrow2Lend"
       inkscape:isstock="true">
      <path
         inkscape:connector-curvature="0"
         transform="matrix(-1.1,0,0,-1.1,-1.1,0)"
         d="M 8.7185878,4.0337352 -2.2072895,0.01601326 8.7185884,-4.0017078 c -1.7454984,2.3720609 -1.7354408,5.6174519 -6e-7,8.035443 z"
         style="fill-rule:evenodd;stroke:#000000;stroke-width:0.625;stroke-linejoin:round;stroke-opacity:1"
         id="path962-4" />
    </marker>
  </defs>
  <sodipodi:namedview
     id="base"
     pagecolor="#ffffff"
     bordercolor="#666666"
     borderopacity="1.0"
     inkscape:pageopacity="0.0"
     inkscape:pageshadow="2"
     inkscape:zoom="0.98994949"
     inkscape:cx="375"
     inkscape:cy="520"
     inkscape:document-units="px"
     inkscape:current-layer="layer1"
     showgrid="false"
     inkscape:window-width="1365"
     inkscape:window-height="705"
     inkscape:window-x="-8"
     inkscape:window-y="-8"
     inkscape:window-maximized="1" />
  <metadata
     id="metadata4462">
    <rdf:RDF>
      <cc:Work
         rdf:about="">
        <dc:format>image/svg+xml</dc:format>
        <dc:type
           rdf:resource="http://purl.org/dc/dcmitype/StillImage" />
        <dc:title></dc:title>
      </cc:Work>
    </rdf:RDF>
  </metadata>
  <g
     inkscape:label="Layer 1"
     inkscape:groupmode="layer"
     id="layer1">
    <g
       id="g4406"
       transform="matrix(3.5433071,0,0,3.5433071,-19.460104,-66.745993)">
      <path
         inkscape:connector-curvature="0"
         id="path42"
         d="m 73.12895,191.63151 c 0,-78.63556 0,-78.63556 0,-78.63556"
         style="fill:none;stroke:#000000;stroke-width:0.5;stroke-linecap:butt;stroke-linejoin:miter;stroke-miterlimit:4;stroke-dasharray:none;stroke-opacity:1;marker-end:url(#Arrow2Lend)" />
      <path
         inkscape:connector-curvature="0"
         id="path42-2"
         d="m 51.32555,160.74121 c 105.8041,0 105.8041,0 105.8041,0"
         style="fill:none;stroke:#000000;stroke-width:0.5;stroke-linecap:butt;stroke-linejoin:miter;stroke-miterlimit:4;stroke-dasharray:none;stroke-opacity:1;marker-end:url(#Arrow2Lend-9)" />
      <text
         sodipodi:linespacing="0%"
         id="text5468"
         y="107.38135"
         x="61.557709"
         style="line-height:0%;font-family:'Palatino Linotype';-inkscape-font-specification:'Palatino Linotype';letter-spacing:0px;word-spacing:0px;stroke-width:0.26458299"
         xml:space="preserve"><tspan
           id="tspan1095"
           y="107.38135"
           x="61.557709"
           style="font-size:7.76111126px;line-height:1.25;stroke-width:0.26458299"
           sodipodi:role="line">-F(u)</tspan></text>
      <text
         id="text11562"
         y="165"
         x="160.57732"
         style="line-height:0%;font-family:'Palatino Linotype';-inkscape-font-specification:'Palatino Linotype';letter-spacing:0px;word-spacing:0px;stroke-width:0.26458299"
         xml:space="preserve"
         sodipodi:linespacing="0%"><tspan
           y="165"
           x="160.57732"
           style="font-size:7.76111126px;line-height:1.25;stroke-width:0.26458299"
           id="tspan11560"
           sodipodi:role="line">u</tspan></text>
      <text
         sodipodi:linespacing="0%"
         id="text1101"
         y="167.60521"
         x="131.74052"
         style="line-height:0%;font-family:'Palatino Linotype';-inkscape-font-specification:'Palatino Linotype';letter-spacing:0px;word-spacing:0px;stroke-width:0.26458332"
         xml:space="preserve"><tspan
           style="font-size:7.05555534px;line-height:1.25;stroke-width:0.26458332"
           y="167.60521"
           x="131.74052"
           id="tspan1099"
           sodipodi:role="line">1</tspan></text>
      <path
         inkscape:connector-curvature="0"
         style="fill:none;fill-opacity:0.43283584;stroke:#0000fc;stroke-width:1;stroke-miterlimit:4;stroke-dasharray:none;stroke-dashoffset:0;stroke-opacity:1"
         d="m 150.36508,182.32328 c -0.15928,-1.04091 -0.31856,-2.06027 -0.47783,-3.05854 -0.15928,-0.99827 -0.31855,-1.97536 -0.47783,-2.93187 -0.15927,-0.95651 -0.31855,-1.89231 -0.47783,-2.80796 -0.15927,-0.91565 -0.31855,-1.81105 -0.47782,-2.68675 -0.15928,-0.8757 -0.31855,-1.73159 -0.47783,-2.56823 -0.15928,-0.83663 -0.31855,-1.6539 -0.47783,-2.45236 -0.15927,-0.79846 -0.31855,-1.57799 -0.47783,-2.33914 -0.15927,-0.76115 -0.31855,-1.50381 -0.47782,-2.22852 -0.15928,-0.7247 -0.31855,-1.43135 -0.47783,-2.12047 -0.15928,-0.68912 -0.31855,-1.36061 -0.47783,-2.01499 -0.15927,-0.65438 -0.31855,-1.29156 -0.47782,-1.91204 -0.15928,-0.62048 -0.31856,-1.22417 -0.47783,-1.81157 -0.15928,-0.58741 -0.31855,-1.15845 -0.47783,-1.7136 -0.15927,-0.55516 -0.31855,-1.09435 -0.47783,-1.61807 -0.15927,-0.52373 -0.31855,-1.03188 -0.47782,-1.52497 -0.15928,-0.49308 -0.31856,-0.97101 -0.47783,-1.43425 -0.15928,-0.46325 -0.31855,-0.91173 -0.47783,-1.34592 -0.15927,-0.43419 -0.31855,-0.85401 -0.47783,-1.25992 -0.15927,-0.40591 -0.31855,-0.79784 -0.47782,-1.17624 -0.15928,-0.37841 -0.31855,-0.74321 -0.47783,-1.09486 -0.15928,-0.35166 -0.31855,-0.69009 -0.47783,-1.01574 -0.15927,-0.32566 -0.31855,-0.63846 -0.47782,-0.93886 -0.15928,-0.3004 -0.31856,-0.58832 -0.47783,-0.8642 -0.15928,-0.27587 -0.31855,-0.53963 -0.47783,-0.79171 -0.15927,-0.25207 -0.31855,-0.4924 -0.47783,-0.72139 -0.15927,-0.22899 -0.31855,-0.44659 -0.47782,-0.6532 -0.15928,-0.20662 -0.31856,-0.40219 -0.47783,-0.58713 -0.15928,-0.18494 -0.31855,-0.35918 -0.47783,-0.52313 -0.15927,-0.16395 -0.31855,-0.31754 -0.47783,-0.46118 -0.15927,-0.14364 -0.31855,-0.27727 -0.47782,-0.40128 -0.15928,-0.124 -0.31855,-0.23833 -0.47783,-0.34336 -0.15928,-0.10503 -0.31855,-0.20071 -0.47783,-0.28742 -0.15927,-0.0867 -0.31855,-0.1644 -0.47782,-0.23344 -0.15928,-0.069 -0.31856,-0.12938 -0.47783,-0.18138 -0.15928,-0.052 -0.31855,-0.0956 -0.47783,-0.13122 -0.15928,-0.0356 -0.31855,-0.0631 -0.47783,-0.0829 -0.15927,-0.0198 -0.31855,-0.0319 -0.47782,-0.0365 -0.15928,-0.005 -0.31856,-0.002 -0.47783,0.008 -0.15928,0.01 -0.31855,0.0271 -0.47783,0.051 -0.15927,0.0239 -0.31855,0.0547 -0.47783,0.0921 -0.15927,0.0373 -0.31855,0.0812 -0.47782,0.1314 -0.15928,0.0502 -0.31855,0.1066 -0.47783,0.16901 -0.15928,0.0624 -0.31855,0.13084 -0.47783,0.20495 -0.15927,0.0741 -0.31855,0.15396 -0.47783,0.23922 -0.15927,0.0853 -0.31855,0.17599 -0.47782,0.27186 -0.15928,0.0959 -0.31855,0.19694 -0.47783,0.30289 -0.15928,0.10595 -0.31855,0.21683 -0.47783,0.33233 -0.15927,0.11551 -0.31855,0.23568 -0.47782,0.36023 -0.15928,0.12455 -0.31856,0.2535 -0.47783,0.38659 -0.15928,0.13308 -0.31855,0.27032 -0.47783,0.41145 -0.15927,0.14112 -0.31855,0.28615 -0.47783,0.43483 -0.15927,0.14867 -0.31855,0.30101 -0.47782,0.45676 -0.15928,0.15575 -0.31855,0.31492 -0.47783,0.47727 -0.15928,0.16235 -0.31855,0.3279 -0.47783,0.49639 -0.15927,0.16849 -0.31855,0.33994 -0.47783,0.51412 -0.15927,0.17418 -0.31855,0.3511 -0.47782,0.53052 -0.15928,0.17942 -0.31855,0.36136 -0.47783,0.54559 -0.15928,0.18423 -0.31855,0.37077 -0.47783,0.55938 -0.15927,0.18861 -0.31855,0.37932 -0.47782,0.57189 -0.15928,0.19258 -0.31856,0.38704 -0.47783,0.58317 -0.15928,0.19614 -0.31855,0.39395 -0.47783,0.59324 -0.15927,0.19929 -0.31855,0.40006 -0.47783,0.60211 -0.15927,0.20205 -0.31855,0.40539 -0.47782,0.60982 -0.15928,0.20443 -0.31856,0.40997 -0.47783,0.61641 -0.15928,0.20644 -0.31855,0.41379 -0.47783,0.62187 -0.15927,0.20808 -0.31855,0.4169 -0.47783,0.62627 -0.15927,0.20936 -0.31855,0.41929 -0.47782,0.62959 -0.15928,0.21031 -0.31855,0.421 -0.47783,0.63191 -0.15928,0.2109 -0.31855,0.42203 -0.47783,0.6332 -0.15927,0.21118 -0.31855,0.4224 -0.47782,0.63353 -0.15928,0.21112 -0.31856,0.42214 -0.47783,0.6329 -0.15928,0.21075 -0.31855,0.42125 -0.47783,0.63134 -0.15927,0.21009 -0.31855,0.41977 -0.47783,0.6289 -0.15927,0.20913 -0.31855,0.4177 -0.47782,0.62558 -0.15928,0.20787 -0.31856,0.41506 -0.47783,0.62141 -0.15928,0.20635 -0.31855,0.41186 -0.47783,0.61642 -0.15927,0.20455 -0.31855,0.40814 -0.47783,0.61064 -0.15927,0.2025 -0.31855,0.40391 -0.47782,0.6041 -0.15928,0.20019 -0.31855,0.39917 -0.47783,0.59681 -0.15928,0.19764 -0.31855,0.39395 -0.47783,0.58881 -0.15927,0.19486 -0.31855,0.38827 -0.47782,0.58012 -0.15928,0.19186 -0.31856,0.38215 -0.47783,0.57078 -0.15928,0.18863 -0.31855,0.37559 -0.47783,0.56078 -0.15928,0.1852 -0.31855,0.36863 -0.47783,0.5502 -0.15927,0.18157 -0.31855,0.36127 -0.47782,0.53902 -0.15928,0.17775 -0.31856,0.35353 -0.47783,0.52728 -0.15928,0.17375 -0.31855,0.34545 -0.47783,0.51502 -0.15927,0.16958 -0.31855,0.33702 -0.47783,0.50226 -0.15927,0.16524 -0.31855,0.32826 -0.47782,0.48901 -0.15928,0.16075 -0.31855,0.31921 -0.47783,0.47532 -0.15928,0.15611 -0.31855,0.30986 -0.47783,0.4612 -0.15927,0.15133 -0.31855,0.30024 -0.47783,0.44668 -0.15927,0.14643 -0.31855,0.29038 -0.47782,0.43179 -0.15928,0.14141 -0.31855,0.28027 -0.47783,0.41655 -0.15928,0.13628 -0.31855,0.26995 -0.47783,0.401 -0.15927,0.13104 -0.31855,0.25943 -0.47782,0.38514 -0.15928,0.12572 -0.31856,0.24873 -0.47783,0.36903 -0.15928,0.1203 -0.31855,0.23787 -0.47783,0.35268 -0.15928,0.11481 -0.31855,0.22685 -0.47783,0.3361 -0.15927,0.10925 -0.31855,0.2157 -0.47782,0.31934 -0.15928,0.10364 -0.31856,0.20445 -0.47783,0.30242 -0.15928,0.098 -0.31855,0.1931 -0.47783,0.28536 -0.15927,0.0923 -0.31855,0.18167 -0.47783,0.2682 -0.15927,0.0865 -0.31855,0.17018 -0.47782,0.25095 -0.15928,0.0808 -0.31855,0.15864 -0.47783,0.23364 -0.15928,0.075 -0.318544,0.14708 -0.477824,0.2163 -0.15927,0.0692 -0.318555,0.13553 -0.477825,0.19896 -0.15928,0.0634 -0.31856,0.12397 -0.47783,0.18164 -0.15928,0.0577 -0.31855,0.11245 -0.47783,0.16438 -0.15928,0.0519 -0.31855,0.10097 -0.47783,0.14717 -0.15927,0.0462 -0.31855,0.0896 -0.47782,0.13009 -0.15928,0.0405 -0.31856,0.0782 -0.47783,0.11311 -0.15928,0.0349 -0.31855,0.067 -0.47783,0.0963 -0.15927,0.0293 -0.31855,0.0559 -0.47783,0.0797 -0.15927,0.0238 -0.31855,0.0449 -0.47782,0.0632 -0.15928,0.0184 -0.31855,0.034 -0.47783,0.047 -0.15928,0.013 -0.31855,0.0234 -0.47783,0.0311 -0.15927,0.008 -0.31855,0.0129 -0.47783,0.0155 -0.15927,0.003 -0.31855,0.003 -0.47782,1.2e-4 -0.15928,-0.002 -0.31855,-0.007 -0.47783,-0.0149 -0.15928,-0.007 -0.31855,-0.0173 -0.47783,-0.0295 -0.15927,-0.0122 -0.31855,-0.0268 -0.47782,-0.0438 -0.15928,-0.0169 -0.31856,-0.0361 -0.47783,-0.0576 -0.15928,-0.0215 -0.31855,-0.0451 -0.47783,-0.071 -0.15927,-0.0258 -0.31855,-0.0538 -0.47783,-0.0839 -0.15927,-0.0301 -0.31855,-0.0622 -0.47782,-0.0963 -0.15928,-0.0341 -0.31855,-0.0702 -0.47783,-0.10822 -0.15928,-0.038 -0.31855,-0.0779 -0.47783,-0.11958 -0.15927,-0.0417 -0.31855,-0.0852 -0.47783,-0.13036 -0.15927,-0.0452 -0.31855,-0.0921 -0.47782,-0.14054 -0.15928,-0.0485 -0.31855,-0.0985 -0.47783,-0.15009 -0.15928,-0.0515 -0.31855,-0.10459 -0.47783,-0.15899 -0.15927,-0.0544 -0.31855,-0.11018 -0.47782,-0.1672 -0.15928,-0.057 -0.31856,-0.11531 -0.47783,-0.17472 -0.15928,-0.0594 -0.31855,-0.11996 -0.47783,-0.1815 -0.15927,-0.0616 -0.31855,-0.1241 -0.47783,-0.18752 -0.15927,-0.0634 -0.31855,-0.12773 -0.47782,-0.19276 -0.15928,-0.065 -0.31856,-0.13082 -0.47783,-0.19719 -0.15928,-0.0664 -0.31855,-0.13335 -0.47783,-0.20077 -0.15927,-0.0674 -0.31855,-0.13532 -0.47783,-0.2035 -0.15927,-0.0682 -0.31855,-0.13669 -0.47782,-0.20534 -0.15928,-0.0686 -0.31855,-0.13746 -0.47783,-0.20626 -0.15928,-0.0688 -0.31855,-0.1376 -0.47783,-0.20623 -0.15927,-0.0686 -0.31855,-0.1371 -0.47782,-0.20524 -0.15928,-0.0681 -0.31856,-0.13595 -0.47783,-0.20325 -0.15928,-0.0673 -0.31855,-0.13412 -0.47783,-0.20025 -0.15928,-0.0661 -0.31855,-0.13159 -0.47783,-0.19619 -0.15927,-0.0646 -0.31855,-0.12835 -0.47782,-0.19106 -0.15928,-0.0627 -0.31856,-0.12438 -0.47783,-0.18483 -0.15928,-0.0604 -0.31855,-0.11967 -0.47783,-0.17747 -0.15927,-0.0578 -0.31855,-0.11419 -0.47783,-0.16897 -0.15927,-0.0548 -0.31855,-0.10793 -0.47782,-0.15927 -0.15928,-0.0513 -0.31855,-0.10087 -0.47783,-0.14839 -0.15928,-0.0475 -0.31855,-0.093 -0.47783,-0.13625 -0.15927,-0.0433 -0.31855,-0.0843 -0.47782,-0.12287 -0.15928,-0.0386 -0.31856,-0.0747 -0.47783,-0.10821 -0.15928,-0.0335 -0.31855,-0.0643 -0.47783,-0.0922 -0.15928,-0.0279 -0.31855,-0.053 -0.47783,-0.0749 -0.15927,-0.0219 -0.31855,-0.0408 -0.47782,-0.0562 -0.15928,-0.0155 -0.31856,-0.0276 -0.47783,-0.0362 -0.15928,-0.009 -0.31855,-0.0135 -0.47783,-0.0147 -0.15927,-0.001 -0.31855,0.002 -0.47783,0.008 -0.15927,0.007 -0.31855,0.0175 -0.47782,0.0326 -0.15928,0.0151 -0.31855,0.0345 -0.47783,0.0585 -0.15928,0.024 -0.31855,0.0525 -0.47783,0.0859 -0.15927,0.0334 -0.31855,0.0716 -0.47783,0.1149 -0.15927,0.0433 -0.31855,0.0917 -0.47782,0.14542 -0.15928,0.0537 -0.31855,0.11285 -0.47783,0.17756 -0.15928,0.0647 -0.31855,0.13508 -0.47783,0.21132 -0.15927,0.0762 -0.31855,0.15841 -0.47782,0.24673 -0.15928,0.0883 -0.31856,0.18284 -0.47783,0.28381 -0.15928,0.10097 -0.31855,0.20842 -0.47783,0.32261 -0.15927,0.11419 -0.31855,0.23515 -0.47783,0.36313 -0.15927,0.12799 -0.31855,0.26304 -0.47782,0.40542 -0.15928,0.14237 -0.31855,0.29211 -0.47783,0.44948 -0.15928,0.15736 -0.31855,0.32239 -0.47783,0.49535 -0.15927,0.17296 -0.31855,0.3539 -0.47783,0.54307 -0.15927,0.18917 -0.31855,0.38663 -0.47782,0.59265 -0.15928,0.20601 -0.31855,0.42062 -0.47783,0.6441 -0.15928,0.22349 -0.31855,0.45589 -0.47783,0.69749 -0.15927,0.2416 -0.31855,0.49245 -0.47782,0.75281 -0.15928,0.26037 -0.31856,0.53031 -0.47783,0.8101 -0.15928,0.27979 -0.31855,0.5695 -0.47783,0.86938 -0.15927,0.29989 -0.31855,0.61003 -0.47783,0.93069 -0.15927,0.32067 -0.31855,0.65192 -0.47782,0.99404 -0.15928,0.34212 -0.31856,0.69518 -0.47783,1.05946 -0.15928,0.36428 -0.31855,0.73985 -0.47783,1.12699 -0.15927,0.38714 -0.31855,0.78592 -0.47783,1.19664 -0.15927,0.41071 -0.31855,0.83343 -0.47782,1.26844 -0.15928,0.435 -0.31855,0.88238 -0.47783,1.34241 -0.15928,0.46004 -0.31855,0.93281 -0.47783,1.41861 -0.15927,0.48579 -0.31855,0.9847 -0.47782,1.49701 -0.15928,0.51231 -0.31856,1.03811 -0.47783,1.57769 -0.15928,0.53958 -0.31855,1.09303 -0.47783,1.66065 -0.15928,0.56762 -0.31855,1.14949 -0.47783,1.74591 -0.15927,0.59643 -0.31855,1.2075 -0.47782,1.83351 -0.15928,0.62602 -0.31856,1.26708 -0.47783,1.92348 -0.15928,0.65641 -0.31855,1.32825 -0.47783,2.01583 -0.15927,0.68759 -0.31855,1.39102 -0.47783,2.1106"
         title="3*(0.25*pow(x,2)*pow(1-x,2)+0.15*(0.5*pow(x,2)-0.33*pow(x,3)-1/12))"
         id="path1082" />
      <circle
         r="0"
         cy="157.87318"
         cx="73.041214"
         id="path3356"
         style="opacity:1;fill:#ff0000;fill-opacity:1;fill-rule:evenodd;stroke:none;stroke-width:1.35300004;stroke-linejoin:miter;stroke-miterlimit:4;stroke-dasharray:none;stroke-dashoffset:0;stroke-opacity:1" />
      <circle
         r="0"
         cy="130.817"
         cx="132.8165"
         id="path3356-3"
         style="opacity:1;fill:#ff0000;fill-opacity:1;fill-rule:evenodd;stroke:none;stroke-width:1.35300004;stroke-linejoin:miter;stroke-miterlimit:4;stroke-dasharray:none;stroke-dashoffset:0;stroke-opacity:1" />
      <rect
         y="113.19794"
         x="76.024742"
         height="41.187626"
         width="52.981441"
         id="rect4227"
         style="opacity:1;fill:none;fill-opacity:1;fill-rule:evenodd;stroke:none;stroke-width:1.35300004;stroke-linejoin:miter;stroke-miterlimit:4;stroke-dasharray:none;stroke-dashoffset:0;stroke-opacity:1" />
      <text
         id="text1101-1"
         y="125.97073"
         x="124.05729"
         style="font-size:12px;line-height:0%;font-family:'Palatino Linotype';-inkscape-font-specification:'Palatino Linotype';letter-spacing:0px;word-spacing:0px;stroke-width:0.26458332"
         xml:space="preserve"
         sodipodi:linespacing="0%"><tspan
           id="tspan4346"
           style="font-size:7.05555582px;line-height:1.25;stroke-width:0.26458332"
           y="125.97073"
           x="124.05729"
           sodipodi:role="line">t = -∞</tspan></text>
      <text
         id="text4350"
         y="123.90309"
         x="134.26804"
         style="font-style:normal;font-variant:normal;font-weight:normal;font-stretch:normal;font-size:6.3499999px;font-family:'Palatino Linotype';-inkscape-font-specification:'Palatino Linotype';text-align:center;text-anchor:middle;opacity:1;fill:none;fill-opacity:1;fill-rule:evenodd;stroke:#000000;stroke-width:0.38184667;stroke-linejoin:miter;stroke-miterlimit:4;stroke-dasharray:none;stroke-dashoffset:0;stroke-opacity:1"
         xml:space="preserve"><tspan
           style="stroke-width:0.38184667"
           y="123.90309"
           x="134.26804"
           id="tspan4352"
           sodipodi:role="line" /></text>
      <text
         id="text1101-1-2"
         y="153.44388"
         x="64.97113"
         style="font-size:12px;line-height:0%;font-family:'Palatino Linotype';-inkscape-font-specification:'Palatino Linotype';letter-spacing:0px;word-spacing:0px;stroke-width:0.26458332"
         xml:space="preserve"
         sodipodi:linespacing="0%"><tspan
           id="tspan4346-5"
           style="font-size:7.0555563px;line-height:1.25;stroke-width:0.26458332"
           y="153.44388"
           x="64.97113"
           sodipodi:role="line">t = +∞</tspan></text>
    </g>
  </g>
</svg>
