<?xml version="1.0" encoding="UTF-8" standalone="no"?>
<!-- Created with Inkscape (http://www.inkscape.org/) -->

<svg
   xmlns:dc="http://purl.org/dc/elements/1.1/"
   xmlns:cc="http://creativecommons.org/ns#"
   xmlns:rdf="http://www.w3.org/1999/02/22-rdf-syntax-ns#"
   xmlns:svg="http://www.w3.org/2000/svg"
   xmlns="http://www.w3.org/2000/svg"
   xmlns:sodipodi="http://sodipodi.sourceforge.net/DTD/sodipodi-0.dtd"
   xmlns:inkscape="http://www.inkscape.org/namespaces/inkscape"
   width="210mm"
   height="297mm"
   viewBox="0 0 210 297"
   version="1.1"
   id="svg5"
   inkscape:version="0.92.5 (2060ec1f9f, 2020-04-08)"
   sodipodi:docname="Figure_Turingdet.svg">
  <sodipodi:namedview
     id="namedview7"
     pagecolor="#ffffff"
     bordercolor="#666666"
     borderopacity="1.0"
     inkscape:pageshadow="2"
     inkscape:pageopacity="0.0"
     inkscape:pagecheckerboard="0"
     inkscape:document-units="mm"
     showgrid="false"
     inkscape:zoom="2.1997092"
     inkscape:cx="414.86328"
     inkscape:cy="584.61178"
     inkscape:window-width="2523"
     inkscape:window-height="1800"
     inkscape:window-x="-4"
     inkscape:window-y="1"
     inkscape:window-maximized="0"
     inkscape:current-layer="layer1"
     showguides="false" />
  <metadata
     id="metadata34">
    <rdf:RDF>
      <cc:Work
         rdf:about="">
        <dc:format>image/svg+xml</dc:format>
        <dc:type
           rdf:resource="http://purl.org/dc/dcmitype/StillImage" />
        <dc:title />
      </cc:Work>
    </rdf:RDF>
  </metadata>
  <defs
     id="defs2">
    <marker
       style="overflow:visible;"
       id="Arrow2Lend"
       refX="0.0"
       refY="0.0"
       orient="auto"
       inkscape:stockid="Arrow2Lend"
       inkscape:isstock="true">
      <path
         transform="scale(1.1) rotate(180) translate(1,0)"
         d="M 8.7185878,4.0337352 L -2.2072895,0.016013256 L 8.7185884,-4.0017078 C 6.9730900,-1.6296469 6.9831476,1.6157441 8.7185878,4.0337352 z "
         style="fill-rule:evenodd;fill:#000000;stroke-width:0.625;stroke-linejoin:round;stroke:#000000;stroke-opacity:1;fill-opacity:1"
         id="path962" />
    </marker>
    <marker
       style="overflow:visible;"
       id="Arrow1Mend"
       refX="0.0"
       refY="0.0"
       orient="auto"
       inkscape:stockid="Arrow1Mend"
       inkscape:isstock="true">
      <path
         transform="scale(0.4) rotate(180) translate(10,0)"
         style="fill-rule:evenodd;fill:context-stroke;stroke:context-stroke;stroke-width:1.0pt;"
         d="M 0.0,0.0 L 5.0,-5.0 L -12.5,0.0 L 5.0,5.0 L 0.0,0.0 z "
         id="path950" />
    </marker>
    <marker
       style="overflow:visible;"
       id="Arrow1Lend"
       refX="0.0"
       refY="0.0"
       orient="auto"
       inkscape:stockid="Arrow1Lend"
       inkscape:isstock="true">
      <path
         transform="scale(0.8) rotate(180) translate(12.5,0)"
         style="fill-rule:evenodd;fill:#007a00;stroke:#007a00;stroke-width:1pt;stroke-opacity:1;fill-opacity:1"
         d="M 0.0,0.0 L 5.0,-5.0 L -12.5,0.0 L 5.0,5.0 L 0.0,0.0 z "
         id="path944" />
    </marker>
    <marker
       style="overflow:visible"
       id="Arrow2Lend-9"
       refX="0"
       refY="0"
       orient="auto"
       inkscape:stockid="Arrow2Lend"
       inkscape:isstock="true">
      <path
         transform="matrix(-1.1,0,0,-1.1,-1.1,0)"
         d="M 8.7185878,4.0337352 -2.2072895,0.01601326 8.7185884,-4.0017078 c -1.7454984,2.3720609 -1.7354408,5.6174519 -6e-7,8.035443 z"
         style="fill:#000000;fill-rule:evenodd;stroke-width:0.625;stroke-linejoin:round;stroke:#000000;stroke-opacity:1;fill-opacity:1"
         id="path962-4" />
    </marker>
  </defs>
  <g
     inkscape:label="Layer 1"
     inkscape:groupmode="layer"
     id="layer1">
    <path
       style="fill:none;stroke:#000000;stroke-width:0.57678187;stroke-linecap:butt;stroke-linejoin:miter;stroke-miterlimit:4;stroke-dasharray:none;stroke-opacity:1;marker-end:url(#Arrow2Lend)"
       d="m 73.12895,197.9314 c 0,-99.046458 0,-99.046458 0,-99.046458"
       id="path42"
       inkscape:connector-curvature="0" />
    <path
       style="fill:none;stroke:#000000;stroke-width:0.54000002;stroke-linecap:butt;stroke-linejoin:miter;stroke-miterlimit:4;stroke-dasharray:none;stroke-opacity:1;marker-end:url(#Arrow2Lend-9)"
       d="m 66.779773,171.93438 c 123.213117,0 123.213117,0 123.213117,0"
       id="path42-2"
       inkscape:connector-curvature="0" />
    <text
       xml:space="preserve"
       style="line-height:0%;font-family:'Palatino Linotype';-inkscape-font-specification:'Palatino Linotype';letter-spacing:0px;word-spacing:0px;stroke-width:0.26458299"
       x="64.217529"
       y="95.30378"
       id="text5468"><tspan
         sodipodi:role="line"
         style="font-size:7.76111126px;line-height:1.25;stroke-width:0.26458299"
         x="64.217529"
         y="95.30378"
         id="tspan1095">Det(k)</tspan></text>
    <text
       xml:space="preserve"
       style="line-height:0%;font-family:'Palatino Linotype';-inkscape-font-specification:'Palatino Linotype';letter-spacing:0px;word-spacing:0px;stroke-width:0.26458299"
       x="193.58942"
       y="177.05412"
       id="text11562"><tspan
         sodipodi:role="line"
         id="tspan11560"
         style="font-size:7.76111126px;line-height:1.25;stroke-width:0.26458299"
         x="193.58942"
         y="177.05412">k<tspan
   style="font-size:64.99999762%;baseline-shift:super"
   id="tspan918" /></tspan></text>
    <path
       style="fill:none;fill-rule:evenodd;stroke:#007a00;stroke-width:0.40000001;stroke-linecap:butt;stroke-linejoin:miter;stroke-miterlimit:4;stroke-dasharray:none;stroke-opacity:1;marker-end:url(#Arrow1Lend)"
       d="m 152.02267,126.17529 31.98593,74.03847"
       id="path4264"
       inkscape:connector-curvature="0"
       sodipodi:nodetypes="cc" />
    <text
       xml:space="preserve"
       style="font-size:12px;line-height:0%;font-family:'Palatino Linotype';-inkscape-font-specification:'Palatino Linotype';letter-spacing:0px;word-spacing:0px;stroke-width:0.26458299"
       x="149.17084"
       y="181.18773"
       id="text11562-1"><tspan
         sodipodi:role="line"
         id="tspan11560-6"
         style="font-size:7.76111126px;line-height:1.25;stroke-width:0.26458299"
         x="149.17084"
         y="181.18773">k*</tspan></text>
    <path
       style="fill:none;stroke:#000000;stroke-width:0.40000001;stroke-linecap:butt;stroke-linejoin:miter;stroke-miterlimit:4;stroke-dasharray:none;stroke-opacity:1"
       d="m 151.96235,169.86326 c 0,3.96927 0,4.08955 0,4.08955"
       id="path1969"
       inkscape:connector-curvature="0" />
    <path
       id="path1842"
       title="0.5-1.3*pow(x,2)+pow(x,4)"
       d="m 72.770033,106.86572 c 0.182134,1e-5 0.364268,0.002 0.546402,0.005 0.182134,0.004 0.364268,0.009 0.546402,0.0162 0.182134,0.007 0.364269,0.0162 0.546403,0.0269 0.182134,0.0108 0.364268,0.0233 0.546402,0.0377 0.182134,0.0143 0.364268,0.0305 0.546402,0.0484 0.182134,0.0179 0.364269,0.0377 0.546403,0.0592 0.182134,0.0215 0.364268,0.0448 0.546402,0.0699 0.182134,0.0251 0.364268,0.0519 0.546402,0.0806 0.182135,0.0286 0.364269,0.059 0.546403,0.0912 0.182134,0.0322 0.364268,0.0661 0.546402,0.10184 0.182134,0.0357 0.364268,0.0732 0.546403,0.11244 0.182134,0.0392 0.364268,0.0802 0.546402,0.12299 0.182134,0.0427 0.364268,0.0873 0.546402,0.1335 0.182134,0.0463 0.364268,0.0943 0.546403,0.14398 0.182134,0.0497 0.364268,0.1012 0.546402,0.15439 0.182134,0.0532 0.364268,0.10812 0.546402,0.16476 0.182134,0.0566 0.364269,0.11501 0.546403,0.17508 0.182134,0.0601 0.364268,0.12184 0.546402,0.18532 0.182134,0.0635 0.364268,0.12865 0.546402,0.19551 0.182135,0.0669 0.364269,0.13542 0.546403,0.20564 0.182134,0.0702 0.364268,0.14212 0.546402,0.21568 0.182134,0.0736 0.364268,0.14879 0.546403,0.22567 0.182134,0.0769 0.364268,0.1554 0.546402,0.23556 0.182134,0.0802 0.364268,0.16196 0.546402,0.24538 0.182134,0.0834 0.364268,0.16846 0.546403,0.25511 0.182134,0.0867 0.364268,0.17491 0.546402,0.26476 0.182134,0.0898 0.364268,0.18129 0.546402,0.27431 0.182134,0.093 0.364269,0.18761 0.546403,0.28376 0.182134,0.0961 0.364268,0.19387 0.546402,0.29312 0.182134,0.0993 0.364268,0.20006 0.546402,0.30238 0.182135,0.10232 0.364269,0.20617 0.546403,0.31152 0.182134,0.10535 0.364268,0.21222 0.546402,0.32056 0.182134,0.10835 0.364268,0.21818 0.546402,0.32948 0.182135,0.1113 0.364269,0.22407 0.546403,0.33829 0.182134,0.11421 0.364268,0.22988 0.546402,0.34697 0.182134,0.11709 0.364268,0.23561 0.546403,0.35553 0.182134,0.11992 0.364268,0.24125 0.546402,0.36396 0.182134,0.12271 0.364268,0.24681 0.546402,0.37226 0.182134,0.12545 0.364269,0.25227 0.546403,0.38042 0.182134,0.12816 0.364268,0.25765 0.546402,0.38845 0.182134,0.1308 0.364268,0.26292 0.546402,0.39633 0.182135,0.13341 0.364269,0.2681 0.546403,0.40406 0.182134,0.13596 0.364268,0.27319 0.546402,0.41165 0.182134,0.13846 0.364268,0.27817 0.546402,0.41908 0.182135,0.14091 0.364269,0.28304 0.546403,0.42635 0.182134,0.14331 0.364268,0.28781 0.546402,0.43347 0.182134,0.14565 0.364268,0.29247 0.546403,0.44041 0.182134,0.14794 0.364268,0.29702 0.546402,0.44719 0.182134,0.15018 0.364268,0.30145 0.546402,0.4538 0.182134,0.15235 0.364269,0.30577 0.546402,0.46024 0.18213,0.15446 0.36427,0.30997 0.5464,0.46648 0.18214,0.15652 0.36427,0.31405 0.54641,0.47256 0.18213,0.15851 0.36426,0.318 0.5464,0.47844 0.18213,0.16044 0.36427,0.32183 0.5464,0.48414 0.18213,0.16231 0.36427,0.32553 0.5464,0.48964 0.18214,0.16411 0.36427,0.3291 0.5464,0.49494 0.18214,0.16585 0.36427,0.33254 0.54641,0.50005 0.18213,0.16751 0.36427,0.33584 0.5464,0.50495 0.18213,0.16911 0.36427,0.339 0.5464,0.50963 0.18214,0.17064 0.36427,0.34203 0.5464,0.51412 0.18214,0.1721 0.36427,0.3449 0.54641,0.51838 0.18213,0.17348 0.36426,0.34764 0.5464,0.52243 0.18213,0.17479 0.36427,0.35022 0.5464,0.52625 0.18214,0.17603 0.36427,0.35266 0.5464,0.52985 0.18214,0.17719 0.36427,0.35494 0.54641,0.53322 0.18213,0.17827 0.36426,0.35707 0.5464,0.53635 0.18213,0.17928 0.36427,0.35904 0.5464,0.53925 0.18213,0.1802 0.36427,0.36085 0.5464,0.5419 0.18214,0.18105 0.36427,0.3625 0.54641,0.54432 0.18213,0.18181 0.36426,0.36399 0.5464,0.54648 0.18213,0.18249 0.36427,0.36531 0.5464,0.5484 0.18213,0.18309 0.36427,0.36645 0.5464,0.55005 0.18214,0.1836 0.36427,0.36743 0.5464,0.55146 0.18214,0.18402 0.36427,0.36823 0.54641,0.55259 0.18213,0.18436 0.36427,0.36886 0.5464,0.55347 0.18213,0.1846 0.36427,0.3693 0.5464,0.55406 0.18214,0.18476 0.36427,0.36958 0.5464,0.5544 0.18214,0.18483 0.36427,0.36966 0.54641,0.55445 0.18213,0.1848 0.36427,0.36955 0.5464,0.55423 0.18213,0.18467 0.36427,0.36926 0.5464,0.55371 0.18214,0.18445 0.36427,0.36877 0.5464,0.55291 0.18214,0.18414 0.36427,0.3681 0.54641,0.55183 0.18213,0.18372 0.36426,0.36722 0.5464,0.55044 0.18213,0.18321 0.36427,0.36615 0.5464,0.54875 0.18214,0.18261 0.36427,0.36488 0.5464,0.54677 0.18214,0.1819 0.36427,0.36341 0.54641,0.54449 0.18213,0.18107 0.36426,0.36172 0.5464,0.54188 0.18213,0.18016 0.36427,0.35983 0.5464,0.53897 0.18213,0.17913 0.36427,0.35773 0.5464,0.53574 0.18214,0.178 0.36427,0.35542 0.54641,0.53219 0.18213,0.17677 0.36426,0.35289 0.5464,0.52831 0.18213,0.17543 0.36427,0.35015 0.5464,0.52412 0.18213,0.17397 0.36427,0.34718 0.5464,0.51959 0.18214,0.1724 0.36427,0.34399 0.5464,0.51472 0.18214,0.17072 0.36427,0.34058 0.54641,0.50952 0.18213,0.16893 0.36427,0.33694 0.5464,0.50397 0.18213,0.16703 0.36427,0.33307 0.5464,0.49808 0.18214,0.16501 0.36427,0.32897 0.5464,0.49184 0.18214,0.16287 0.36427,0.32464 0.54641,0.48525 0.18213,0.16061 0.36426,0.32006 0.5464,0.4783 0.18213,0.15823 0.36427,0.31525 0.5464,0.47099 0.18214,0.15574 0.36427,0.3102 0.5464,0.46332 0.18214,0.15312 0.36427,0.3049 0.54641,0.45528 0.18213,0.15038 0.36426,0.29935 0.5464,0.44687 0.18213,0.14751 0.36427,0.29356 0.5464,0.43808 0.18213,0.14453 0.36427,0.28752 0.5464,0.42893 0.18214,0.14141 0.36427,0.28122 0.54641,0.41938 0.18213,0.13816 0.36426,0.27466 0.5464,0.40945 0.18213,0.13479 0.36427,0.26785 0.5464,0.39913 0.18213,0.13129 0.36427,0.26078 0.5464,0.38843 0.18214,0.12765 0.36427,0.25344 0.5464,0.37732 0.18214,0.12388 0.36427,0.24583 0.54641,0.36581 0.18213,0.11998 0.36427,0.23796 0.5464,0.3539 0.18213,0.11594 0.36427,0.22982 0.5464,0.34159 0.18214,0.11177 0.36427,0.22141 0.5464,0.32886 0.18214,0.10746 0.36427,0.21272 0.54641,0.31572 0.18213,0.10301 0.36426,0.20375 0.5464,0.30217 0.18213,0.0984 0.36427,0.19449 0.5464,0.28818 0.18214,0.0937 0.36427,0.18496 0.5464,0.27378 0.18214,0.0888 0.36427,0.17515 0.54641,0.25894 0.18213,0.0838 0.36426,0.16505 0.5464,0.24369 0.18213,0.0786 0.36427,0.15465 0.5464,0.22798 0.18213,0.0733 0.36427,0.14396 0.5464,0.21184 0.18214,0.0679 0.36427,0.13298 0.54641,0.19525 0.18213,0.0623 0.36426,0.12171 0.5464,0.17823 0.18213,0.0565 0.36427,0.11013 0.5464,0.16075 0.18213,0.0506 0.36427,0.0982 0.5464,0.14281 0.18214,0.0446 0.36427,0.0861 0.5464,0.12442 0.18214,0.0384 0.36427,0.0736 0.54641,0.10557 0.18213,0.032 0.36427,0.0608 0.5464,0.0863 0.18213,0.0255 0.36427,0.0477 0.5464,0.0665 0.18214,0.0188 0.36427,0.0342 0.5464,0.0462 0.18214,0.012 0.36427,0.0205 0.54641,0.0255 0.18213,0.005 0.36426,0.006 0.5464,0.004 0.18213,-0.002 0.36427,-0.008 0.5464,-0.0174 0.18214,-0.009 0.36427,-0.0227 0.5464,-0.0396 0.18214,-0.017 0.36427,-0.0377 0.54641,-0.0623 0.18213,-0.0246 0.36426,-0.0531 0.5464,-0.0855 0.18213,-0.0324 0.36427,-0.0687 0.5464,-0.10912 0.18213,-0.0404 0.36427,-0.0848 0.5464,-0.13328 0.18214,-0.0485 0.36427,-0.10113 0.54641,-0.15794 0.18213,-0.0568 0.36426,-0.11784 0.5464,-0.18313 0.18213,-0.0653 0.36427,-0.13487 0.5464,-0.20881 0.18213,-0.0739 0.36427,-0.15226 0.5464,-0.23502 0.18214,-0.0828 0.36427,-0.16999 0.54641,-0.26174 0.18213,-0.0917 0.36426,-0.18806 0.5464,-0.28898 0.18213,-0.10093 0.36427,-0.20649 0.5464,-0.31676 0.18213,-0.11027 0.36427,-0.22527 0.5464,-0.34506 0.18214,-0.11979 0.36427,-0.2444 0.5464,-0.37389 0.18214,-0.12949 0.36427,-0.26389 0.54641,-0.40326 0.18213,-0.13937 0.36427,-0.28374 0.5464,-0.43317 0.18213,-0.14944 0.36427,-0.30396 0.5464,-0.46364 0.18214,-0.15967 0.36427,-0.32453 0.5464,-0.49463 0.18214,-0.1701 0.36427,-0.34548 0.54641,-0.5262 0.18213,-0.18071 0.36426,-0.36679 0.5464,-0.5583 0.18213,-0.19151 0.36427,-0.38848 0.5464,-0.59097 0.18214,-0.2025 0.36427,-0.41054 0.5464,-0.62421 0.18214,-0.21366 0.36427,-0.43298 0.54641,-0.658 0.18213,-0.22503 0.36426,-0.4558 0.5464,-0.69238 0.18213,-0.23657 0.36427,-0.47899 0.5464,-0.72731 0.18213,-0.24832 0.36427,-0.50257 0.5464,-0.76283 0.18214,-0.26026 0.36427,-0.52655 0.54641,-0.79893 0.18213,-0.27239 0.36426,-0.5509 0.5464,-0.83561 0.18213,-0.28471 0.36427,-0.57565 0.5464,-0.87289 0.18213,-0.29723 0.36427,-0.60079 0.5464,-0.91074 0.18214,-0.30995 0.36427,-0.62633 0.5464,-0.9492 0.18214,-0.32287 0.36427,-0.65227 0.54641,-0.98826 0.18213,-0.33599 0.36427,-0.6786 0.5464,-1.02791 0.18213,-0.34931 0.36427,-0.70535 0.5464,-1.06818 0.18214,-0.36283 0.36427,-0.73249 0.5464,-1.10905 0.18214,-0.37655 0.36427,-0.76004 0.54641,-1.15053 0.18213,-0.39049 0.36426,-0.78801 0.5464,-1.19264 0.18213,-0.40462 0.36427,-0.81639 0.5464,-1.23536 0.18214,-0.41896 0.36427,-0.84518 0.5464,-1.2787 0.18214,-0.43352 0.36427,-0.87439 0.54641,-1.32268 0.18213,-0.44828 0.36426,-0.90402 0.5464,-1.36728 0.18213,-0.46326 0.36427,-0.93408 0.5464,-1.41253 0.18213,-0.47844 0.36427,-0.96455 0.5464,-1.4584 0.18214,-0.49384 0.36427,-0.99546 0.54641,-1.50492 0.18213,-0.50945 0.36426,-1.0268 0.5464,-1.55208 0.18213,-0.52529 0.36427,-1.05857 0.5464,-1.5999 0.18213,-0.54134 0.36427,-1.09077 0.5464,-1.64837 0.18214,-0.5576 0.36427,-1.12341 0.5464,-1.69749 0.18214,-0.57408 0.36427,-1.15649 0.54641,-1.74728 0.18213,-0.59078 0.36427,-1.19 0.5464,-1.79772 0.18213,-0.60771 0.36427,-1.22397 0.5464,-1.84883 0.18214,-0.62487 0.36427,-1.25839 0.5464,-1.90063 0.18214,-0.64223 0.36427,-1.29324 0.54641,-1.95308 0.18213,-0.65984 0.36426,-1.32856 0.5464,-2.00622 0.18213,-0.67766 0.36427,-1.36432 0.5464,-2.06004 0.18214,-0.69572 0.36427,-1.40055 0.5464,-2.11455 0.18214,-0.714 0.36427,-1.43722 0.54641,-2.16974 0.18213,-0.732508 0.36426,-1.474364 0.5464,-2.225622 0.18213,-0.751257 0.36427,-1.511974 0.5464,-2.282209 0.18213,-0.770235 0.36427,-1.550046 0.5464,-2.339492 0.18214,-0.789446 0.36427,-1.588586 0.54641,-2.397478 0.18213,-0.808893 0.36426,-1.627597 0.5464,-2.456172 0.18213,-0.828575 0.36427,-1.66708 0.5464,-2.515575 0.18213,-0.848495 0.36427,-1.70704 0.5464,-2.575694"
       style="fill:none;fill-opacity:1;stroke:#0000ff;stroke-width:0.40000001;stroke-miterlimit:4;stroke-dasharray:none;stroke-dashoffset:0;stroke-opacity:1"
       inkscape:connector-curvature="0" />
    <path
       id="path1872"
       title="0.5-1.5*pow(x,2)+pow(x,4)"
       d="m 72.770033,106.86572 c 0.183343,0 0.366686,0.002 0.550029,0.006 0.183343,0.004 0.366686,0.0105 0.550029,0.0188 0.183343,0.008 0.366686,0.0188 0.550029,0.0314 0.183343,0.0125 0.366686,0.0272 0.550029,0.0439 0.183343,0.0167 0.366686,0.0355 0.550028,0.0564 0.183343,0.0209 0.366686,0.0439 0.550029,0.0689 0.183343,0.0251 0.366686,0.0522 0.550029,0.0814 0.183343,0.0292 0.366686,0.0605 0.550029,0.0939 0.183343,0.0333 0.366686,0.0688 0.550029,0.10627 0.183343,0.0375 0.366686,0.0771 0.550029,0.11868 0.183343,0.0416 0.366686,0.0853 0.550029,0.13104 0.183343,0.0457 0.366686,0.0935 0.550029,0.14336 0.183343,0.0498 0.366686,0.10173 0.550029,0.15565 0.183343,0.0539 0.366686,0.1099 0.550029,0.16789 0.183342,0.058 0.366685,0.11803 0.550028,0.18008 0.183343,0.062 0.366686,0.12613 0.550029,0.19221 0.183343,0.0661 0.366686,0.13419 0.550029,0.2043 0.183343,0.0701 0.366686,0.14221 0.550029,0.21631 0.183343,0.0741 0.366686,0.15019 0.550029,0.22827 0.183343,0.0781 0.366686,0.15813 0.550029,0.24015 0.183343,0.082 0.366686,0.16603 0.550029,0.25198 0.183343,0.0859 0.366686,0.17386 0.550029,0.26371 0.183343,0.0898 0.366686,0.18166 0.550029,0.27538 0.183343,0.0937 0.366686,0.18939 0.550028,0.28696 0.183343,0.0976 0.366686,0.19707 0.550029,0.29846 0.183343,0.10139 0.366686,0.20468 0.550029,0.30986 0.183343,0.10518 0.366686,0.21224 0.550029,0.32118 0.183343,0.10893 0.366686,0.21973 0.550029,0.33239 0.183343,0.11265 0.366686,0.22716 0.550029,0.34351 0.183343,0.11634 0.366686,0.23452 0.550029,0.35452 0.183343,0.11999 0.366686,0.24181 0.550029,0.36542 0.183343,0.12361 0.366686,0.24903 0.550029,0.37622 0.183343,0.12719 0.366686,0.25616 0.550029,0.38689 0.183342,0.13073 0.366685,0.26323 0.550028,0.39746 0.183343,0.13423 0.366686,0.2702 0.550029,0.40789 0.183343,0.13769 0.366686,0.2771 0.550029,0.4182 0.183343,0.14111 0.366686,0.28391 0.550029,0.42839 0.183343,0.14448 0.366686,0.29063 0.550029,0.43843 0.183343,0.14781 0.366686,0.29727 0.550029,0.44835 0.183343,0.15108 0.366686,0.3038 0.550029,0.45811 0.183343,0.15432 0.366686,0.31025 0.550029,0.46775 0.183343,0.1575 0.366686,0.31658 0.550029,0.47722 0.183343,0.16064 0.366685,0.32283 0.550028,0.48655 0.183343,0.16372 0.366686,0.32897 0.550029,0.49572 0.183343,0.16675 0.366686,0.33501 0.550029,0.50474 0.183343,0.16973 0.366686,0.34093 0.550029,0.51359 0.183343,0.17265 0.366686,0.34675 0.550029,0.52227 0.183343,0.17552 0.366686,0.35246 0.550029,0.53079 0.183343,0.17832 0.366686,0.35805 0.550029,0.53913 0.183343,0.18108 0.366681,0.36352 0.550031,0.54729 0.18334,0.18377 0.36668,0.36888 0.55003,0.55528 0.18334,0.1864 0.36668,0.37411 0.55003,0.56308 0.18334,0.18897 0.36668,0.37921 0.55002,0.57069 0.18335,0.19148 0.36669,0.3842 0.55003,0.57811 0.18335,0.19392 0.36669,0.38905 0.55003,0.58534 0.18335,0.19629 0.36669,0.39376 0.55003,0.59236 0.18334,0.19861 0.36669,0.39835 0.55003,0.59919 0.18334,0.20084 0.36669,0.40279 0.55003,0.60581 0.18334,0.20301 0.36668,0.40709 0.55003,0.61221 0.18334,0.20511 0.36668,0.41126 0.55003,0.6184 0.18334,0.20715 0.36668,0.41529 0.55003,0.62439 0.18334,0.2091 0.36668,0.41916 0.55002,0.63014 0.18335,0.21098 0.36669,0.42288 0.55003,0.63567 0.18335,0.21278 0.36669,0.42646 0.55003,0.64097 0.18335,0.21452 0.36669,0.42988 0.55003,0.64605 0.18334,0.21616 0.36669,0.43314 0.55003,0.65088 0.18334,0.21774 0.36669,0.43625 0.55003,0.65548 0.18334,0.21923 0.36668,0.43919 0.55003,0.65983 0.18334,0.22064 0.36668,0.44197 0.55003,0.66394 0.18334,0.22197 0.36668,0.44459 0.55003,0.6678 0.18334,0.22322 0.36668,0.44704 0.55002,0.67141 0.18335,0.22437 0.36669,0.4493 0.55003,0.67475 0.18335,0.22545 0.36669,0.45141 0.55003,0.67784 0.18335,0.22643 0.36669,0.45333 0.55003,0.68066 0.18334,0.22732 0.36669,0.45508 0.55003,0.68321 0.18334,0.22813 0.36669,0.45664 0.55003,0.68549 0.18334,0.22885 0.36668,0.45803 0.55003,0.6875 0.18334,0.22947 0.36668,0.45923 0.55003,0.68923 0.18334,0.22999 0.36668,0.46023 0.55003,0.69067 0.18334,0.23043 0.36668,0.46105 0.55002,0.69182 0.18335,0.23077 0.36669,0.46168 0.55003,0.69269 0.18335,0.23101 0.36669,0.46212 0.55003,0.69327 0.18335,0.23115 0.36669,0.46235 0.55003,0.69354 0.18334,0.2312 0.36669,0.46238 0.55003,0.69352 0.18334,0.23113 0.36669,0.46221 0.55003,0.69318 0.18334,0.23098 0.36668,0.46184 0.55003,0.69255 0.18334,0.23071 0.36668,0.46126 0.55003,0.6916 0.18334,0.23034 0.36668,0.46046 0.55003,0.69033 0.18334,0.22986 0.36668,0.45946 0.55002,0.68874 0.18335,0.22928 0.36669,0.45825 0.55003,0.68684 0.18335,0.22859 0.36669,0.4568 0.55003,0.6846 0.18335,0.22779 0.36669,0.45515 0.55003,0.68203 0.18334,0.22688 0.36669,0.45327 0.55003,0.67913 0.18334,0.22586 0.36669,0.45118 0.55003,0.6759 0.18334,0.22472 0.36669,0.44884 0.55003,0.67232 0.18334,0.22347 0.36668,0.44628 0.55003,0.66839 0.18334,0.2221 0.36668,0.4435 0.55003,0.66412 0.18334,0.22062 0.36668,0.44047 0.55002,0.6595 0.18335,0.21902 0.36669,0.43721 0.55003,0.65451 0.18335,0.21731 0.36669,0.43372 0.55003,0.64918 0.18335,0.21546 0.36669,0.42997 0.55003,0.64347 0.18334,0.2135 0.36669,0.42599 0.55003,0.6374 0.18334,0.21142 0.36669,0.42176 0.55003,0.63097 0.18334,0.2092 0.36669,0.41727 0.55003,0.62415 0.18334,0.20687 0.36668,0.41254 0.55003,0.61695 0.18334,0.20441 0.36668,0.40756 0.55003,0.60938 0.18334,0.20183 0.36668,0.40232 0.55002,0.60143 0.18335,0.1991 0.36669,0.39681 0.55003,0.59307 0.18335,0.19626 0.36669,0.39106 0.55003,0.58434 0.18335,0.19328 0.36669,0.38503 0.55003,0.5752 0.18334,0.19017 0.36669,0.37874 0.55003,0.56566 0.18334,0.18693 0.36669,0.37219 0.55003,0.55573 0.18334,0.18354 0.36669,0.36535 0.55003,0.54538 0.18334,0.18002 0.36668,0.35825 0.55003,0.53462 0.18334,0.17637 0.36668,0.35087 0.55003,0.52345 0.18334,0.17258 0.36668,0.34322 0.55002,0.51187 0.18335,0.16864 0.36669,0.33528 0.55003,0.49985 0.18335,0.16457 0.36669,0.32706 0.55003,0.48742 0.18335,0.16035 0.36669,0.31856 0.55003,0.47455 0.18334,0.15599 0.36669,0.30977 0.55003,0.46126 0.18334,0.15149 0.36669,0.30068 0.55003,0.44752 0.18334,0.14684 0.36669,0.29131 0.55003,0.43335 0.18334,0.14204 0.36668,0.28164 0.55003,0.41873 0.18334,0.1371 0.36668,0.27167 0.55003,0.40367 0.18334,0.132 0.36668,0.26141 0.55002,0.38816 0.18335,0.12675 0.36669,0.25083 0.55003,0.37219 0.18335,0.12135 0.36669,0.23996 0.55003,0.35576 0.18335,0.1158 0.36669,0.22878 0.55003,0.33887 0.18334,0.11009 0.36669,0.21729 0.55003,0.32152 0.18334,0.10423 0.36669,0.20548 0.55003,0.30369 0.18334,0.0982 0.36669,0.19337 0.55003,0.2854 0.18334,0.092 0.36668,0.18093 0.55003,0.26663 0.18334,0.0857 0.36668,0.16818 0.55003,0.24737 0.18334,0.0792 0.36668,0.1551 0.55002,0.22764 0.18335,0.0725 0.36669,0.1417 0.55003,0.20742 0.18335,0.0657 0.36669,0.12797 0.55003,0.18671 0.18335,0.0587 0.36669,0.11391 0.55003,0.16549 0.18334,0.0516 0.36669,0.0995 0.55003,0.14379 0.18334,0.0443 0.36669,0.0848 0.55003,0.12158 0.18334,0.0368 0.36669,0.0697 0.55003,0.0989 0.18334,0.0291 0.36668,0.0543 0.55003,0.0756 0.18334,0.0213 0.36668,0.0386 0.55003,0.0519 0.18334,0.0133 0.36668,0.0225 0.55002,0.0276 0.18335,0.005 0.36669,0.006 0.55003,0.003 0.18335,-0.003 0.36669,-0.0107 0.55003,-0.0224 0.18335,-0.0117 0.36669,-0.0278 0.55003,-0.0482 0.18334,-0.0204 0.36669,-0.0453 0.55003,-0.0746 0.18334,-0.0293 0.36669,-0.0631 0.55003,-0.10148 0.18334,-0.0384 0.36669,-0.0813 0.55003,-0.12891 0.18334,-0.0476 0.36668,-0.0999 0.55003,-0.15688 0.18334,-0.057 0.36668,-0.11879 0.55003,-0.1854 0.18334,-0.0666 0.36668,-0.13807 0.55002,-0.21446 0.18335,-0.0764 0.36669,-0.15772 0.55003,-0.24407 0.18335,-0.0864 0.36669,-0.17775 0.55003,-0.27426 0.18335,-0.0965 0.36669,-0.19814 0.55003,-0.30498 0.18334,-0.10685 0.36669,-0.21892 0.55003,-0.33629 0.18334,-0.11737 0.36669,-0.24007 0.55003,-0.36815 0.18334,-0.12809 0.36669,-0.2616 0.55003,-0.40059 0.18334,-0.139 0.36668,-0.28351 0.55003,-0.43361 0.18334,-0.15009 0.36668,-0.3058 0.55003,-0.46719 0.18334,-0.16139 0.36668,-0.32849 0.55003,-0.50137 0.18334,-0.17287 0.36668,-0.35156 0.55002,-0.53612 0.18335,-0.18456 0.36669,-0.37503 0.55003,-0.57147 0.18335,-0.19645 0.36669,-0.3989 0.55003,-0.60742 0.18334,-0.20852 0.36669,-0.42315 0.55003,-0.64395 0.18334,-0.22081 0.36669,-0.44781 0.55003,-0.6811 0.18334,-0.23328 0.36669,-0.47287 0.55003,-0.71883 0.18334,-0.24596 0.36668,-0.49834 0.55003,-0.75719 0.18334,-0.25885 0.36668,-0.52421 0.55003,-0.79614 0.18334,-0.27194 0.36668,-0.5505 0.55003,-0.83573 0.18334,-0.28523 0.36668,-0.57718 0.55002,-0.87592 0.18335,-0.29873 0.36669,-0.60429 0.55003,-0.91674 0.18335,-0.31244 0.36669,-0.63181 0.55003,-0.95818 0.18334,-0.32636 0.36669,-0.65976 0.55003,-1.00025 0.18334,-0.3405 0.36669,-0.68813 0.55003,-1.04297 0.18334,-0.35483 0.36669,-0.71691 0.55003,-1.0863 0.18334,-0.36939 0.36668,-0.74613 0.55003,-1.13029 0.18334,-0.38416 0.36668,-0.77578 0.55003,-1.17492 0.18334,-0.39914 0.36668,-0.80585 0.55003,-1.2202 0.18334,-0.41434 0.36668,-0.83636 0.55002,-1.26612 0.18335,-0.42976 0.36669,-0.86731 0.55003,-1.31271 0.18335,-0.44539 0.36669,-0.89869 0.55003,-1.35994 0.18334,-0.46126 0.36669,-0.93052 0.55003,-1.40786 0.18334,-0.47733 0.36669,-0.96278 0.55003,-1.45642 0.18334,-0.49363 0.36669,-0.9955 0.55003,-1.50566 0.18334,-0.51016 0.36668,-1.02867 0.55003,-1.55558 0.18334,-0.52691 0.36668,-1.06228 0.55003,-1.60617 0.18334,-0.54388 0.36668,-1.09634 0.55003,-1.65744 0.18334,-0.56109 0.36668,-1.13087 0.55002,-1.70939 0.18335,-0.57853 0.36669,-1.16585 0.55003,-1.76204 0.18335,-0.59619 0.36669,-1.20129 0.55003,-1.81537 0.18334,-0.61409 0.36669,-1.2372 0.55003,-1.86941 0.18334,-0.63221 0.36669,-1.27357 0.55003,-1.92414 0.18334,-0.65056 0.36669,-1.3104 0.55003,-1.97956 0.18334,-0.66917 0.36668,-1.34771 0.55003,-2.03571 0.18334,-0.68799 0.36668,-1.38549 0.55003,-2.09256 0.18334,-0.70706 0.36668,-1.42374 0.55003,-2.15011 0.18334,-0.72637 0.36668,-1.46248 0.55002,-2.2084 0.18335,-0.74592 0.36669,-1.50169 0.55003,-2.2674"
       style="fill:none;fill-opacity:1;stroke:#0000ff;stroke-width:0.40000001;stroke-miterlimit:4;stroke-dasharray:none;stroke-dashoffset:0;stroke-opacity:1"
       inkscape:connector-curvature="0" />
    <path
       id="path1951"
       title="0.5-1.7*pow(x,2)+pow(x,4)"
       d="m 72.770033,106.86572 c 0.186365,0 0.37273,0.002 0.559095,0.007 0.186365,0.005 0.372731,0.0119 0.559096,0.0214 0.186365,0.01 0.37273,0.0214 0.559095,0.0357 0.186365,0.0143 0.37273,0.0309 0.559095,0.0499 0.186365,0.019 0.372731,0.0404 0.559096,0.0642 0.186365,0.0237 0.37273,0.0499 0.559095,0.0784 0.186365,0.0285 0.37273,0.0594 0.559095,0.0926 0.186365,0.0332 0.372731,0.0688 0.559096,0.10678 0.186365,0.0379 0.37273,0.0783 0.559095,0.12092 0.186365,0.0427 0.37273,0.0877 0.559095,0.13506 0.186365,0.0474 0.37273,0.0971 0.559096,0.14914 0.186365,0.052 0.37273,0.10645 0.559095,0.16319 0.186365,0.0567 0.37273,0.1158 0.559095,0.17719 0.186365,0.0614 0.37273,0.12512 0.559096,0.19116 0.186365,0.066 0.37273,0.1344 0.559095,0.20507 0.186365,0.0707 0.37273,0.14365 0.559095,0.21893 0.186365,0.0753 0.37273,0.15286 0.559096,0.23273 0.186365,0.0799 0.37273,0.16203 0.559095,0.24647 0.186365,0.0844 0.37273,0.17116 0.559095,0.26015 0.186365,0.089 0.37273,0.18025 0.559096,0.27376 0.186365,0.0935 0.37273,0.18929 0.559095,0.2873 0.186365,0.098 0.37273,0.19827 0.559095,0.30076 0.186365,0.10249 0.37273,0.20721 0.559096,0.31415 0.186365,0.10693 0.37273,0.21609 0.559095,0.32744 0.186365,0.11136 0.37273,0.22492 0.559095,0.34067 0.186365,0.11574 0.37273,0.23368 0.559095,0.35379 0.186366,0.1201 0.372731,0.24239 0.559096,0.36682 0.186365,0.12443 0.37273,0.25103 0.559095,0.37976 0.186365,0.12873 0.37273,0.2596 0.559095,0.39259 0.186366,0.13299 0.372731,0.26811 0.559096,0.40533 0.186365,0.13721 0.37273,0.27654 0.559095,0.41794 0.186365,0.14141 0.37273,0.2849 0.559095,0.43046 0.186366,0.14556 0.372731,0.29319 0.559096,0.44285 0.186365,0.14967 0.37273,0.30139 0.559095,0.45513 0.186365,0.15374 0.37273,0.30952 0.559095,0.46729 0.186366,0.15777 0.372731,0.31755 0.559096,0.47931 0.186365,0.16176 0.37273,0.3255 0.559095,0.4912 0.186365,0.16571 0.37273,0.33337 0.559095,0.50298 0.186366,0.1696 0.372731,0.34114 0.559096,0.51459 0.186365,0.17346 0.37273,0.34883 0.559095,0.52609 0.186365,0.17725 0.37273,0.35641 0.559095,0.53742 0.186366,0.18101 0.372731,0.36389 0.559096,0.54861 0.186365,0.18472 0.37273,0.37129 0.559095,0.55966 0.186365,0.18837 0.37273,0.37856 0.559095,0.57054 0.186365,0.19197 0.372731,0.38574 0.559096,0.58126 0.186365,0.19552 0.37273,0.39281 0.559095,0.59183 0.186365,0.19901 0.37273,0.39977 0.559095,0.60222 0.186365,0.20245 0.372731,0.40662 0.559096,0.61245 0.186365,0.20583 0.37273,0.41334 0.559091,0.6225 0.18637,0.20915 0.37273,0.41995 0.5591,0.63237 0.18636,0.21241 0.37273,0.42645 0.55909,0.64206 0.18637,0.21562 0.37273,0.43282 0.5591,0.65157 0.18637,0.21875 0.37273,0.43906 0.5591,0.66089 0.18636,0.22183 0.37273,0.44518 0.55909,0.67002 0.18637,0.22483 0.37273,0.45116 0.5591,0.67894 0.18636,0.22778 0.37273,0.45702 0.55909,0.68768 0.18637,0.23065 0.37273,0.46274 0.5591,0.6962 0.18636,0.23346 0.37273,0.46832 0.55909,0.70452 0.18637,0.23621 0.37273,0.47376 0.5591,0.71264 0.18636,0.23887 0.37273,0.47906 0.55909,0.72052 0.18637,0.24147 0.37273,0.48422 0.5591,0.72821 0.18636,0.24399 0.37273,0.48922 0.55909,0.73566 0.18637,0.24644 0.37273,0.49408 0.5591,0.74289 0.18636,0.24881 0.37273,0.49879 0.55909,0.74989 0.18637,0.25111 0.37273,0.50334 0.5591,0.75667 0.18636,0.25332 0.37273,0.50773 0.55909,0.76319 0.18637,0.25546 0.37273,0.51197 0.5591,0.76949 0.18636,0.25751 0.37273,0.51604 0.5591,0.77553 0.18636,0.2595 0.37273,0.51996 0.55909,0.78134 0.18637,0.26139 0.37273,0.5237 0.5591,0.78689 0.18636,0.26319 0.37273,0.52727 0.55909,0.79219 0.18637,0.26491 0.37273,0.53067 0.5591,0.79722 0.18636,0.26655 0.37273,0.5339 0.55909,0.802 0.18637,0.2681 0.37273,0.53695 0.5591,0.80651 0.18636,0.26956 0.37273,0.53982 0.55909,0.81075 0.18637,0.27093 0.37273,0.54252 0.5591,0.81472 0.18636,0.2722 0.37273,0.54503 0.55909,0.81841 0.18637,0.27339 0.37273,0.54735 0.5591,0.82183 0.18636,0.27447 0.37273,0.54947 0.55909,0.82495 0.18637,0.27547 0.37273,0.55142 0.5591,0.82779 0.18636,0.27637 0.37273,0.55317 0.55909,0.83034 0.18637,0.27717 0.37273,0.55472 0.5591,0.83259 0.18636,0.27788 0.37273,0.55608 0.5591,0.83455 0.18636,0.27848 0.37273,0.55723 0.55909,0.83621 0.18637,0.27897 0.37273,0.55817 0.5591,0.83755 0.18636,0.27937 0.37273,0.55892 0.55909,0.83859 0.18637,0.27966 0.37273,0.55945 0.5591,0.83931 0.18636,0.27986 0.37273,0.55978 0.55909,0.83972 0.18637,0.27994 0.37273,0.55989 0.5591,0.83981 0.18636,0.27991 0.37273,0.55979 0.55909,0.83957 0.18637,0.27978 0.37273,0.55947 0.5591,0.83901 0.18636,0.27954 0.37273,0.55893 0.55909,0.83811 0.18637,0.27918 0.37273,0.55816 0.5591,0.83688 0.18636,0.27872 0.37273,0.55717 0.55909,0.83531 0.18637,0.27814 0.37273,0.55595 0.5591,0.83339 0.18636,0.27745 0.37273,0.55451 0.55909,0.83114 0.18637,0.27663 0.37273,0.55283 0.5591,0.82853 0.18636,0.2757 0.37273,0.55091 0.5591,0.82557 0.18636,0.27466 0.37273,0.54876 0.55909,0.82225 0.18637,0.27349 0.37273,0.54636 0.5591,0.81856 0.18636,0.27221 0.37273,0.54373 0.55909,0.81453 0.18637,0.27079 0.37273,0.54085 0.5591,0.81011 0.18636,0.26926 0.37273,0.53772 0.55909,0.80532 0.18637,0.26761 0.37273,0.53435 0.5591,0.80017 0.18636,0.26582 0.37273,0.53071 0.55909,0.79462 0.18637,0.26391 0.37273,0.52684 0.5591,0.78871 0.18636,0.26187 0.37273,0.52269 0.55909,0.78239 0.18637,0.25971 0.37273,0.51829 0.5591,0.7757 0.18636,0.25741 0.37273,0.51363 0.55909,0.76861 0.18637,0.25497 0.37273,0.5087 0.5591,0.76111 0.18636,0.25241 0.37273,0.50351 0.55909,0.75322 0.18637,0.24972 0.37273,0.49805 0.5591,0.74493 0.18636,0.24689 0.37273,0.49231 0.55909,0.73623 0.18637,0.24391 0.37274,0.4863 0.5591,0.72711 0.18637,0.2408 0.37273,0.48001 0.5591,0.71757 0.18636,0.23756 0.37273,0.47346 0.55909,0.70763 0.18637,0.23417 0.37273,0.4666 0.5591,0.69725 0.18636,0.23064 0.37273,0.45947 0.55909,0.68645 0.18637,0.22697 0.37273,0.45206 0.5591,0.67521 0.18636,0.22316 0.37273,0.44436 0.55909,0.66355 0.18637,0.2192 0.37273,0.43637 0.5591,0.65145 0.18636,0.21509 0.37273,0.42808 0.55909,0.6389 0.18637,0.21083 0.37273,0.41949 0.5591,0.62592 0.18636,0.20642 0.37273,0.4106 0.55909,0.61247 0.18637,0.20187 0.37273,0.40142 0.5591,0.59859 0.18636,0.19716 0.37273,0.39193 0.55909,0.58423 0.18637,0.19231 0.37273,0.38214 0.5591,0.56943 0.18636,0.18729 0.37273,0.37203 0.55909,0.55416 0.18637,0.18213 0.37274,0.36162 0.5591,0.53842 0.18637,0.1768 0.37273,0.35089 0.5591,0.52221 0.18636,0.17132 0.37273,0.33986 0.55909,0.50554 0.18637,0.16568 0.37273,0.32849 0.5591,0.48837 0.18636,0.15988 0.37273,0.31681 0.55909,0.47073 0.18637,0.15391 0.37273,0.3048 0.5591,0.4526 0.18636,0.14779 0.37273,0.29247 0.55909,0.43398 0.18637,0.14151 0.37273,0.27982 0.5591,0.41488 0.18636,0.13505 0.37273,0.26683 0.55909,0.39527 0.18637,0.12843 0.37273,0.25351 0.5591,0.37516 0.18636,0.12165 0.37273,0.23986 0.55909,0.35456 0.18637,0.11469 0.37273,0.22586 0.5591,0.33343 0.18636,0.10758 0.37273,0.21154 0.55909,0.31181 0.18637,0.10028 0.37273,0.19686 0.5591,0.28967 0.18636,0.0928 0.37273,0.18184 0.55909,0.26701 0.18637,0.0852 0.37273,0.16647 0.5591,0.24383 0.18637,0.0774 0.37273,0.15075 0.5591,0.22011 0.18636,0.0694 0.37273,0.13468 0.55909,0.19588 0.18637,0.0612 0.37273,0.11826 0.5591,0.17111 0.18636,0.0528 0.37273,0.10148 0.55909,0.1458 0.18637,0.0443 0.37273,0.0843 0.5591,0.11996 0.18636,0.0356 0.37273,0.0668 0.55909,0.0936 0.18637,0.0267 0.37273,0.049 0.5591,0.0666 0.18636,0.0177 0.37273,0.0307 0.55909,0.0391 0.18637,0.008 0.37273,0.0121 0.5591,0.0111 0.18636,-0.001 0.37273,-0.007 0.55909,-0.0175 0.18637,-0.0107 0.37273,-0.0262 0.5591,-0.0467 0.18636,-0.0205 0.37273,-0.0459 0.55909,-0.0764 0.18637,-0.0305 0.37273,-0.066 0.5591,-0.10672 0.18636,-0.0407 0.37273,-0.0865 0.55909,-0.13759 0.18637,-0.0511 0.37273,-0.10739 0.5591,-0.16904 0.18637,-0.0617 0.37273,-0.12866 0.5591,-0.20108 0.18636,-0.0724 0.37273,-0.1503 0.55909,-0.23369 0.18637,-0.0834 0.37273,-0.17234 0.5591,-0.2669 0.18636,-0.0946 0.37273,-0.19477 0.55909,-0.3007 0.18637,-0.10592 0.37273,-0.2176 0.5591,-0.33508 0.18636,-0.11749 0.37273,-0.24083 0.55909,-0.37008 0.18637,-0.12925 0.37273,-0.26446 0.5591,-0.40567 0.18636,-0.14122 0.37273,-0.28849 0.55909,-0.44187 0.18637,-0.15339 0.37273,-0.31293 0.5591,-0.47868 0.18636,-0.16576 0.37273,-0.33777 0.55909,-0.51611 0.18637,-0.17833 0.37273,-0.36302 0.5591,-0.55414 0.18636,-0.19112 0.37273,-0.38869 0.55909,-0.5928 0.18637,-0.20411 0.37273,-0.41478 0.5591,-0.63209 0.18636,-0.21731 0.37273,-0.44129 0.55909,-0.67201 0.18637,-0.23071 0.37273,-0.46821 0.5591,-0.71254 0.18636,-0.24434 0.37273,-0.49556 0.5591,-0.75374 0.18636,-0.25817 0.37273,-0.52333 0.55909,-0.79555 0.18637,-0.27221 0.37273,-0.55153 0.5591,-0.83801 0.18636,-0.28648 0.37273,-0.58017 0.55909,-0.88113 0.18637,-0.30095 0.37273,-0.60923 0.5591,-0.92488 0.18636,-0.31565 0.37273,-0.63873 0.55909,-0.9693 0.18637,-0.33057 0.37273,-0.66867 0.5591,-1.01437 0.18636,-0.3457 0.37273,-0.69905 0.55909,-1.0601 0.18637,-0.36106 0.37273,-0.72987 0.5591,-1.1065 0.18636,-0.37664 0.37273,-0.76114 0.55909,-1.15357 0.18637,-0.39243 0.37273,-0.79285 0.5591,-1.20131 0.18636,-0.40846 0.37273,-0.82501 0.55909,-1.24972 0.18637,-0.42471 0.37273,-0.85762 0.5591,-1.29881 0.18636,-0.44119 0.37273,-0.8907 0.55909,-1.34859 0.18637,-0.45789 0.37273,-0.92422 0.5591,-1.39905 0.18636,-0.47483 0.37273,-0.95821 0.5591,-1.45021 0.18636,-0.492 0.37273,-0.99266 0.55909,-1.50206 0.18637,-0.50939 0.37273,-1.02757 0.5591,-1.5546 0.18636,-0.52703 0.37273,-1.06296 0.55909,-1.60785 0.18637,-0.54489 0.37273,-1.09881 0.5591,-1.6618 0.18636,-0.563 0.37273,-1.13513 0.55909,-1.71647 0.18637,-0.58133 0.37273,-1.17192 0.5591,-1.77184 0.18636,-0.59991 0.37273,-1.2092 0.55909,-1.82792 0.18637,-0.61873 0.37273,-1.24696 0.5591,-1.88474 0.18636,-0.63779 0.37273,-1.28519 0.55909,-1.94227"
       style="fill:none;fill-opacity:1;stroke:#0000ff;stroke-width:0.40000001;stroke-miterlimit:4;stroke-dasharray:none;stroke-dashoffset:0;stroke-opacity:1"
       inkscape:connector-curvature="0" />
  </g>
</svg>
