<?xml version="1.0" encoding="UTF-8" standalone="no"?>
<!-- Created with Inkscape (http://www.inkscape.org/) -->

<svg
   xmlns:dc="http://purl.org/dc/elements/1.1/"
   xmlns:cc="http://creativecommons.org/ns#"
   xmlns:rdf="http://www.w3.org/1999/02/22-rdf-syntax-ns#"
   xmlns:svg="http://www.w3.org/2000/svg"
   xmlns="http://www.w3.org/2000/svg"
   xmlns:sodipodi="http://sodipodi.sourceforge.net/DTD/sodipodi-0.dtd"
   xmlns:inkscape="http://www.inkscape.org/namespaces/inkscape"
   width="297mm"
   height="210mm"
   viewBox="0 0 297 210"
   version="1.1"
   id="svg5"
   sodipodi:docname="Figure_Adler.svg"
   inkscape:version="0.92.5 (2060ec1f9f, 2020-04-08)">
  <metadata
     id="metadata45">
    <rdf:RDF>
      <cc:Work
         rdf:about="">
        <dc:format>image/svg+xml</dc:format>
        <dc:type
           rdf:resource="http://purl.org/dc/dcmitype/StillImage" />
      </cc:Work>
    </rdf:RDF>
  </metadata>
  <sodipodi:namedview
     id="namedview7"
     pagecolor="#ffffff"
     bordercolor="#666666"
     borderopacity="1.0"
     inkscape:pageshadow="2"
     inkscape:pageopacity="0.0"
     inkscape:pagecheckerboard="0"
     inkscape:document-units="mm"
     showgrid="false"
     inkscape:zoom="1.5554293"
     inkscape:cx="334.4579"
     inkscape:cy="560.61693"
     inkscape:window-width="3399"
     inkscape:window-height="1650"
     inkscape:window-x="154"
     inkscape:window-y="341"
     inkscape:window-maximized="0"
     inkscape:current-layer="layer1" />
  <defs
     id="defs2">
    <marker
       inkscape:isstock="true"
       style="overflow:visible"
       id="marker1053"
       refX="0"
       refY="0"
       orient="auto"
       inkscape:stockid="Arrow1Mend">
      <path
         transform="matrix(-0.4,0,0,-0.4,-4,0)"
         style="fill:#000000;fill-opacity:1;fill-rule:evenodd;stroke:#000000;stroke-width:1.00000003pt;stroke-opacity:1"
         d="M 0,0 5,-5 -12.5,0 5,5 Z"
         id="path1051"
         inkscape:connector-curvature="0" />
    </marker>
    <marker
       inkscape:stockid="Arrow1Mend"
       orient="auto"
       refY="0"
       refX="0"
       id="marker1040"
       style="overflow:visible"
       inkscape:isstock="true"
       inkscape:collect="always">
      <path
         inkscape:connector-curvature="0"
         id="path1038"
         d="M 0,0 5,-5 -12.5,0 5,5 Z"
         style="fill:#000000;fill-opacity:1;fill-rule:evenodd;stroke:#000000;stroke-width:1.00000003pt;stroke-opacity:1"
         transform="matrix(-0.4,0,0,-0.4,-4,0)" />
    </marker>
    <marker
       inkscape:stockid="Arrow1Mstart"
       orient="auto"
       refY="0"
       refX="0"
       id="marker940"
       style="overflow:visible"
       inkscape:isstock="true">
      <path
         inkscape:connector-curvature="0"
         id="path938"
         d="M 0,0 5,-5 -12.5,0 5,5 Z"
         style="fill:#000000;fill-opacity:1;fill-rule:evenodd;stroke:#000000;stroke-width:1.00000003pt;stroke-opacity:1"
         transform="matrix(0.4,0,0,0.4,4,0)" />
    </marker>
    <marker
       inkscape:stockid="Arrow1Mend"
       orient="auto"
       refY="0.0"
       refX="0.0"
       id="Arrow1Mend"
       style="overflow:visible;"
       inkscape:isstock="true">
      <path
         id="path1191"
         d="M 0.0,0.0 L 5.0,-5.0 L -12.5,0.0 L 5.0,5.0 L 0.0,0.0 z "
         style="fill-rule:evenodd;stroke:#fa0000;stroke-width:1pt;stroke-opacity:1;fill:#fa0000;fill-opacity:1"
         transform="scale(0.4) rotate(180) translate(10,0)" />
    </marker>
    <marker
       inkscape:isstock="true"
       style="overflow:visible"
       refX="0"
       refY="0"
       orient="auto"
       inkscape:stockid="Arrow1Mstart6200"
       id="Arrow1Mstart6200">
      <path
         transform="matrix(0.4,0,0,0.4,4,0)"
         style="fill:#fb0000;fill-opacity:1.0;fill-rule:evenodd;stroke:#000000;stroke-width:1.00000003pt;stroke-opacity:1"
         d="M 0,0 5,-5 -12.5,0 5,5 Z"
         id="path20860"
         inkscape:connector-curvature="0" />
    </marker>
    <marker
       inkscape:isstock="true"
       style="overflow:visible"
       refX="0"
       refY="0"
       orient="auto"
       inkscape:stockid="Arrow1Mstart62001970"
       id="Arrow1Mstart62001970">
      <path
         transform="matrix(0.4,0,0,0.4,4,0)"
         style="fill:#fa0000;fill-opacity:1;fill-rule:evenodd;stroke:#fa0000;stroke-width:1.00000003pt;stroke-opacity:1"
         d="M 0,0 5,-5 -12.5,0 5,5 Z"
         id="path22128"
         inkscape:connector-curvature="0" />
    </marker>
  </defs>
  <g
     inkscape:label="Layer 1"
     inkscape:groupmode="layer"
     id="layer1">
    <path
       style="fill:none;stroke:#000000;stroke-width:0.8;stroke-linecap:butt;stroke-linejoin:miter;stroke-miterlimit:4;stroke-dasharray:none;stroke-dashoffset:0;stroke-opacity:1;marker-end:url(#marker1040)"
       d="M 9.866173,97.05152 H 277.09812"
       id="path913-1"
       inkscape:connector-curvature="0"
       sodipodi:nodetypes="cc" />
    <text
       xml:space="preserve"
       style="font-size:14.1111002px;line-height:1.25;font-family:'Palatino Linotype';-inkscape-font-specification:'Palatino Linotype';letter-spacing:0px;word-spacing:0px;stroke-width:0.26458299"
       x="275.56699"
       y="106.65466"
       id="text14998"><tspan
         sodipodi:role="line"
         id="tspan14996"
         style="font-style:italic;font-variant:normal;font-weight:normal;font-stretch:normal;font-size:9.87777805px;font-family:'Palatino Linotype';-inkscape-font-specification:'Palatino Linotype Italic';stroke-width:0.26458299"
         x="275.56699"
         y="106.65466">ϴ</tspan></text>
    <path
       style="fill:none;stroke:#000000;stroke-width:0.8;stroke-linecap:butt;stroke-linejoin:miter;stroke-miterlimit:4;stroke-dasharray:none;stroke-dashoffset:0;stroke-opacity:1;marker-end:url(#marker1053)"
       d="M 19.221665,141.12077 V 33.955855"
       id="path913"
       inkscape:connector-curvature="0"
       sodipodi:nodetypes="cc" />
    <path
       style="fill:none;fill-opacity:1;stroke:#0000ff;stroke-width:1.07096887;stroke-miterlimit:4;stroke-dasharray:none;stroke-dashoffset:0;stroke-opacity:1"
       d="m 19.429494,97.064141 c 1.5783,1.608568 3.1567,3.216929 4.7351,4.772939 1.5784,1.55601 3.1567,3.05906 4.7351,4.46071 1.5784,1.40171 3.1567,2.70115 4.7351,3.85679 1.5784,1.15564 3.1568,2.16646 4.7351,3.00049 1.5784,0.83408 3.1568,1.49015 4.7351,1.94802 1.5784,0.45787 3.1568,0.71632 4.7352,0.76806 1.5783,0.0517 3.1567,-0.10435 4.7351,-0.4621 1.5783,-0.35775 3.1567,-0.91824 4.7351,-1.66204 1.5784,-0.74385 3.1567,-1.67204 4.7351,-2.7533 1.5784,-1.08127 3.1567,-2.31643 4.7351,-3.66441 1.5784,-1.34802 3.1568,-2.80932 4.7351,-4.33586 1.5784,-1.52655 3.1568,-3.118499 4.7351,-4.723701 1.5784,-1.605254 3.1568,-3.223661 4.7352,-4.80256 1.5783,-1.57895 3.156701,-3.117935 4.735101,-4.567302 1.5783,-1.449317 3.1567,-2.808303 4.7351,-4.033373 1.5784,-1.224968 3.1567,-2.314849 4.7351,-3.235486 1.5784,-0.920129 3.1567,-1.669995 4.735101,-2.225641 1.578404,-0.555645 3.156804,-0.916559 4.735004,-1.071018 1.579,-0.15446 3.157,-0.102464 4.735,0.154459 1.579,0.256412 3.157,0.71826 4.735,1.369232 1.579,0.650972 3.157,1.492086 4.735,2.494796 1.579,1.002711 3.157,2.168036 4.736,3.456828 1.578,1.288995 3.156,2.702271 4.735,4.193184 1.578,1.490914 3.156,3.05972 4.735,4.655034 1.578,1.595365 3.157,3.217083 4.735,4.812448 1.578,1.59542 3.157,3.16402 4.735,4.65508 1.578,1.49107 3.157,2.90394 4.735,4.19319 1.579,1.2892 3.157,2.45391 4.735,3.45698 1.579,1.00312 3.157,1.84347 4.735,2.49475 1.579,0.65132 3.157,1.11235 4.736,1.36928 1.578,0.25692 3.156,0.30851 4.735,0.15425 1.578,-0.15425 3.156,-0.51552 4.735,-1.07086 1.578,-0.55534 3.156,-1.30582 4.735,-2.22595 1.578,-0.92013 3.157,-2.01072 4.735,-3.23543 1.578,-1.22467 3.157,-2.58406 4.735,-4.03322 1.578,-1.44917 3.157,-2.98846 4.735,-4.56731 1.579,-1.578845 3.157,-3.197301 4.735,-4.802556 1.579,-1.605254 3.157,-3.19705 4.735,-4.723698 1.579,-1.526649 3.157,-2.987639 4.736,-4.335869 1.578,-1.348281 3.156,-2.582935 4.735,-3.664659 1.578,-1.081214 3.156,-2.008989 4.735,-2.753248 1.578,-0.743748 3.157,-1.303472 4.735,-1.661837 1.578,-0.358367 3.157,-0.513335 4.735,-0.462358 1.578,0.05149 3.157,0.310957 4.735,0.768217 1.578,0.45777 3.157,1.114349 4.735,1.948327 1.579,0.833468 3.157,1.844844 4.735,3.000485 1.579,1.155129 3.157,2.455085 4.735,3.856534 1.579,1.401501 3.157,2.904853 4.736,4.460762 1.578,1.555908 3.156,3.164374 4.735,4.772941"
       title="sin(x)"
       id="path399"
       sodipodi:nodetypes="cscsscsccscccccccsccccccccsccccccccsccccccsccccccc"
       inkscape:connector-curvature="0" />
    <path
       style="fill:none;fill-opacity:1;stroke:#009b00;stroke-width:1.07099998;stroke-miterlimit:4;stroke-dasharray:3.21299997, 3.21299996999999982;stroke-dashoffset:0;stroke-opacity:1"
       d="m 19.920815,83.103136 c 1.5783,1.60856 3.1567,3.21693 4.7351,4.77294 1.5784,1.55601 3.1567,3.05905 4.7351,4.46071 1.5784,1.4017 3.1567,2.70115 4.7351,3.85679 1.5784,1.15564 3.1568,2.16645 4.7351,3.00048 1.5784,0.834084 3.1568,1.490154 4.7351,1.948024 1.5784,0.45788 3.156799,0.71633 4.7352,0.76807 1.5783,0.0517 3.156699,-0.10435 4.7351,-0.4621 1.578301,-0.35776 3.156701,-0.91825 4.735101,-1.662054 1.5784,-0.74385 3.1567,-1.67203 4.7351,-2.75329 1.5784,-1.08127 3.156703,-2.31643 4.735103,-3.66441 1.5784,-1.34803 3.1568,-2.80932 4.7351,-4.33587 1.5784,-1.52654 3.1568,-3.11849 4.7351,-4.7237 1.5784,-1.60525 3.1568,-3.22366 4.7352,-4.80256 1.57829,-1.57895 3.1567,-3.11793 4.7351,-4.5673 1.5783,-1.44932 3.1567,-2.80831 4.7351,-4.03338 1.5784,-1.22497 3.1567,-2.31484 4.7351,-3.23548 1.5784,-0.92013 3.1567,-1.67 4.735101,-2.22564 1.5784,-0.55565 3.1568,-0.91656 4.73499,-1.07102 1.579,-0.15446 3.157,-0.10247 4.735,0.15446 1.579,0.25641 3.157,0.71826 4.735,1.36923 1.579,0.65097 3.157,1.49208 4.735,2.49479 1.57901,1.00272 3.15701,2.16804 4.73601,3.45683 1.57799,1.289 3.156,2.70228 4.735,4.19319 1.578,1.49092 3.156,3.05972 4.735,4.65504 1.578,1.59536 3.15699,3.21708 4.735,4.81244 1.578,1.59542 3.157,3.16402 4.735,4.65509 1.578,1.49107 3.157,2.90393 4.735,4.19318 1.579,1.2892 3.157,2.45392 4.735,3.45698 1.579,1.00312 3.157,1.84347 4.735,2.494754 1.579,0.65133 3.157,1.11236 4.736,1.36928 1.578,0.25693 3.156,0.30851 4.735,0.15426 1.578,-0.15426 3.156,-0.51553 4.735,-1.07087 1.578,-0.55534 3.156,-1.305824 4.735,-2.225944 1.578,-0.92013 3.157,-2.01073 4.735,-3.23544 1.578,-1.22466 3.157,-2.58406 4.735,-4.03322 1.578,-1.44916 3.157,-2.98845 4.735,-4.5673 1.579,-1.57885 3.157,-3.19731 4.735,-4.80256 1.579,-1.60526 3.157,-3.19705 4.735,-4.7237 1.579,-1.52665 3.157,-2.98764 4.736,-4.33587 1.578,-1.34829 3.156,-2.58294 4.735,-3.66466 1.578,-1.08122 3.156,-2.00899 4.735,-2.75325 1.578,-0.74375 3.157,-1.30347 4.735,-1.66184 1.578,-0.35837 3.157,-0.51333 4.735,-0.46235 1.578,0.0515 3.157,0.31095 4.735,0.76821 1.578,0.45777 3.157,1.11435 4.735,1.94833 1.579,0.83347 3.157,1.84484 4.735,3.00048 1.579,1.15513 3.157,2.45509 4.735,3.85654 1.579,1.4015 3.157,2.90486 4.736,4.46076 1.578,1.55591 3.156,3.16438 4.735,4.77295"
       title="sin(x)"
       id="path399-2"
       sodipodi:nodetypes="cscsscsccscccccccsccccccccsccccccccsccccccsccccccc"
       inkscape:connector-curvature="0" />
    <path
       style="fill:none;fill-opacity:1;stroke:#f90000;stroke-width:1.07099999;stroke-miterlimit:4;stroke-dasharray:1.07099999, 2.14199998000000003;stroke-dashoffset:0;stroke-opacity:1"
       d="m 19.769553,67.111252 c 1.5783,1.60856 3.1567,3.21693 4.7351,4.77294 1.5784,1.55601 3.1567,3.05905 4.7351,4.460709 1.578401,1.401702 3.1567,2.70115 4.735101,3.856792 1.5784,1.155639 3.156799,2.16645 4.7351,3.000478 1.5784,0.83408 3.1568,1.490152 4.7351,1.948021 1.5784,0.45788 3.156799,0.716331 4.7352,0.76807 1.578301,0.0517 3.156699,-0.104349 4.7351,-0.4621 1.578301,-0.357759 3.156702,-0.91825 4.7351,-1.662049 1.578401,-0.74385 3.156701,-1.672032 4.7351,-2.753292 1.578401,-1.08127 3.156704,-2.316429 4.735105,-3.66441 1.578398,-1.348028 3.156799,-2.809319 4.735099,-4.335869 1.578399,-1.52654 3.1568,-3.11849 4.7351,-4.7237 1.578401,-1.60525 3.1568,-3.22366 4.735201,-4.80256 1.578289,-1.57895 3.156698,-3.11793 4.735099,-4.5673 1.578301,-1.44932 3.156699,-2.80831 4.7351,-4.03338 1.578401,-1.22497 3.156701,-2.31484 4.7351,-3.23548 1.578401,-0.92013 3.156701,-1.67 4.735112,-2.22564 1.5784,-0.55565 3.1568,-0.91656 4.73499,-1.07102 1.579,-0.15446 3.157,-0.10247 4.735,0.15446 1.579,0.25641 3.157,0.71826 4.735,1.36923 1.579,0.65097 3.157,1.49208 4.735,2.49479 1.57901,1.00272 3.15701,2.16804 4.73601,3.45683 1.57799,1.289 3.156,2.70228 4.735,4.19319 1.578,1.49092 3.156,3.05972 4.735,4.65504 1.578,1.59536 3.15699,3.21708 4.735,4.81244 1.578,1.59542 3.157,3.16402 4.735,4.65509 1.578,1.49107 3.157,2.903929 4.735,4.19318 1.579,1.289201 3.157,2.45392 4.735,3.45698 1.579,1.00312 3.157,1.843471 4.735,2.494751 1.579,0.65133 3.157,1.112358 4.736,1.369279 1.578,0.256929 3.156,0.30851 4.73501,0.15426 1.57799,-0.15426 3.15599,-0.51553 4.73499,-1.070869 1.578,-0.555342 3.156,-1.305822 4.735,-2.22594 1.57801,-0.92013 3.157,-2.01073 4.735,-3.235441 1.578,-1.224661 3.157,-2.584061 4.735,-4.033221 1.578,-1.449159 3.15701,-2.988449 4.735,-4.567299 1.57901,-1.57885 3.157,-3.19731 4.735,-4.80256 1.579,-1.60526 3.157,-3.19705 4.735,-4.7237 1.579,-1.52665 3.15701,-2.98764 4.736,-4.33587 1.578,-1.34829 3.156,-2.58294 4.735,-3.66466 1.578,-1.08122 3.156,-2.00899 4.73501,-2.75325 1.57799,-0.74375 3.157,-1.30347 4.73499,-1.66184 1.578,-0.35837 3.157,-0.51333 4.735,-0.46235 1.57801,0.0515 3.157,0.31095 4.73501,0.76821 1.57799,0.45777 3.15699,1.11435 4.73499,1.94833 1.579,0.83347 3.15701,1.84484 4.735,3.00048 1.57901,1.15513 3.157,2.45509 4.73501,3.85654 1.57899,1.4015 3.15699,2.90486 4.736,4.46076 1.57799,1.55591 3.156,3.16438 4.73499,4.77295"
       title="sin(x)"
       id="path399-2-8"
       sodipodi:nodetypes="cscsscsccscccccccsccccccccsccccccccsccccccsccccccc"
       inkscape:connector-curvature="0" />
    <text
       xml:space="preserve"
       style="font-size:14.11110115px;line-height:1.25;font-family:'Palatino Linotype';-inkscape-font-specification:'Palatino Linotype';letter-spacing:0px;word-spacing:0px;stroke-width:0.26458299"
       x="3.2615249"
       y="45.363689"
       id="text14998-4"><tspan
         sodipodi:role="line"
         id="tspan14996-8"
         style="font-style:italic;font-variant:normal;font-weight:normal;font-stretch:normal;font-size:9.87777805px;font-family:'Palatino Linotype';-inkscape-font-specification:'Palatino Linotype Italic';stroke-width:0.26458299"
         x="3.2615249"
         y="45.363689">ϴ<tspan
   style="font-size:64.99999762%;baseline-shift:sub"
   id="tspan1121">T</tspan></tspan></text>
    <text
       xml:space="preserve"
       style="font-style:normal;font-variant:normal;font-weight:normal;font-stretch:normal;font-size:9.8777771px;line-height:1.25;font-family:Symbol;-inkscape-font-specification:Symbol;letter-spacing:0px;word-spacing:0px;stroke-width:0.26458332"
       x="74.8265"
       y="106.90881"
       id="text1125"><tspan
         sodipodi:role="line"
         id="tspan1123"
         x="74.8265"
         y="106.90881"
         style="stroke-width:0.26458332">p</tspan></text>
    <text
       xml:space="preserve"
       style="font-style:normal;font-variant:normal;font-weight:normal;font-stretch:normal;font-size:9.8777771px;line-height:1.25;font-family:Symbol;-inkscape-font-specification:Symbol;letter-spacing:0px;word-spacing:0px;stroke-width:0.26458332"
       x="128.57909"
       y="106.90881"
       id="text1129"><tspan
         sodipodi:role="line"
         id="tspan1127"
         x="128.57909"
         y="106.90881"
         style="stroke-width:0.26458332">2p</tspan></text>
    <text
       xml:space="preserve"
       style="font-style:normal;font-variant:normal;font-weight:normal;font-stretch:normal;font-size:9.8777771px;line-height:1.25;font-family:Symbol;-inkscape-font-specification:Symbol;letter-spacing:0px;word-spacing:0px;stroke-width:0.26458332"
       x="190.83681"
       y="106.90881"
       id="text1133"><tspan
         sodipodi:role="line"
         id="tspan1131"
         x="190.83681"
         y="106.90881"
         style="stroke-width:0.26458332">3p</tspan></text>
    <text
       xml:space="preserve"
       style="font-style:normal;font-variant:normal;font-weight:normal;font-stretch:normal;font-size:9.8777771px;line-height:1.25;font-family:Symbol;-inkscape-font-specification:Symbol;letter-spacing:0px;word-spacing:0px;stroke-width:0.26458332"
       x="247.3299"
       y="106.90881"
       id="text1137"><tspan
         sodipodi:role="line"
         id="tspan1135"
         x="247.3299"
         y="106.90881"
         style="stroke-width:0.26458332">4p</tspan></text>
    <circle
       style="fill:#0000ff;fill-opacity:1;stroke:none;stroke-width:0.80000001;stroke-miterlimit:4;stroke-dasharray:none;stroke-dashoffset:0;stroke-opacity:1"
       id="path1139"
       cx="77.141754"
       cy="96.796402"
       r="2.4664948" />
    <circle
       style="fill:#0000ff;fill-opacity:1;stroke:none;stroke-width:0.80000001;stroke-miterlimit:4;stroke-dasharray:none;stroke-dashoffset:0;stroke-opacity:1"
       id="path1139-2"
       cx="19.221649"
       cy="96.541237"
       r="2.4664948" />
    <circle
       style="fill:#0000ff;fill-opacity:1;stroke:none;stroke-width:0.80000001;stroke-miterlimit:4;stroke-dasharray:none;stroke-dashoffset:0;stroke-opacity:1"
       id="path1139-7"
       cx="134.89175"
       cy="96.711342"
       r="2.4664948" />
    <circle
       style="fill:#0000ff;fill-opacity:1;stroke:none;stroke-width:0.80000001;stroke-miterlimit:4;stroke-dasharray:none;stroke-dashoffset:0;stroke-opacity:1"
       id="path1139-0"
       cx="193.91753"
       cy="96.371132"
       r="2.4664948" />
    <circle
       style="fill:#0000ff;fill-opacity:1;stroke:none;stroke-width:0.80000001;stroke-miterlimit:4;stroke-dasharray:none;stroke-dashoffset:0;stroke-opacity:1"
       id="path1139-5"
       cx="250.90205"
       cy="96.711349"
       r="2.4664948" />
    <circle
       style="fill:#009b00;fill-opacity:1;stroke:none;stroke-width:0.80000001;stroke-miterlimit:4;stroke-dasharray:none;stroke-dashoffset:0;stroke-opacity:1"
       id="path1139-1"
       cx="35.721649"
       cy="97.221649"
       r="2.4664948" />
    <circle
       style="fill:#009b00;fill-opacity:1;stroke:none;stroke-width:0.80000001;stroke-miterlimit:4;stroke-dasharray:none;stroke-dashoffset:0;stroke-opacity:1"
       id="path1139-1-6"
       cx="61.407215"
       cy="97.051544"
       r="2.4664948" />
    <circle
       style="fill:#009b00;fill-opacity:1;stroke:none;stroke-width:0.80000001;stroke-miterlimit:4;stroke-dasharray:none;stroke-dashoffset:0;stroke-opacity:1"
       id="path1139-1-3"
       cx="150.88144"
       cy="96.881439"
       r="2.4664948" />
    <circle
       style="fill:#009b00;fill-opacity:1;stroke:none;stroke-width:0.80000001;stroke-miterlimit:4;stroke-dasharray:none;stroke-dashoffset:0;stroke-opacity:1"
       id="path1139-1-9"
       cx="178.60825"
       cy="96.711342"
       r="2.4664948" />
  </g>
</svg>
