<?xml version="1.0" encoding="UTF-8" standalone="no"?>
<!-- Created with Inkscape (http://www.inkscape.org/) -->

<svg
   xmlns:dc="http://purl.org/dc/elements/1.1/"
   xmlns:cc="http://creativecommons.org/ns#"
   xmlns:rdf="http://www.w3.org/1999/02/22-rdf-syntax-ns#"
   xmlns:svg="http://www.w3.org/2000/svg"
   xmlns="http://www.w3.org/2000/svg"
   xmlns:sodipodi="http://sodipodi.sourceforge.net/DTD/sodipodi-0.dtd"
   xmlns:inkscape="http://www.inkscape.org/namespaces/inkscape"
   width="210mm"
   height="297mm"
   viewBox="0 0 210 297"
   version="1.1"
   id="svg5"
   inkscape:version="0.92.5 (2060ec1f9f, 2020-04-08)"
   sodipodi:docname="Figure_equilibriumfront.svg">
  <sodipodi:namedview
     id="namedview7"
     pagecolor="#ffffff"
     bordercolor="#666666"
     borderopacity="1.0"
     inkscape:pageshadow="2"
     inkscape:pageopacity="0.0"
     inkscape:pagecheckerboard="0"
     inkscape:document-units="mm"
     showgrid="false"
     inkscape:zoom="2.1997092"
     inkscape:cx="396.85039"
     inkscape:cy="660.48931"
     inkscape:window-width="1754"
     inkscape:window-height="1110"
     inkscape:window-x="544"
     inkscape:window-y="383"
     inkscape:window-maximized="0"
     inkscape:current-layer="layer1"
     showguides="false" />
  <metadata
     id="metadata34">
    <rdf:RDF>
      <cc:Work
         rdf:about="">
        <dc:format>image/svg+xml</dc:format>
        <dc:type
           rdf:resource="http://purl.org/dc/dcmitype/StillImage" />
        <dc:title />
      </cc:Work>
    </rdf:RDF>
  </metadata>
  <defs
     id="defs2">
    <marker
       style="overflow:visible;"
       id="Arrow2Lend"
       refX="0.0"
       refY="0.0"
       orient="auto"
       inkscape:stockid="Arrow2Lend"
       inkscape:isstock="true">
      <path
         transform="scale(1.1) rotate(180) translate(1,0)"
         d="M 8.7185878,4.0337352 L -2.2072895,0.016013256 L 8.7185884,-4.0017078 C 6.9730900,-1.6296469 6.9831476,1.6157441 8.7185878,4.0337352 z "
         style="fill-rule:evenodd;fill:context-stroke;stroke-width:0.625;stroke-linejoin:round;stroke:#000000;stroke-opacity:1"
         id="path962" />
    </marker>
    <marker
       style="overflow:visible;"
       id="Arrow1Mend"
       refX="0.0"
       refY="0.0"
       orient="auto"
       inkscape:stockid="Arrow1Mend"
       inkscape:isstock="true">
      <path
         transform="scale(0.4) rotate(180) translate(10,0)"
         style="fill-rule:evenodd;fill:context-stroke;stroke:context-stroke;stroke-width:1.0pt;"
         d="M 0.0,0.0 L 5.0,-5.0 L -12.5,0.0 L 5.0,5.0 L 0.0,0.0 z "
         id="path950" />
    </marker>
    <marker
       style="overflow:visible;"
       id="Arrow1Lend"
       refX="0.0"
       refY="0.0"
       orient="auto"
       inkscape:stockid="Arrow1Lend"
       inkscape:isstock="true">
      <path
         transform="scale(0.8) rotate(180) translate(12.5,0)"
         style="fill-rule:evenodd;fill:context-stroke;stroke:context-stroke;stroke-width:1.0pt;"
         d="M 0.0,0.0 L 5.0,-5.0 L -12.5,0.0 L 5.0,5.0 L 0.0,0.0 z "
         id="path944" />
    </marker>
    <marker
       style="overflow:visible"
       id="Arrow2Lend-9"
       refX="0"
       refY="0"
       orient="auto"
       inkscape:stockid="Arrow2Lend"
       inkscape:isstock="true">
      <path
         transform="matrix(-1.1,0,0,-1.1,-1.1,0)"
         d="M 8.7185878,4.0337352 -2.2072895,0.01601326 8.7185884,-4.0017078 c -1.7454984,2.3720609 -1.7354408,5.6174519 -6e-7,8.035443 z"
         style="fill:context-stroke;fill-rule:evenodd;stroke-width:0.625;stroke-linejoin:round;stroke:#000000;stroke-opacity:1"
         id="path962-4" />
    </marker>
  </defs>
  <g
     inkscape:label="Layer 1"
     inkscape:groupmode="layer"
     id="layer1">
    <path
       style="fill:none;stroke:#000000;stroke-width:0.41642246;stroke-linecap:butt;stroke-linejoin:miter;stroke-miterlimit:4;stroke-dasharray:none;stroke-opacity:1;marker-end:url(#Arrow2Lend)"
       d="m 110.77692,147.05408 c 0,-54.544034 0,-54.544034 0,-54.544034"
       id="path42"
       inkscape:connector-curvature="0" />
    <path
       style="fill:none;stroke:#000000;stroke-width:0.53244478;stroke-linecap:butt;stroke-linejoin:miter;stroke-miterlimit:4;stroke-dasharray:none;stroke-opacity:1;marker-end:url(#Arrow2Lend-9)"
       d="m 55.067818,139.81853 c 119.980762,0 119.980762,0 119.980762,0"
       id="path42-2"
       inkscape:connector-curvature="0" />
    <text
       xml:space="preserve"
       style="line-height:0%;font-family:'Palatino Linotype';-inkscape-font-specification:'Palatino Linotype';letter-spacing:0px;word-spacing:0px;stroke-width:0.26458299"
       x="96.332565"
       y="89.650574"
       id="text5468"><tspan
         sodipodi:role="line"
         style="font-size:7.76111126px;line-height:1.25;stroke-width:0.26458299"
         x="96.332565"
         y="89.650574"
         id="tspan1095">u(x)</tspan></text>
    <text
       xml:space="preserve"
       style="line-height:0%;font-family:'Palatino Linotype';-inkscape-font-specification:'Palatino Linotype';letter-spacing:0px;word-spacing:0px;stroke-width:0.26458299"
       x="177.58763"
       y="144.75775"
       id="text11562"><tspan
         sodipodi:role="line"
         id="tspan11560"
         style="font-size:7.76111126px;line-height:1.25;stroke-width:0.26458299"
         x="177.58763"
         y="144.75775">x</tspan></text>
    <path
       id="path1179"
       title="0.5*(1-tanh(4*x))"
       d="m 54.655987,97.69431 c 0.188179,0 0.376357,0 0.564536,10e-7 0.188178,0 0.376356,0 0.564535,10e-7 0.188178,0 0.376357,0 0.564535,10e-7 0.188178,0 0.376357,1e-6 0.564535,1e-6 0.188179,0 0.376357,10e-7 0.564535,2e-6 0.188179,0 0.376357,10e-7 0.564536,10e-7 0.188178,10e-7 0.376357,2e-6 0.564535,3e-6 0.188178,0 0.376357,10e-7 0.564535,2e-6 0.188179,10e-7 0.376357,2e-6 0.564535,3e-6 0.188179,10e-7 0.376357,2e-6 0.564536,4e-6 0.188178,10e-7 0.376356,2e-6 0.564535,4e-6 0.188178,10e-7 0.376357,3e-6 0.564535,5e-6 0.188178,10e-7 0.376357,3e-6 0.564535,5e-6 0.188179,2e-6 0.376357,4e-6 0.564535,7e-6 0.188179,2e-6 0.376357,5e-6 0.564536,8e-6 0.188178,3e-6 0.376357,6e-6 0.564535,9e-6 0.188178,3e-6 0.376357,7e-6 0.564535,1.1e-5 0.188179,4e-6 0.376357,8e-6 0.564535,1.2e-5 0.188179,5e-6 0.376357,1e-5 0.564536,1.5e-5 0.188178,6e-6 0.376356,1.1e-5 0.564535,1.8e-5 0.188178,6e-6 0.376357,1.3e-5 0.564535,2e-5 0.188178,8e-6 0.376357,1.6e-5 0.564535,2.4e-5 0.188179,9e-6 0.376357,1.9e-5 0.564536,2.9e-5 0.188178,1e-5 0.376356,2.1e-5 0.564535,3.3e-5 0.188178,1.2e-5 0.376357,2.5e-5 0.564535,3.9e-5 0.188178,1.4e-5 0.376357,3e-5 0.564535,4.6e-5 0.188179,1.7e-5 0.376357,3.5e-5 0.564535,5.4e-5 0.188179,1.9e-5 0.376357,4e-5 0.564536,6.3e-5 0.188178,2.3e-5 0.376356,4.8e-5 0.564535,7.5e-5 0.188178,2.7e-5 0.376357,5.6e-5 0.564535,8.7e-5 0.188179,3.2e-5 0.376357,6.6e-5 0.564535,1.03e-4 0.188179,3.7e-5 0.376357,7.7e-5 0.564536,1.2e-4 0.188178,4.4e-5 0.376356,9.1e-5 0.564535,1.42e-4 0.188178,5.1e-5 0.376357,1.06e-4 0.564535,1.66e-4 0.188178,6e-5 0.376357,1.24e-4 0.564535,1.95e-4 0.188179,7e-5 0.376357,1.46e-4 0.564535,2.29e-4 0.188179,8.3e-5 0.376357,1.72e-4 0.564536,2.69e-4 0.188178,9.7e-5 0.376357,2.02e-4 0.564535,3.16e-4 0.188178,1.15e-4 0.376357,2.38e-4 0.564535,3.72e-4 0.188179,1.34e-4 0.376357,2.78e-4 0.564535,4.36e-4 0.188179,1.57e-4 0.376357,3.27e-4 0.564536,5.12e-4 0.188178,1.85e-4 0.376356,3.84e-4 0.564535,6.01e-4 0.188178,2.17e-4 0.376357,4.52e-4 0.564535,7.07e-4 0.188178,2.55e-4 0.376357,5.3e-4 0.564535,8.29e-4 0.188179,3e-4 0.376357,6.23e-4 0.564536,9.75e-4 0.188178,3.51e-4 0.376356,7.31e-4 0.564535,0.0011 0.188178,4.13e-4 0.376357,8.59e-4 0.564535,0.0013 0.188178,4.85e-4 0.376357,0.001 0.564535,0.0016 0.188179,5.7e-4 0.376357,0.0012 0.564535,0.0019 0.188179,6.69e-4 0.376357,0.0014 0.564536,0.0022 0.188178,7.85e-4 0.376356,0.0016 0.564535,0.0026 0.188178,9.22e-4 0.376357,0.0019 0.564535,0.003 0.188179,0.0011 0.376357,0.0023 0.564535,0.0035 0.188179,0.0013 0.376357,0.0026 0.564536,0.0041 0.188178,0.0015 0.376356,0.0031 0.564535,0.0049 0.188178,0.0018 0.376357,0.0036 0.564535,0.0057 0.188178,0.0021 0.376357,0.0043 0.564535,0.0067 0.188179,0.0024 0.376357,0.005 0.564535,0.0079 0.188179,0.0028 0.376357,0.0059 0.564536,0.0092 0.188178,0.0033 0.376356,0.0069 0.564535,0.01084 0.188178,0.0039 0.376357,0.0081 0.564535,0.01272 0.188179,0.0046 0.376357,0.0095 0.564535,0.01493 0.188179,0.0054 0.376357,0.0112 0.564536,0.01752 0.188178,0.0063 0.376356,0.01315 0.564535,0.02056 0.188178,0.0074 0.376357,0.01542 0.564535,0.02412 0.188178,0.0087 0.376357,0.01809 0.564535,0.02829 0.188179,0.0102 0.376357,0.02122 0.564535,0.03318 0.188179,0.01196 0.376357,0.02488 0.564536,0.0389 0.188178,0.01402 0.376357,0.02916 0.564535,0.0456 0.188178,0.01643 0.376357,0.03417 0.564535,0.05342 0.188179,0.01925 0.376357,0.04003 0.564535,0.06257 0.188179,0.02254 0.376357,0.04686 0.564536,0.07324 0.188178,0.02638 0.376356,0.05484 0.564535,0.08569 0.188178,0.03086 0.376357,0.06413 0.564535,0.10019 0.188178,0.03606 0.376357,0.07494 0.564535,0.117052 0.188179,0.04211 0.376357,0.08749 0.564536,0.136627 0.188178,0.04914 0.376356,0.10205 0.564535,0.15931 0.188178,0.05726 0.376359,0.118889 0.564539,0.185529 0.18817,0.06664 0.376347,0.13832 0.564527,0.215757 0.18818,0.07744 0.376357,0.160669 0.564537,0.250494 0.188167,0.08983 0.376347,0.186285 0.564527,0.290264 0.18818,0.103979 0.37636,0.215523 0.56454,0.335592 0.18818,0.12008 0.37635,0.24874 0.56453,0.38702 0.18818,0.13828 0.37636,0.28624 0.56454,0.44498 0.18818,0.15874 0.37635,0.32832 0.56453,0.50988 0.18818,0.18157 0.37636,0.37518 0.56454,0.58198 0.18818,0.2068 0.37635,0.42686 0.56453,0.66129 0.18818,0.23442 0.37636,0.4833 0.56454,0.74762 0.18818,0.26431 0.37636,0.54416 0.56453,0.84037 0.18818,0.29621 0.37636,0.60888 0.56454,0.93858 0.18818,0.32969 0.37636,0.67653 0.56453,1.04073 0.18818,0.3642 0.37636,0.74588 0.56454,1.14484 0.18818,0.39897 0.37636,0.81532 0.56453,1.24837 0.18818,0.43306 0.37636,0.88291 0.56454,1.34831 0.18818,0.46541 0.37636,0.94645 0.56453,1.4413 0.18818,0.49485 0.37636,1.00359 0.56454,1.5238 0.18818,0.52021 0.37636,1.05197 0.56454,1.59235 0.18817,0.54038 0.37635,1.08944 0.56453,1.64385 0.18818,0.55441 0.37636,1.1142 0.56454,1.67581 0.18817,0.56161 0.37635,1.12504 0.56453,1.68665 0.18818,0.56162 0.37636,1.12139 0.56454,1.67582 0.18817,0.55442 0.37635,1.10345 0.56453,1.64385 0.18818,0.5404 0.37636,1.07211 0.56454,1.59235 0.18818,0.52023 0.37635,1.02892 0.56453,1.52379 0.18818,0.49488 0.37636,0.97587 0.56454,1.4413 0.18818,0.46543 0.37635,0.91522 0.56453,1.34831 0.18818,0.43309 0.37636,0.84937 0.56454,1.24837 0.18818,0.399 0.37635,0.78061 0.56453,1.14485 0.18818,0.36423 0.37636,0.711 0.56454,1.04073 0.18818,0.32973 0.37635,0.64233 0.56453,0.93857 0.18818,0.29625 0.37636,0.57603 0.56454,0.84038 0.18818,0.26435 0.37636,0.51316 0.56453,0.74762 0.18818,0.23445 0.37636,0.45446 0.56454,0.66129 0.18818,0.20682 0.37636,0.40039 0.56453,0.58197 0.18818,0.18159 0.37636,0.35112 0.56454,0.50989 0.18818,0.15876 0.37636,0.30668 0.56453,0.44498 0.18818,0.1383 0.37636,0.26692 0.56454,0.38701 0.18818,0.12009 0.37636,0.2316 0.56454,0.3356 0.18817,0.10399 0.37635,0.20042 0.56453,0.29026 0.18818,0.0898 0.37636,0.17305 0.56454,0.2505 0.18817,0.0774 0.37635,0.1491 0.56453,0.21575 0.18818,0.0667 0.37636,0.12826 0.56454,0.18553 0.18817,0.0573 0.37635,0.11017 0.56453,0.15931 0.18818,0.0491 0.37636,0.0945 0.56454,0.13663 0.18817,0.0421 0.37635,0.081 0.56453,0.11705 0.18818,0.0361 0.37636,0.0693 0.56454,0.10019 0.18818,0.0309 0.37635,0.0593 0.56453,0.0857 0.18818,0.0264 0.37636,0.0507 0.56454,0.0733 0.18818,0.0225 0.37635,0.0433 0.56453,0.0626 0.18818,0.0193 0.37636,0.037 0.56454,0.0534 0.18818,0.0164 0.37635,0.0316 0.56453,0.0456 0.18818,0.014 0.37636,0.0269 0.56454,0.0389 0.18818,0.012 0.37636,0.023 0.56453,0.0332 0.18818,0.0102 0.37636,0.0196 0.56454,0.0283 0.18818,0.009 0.37636,0.0167 0.56453,0.0241 0.18818,0.007 0.37636,0.0142 0.56454,0.0206 0.18818,0.006 0.37636,0.0121 0.56453,0.0175 0.18818,0.005 0.37636,0.0103 0.56454,0.0149 0.18818,0.005 0.37636,0.009 0.56453,0.0127 0.18818,0.004 0.37636,0.008 0.56454,0.0108 0.18818,0.003 0.37636,0.006 0.56454,0.009 0.18817,0.003 0.37635,0.005 0.56453,0.008 0.18818,0.002 0.37636,0.005 0.56454,0.007 0.18817,0.002 0.37635,0.004 0.56453,0.006 0.18818,0.002 0.37636,0.003 0.56454,0.005 0.18817,10e-4 0.37635,0.003 0.56453,0.004 0.18818,0.001 0.37636,0.002 0.56454,0.004 0.18817,0.001 0.37635,0.002 0.56453,0.003 0.18818,9.2e-4 0.37636,0.002 0.56454,0.003 0.18818,7.8e-4 0.37635,0.002 0.56453,0.002 0.18818,6.7e-4 0.37636,0.001 0.56454,0.002 0.18818,5.7e-4 0.37635,0.001 0.56453,0.002 0.18818,4.9e-4 0.37636,9.3e-4 0.56454,0.001 0.18818,4.1e-4 0.37635,7.9e-4 0.56453,0.001 0.18818,3.5e-4 0.37636,6.8e-4 0.56454,9.7e-4 0.18818,3e-4 0.37636,5.8e-4 0.56453,8.3e-4 0.18818,2.6e-4 0.37636,4.9e-4 0.56454,7.1e-4 0.18818,2.2e-4 0.37636,4.2e-4 0.56453,6e-4 0.18818,1.9e-4 0.37636,3.6e-4 0.56454,5.1e-4 0.18818,1.6e-4 0.37636,3.1e-4 0.56453,4.4e-4 0.18818,1.3e-4 0.37636,2.6e-4 0.56454,3.7e-4 0.18818,1.2e-4 0.37636,2.2e-4 0.56453,3.2e-4 0.18818,9e-5 0.37636,1.8e-4 0.56454,2.7e-4 0.18818,8e-5 0.37636,1.6e-4 0.56454,2.3e-4 0.18817,7e-5 0.37635,1.3e-4 0.56453,1.9e-4 0.18818,6e-5 0.37636,1.2e-4 0.56454,1.7e-4 0.18817,5e-5 0.37635,1e-4 0.56453,1.4e-4 0.18818,4e-5 0.37636,8e-5 0.56454,1.2e-4 0.18817,4e-5 0.37635,7e-5 0.56453,1e-4 0.18818,3e-5 0.37636,6e-5 0.56454,9e-5 0.18818,3e-5 0.37635,5e-5 0.56453,7e-5 0.18818,3e-5 0.37636,5e-5 0.56454,7e-5 0.18818,2e-5 0.37635,3e-5 0.56453,5e-5 0.18818,2e-5 0.37636,3e-5 0.56454,5e-5 0.18818,1e-5 0.37635,2e-5 0.56453,4e-5 0.18818,1e-5 0.37636,2e-5 0.56454,3e-5 0.18818,1e-5 0.37635,2e-5 0.56453,3e-5 0.18818,1e-5 0.37636,1e-5 0.56454,2e-5 0.18818,1e-5 0.37636,2e-5 0.56453,2e-5 0.18818,1e-5 0.37636,1e-5 0.56454,2e-5 0.18818,1e-5 0.37636,1e-5 0.56453,1e-5 0.18818,10e-6 0.37636,10e-6 0.56454,2e-5 0.18818,0 0.37636,0 0.56453,1e-5 0.18818,0 0.37636,0 0.56454,1e-5 0.18818,0 0.37636,0 0.56454,1e-5 0.18817,0 0.37635,0 0.56453,0 0.18818,0 0.37636,1e-5 0.56454,1e-5 0.18817,0 0.37635,0 0.56453,0 0.18818,0 0.37636,1e-5 0.56454,1e-5 0.18817,0 0.37635,0 0.56453,0 0.18818,0 0.37636,0 0.56454,0 0.18817,0 0.37635,0 0.56453,1e-5 0.18818,0 0.37636,0 0.56454,0 0.18818,0 0.37635,0 0.56453,0 0.18818,0 0.37636,0 0.56454,0 0.18818,0 0.37635,0 0.56453,0 0.18818,0 0.37636,0 0.56454,0 0.18818,0 0.37635,0 0.56453,0 0.18818,0 0.37636,1e-5 0.56454,1e-5"
       style="fill:none;fill-opacity:0.43283584;stroke:#0000fc;stroke-width:1;stroke-miterlimit:4;stroke-dasharray:none;stroke-dashoffset:0;stroke-opacity:1"
       inkscape:connector-curvature="0" />
  </g>
</svg>
