<?xml version="1.0" encoding="UTF-8" standalone="no"?>
<!-- Created with Inkscape (http://www.inkscape.org/) -->

<svg
   xmlns:dc="http://purl.org/dc/elements/1.1/"
   xmlns:cc="http://creativecommons.org/ns#"
   xmlns:rdf="http://www.w3.org/1999/02/22-rdf-syntax-ns#"
   xmlns:svg="http://www.w3.org/2000/svg"
   xmlns="http://www.w3.org/2000/svg"
   xmlns:sodipodi="http://sodipodi.sourceforge.net/DTD/sodipodi-0.dtd"
   xmlns:inkscape="http://www.inkscape.org/namespaces/inkscape"
   width="297mm"
   height="210mm"
   viewBox="0 0 297 210"
   version="1.1"
   id="svg5"
   sodipodi:docname="Figure_Lighthill.svg"
   inkscape:version="0.92.5 (2060ec1f9f, 2020-04-08)">
  <metadata
     id="metadata45">
    <rdf:RDF>
      <cc:Work
         rdf:about="">
        <dc:format>image/svg+xml</dc:format>
        <dc:type
           rdf:resource="http://purl.org/dc/dcmitype/StillImage" />
      </cc:Work>
    </rdf:RDF>
  </metadata>
  <sodipodi:namedview
     id="namedview7"
     pagecolor="#ffffff"
     bordercolor="#666666"
     borderopacity="1.0"
     inkscape:pageshadow="2"
     inkscape:pageopacity="0.0"
     inkscape:pagecheckerboard="0"
     inkscape:document-units="mm"
     showgrid="false"
     inkscape:zoom="0.77771465"
     inkscape:cx="556.75948"
     inkscape:cy="560.61693"
     inkscape:window-width="3399"
     inkscape:window-height="1650"
     inkscape:window-x="154"
     inkscape:window-y="341"
     inkscape:window-maximized="0"
     inkscape:current-layer="layer1" />
  <defs
     id="defs2">
    <marker
       inkscape:isstock="true"
       style="overflow:visible"
       id="marker4023"
       refX="0"
       refY="0"
       orient="auto"
       inkscape:stockid="Arrow1Mstart">
      <path
         transform="matrix(0.4,0,0,0.4,4,0)"
         style="fill:#ff0400;fill-opacity:1;fill-rule:evenodd;stroke:#ff0400;stroke-width:1.00000003pt;stroke-opacity:1"
         d="M 0,0 5,-5 -12.5,0 5,5 Z"
         id="path4021"
         inkscape:connector-curvature="0" />
    </marker>
    <marker
       inkscape:stockid="Arrow1Mstart"
       orient="auto"
       refY="0"
       refX="0"
       id="marker3785"
       style="overflow:visible"
       inkscape:isstock="true">
      <path
         inkscape:connector-curvature="0"
         id="path3783"
         d="M 0,0 5,-5 -12.5,0 5,5 Z"
         style="fill:#0000f9;fill-opacity:1;fill-rule:evenodd;stroke:#0000f9;stroke-width:1.00000003pt;stroke-opacity:1"
         transform="matrix(0.4,0,0,0.4,4,0)" />
    </marker>
    <marker
       inkscape:isstock="true"
       style="overflow:visible"
       id="Arrow1Mstart"
       refX="0"
       refY="0"
       orient="auto"
       inkscape:stockid="Arrow1Mstart"
       inkscape:collect="always">
      <path
         transform="matrix(0.4,0,0,0.4,4,0)"
         style="fill:#0000f9;fill-opacity:1;fill-rule:evenodd;stroke:#0000f9;stroke-width:1.00000003pt;stroke-opacity:1"
         d="M 0,0 5,-5 -12.5,0 5,5 Z"
         id="path1045"
         inkscape:connector-curvature="0" />
    </marker>
    <marker
       inkscape:collect="always"
       inkscape:isstock="true"
       style="overflow:visible"
       id="marker1469"
       refX="0"
       refY="0"
       orient="auto"
       inkscape:stockid="Arrow1Mend">
      <path
         transform="matrix(-0.4,0,0,-0.4,-4,0)"
         style="fill:#000000;fill-opacity:1;fill-rule:evenodd;stroke:#000000;stroke-width:1.00000003pt;stroke-opacity:1"
         d="M 0,0 5,-5 -12.5,0 5,5 Z"
         id="path1467"
         inkscape:connector-curvature="0" />
    </marker>
    <marker
       inkscape:collect="always"
       inkscape:stockid="Arrow1Mend"
       orient="auto"
       refY="0"
       refX="0"
       id="marker4751"
       style="overflow:visible"
       inkscape:isstock="true">
      <path
         inkscape:connector-curvature="0"
         id="path4749"
         d="M 0,0 5,-5 -12.5,0 5,5 Z"
         style="fill:#000000;fill-opacity:1;fill-rule:evenodd;stroke:#000000;stroke-width:1.00000003pt;stroke-opacity:1"
         transform="matrix(-0.4,0,0,-0.4,-4,0)" />
    </marker>
    <marker
       inkscape:isstock="true"
       style="overflow:visible"
       refX="0"
       refY="0"
       orient="auto"
       inkscape:stockid="Arrow1Mstart6200"
       id="Arrow1Mstart6200">
      <path
         transform="matrix(0.4,0,0,0.4,4,0)"
         style="fill:#fb0000;fill-opacity:1.0;fill-rule:evenodd;stroke:#000000;stroke-width:1.00000003pt;stroke-opacity:1"
         d="M 0,0 5,-5 -12.5,0 5,5 Z"
         id="path20860"
         inkscape:connector-curvature="0" />
    </marker>
    <marker
       inkscape:collect="always"
       inkscape:isstock="true"
       style="overflow:visible"
       refX="0"
       refY="0"
       orient="auto"
       inkscape:stockid="marker14699669"
       id="marker14699669">
      <path
         transform="matrix(-0.4,0,0,-0.4,-4,0)"
         style="fill:#006500;fill-opacity:1;fill-rule:evenodd;stroke:#006400;stroke-width:1.00000003pt;stroke-opacity:1"
         d="M 0,0 5,-5 -12.5,0 5,5 Z"
         id="path21734"
         inkscape:connector-curvature="0" />
    </marker>
    <marker
       inkscape:collect="always"
       inkscape:isstock="true"
       style="overflow:visible"
       refX="0"
       refY="0"
       orient="auto"
       inkscape:stockid="marker14699669"
       id="marker14699669-9">
      <path
         transform="matrix(-0.4,0,0,-0.4,-4,0)"
         style="fill:#006500;fill-opacity:1;fill-rule:evenodd;stroke:#006400;stroke-width:1pt;stroke-opacity:1"
         d="M 0,0 5,-5 -12.5,0 5,5 Z"
         id="path21734-9"
         inkscape:connector-curvature="0" />
    </marker>
    <marker
       inkscape:isstock="true"
       style="overflow:visible"
       refX="0"
       refY="0"
       orient="auto"
       inkscape:stockid="Arrow1Mstart62001970"
       id="Arrow1Mstart62001970">
      <path
         transform="matrix(0.4,0,0,0.4,4,0)"
         style="fill:#fb0000;fill-opacity:1;fill-rule:evenodd;stroke:#ff0000;stroke-width:1.00000003pt;stroke-opacity:1"
         d="M 0,0 5,-5 -12.5,0 5,5 Z"
         id="path22128"
         inkscape:connector-curvature="0" />
    </marker>
    <marker
       inkscape:collect="always"
       inkscape:isstock="true"
       style="overflow:visible"
       refX="0"
       refY="0"
       orient="auto"
       inkscape:stockid="marker14699669"
       id="marker14699669-9-7">
      <path
         transform="matrix(-0.4,0,0,-0.4,-4,0)"
         style="fill:#ff0400;fill-opacity:1;fill-rule:evenodd;stroke:#ff0400;stroke-width:1.00000003pt;stroke-opacity:1"
         d="M 0,0 5,-5 -12.5,0 5,5 Z"
         id="path21734-9-4"
         inkscape:connector-curvature="0" />
    </marker>
  </defs>
  <g
     inkscape:label="Layer 1"
     inkscape:groupmode="layer"
     id="layer1">
    <g
       id="g1433"
       transform="translate(237.80412,-92.195876)">
      <circle
         style="fill:#000000;fill-opacity:1;stroke:#000003;stroke-width:0.74161702;stroke-miterlimit:4;stroke-dasharray:none;stroke-opacity:1"
         id="path1003"
         cx="26.395792"
         cy="123.42101"
         r="3.045913" />
      <path
         style="fill:none;stroke:#000000;stroke-width:0.74161702;stroke-linecap:butt;stroke-linejoin:miter;stroke-miterlimit:4;stroke-dasharray:none;stroke-opacity:1;marker-start:url(#Arrow1Mstart);marker-end:url(#marker1469)"
         d="m 26.263361,103.95365 v 19.33493 h 18.805198"
         id="path1011"
         inkscape:connector-curvature="0" />
      <path
         style="fill:none;stroke:#000000;stroke-width:0.74161702;stroke-linecap:butt;stroke-linejoin:miter;stroke-miterlimit:4;stroke-dasharray:none;stroke-opacity:1;marker-end:url(#marker4751)"
         d="m 26.263361,123.28858 -13.289024,7.67243"
         id="path1013"
         inkscape:connector-curvature="0" />
      <text
         xml:space="preserve"
         style="font-style:normal;font-variant:normal;font-weight:normal;font-stretch:normal;font-size:4.74632978px;line-height:0%;font-family:'Palatino Linotype';-inkscape-font-specification:'Palatino Linotype';letter-spacing:0px;word-spacing:0px;fill:#000000;fill-opacity:1;stroke:none;stroke-width:0.37080601"
         x="48.035015"
         y="125.67233"
         id="text1563"><tspan
           sodipodi:role="line"
           id="tspan1561"
           x="48.035015"
           y="125.67233"
           style="font-size:10.87699986px;line-height:1.25;stroke-width:0.37080601">x</tspan></text>
      <text
         xml:space="preserve"
         style="font-style:normal;font-variant:normal;font-weight:normal;font-stretch:normal;font-size:4.74632978px;line-height:0%;font-family:'Palatino Linotype';-inkscape-font-specification:'Palatino Linotype';letter-spacing:0px;word-spacing:0px;fill:#000000;fill-opacity:1;stroke:none;stroke-width:0.37080601"
         x="21.002407"
         y="100.6829"
         id="text1567"><tspan
           sodipodi:role="line"
           id="tspan1565"
           x="21.002407"
           y="100.6829"
           style="font-size:10.87699986px;line-height:1.25;stroke-width:0.37080601">y</tspan></text>
      <text
         xml:space="preserve"
         style="font-style:normal;font-variant:normal;font-weight:normal;font-stretch:normal;font-size:4.74632978px;line-height:0%;font-family:'Palatino Linotype';-inkscape-font-specification:'Palatino Linotype';letter-spacing:0px;word-spacing:0px;fill:#000000;fill-opacity:1;stroke:none;stroke-width:0.37080601"
         x="5.4608836"
         y="137.30176"
         id="text1571"><tspan
           sodipodi:role="line"
           id="tspan1569"
           x="5.4608836"
           y="137.30176"
           style="font-size:10.87699986px;line-height:1.25;stroke-width:0.37080601">z</tspan></text>
    </g>
    <path
       style="fill:#006500;fill-opacity:1;stroke:#006400;stroke-width:1.44688177;stroke-linecap:butt;stroke-linejoin:miter;stroke-miterlimit:4;stroke-dasharray:none;stroke-opacity:1;marker-end:url(#marker14699669-9)"
       d="M 46.133177,63.883722 H 4.5501795"
       id="path12091-0"
       inkscape:connector-curvature="0" />
    <path
       id="path1055-5"
       title="sin(x)"
       d="m 20.641382,167.39739 c 0.410615,-0.5859 0.82123,-1.1718 1.231844,-1.75508 0.410615,-0.58327 0.82123,-1.16392 1.231846,-1.73934 0.410614,-0.57542 0.821228,-1.1456 1.231843,-1.70801 0.410614,-0.56242 0.82123,-1.11701 1.231845,-1.66138 0.410614,-0.54435 0.821229,-1.07841 1.231843,-1.59983 0.410616,-0.52142 0.82123,-1.03014 1.231844,-1.52395 0.410615,-0.49381 0.82123,-0.97263 1.231845,-1.43441 0.410614,-0.46178 0.821229,-0.90641 1.231844,-1.33201 0.410614,-0.4256 0.821229,-0.83205 1.231844,-1.21766 0.410614,-0.38561 0.821229,-0.75024 1.231844,-1.0924 0.410615,-0.34216 0.82123,-0.66171 1.231844,-0.95735 0.410615,-0.29564 0.82123,-0.56723 1.231845,-0.8137 0.410614,-0.24647 0.821229,-0.46768 1.231844,-0.66277 0.410614,-0.1951 0.821229,-0.36393 1.231844,-0.5059 0.410615,-0.14197 0.821229,-0.25691 1.231844,-0.34448 0.410615,-0.0876 0.821229,-0.1476 1.231845,-0.17998 0.410614,-0.0324 0.821229,-0.037 1.231844,-0.0139 0.410614,0.0231 0.821229,0.074 1.231844,0.15237 0.410614,0.0784 0.821229,0.18431 1.231844,0.31724 0.410615,0.13292 0.821229,0.29297 1.231844,0.47927 0.410615,0.18629 0.821229,0.399 1.231846,0.637 0.410612,0.238 0.821227,0.50145 1.231842,0.78902 0.410615,0.28757 0.82123,0.5994 1.231845,0.93396 0.410614,0.33456 0.821229,0.69199 1.231844,1.07055 0.410615,0.37855 0.82123,0.77836 1.231844,1.19751 0.410615,0.41915 0.82123,0.85776 1.231845,1.31375 0.410615,0.45599 0.821229,0.92947 1.231844,1.41821 0.410615,0.48875 0.82123,0.99285 1.231845,1.50996 0.410615,0.51711 0.821229,1.04732 1.231844,1.58817 0.410615,0.54084 0.82123,1.0924 1.231845,1.65213 0.410614,0.55973 0.821227,1.1277 1.231844,1.7013 0.410612,0.57359 0.82123,1.15287 1.231844,1.73519 0.410613,0.58233 0.821227,1.16772 1.231848,1.75355 0.410609,0.58582 0.821229,1.17209 1.231841,1.75617 0.41061,0.58408 0.82123,1.16596 1.231839,1.74305 0.410621,0.5771 0.821233,1.14937 1.231853,1.7143 0.410609,0.56494 0.821222,1.12249 1.231842,1.6702 0.410609,0.54771 0.821229,1.08552 1.231839,1.6111 0.41062,0.52558 0.821232,1.03884 1.23185,1.53757 0.410612,0.49873 0.821224,0.98284 1.231841,1.45025 0.410612,0.46741 0.821233,0.91803 1.231842,1.34993 0.41062,0.4319 0.82123,0.84498 1.23185,1.23751 0.410612,0.39252 0.821222,0.76436 1.231842,1.11398 0.410612,0.34963 0.821232,0.67689 1.231841,0.98049 0.410621,0.30359 0.82123,0.58335 1.231842,0.83819 0.41062,0.25483 0.82123,0.48458 1.23185,0.68837 0.410609,0.20379 0.82123,0.38147 1.231842,0.5324 0.41062,0.15092 0.821229,0.27493 1.231842,0.37163 0.41062,0.0967 0.821229,0.16594 1.231849,0.20756 0.41061,0.0416 0.82123,0.0554 1.231842,0.0416 0.410617,-0.0139 0.82123,-0.0555 1.231842,-0.12472 0.41062,-0.0691 0.821229,-0.16602 1.23185,-0.28992 0.410609,-0.1239 0.821229,-0.27502 1.231841,-0.45253 0.410618,-0.1775 0.821227,-0.38154 1.231837,-0.61107 0.410623,-0.22951 0.821232,-0.48466 1.231852,-0.76414 0.41061,-0.27947 0.82123,-0.58342 1.23185,-0.91035 0.410609,-0.32693 0.82123,-0.67696 1.231839,-1.04841 0.41062,-0.37145 0.82123,-0.76443 1.23185,-1.17707 0.410612,-0.41264 0.821232,-0.84505 1.231842,-1.29517 0.410609,-0.45012 0.821229,-0.91808 1.231839,-1.40166 0.41062,-0.48358 0.821229,-0.98288 1.231849,-1.49559 0.41061,-0.5127 0.82123,-1.03888 1.23184,-1.5761 0.410612,-0.53722 0.821232,-1.08556 1.231841,-1.64249 0.410621,-0.55693 0.821241,-1.1225 1.231861,-1.69415 0.410609,-0.57164 0.821224,-1.14938 1.231844,-1.73062 0.4106,-0.58123 0.82123,-1.16596 1.23184,-1.75158 0.41062,-0.5856 0.82123,-1.17208 1.23185,-1.75682 0.41061,-0.58474 0.82122,-1.16771 1.23184,-1.74633 0.41061,-0.57862 0.82123,-1.15286 1.23184,-1.72017 0.41062,-0.56732 0.82123,-1.12767 1.23185,-1.6786 0.41061,-0.55093 0.82122,-1.09237 1.23184,-1.62197 0.41061,-0.5296 0.82123,-1.04728 1.23184,-1.5508 0.41062,-0.50352 0.82124,-0.9928 1.23185,-1.46573 0.41062,-0.47293 0.82123,-0.92941 1.23185,-1.36751 0.41061,-0.4381 0.82123,-0.85771 1.23184,-1.25705 0.41062,-0.39934 0.82123,-0.77829 1.23184,-1.1353 0.41062,-0.357 0.82123,-0.69192 1.23185,-1.00338 0.41061,-0.31146 0.82123,-0.59933 1.23184,-0.86246 0.41062,-0.26313 0.82123,-0.50137 1.23184,-0.71381 0.41062,-0.21244 0.82124,-0.39892 1.23185,-0.55876 0.41062,-0.15984 0.82125,-0.29289 1.23186,-0.3987 0.41062,-0.10581 0.82123,-0.18423 1.23184,-0.23507 0.41062,-0.0508 0.82122,-0.0739 1.23184,-0.0693 0.41061,0.005 0.82123,0.037 1.23184,0.097 0.41062,0.06 0.82124,0.14768 1.23185,0.26253 0.41062,0.11484 0.82123,0.257 1.23185,0.42566 0.4106,0.16867 0.82123,0.36401 1.23183,0.58499 0.41061,0.22098 0.82123,0.46776 1.23185,0.73907 0.41062,0.27131 0.82123,0.56731 1.23185,0.88652 0.41061,0.31921 0.82123,0.66177 1.23184,1.02602 0.41062,0.36425 0.82124,0.75031 1.23184,1.15633 0.41063,0.40602 0.82123,0.83212 1.23185,1.27627 0.41061,0.44415 0.82123,0.90646 1.23185,1.38476 0.41061,0.4783 0.82123,0.97268 1.23184,1.48084 0.41062,0.50816 0.82123,1.03018 1.23185,1.56365 0.4106,0.53347 0.82121,1.07844 1.23183,1.63243 0.41061,0.55398 0.82123,1.11704 1.23185,1.68658 0.41062,0.56954 0.82123,1.14562 1.23185,1.72561 0.41061,0.58 0.82122,1.16393 1.23184,1.74917 0.4106,0.58525 0.82122,1.17181 1.23184,1.75705 0.41061,0.58524 0.82123,1.16917 1.23185,1.74917 0.41061,0.58 0.82123,1.15605 1.23185,1.72561 0.41061,0.56956 0.82123,1.13258 1.23184,1.68659 0.41062,0.554 0.82123,1.09894 1.23183,1.63242 0.41062,0.5335 0.82123,1.05546 1.23185,1.56366 0.41062,0.50818 0.82124,1.0025 1.23185,1.48084 0.41062,0.47833 0.82123,0.94057 1.23184,1.38476 0.41062,0.44418 0.82123,0.87021 1.23185,1.27626 0.4106,0.40606 0.82122,0.79204 1.23183,1.15633 0.41062,0.36429 0.82124,0.70677 1.23186,1.02603 0.41061,0.31925 0.82123,0.61515 1.23185,0.88651 0.41061,0.27136 0.82123,0.51804 1.23184,0.73907 0.41061,0.22103 0.82123,0.41626 1.23183,0.58499 0.41062,0.16872 0.82123,0.31076 1.23185,0.42566 0.41062,0.1149 0.82124,0.20249 1.23185,0.26253 0.41061,0.0601 0.82123,0.0924 1.23184,0.097 0.41062,0.004 0.82122,-0.0185 1.23185,-0.0693 0.4106,-0.0508 0.82122,-0.12931 1.23184,-0.23507 0.41061,-0.10576 0.82123,-0.23891 1.23184,-0.3987 0.41062,-0.1598 0.82123,-0.34638 1.23185,-0.55876 0.41062,-0.21239 0.82123,-0.45074 1.23185,-0.71381 0.4106,-0.26309 0.82123,-0.55105 1.23183,-0.86246 0.41062,-0.31142 0.82124,-0.64643 1.23186,-1.00338 0.41061,-0.35696 0.82122,-0.736 1.23184,-1.1353 0.41061,-0.3993 0.82123,-0.81898 1.23184,-1.25704 0.41062,-0.43806 0.82122,-0.89463 1.23184,-1.36752 0.41061,-0.4729 0.82123,-0.96224 1.23185,-1.46573 0.41061,-0.50349 0.82123,-1.02122 1.23184,-1.5508 0.41062,-0.52957 0.82123,-1.07106 1.23185,-1.62197 0.41061,-0.5509 0.82121,-1.11129 1.23183,-1.6786 0.41062,-0.5673 0.82124,-1.14156 1.23185,-1.72017 0.41062,-0.57861 0.82124,-1.1616 1.23185,-1.74633 0.41062,-0.58473 0.82123,-1.17122 1.23185,-1.75683 0.41061,-0.5856 0.82123,-1.17034 1.23184,-1.75157 0.41062,-0.58124 0.82122,-1.15896 1.23184,-1.73062 0.41062,-0.57166 0.82123,-1.13721 1.23185,-1.69415 0.41061,-0.55695 0.82123,-1.10524 1.23184,-1.64249 0.41062,-0.53725 0.82123,-1.06337 1.23184,-1.5761 0.41062,-0.51273 0.82122,-1.01197 1.23184,-1.49559 0.41062,-0.48361 0.82124,-0.9515 1.23185,-1.40166 0.41062,-0.45016 0.82124,-0.88249 1.23185,-1.29517 0.41062,-0.41268 0.82123,-0.80558 1.23185,-1.17707 0.41061,-0.37149 0.82123,-0.72144 1.23184,-1.04841 0.4106,-0.32698 0.82122,-0.63084 1.23184,-0.91036 0.41062,-0.27952 0.82123,-0.53457 1.23185,-0.76414 0.41061,-0.22957 0.82123,-0.43351 1.23184,-0.61107 0.41061,-0.17756 0.82123,-0.32857 1.23183,-0.45252 0.41063,-0.12396 0.82124,-0.22069 1.23186,-0.28992 0.41061,-0.0692 0.82123,-0.11082 1.23184,-0.12472 0.41061,-0.0139 0.82123,4e-5 1.23184,0.0416 0.41062,0.0416 0.82124,0.1109 1.23185,0.20755 0.41062,0.0967 0.82122,0.22077 1.23185,0.37164 0.41061,0.15087 0.82123,0.32865 1.23184,0.53239 0.41062,0.20375 0.82123,0.4336 1.23185,0.68838 0.41061,0.25478 0.82122,0.53465 1.23184,0.83819 0.41061,0.30354 0.82123,0.6309 1.23183,0.98048 0.41062,0.34958 0.82124,0.72151 1.23186,1.11399 0.41061,0.39249 0.82122,0.80564 1.23184,1.23751 0.41061,0.43187 0.82123,0.88255 1.23184,1.34993 0.41062,0.46738 0.82123,0.95155 1.23185,1.45025 0.41061,0.4987 0.82122,1.01202 1.23185,1.53757 0.41061,0.52555 0.82123,1.06341 1.23184,1.6111 0.41062,0.5477 0.82123,1.10528 1.23184,1.6702 0.41062,0.56492 0.82123,1.13722 1.23185,1.7143 0.41061,0.57709 0.82123,1.15898 1.23184,1.74305 0.41062,0.58409 0.82123,1.17035 1.23184,1.75618 0.41062,0.58583 0.82123,1.17122 1.23185,1.75354 0.41061,0.58233 0.82123,1.16159 1.23184,1.7352 0.41062,0.57361 0.82123,1.14154 1.23184,1.70129 0.41062,0.55975 0.82123,1.11127 1.23185,1.65214 0.41061,0.54087 0.82123,1.07102 1.23185,1.58816 0.41061,0.51715 0.82123,1.02119 1.23184,1.50997 0.41062,0.48876 0.82123,0.96218 1.23185,1.4182 0.41061,0.45603 0.82123,0.89457 1.23184,1.31376 0.41061,0.41919 0.82123,0.81891 1.23184,1.19751 0.41062,0.37859 0.82123,0.73594 1.23185,1.07054 0.41061,0.33461 0.82123,0.64635 1.23184,0.93397 0.41061,0.28762 0.82123,0.55097 1.23184,0.78901 0.41062,0.23806 0.82123,0.45065 1.23185,0.637 0.41061,0.18636 0.82122,0.3463 1.23184,0.47928 0.41062,0.13298 0.82123,0.23883 1.23185,0.31723 0.41062,0.0784 0.82123,0.12923 1.23185,0.15238 0.41061,0.0231 0.82122,0.0184 1.23184,-0.0139 0.41061,-0.0323 0.82123,-0.0925 1.23184,-0.17999 0.41062,-0.0875 0.82123,-0.20257 1.23185,-0.34448 0.41061,-0.14192 0.82122,-0.31086 1.23184,-0.50589 0.41061,-0.19505 0.82123,-0.41635 1.23184,-0.66277 0.41062,-0.24643 0.82123,-0.51812 1.23184,-0.81371 0.41062,-0.29559 0.82123,-0.61523 1.23185,-0.95734 0.41061,-0.34211 0.82123,-0.70684 1.23184,-1.09241 0.41062,-0.38556 0.82124,-0.7921 1.23185,-1.21766 0.41062,-0.42556 0.82123,-0.87026 1.23185,-1.332 0.41061,-0.46175 0.82123,-0.94063 1.23184,-1.43441 0.41062,-0.49378 0.82123,-1.00256 1.23184,-1.52396 0.41062,-0.52139 0.82123,-1.05549 1.23185,-1.59983 0.41061,-0.54434 0.82123,-1.09898 1.23184,-1.66137 0.41062,-0.5624 0.82123,-1.1326 1.23184,-1.70801 0.41062,-0.57542 0.82123,-1.15607 1.23185,-1.73934 0.41061,-0.58328 0.82123,-1.16918 1.23184,-1.75508"
       style="fill:none;fill-opacity:1;stroke:#0000f9;stroke-width:1.566;stroke-miterlimit:4;stroke-dasharray:none;stroke-dashoffset:0;stroke-opacity:1;marker-end:"
       inkscape:connector-curvature="0" />
    <text
       xml:space="preserve"
       style="font-style:normal;font-variant:normal;font-weight:normal;font-stretch:normal;font-size:9.8777771px;line-height:1.25;font-family:'Palatino Linotype';-inkscape-font-specification:'Palatino Linotype';letter-spacing:0px;word-spacing:0px;stroke-width:0.26458332;"
       x="78.247421"
       y="39.556705"
       id="text1941"><tspan
         sodipodi:role="line"
         id="tspan1939"
         x="78.247421"
         y="48.324425"
         style="stroke-width:0.26458332;-inkscape-font-specification:'Palatino Linotype';font-family:'Palatino Linotype';font-weight:normal;font-style:normal;font-stretch:normal;font-variant:normal;" /></text>
    <text
       xml:space="preserve"
       style="font-size:14.1111021px;line-height:1.25;font-family:'Palatino Linotype';-inkscape-font-specification:'Palatino Linotype';letter-spacing:0px;word-spacing:0px;stroke-width:0.26458299"
       x="22.384783"
       y="130.98347"
       id="text13784-7-1"><tspan
         sodipodi:role="line"
         id="tspan13782-5-6"
         style="font-size:14.1111021px;stroke-width:0.26458299"
         x="22.384783"
         y="130.98347">(b)</tspan></text>
    <text
       xml:space="preserve"
       style="font-size:14.11110306px;line-height:1.25;font-family:'Palatino Linotype';-inkscape-font-specification:'Palatino Linotype';letter-spacing:0px;word-spacing:0px;stroke-width:0.26458299"
       x="44.726631"
       y="131.3042"
       id="text13784-7-3-9"><tspan
         sodipodi:role="line"
         id="tspan13782-5-9-7"
         style="font-size:14.11110306px;stroke-width:0.26458299"
         x="44.726631"
         y="131.3042">wave frame</tspan></text>
    <text
       xml:space="preserve"
       style="font-style:normal;font-variant:normal;font-weight:normal;font-stretch:normal;font-size:14.11110115px;line-height:1.25;font-family:'Palatino Linotype';-inkscape-font-specification:'Palatino Linotype';letter-spacing:0px;word-spacing:0px;stroke-width:0.26458299;"
       x="96.261177"
       y="50.420864"
       id="text14998-8"><tspan
         sodipodi:role="line"
         id="tspan14996-4"
         style="font-style:normal;font-variant:normal;font-weight:normal;font-stretch:normal;font-size:14.11110115px;font-family:'Palatino Linotype';-inkscape-font-specification:'Palatino Linotype';stroke-width:0.26458299;"
         x="96.261177"
         y="62.946171" /></text>
    <path
       style="fill:#006500;fill-opacity:1;stroke:#006400;stroke-width:1.44372499;stroke-linecap:butt;stroke-linejoin:miter;stroke-miterlimit:4;stroke-dasharray:none;stroke-opacity:1;marker-end:url(#marker14699669)"
       d="M 200.82506,64.18621 H 242.2268"
       id="path12091"
       inkscape:connector-curvature="0" />
    <text
       xml:space="preserve"
       style="font-size:14.1111002px;line-height:1.25;font-family:'Palatino Linotype';-inkscape-font-specification:'Palatino Linotype';letter-spacing:0px;word-spacing:0px;stroke-width:0.26458299"
       x="220.45361"
       y="57.420177"
       id="text13784"><tspan
         sodipodi:role="line"
         id="tspan13782"
         style="font-size:14.1111002px;stroke-width:0.26458299"
         x="220.45361"
         y="57.420177">c</tspan></text>
    <text
       xml:space="preserve"
       style="font-size:14.1111002px;line-height:1.25;font-family:'Palatino Linotype';-inkscape-font-specification:'Palatino Linotype';letter-spacing:0px;word-spacing:0px;stroke-width:0.26458299"
       x="25.855669"
       y="76.774239"
       id="text14998"><tspan
         sodipodi:role="line"
         id="tspan14996"
         style="font-size:14.1111002px;stroke-width:0.26458299"
         x="25.855669"
         y="76.774239">U</tspan></text>
    <path
       id="path1055"
       title="sin(x)"
       d="m 16.558908,64.700773 c 0.410615,-0.5859 0.82123,-1.1718 1.231844,-1.75508 0.410615,-0.58327 0.82123,-1.16392 1.231845,-1.73934 0.410614,-0.57542 0.821229,-1.1456 1.231844,-1.70801 0.410614,-0.56242 0.821229,-1.11701 1.231844,-1.66138 0.410614,-0.54435 0.82123,-1.07841 1.231844,-1.59983 0.410615,-0.52142 0.82123,-1.03014 1.231844,-1.52395 0.410615,-0.49381 0.82123,-0.97263 1.231845,-1.43441 0.410614,-0.46178 0.821229,-0.90641 1.231844,-1.33201 0.410614,-0.4256 0.821229,-0.83205 1.231844,-1.21766 0.410614,-0.38561 0.821229,-0.750242 1.231844,-1.092401 0.410615,-0.342157 0.82123,-0.661703 1.231844,-0.957343 0.410615,-0.295641 0.82123,-0.567232 1.231845,-0.813705 0.410614,-0.246473 0.821229,-0.467676 1.231844,-0.662771 0.410614,-0.195095 0.821229,-0.363926 1.231844,-0.505895 0.410615,-0.141968 0.821229,-0.256913 1.231844,-0.344483 0.410615,-0.08757 0.821229,-0.147598 1.231845,-0.179982 0.410614,-0.03239 0.821229,-0.03696 1.231844,-0.01387 0.410614,0.02309 0.821229,0.07401 1.231844,0.152369 0.410614,0.07836 0.821229,0.184318 1.231844,0.317241 0.410615,0.132924 0.821229,0.292972 1.231844,0.479269 0.410615,0.186298 0.821229,0.399 1.231845,0.637001 0.410614,0.238 0.821229,0.501449 1.231844,0.78902 0.410614,0.28757 0.821229,0.599404 1.231844,0.933966 0.410614,0.334561 0.821229,0.691984 1.231844,1.070544 0.410615,0.37855 0.821229,0.77836 1.231845,1.19751 0.410614,0.41915 0.821228,0.85776 1.231844,1.31375 0.410614,0.45599 0.821229,0.92947 1.231844,1.41821 0.410614,0.48875 0.821229,0.99285 1.231844,1.50996 0.410615,0.51711 0.821229,1.04732 1.231844,1.58817 0.410615,0.54084 0.821229,1.0924 1.231845,1.65213 0.410614,0.55973 0.821228,1.1277 1.231844,1.7013 0.410614,0.57359 0.821229,1.15287 1.231844,1.73519 0.410614,0.58233 0.821228,1.16772 1.231847,1.75355 0.410611,0.58582 0.821231,1.17209 1.231842,1.75617 0.410611,0.58408 0.82123,1.16596 1.231841,1.74305 0.41062,0.5771 0.821231,1.14937 1.23185,1.7143 0.410611,0.56494 0.821222,1.12249 1.231842,1.6702 0.410611,0.54771 0.82123,1.08552 1.231841,1.6111 0.41062,0.52558 0.821231,1.03884 1.23185,1.53757 0.410611,0.49873 0.821222,0.98284 1.231841,1.45025 0.410611,0.46741 0.821231,0.91803 1.231842,1.34993 0.410619,0.4319 0.82123,0.84498 1.23185,1.23751 0.410611,0.39252 0.821222,0.76436 1.231841,1.11398 0.410611,0.34963 0.821231,0.67689 1.231842,0.98049 0.410619,0.30359 0.82123,0.58335 1.231841,0.83819 0.41062,0.25483 0.821231,0.48458 1.23185,0.68837 0.410611,0.20379 0.821231,0.38147 1.231842,0.5324 0.410619,0.15092 0.82123,0.27493 1.231841,0.37163 0.41062,0.0967 0.821231,0.16594 1.23185,0.20756 0.410611,0.0416 0.821231,0.0554 1.231842,0.0416 0.410619,-0.0139 0.82123,-0.0555 1.231841,-0.12472 0.41062,-0.0691 0.821231,-0.16602 1.23185,-0.28992 0.410611,-0.1239 0.821231,-0.27502 1.231842,-0.45253 0.410619,-0.1775 0.821227,-0.38154 1.231837,-0.61107 0.410622,-0.22951 0.821232,-0.48466 1.231852,-0.76414 0.41061,-0.27947 0.82123,-0.58342 1.23185,-0.91035 0.41061,-0.32693 0.82123,-0.67696 1.23184,-1.04841 0.41062,-0.37145 0.82123,-0.76443 1.23185,-1.17707 0.41061,-0.41264 0.82123,-0.84505 1.23184,-1.29517 0.41061,-0.45012 0.82123,-0.91808 1.23184,-1.40166 0.41062,-0.48358 0.82123,-0.98288 1.23185,-1.49559 0.41061,-0.5127 0.82123,-1.03888 1.23184,-1.5761 0.41061,-0.53722 0.82123,-1.08556 1.23184,-1.64249 0.41062,-0.55693 0.82124,-1.1225 1.23186,-1.69415 0.41061,-0.57164 0.821216,-1.14938 1.231846,-1.73062 0.41061,-0.58123 0.82123,-1.16596 1.23184,-1.75158 0.41062,-0.5856 0.82123,-1.17208 1.23185,-1.75682 0.41061,-0.58474 0.82122,-1.16771 1.231844,-1.74633 0.41061,-0.57862 0.82123,-1.15286 1.23184,-1.72017 0.41062,-0.56732 0.82123,-1.12767 1.23185,-1.6786 0.41061,-0.55093 0.82122,-1.09237 1.23184,-1.62197 0.41061,-0.5296 0.82123,-1.04728 1.23184,-1.5508 0.41062,-0.50352 0.82124,-0.9928 1.23185,-1.46573 0.41062,-0.47293 0.82123,-0.92941 1.23185,-1.36751 0.41061,-0.4381 0.82123,-0.85771 1.23184,-1.25705 0.41062,-0.39934 0.82123,-0.77829 1.23184,-1.135297 0.41062,-0.357001 0.82123,-0.691916 1.23185,-1.003378 0.41061,-0.311461 0.82123,-0.59933 1.23184,-0.862459 0.41062,-0.26313 0.82123,-0.501373 1.23184,-0.713811 0.41062,-0.212439 0.82124,-0.398918 1.23185,-0.558761 0.41062,-0.159843 0.82124,-0.292888 1.23185,-0.398702 0.41062,-0.105814 0.82123,-0.184233 1.23184,-0.235069 0.41062,-0.05084 0.82123,-0.07393 1.23185,-0.06933 0.41061,0.0046 0.82123,0.03705 1.23184,0.09704 0.41061,0.05999 0.82123,0.147684 1.23184,0.262527 0.41062,0.114844 0.82123,0.256998 1.23185,0.425666 0.41061,0.168669 0.82123,0.364009 1.23184,0.584989 0.41061,0.220981 0.82123,0.467755 1.23184,0.739067 0.41062,0.271312 0.82123,0.567308 1.23185,0.886519 0.41061,0.31921 0.82123,0.661774 1.23184,1.026019 0.41062,0.36425 0.82124,0.75031 1.23185,1.15633 0.41062,0.40602 0.82123,0.83212 1.23185,1.27627 0.41061,0.44415 0.82122,0.90646 1.23184,1.38476 0.41061,0.4783 0.82123,0.97268 1.23184,1.48084 0.41062,0.50816 0.82123,1.03018 1.23185,1.56365 0.41061,0.53347 0.82122,1.07844 1.23184,1.63243 0.41061,0.55398 0.82123,1.11704 1.23184,1.68658 0.41062,0.56954 0.82123,1.14562 1.23185,1.72561 0.41061,0.58 0.82122,1.16393 1.23184,1.74917 0.41061,0.58525 0.82123,1.17181 1.23185,1.75705 0.41061,0.58524 0.82123,1.16917 1.23185,1.74917 0.41061,0.58 0.82122,1.15605 1.23184,1.72561 0.41061,0.56956 0.82123,1.13258 1.23184,1.68659 0.41062,0.554 0.82123,1.09894 1.23184,1.63242 0.41062,0.5335 0.82123,1.05546 1.23185,1.56366 0.41061,0.50818 0.82123,1.0025 1.23184,1.48084 0.41062,0.47833 0.82123,0.94057 1.23184,1.38476 0.41062,0.44418 0.82123,0.87021 1.23185,1.27626 0.41061,0.40606 0.82123,0.79204 1.23184,1.15633 0.41062,0.36429 0.82123,0.70677 1.23185,1.02603 0.41061,0.31925 0.82123,0.61515 1.23185,0.88651 0.41061,0.27136 0.82123,0.51804 1.23184,0.73907 0.41061,0.22103 0.82123,0.41626 1.23184,0.58499 0.41062,0.16872 0.82123,0.31076 1.23185,0.42566 0.41061,0.1149 0.82123,0.20249 1.23184,0.26253 0.41061,0.0601 0.82123,0.0924 1.23184,0.097 0.41062,0.004 0.82123,-0.0185 1.23185,-0.0693 0.41061,-0.0508 0.82123,-0.12931 1.23184,-0.23507 0.41061,-0.10576 0.82123,-0.23891 1.23184,-0.3987 0.41062,-0.1598 0.82123,-0.34638 1.23185,-0.55876 0.41062,-0.21239 0.82123,-0.45074 1.23185,-0.71381 0.41061,-0.26309 0.82123,-0.55105 1.23184,-0.86246 0.41062,-0.31142 0.82123,-0.64643 1.23185,-1.00338 0.41061,-0.35696 0.82122,-0.736 1.23184,-1.1353 0.41061,-0.3993 0.82123,-0.81898 1.23184,-1.25704 0.41062,-0.43806 0.82123,-0.89463 1.23185,-1.36752 0.41061,-0.4729 0.82122,-0.96224 1.23184,-1.46573 0.41061,-0.50349 0.82123,-1.02122 1.23184,-1.5508 0.41062,-0.52957 0.82123,-1.07106 1.23185,-1.62197 0.41061,-0.5509 0.82122,-1.11129 1.23184,-1.6786 0.41062,-0.5673 0.82123,-1.14156 1.23185,-1.72017 0.41062,-0.57861 0.82123,-1.1616 1.23184,-1.74633 0.41062,-0.58473 0.82123,-1.17122 1.23185,-1.75683 0.41061,-0.5856 0.82123,-1.17034 1.23184,-1.75157 0.41062,-0.58124 0.82123,-1.15896 1.23184,-1.73062 0.41062,-0.57166 0.82123,-1.13721 1.23185,-1.69415 0.41061,-0.55695 0.82123,-1.10524 1.23184,-1.64249 0.41062,-0.53725 0.82123,-1.06337 1.23184,-1.5761 0.41062,-0.51273 0.82123,-1.01197 1.23185,-1.49559 0.41061,-0.48361 0.82123,-0.9515 1.23184,-1.40166 0.41062,-0.45016 0.82124,-0.88249 1.23185,-1.29517 0.41062,-0.41268 0.82123,-0.80558 1.23185,-1.17707 0.41061,-0.371488 0.82123,-0.721436 1.23184,-1.048409 0.41061,-0.326973 0.82123,-0.630832 1.23184,-0.910356 0.41062,-0.279524 0.82123,-0.534568 1.23185,-0.764138 0.41061,-0.229571 0.82123,-0.433513 1.23184,-0.611071 0.41061,-0.177557 0.82123,-0.328571 1.23184,-0.452524 0.41062,-0.123953 0.82123,-0.220683 1.23185,-0.28992 0.41061,-0.06924 0.82123,-0.110817 1.23184,-0.124717 0.41061,-0.0139 0.82123,4.2e-5 1.23184,0.04161 0.41062,0.04156 0.82124,0.110902 1.23185,0.207551 0.41062,0.09665 0.82123,0.220768 1.23185,0.371639 0.41061,0.150871 0.82123,0.328654 1.23184,0.532394 0.41062,0.203741 0.82123,0.433593 1.23185,0.688376 0.41061,0.254784 0.82122,0.534646 1.23184,0.838188 0.41061,0.303542 0.82123,0.630904 1.23184,0.980483 0.41062,0.349574 0.82123,0.721504 1.23185,1.113984 0.41061,0.39249 0.82122,0.80564 1.23184,1.23751 0.41061,0.43187 0.82123,0.88255 1.23184,1.34993 0.41062,0.46738 0.82123,0.95155 1.23185,1.45025 0.41061,0.4987 0.82123,1.01202 1.23185,1.53757 0.41061,0.52555 0.82123,1.06341 1.23184,1.6111 0.41062,0.5477 0.82123,1.10528 1.23184,1.6702 0.41062,0.56492 0.82123,1.13722 1.23185,1.7143 0.41061,0.57709 0.82123,1.15898 1.23184,1.74305 0.41062,0.58409 0.82123,1.17035 1.23184,1.75618 0.41062,0.58583 0.82123,1.17122 1.23185,1.75354 0.41061,0.58233 0.82123,1.16159 1.23184,1.7352 0.41062,0.57361 0.82123,1.14154 1.23184,1.70129 0.41062,0.55975 0.82123,1.11127 1.23185,1.65214 0.41061,0.54087 0.82123,1.07102 1.23185,1.58816 0.41061,0.51715 0.82123,1.02119 1.23184,1.50997 0.41062,0.48876 0.82123,0.96218 1.23185,1.4182 0.41061,0.45603 0.82123,0.89457 1.23184,1.31376 0.41061,0.41919 0.82123,0.81891 1.23184,1.19751 0.41062,0.37859 0.82123,0.73594 1.23185,1.07054 0.41061,0.33461 0.82123,0.64635 1.23184,0.93397 0.41061,0.28762 0.82123,0.55097 1.23184,0.78901 0.41062,0.23806 0.82123,0.45065 1.23185,0.637 0.41061,0.18636 0.82122,0.3463 1.23184,0.47928 0.41062,0.13298 0.82123,0.23883 1.23185,0.31723 0.41062,0.0784 0.82123,0.12923 1.23185,0.15238 0.41061,0.0231 0.82122,0.0184 1.23184,-0.0139 0.41061,-0.0323 0.82123,-0.0925 1.23184,-0.17999 0.41062,-0.0875 0.82123,-0.20257 1.23185,-0.34448 0.41061,-0.14192 0.82122,-0.31086 1.23184,-0.50589 0.41061,-0.19505 0.82123,-0.41635 1.23184,-0.66277 0.41062,-0.24643 0.82123,-0.51812 1.23184,-0.81371 0.41062,-0.29559 0.82123,-0.61523 1.23185,-0.95734 0.41061,-0.34211 0.82123,-0.70684 1.23184,-1.09241 0.41062,-0.38556 0.82124,-0.7921 1.23185,-1.21766 0.41062,-0.42556 0.82123,-0.87026 1.23185,-1.332 0.41061,-0.46175 0.82123,-0.94063 1.23184,-1.43441 0.41062,-0.49378 0.82123,-1.00256 1.23184,-1.52396 0.41062,-0.52139 0.82123,-1.05549 1.23185,-1.59983 0.41061,-0.54434 0.82123,-1.09898 1.23184,-1.66137 0.41062,-0.5624 0.82123,-1.1326 1.23184,-1.70801 0.41062,-0.57542 0.82123,-1.15607 1.23185,-1.73934 0.41061,-0.58328 0.82123,-1.16918 1.23184,-1.75508"
       style="fill:none;fill-opacity:1;stroke:#0000f9;stroke-width:1.56642234;stroke-miterlimit:4;stroke-dasharray:none;stroke-dashoffset:0;stroke-opacity:1"
       inkscape:connector-curvature="0" />
    <text
       xml:space="preserve"
       style="font-size:14.11110115px;line-height:1.25;font-family:'Palatino Linotype';-inkscape-font-specification:'Palatino Linotype';letter-spacing:0px;word-spacing:0px;stroke-width:0.26458299"
       x="20.208282"
       y="38.530754"
       id="text13784-7"><tspan
         sodipodi:role="line"
         id="tspan13782-5"
         style="font-size:14.11110115px;stroke-width:0.26458299"
         x="20.208282"
         y="38.530754">(a)</tspan></text>
    <text
       xml:space="preserve"
       style="font-size:14.1111021px;line-height:1.25;font-family:'Palatino Linotype';-inkscape-font-specification:'Palatino Linotype';letter-spacing:0px;word-spacing:0px;stroke-width:0.26458299"
       x="41.776535"
       y="39.621223"
       id="text13784-7-3"><tspan
         sodipodi:role="line"
         id="tspan13782-5-9"
         style="font-size:14.1111021px;stroke-width:0.26458299"
         x="41.776535"
         y="39.621223">lab frame</tspan></text>
    <text
       xml:space="preserve"
       style="font-size:14.11110115px;line-height:1.25;font-family:'Palatino Linotype';-inkscape-font-specification:'Palatino Linotype';letter-spacing:0px;word-spacing:0px;stroke-width:0.26458299"
       x="164.64261"
       y="40.367077"
       id="text14998-9"><tspan
         sodipodi:role="line"
         id="tspan14996-5"
         style="font-size:14.11110115px;stroke-width:0.26458299"
         x="164.64261"
         y="40.367077">U<tspan
   style="font-size:64.99999762%;baseline-shift:sub"
   id="tspan2061">∞</tspan>=0</tspan></text>
    <text
       xml:space="preserve"
       style="font-size:14.1111021px;line-height:1.25;font-family:'Palatino Linotype';-inkscape-font-specification:'Palatino Linotype';letter-spacing:0px;word-spacing:0px;stroke-width:0.26458299"
       x="150.36267"
       y="132.51674"
       id="text14998-9-1"><tspan
         sodipodi:role="line"
         id="tspan14996-5-7"
         style="font-size:14.1111021px;stroke-width:0.26458299"
         x="150.36267"
         y="132.51674">U<tspan
   style="font-size:9.17221546px;baseline-shift:sub;stroke-width:0.26458299"
   id="tspan2061-3">∞</tspan>=U-c</tspan></text>
    <path
       style="fill:none;fill-opacity:1;stroke:#ff0400;stroke-width:1.245;stroke-linecap:butt;stroke-linejoin:miter;stroke-miterlimit:4;stroke-dasharray:none;stroke-opacity:1;marker-end:"
       d="M 160.56032,196.39175 H 85.417675"
       id="path12091-0-7"
       inkscape:connector-curvature="0" />
    <text
       xml:space="preserve"
       style="font-style:normal;font-variant:normal;font-weight:normal;font-stretch:normal;font-size:9.8777771px;line-height:1.25;font-family:Symbol;-inkscape-font-specification:Symbol;letter-spacing:0px;word-spacing:0px;stroke-width:0.26458332;fill:#ff0000;"
       x="119.07217"
       y="191.96907"
       id="text3775"><tspan
         sodipodi:role="line"
         id="tspan3773"
         x="119.07217"
         y="191.96907"
         style="font-size:14.11111069px;stroke-width:0.26458332;fill:#ff0000;">l</tspan></text>
    <path
       id="path3992"
       title="cos(x)"
       d="m 40.068899,142.62756 c 0.139046,0 0.278091,0.003 0.417136,0.009 0.139046,0.006 0.278092,0.015 0.417138,0.027 0.139046,0.012 0.278091,0.027 0.417137,0.0449 0.139046,0.018 0.278092,0.0389 0.417137,0.0628 0.139046,0.0239 0.278092,0.0508 0.417138,0.0807 0.139045,0.0299 0.278091,0.0627 0.417137,0.0984 0.139046,0.0357 0.278091,0.0745 0.417137,0.11609 0.139046,0.0416 0.278092,0.0862 0.417138,0.13364 0.139045,0.0475 0.278091,0.0978 0.417137,0.15105 0.139046,0.0533 0.278091,0.10936 0.417136,0.16832 0.139046,0.059 0.278092,0.12077 0.417138,0.18541 0.139045,0.0646 0.278091,0.13209 0.417137,0.20232 0.139046,0.0703 0.278091,0.14326 0.417137,0.21903 0.139046,0.0758 0.278092,0.1543 0.417138,0.23553 0.139045,0.0812 0.278091,0.16517 0.417137,0.25178 0.139046,0.0866 0.278091,0.17589 0.417137,0.26779 0.139046,0.0919 0.278092,0.18642 0.417137,0.28352 0.139046,0.0971 0.278092,0.19678 0.417138,0.29898 0.139046,0.1022 0.278091,0.20694 0.417137,0.31414 0.139046,0.10721 0.278091,0.21688 0.417136,0.32899 0.139046,0.11209 0.278092,0.22661 0.417138,0.34349 0.139046,0.11689 0.278091,0.23614 0.417137,0.35768 0.139046,0.12155 0.278092,0.2454 0.417137,0.37149 0.139046,0.1261 0.278092,0.25443 0.417138,0.38494 0.139045,0.13052 0.278091,0.26321 0.417137,0.39801 0.139046,0.1348 0.278092,0.27172 0.417137,0.41067 0.139046,0.13896 0.278092,0.27996 0.417138,0.42293 0.139045,0.14297 0.278091,0.28792 0.417137,0.43477 0.139046,0.14684 0.278091,0.29559 0.417136,0.44616 0.139046,0.15058 0.278092,0.30298 0.417138,0.45714 0.139045,0.15414 0.278091,0.31005 0.417137,0.46762 0.139046,0.15758 0.278091,0.31683 0.417137,0.47767 0.139046,0.16084 0.278092,0.32328 0.417138,0.48722 0.139045,0.16395 0.278091,0.32942 0.417137,0.49631 0.139046,0.16688 0.278091,0.33521 0.417137,0.50487 0.139046,0.16967 0.278092,0.34069 0.417137,0.51296 0.139046,0.17228 0.278092,0.34581 0.417138,0.52052 0.139046,0.17471 0.278091,0.3506 0.417137,0.52757 0.139046,0.17697 0.278091,0.35503 0.417137,0.53409 0.139045,0.17905 0.278091,0.35911 0.417137,0.54008 0.139046,0.18096 0.278091,0.36283 0.417137,0.54552 0.139046,0.18269 0.278092,0.3662 0.417137,0.55043 0.139046,0.18423 0.278092,0.3692 0.417138,0.55479 0.139046,0.18559 0.278091,0.37182 0.417137,0.55859 0.139046,0.18677 0.278092,0.37408 0.417137,0.56184 0.139046,0.18776 0.278092,0.37597 0.417138,0.56453 0.139045,0.18856 0.278091,0.37748 0.417137,0.56665 0.139046,0.18918 0.278092,0.37861 0.417136,0.56821 0.139046,0.18961 0.278092,0.37937 0.417138,0.56921 0.139045,0.18983 0.278091,0.37974 0.417137,0.56962 0.139046,0.18989 0.278092,0.37975 0.417137,0.56949 0.139046,0.18975 0.278092,0.37938 0.417138,0.56879 0.139045,0.18941 0.278091,0.37861 0.417137,0.5675 0.139046,0.18889 0.278091,0.37748 0.417137,0.56566 0.139046,0.18818 0.278092,0.37596 0.417138,0.56325 0.139045,0.18729 0.278091,0.37408 0.417137,0.56028 0.139046,0.18621 0.278091,0.37183 0.417137,0.55677 0.139046,0.18494 0.278091,0.36919 0.417137,0.55268 0.139045,0.18348 0.278091,0.36619 0.417137,0.54804 0.139046,0.18185 0.278091,0.36284 0.417137,0.54287 0.139046,0.18004 0.278092,0.35911 0.417137,0.53715 0.139046,0.17804 0.278092,0.35503 0.417138,0.5309 0.139046,0.17586 0.278091,0.35059 0.417137,0.5241 0.139046,0.17352 0.278092,0.34582 0.417137,0.51681 0.139046,0.17099 0.278092,0.34068 0.417138,0.50898 0.139045,0.1683 0.278091,0.33521 0.417137,0.50065 0.139046,0.16544 0.278092,0.32941 0.417136,0.49183 0.139046,0.16242 0.278092,0.32327 0.417138,0.4825 0.139046,0.15923 0.278091,0.31682 0.417137,0.47271 0.139046,0.15589 0.278092,0.31005 0.417137,0.46244 0.139046,0.15238 0.278092,0.30297 0.417138,0.4517 0.139045,0.14873 0.278091,0.29559 0.417137,0.44052 0.139046,0.14493 0.278092,0.28792 0.417137,0.4289 0.139046,0.14099 0.278092,0.27995 0.417138,0.41686 0.139045,0.13689 0.278091,0.27171 0.417137,0.40438 0.139046,0.13268 0.278091,0.2632 0.417137,0.39153 0.139045,0.12832 0.278091,0.25442 0.417137,0.37826 0.139045,0.12384 0.278091,0.2454 0.417137,0.36463 0.139046,0.11923 0.278091,0.23613 0.417137,0.35063 0.139046,0.11451 0.278092,0.22662 0.417138,0.33629 0.139045,0.10966 0.278091,0.21688 0.417137,0.3216 0.139046,0.10472 0.278091,0.20693 0.417137,0.30659 0.139046,0.0997 0.278092,0.19678 0.417137,0.29129 0.139046,0.0945 0.278092,0.18643 0.417138,0.2757 0.139046,0.0893 0.278091,0.17588 0.417137,0.25981 0.139046,0.0839 0.278092,0.16517 0.417137,0.24368 0.139045,0.0785 0.278091,0.1543 0.417137,0.22731 0.139046,0.073 0.278091,0.14326 0.417137,0.21071 0.139046,0.0675 0.278092,0.13208 0.417137,0.19389 0.139046,0.0618 0.278092,0.12077 0.417138,0.17688 0.139045,0.0561 0.278091,0.10935 0.417137,0.15971 0.139046,0.0503 0.278092,0.0978 0.417137,0.14236 0.139046,0.0445 0.278092,0.0862 0.417138,0.12488 0.139045,0.0387 0.278091,0.0745 0.417137,0.10727 0.139046,0.0328 0.278091,0.0627 0.417137,0.0896 0.139045,0.0269 0.278091,0.0508 0.417137,0.0718 0.139045,0.0209 0.278091,0.0389 0.417137,0.0539 0.139046,0.015 0.278092,0.0269 0.417137,0.036 0.139046,0.009 0.278092,0.015 0.417138,0.018 0.139045,0.003 0.278091,0.003 0.417137,0 0.139046,-0.003 0.278091,-0.009 0.417137,-0.018 0.139046,-0.009 0.278092,-0.021 0.417138,-0.036 0.139045,-0.015 0.278091,-0.0329 0.417137,-0.0539 0.139046,-0.0209 0.278091,-0.0448 0.417137,-0.0718 0.139046,-0.0269 0.278092,-0.0567 0.417137,-0.0896 0.139045,-0.0328 0.278091,-0.0686 0.417137,-0.10727 0.139046,-0.0387 0.278091,-0.0803 0.417137,-0.12488 0.139046,-0.0445 0.278092,-0.092 0.417137,-0.14236 0.139046,-0.0503 0.278092,-0.1036 0.417138,-0.15971 0.139046,-0.0561 0.278091,-0.11508 0.417137,-0.17688 0.139046,-0.0618 0.278092,-0.12645 0.417137,-0.19389 0.139046,-0.0674 0.278092,-0.13769 0.417138,-0.21071 0.139045,-0.073 0.278091,-0.1488 0.417137,-0.22731 0.139046,-0.0785 0.278092,-0.15975 0.417137,-0.24368 0.139045,-0.0839 0.278091,-0.17055 0.417137,-0.25981 0.139045,-0.0893 0.278091,-0.18118 0.417137,-0.2757 0.139046,-0.0945 0.278092,-0.19162 0.417137,-0.29129 0.139046,-0.0997 0.278092,-0.20188 0.417138,-0.30659 0.139045,-0.10472 0.278091,-0.21194 0.417137,-0.3216 0.139046,-0.10967 0.278091,-0.22178 0.417137,-0.33629 0.139046,-0.1145 0.278092,-0.2314 0.417138,-0.35063 0.139045,-0.11922 0.278092,-0.2408 0.417137,-0.36463 0.139045,-0.12383 0.27809,-0.24995 0.417135,-0.37826 0.139044,-0.12832 0.278089,-0.25885 0.417143,-0.39153 0.139045,-0.13267 0.27809,-0.26749 0.417135,-0.40438 0.139045,-0.1369 0.278089,-0.27588 0.417134,-0.41686 0.139045,-0.14098 0.27809,-0.28398 0.417135,-0.4289 0.139054,-0.14492 0.278099,-0.29179 0.417143,-0.44052 0.139045,-0.14873 0.27809,-0.29932 0.417135,-0.4517 0.139045,-0.15239 0.27809,-0.30656 0.417135,-0.46244 0.139045,-0.15588 0.27809,-0.31348 0.417143,-0.47271 0.139045,-0.15922 0.27809,-0.32009 0.417135,-0.4825 0.139045,-0.16242 0.27809,-0.32639 0.417135,-0.49183 0.139044,-0.16544 0.278089,-0.33235 0.417134,-0.50065 0.139054,-0.1683 0.278099,-0.33799 0.417144,-0.50898 0.139045,-0.17099 0.27809,-0.34329 0.417134,-0.51681 0.139045,-0.17351 0.27809,-0.34824 0.417135,-0.5241 0.139045,-0.17587 0.278099,-0.35286 0.417144,-0.5309 0.139044,-0.17804 0.278094,-0.35711 0.417134,-0.53715 0.13905,-0.18003 0.27809,-0.36102 0.417127,-0.54287 0.13905,-0.18185 0.27809,-0.36456 0.41714,-0.54804 0.139047,-0.18348 0.278097,-0.36775 0.417137,-0.55268 0.13905,-0.18494 0.278087,-0.37056 0.417137,-0.55677 0.13904,-0.18619 0.27809,-0.37299 0.417127,-0.56028 0.13905,-0.18729 0.2781,-0.37507 0.41715,-0.56325 0.13904,-0.18818 0.27809,-0.37677 0.41713,-0.56566 0.13905,-0.18889 0.27809,-0.37809 0.41714,-0.5675 0.13904,-0.18941 0.27808,-0.37904 0.41713,-0.56879 0.13905,-0.18974 0.2781,-0.3796 0.41714,-0.56949 0.13905,-0.18988 0.27809,-0.37979 0.41714,-0.56962 0.13904,-0.18984 0.27809,-0.3796 0.41713,-0.56921 0.13905,-0.1896 0.2781,-0.37903 0.41715,-0.56821 0.13904,-0.18917 0.27809,-0.37809 0.41713,-0.56665 0.13905,-0.18857 0.27809,-0.37677 0.41714,-0.56453 0.13904,-0.18776 0.27809,-0.37507 0.41714,-0.56184 0.13904,-0.18677 0.27809,-0.373 0.41713,-0.55859 0.13905,-0.18559 0.27809,-0.37055 0.41714,-0.55479 0.13904,-0.18423 0.27809,-0.36774 0.41713,-0.55043 0.13905,-0.1827 0.2781,-0.36456 0.41715,-0.54552 0.13904,-0.18097 0.27809,-0.36103 0.41713,-0.54008 0.13905,-0.17906 0.27809,-0.35712 0.41714,-0.53409 0.13904,-0.17697 0.27809,-0.35286 0.41714,-0.52757 0.13904,-0.17471 0.27809,-0.34824 0.41713,-0.52052 0.13905,-0.17227 0.27809,-0.34328 0.41714,-0.51296 0.13904,-0.16967 0.27809,-0.33799 0.41713,-0.50487 0.13906,-0.1669 0.2781,-0.33236 0.41715,-0.49631 0.13904,-0.16394 0.27809,-0.32638 0.41713,-0.48722 0.13905,-0.16085 0.27809,-0.32009 0.41714,-0.47767 0.13904,-0.15757 0.27809,-0.31347 0.41714,-0.46762 0.13904,-0.15416 0.27809,-0.30656 0.41713,-0.45714 0.13905,-0.15057 0.27809,-0.29931 0.41714,-0.44616 0.13904,-0.14685 0.27809,-0.29179 0.41713,-0.43477 0.13906,-0.14297 0.2781,-0.28397 0.41715,-0.42293 0.13904,-0.13896 0.27809,-0.27587 0.41713,-0.41067 0.13905,-0.1348 0.27809,-0.26749 0.41714,-0.39801 0.13904,-0.13051 0.27809,-0.25884 0.41714,-0.38494 0.13904,-0.12609 0.27809,-0.24994 0.41713,-0.37149 0.13905,-0.12155 0.27809,-0.24079 0.41714,-0.35768 0.13904,-0.11688 0.27809,-0.23139 0.41713,-0.34349 0.13906,-0.11211 0.2781,-0.22178 0.41715,-0.32899 0.13904,-0.10721 0.27809,-0.21193 0.41713,-0.31414 0.13905,-0.1022 0.27809,-0.20188 0.41714,-0.29898 0.13904,-0.0971 0.27809,-0.19162 0.41714,-0.28352 0.13904,-0.0919 0.27809,-0.18118 0.41713,-0.26779 0.13905,-0.0866 0.27809,-0.17055 0.41714,-0.25178 0.13904,-0.0812 0.27809,-0.15975 0.41713,-0.23553 0.13906,-0.0758 0.2781,-0.14879 0.41715,-0.21903 0.13904,-0.0703 0.27809,-0.13769 0.41713,-0.20232 0.13905,-0.0646 0.27809,-0.12645 0.41714,-0.18541 0.13904,-0.059 0.2781,-0.11508 0.41714,-0.16832 0.13905,-0.0533 0.27809,-0.10359 0.41713,-0.15105 0.13905,-0.0475 0.27809,-0.092 0.41714,-0.13364 0.13904,-0.0416 0.27809,-0.0803 0.41714,-0.11609 0.13905,-0.0357 0.27809,-0.0685 0.41714,-0.0984 0.13904,-0.0299 0.27809,-0.0567 0.41713,-0.0807 0.13905,-0.0239 0.27809,-0.0448 0.41714,-0.0628 0.13904,-0.018 0.2781,-0.0329 0.41714,-0.0449 0.13905,-0.012 0.27809,-0.021 0.41714,-0.027 0.13904,-0.006 0.27808,-0.009 0.41713,-0.009"
       style="fill:none;fill-opacity:1;stroke:#ff0400;stroke-width:1.272;stroke-miterlimit:4;stroke-dasharray:none;stroke-dashoffset:0;stroke-opacity:1;marker-start:"
       inkscape:connector-curvature="0" />
    <text
       xml:space="preserve"
       style="font-style:normal;font-variant:normal;font-weight:normal;font-stretch:normal;font-size:9.8777771px;line-height:1.25;font-family:Symbol;-inkscape-font-specification:Symbol;letter-spacing:0px;word-spacing:0px;fill:#ff0000;stroke-width:0.26458332"
       x="76.076164"
       y="172.30424"
       id="text3775-9"><tspan
         sodipodi:role="line"
         id="tspan3773-0"
         x="76.076164"
         y="172.30424"
         style="font-size:14.11111069px;fill:#ff0000;stroke-width:0.26458332">L</tspan></text>
  </g>
</svg>
